<?xml version="1.0" encoding="UTF-8"?>
<svg xmlns="http://www.w3.org/2000/svg" viewBox="0 0 103.02 91.54">
  <defs>
    <style>
      .cls-1 {
        fill: #abc950;
      }

      .cls-2 {
        mix-blend-mode: screen;
      }

      .cls-2, .cls-3, .cls-4, .cls-5 {
        opacity: .5;
      }

      .cls-2, .cls-6, .cls-4 {
        fill: #64413f;
      }

      .cls-7 {
        fill: #2c3352;
      }

      .cls-8 {
        fill: #7c564e;
      }

      .cls-9 {
        fill: #f7fafa;
      }

      .cls-10 {
        fill: #fff;
      }

      .cls-11 {
        fill: #657331;
      }

      .cls-12 {
        fill: #e55757;
      }

      .cls-13 {
        isolation: isolate;
      }

      .cls-3, .cls-14, .cls-4, .cls-5 {
        mix-blend-mode: multiply;
      }

      .cls-3, .cls-15 {
        fill: #f4d692;
      }

      .cls-16 {
        fill: #b7a16e;
      }

      .cls-17 {
        fill: #94ad3d;
      }
    </style>
  </defs>
  <g class="cls-13">
    <g id="Layer_2" data-name="Layer 2">
      <g id="_1" data-name="1">
        <g>
          <path class="cls-17" d="M70,78.94c-.11.3-.44.7-.97,1.14-.14.11-.29.23-.45.36-.86.63-2.1,1.33-3.72,2-.29.12-.6.24-.92.36-.53.2-1.1.39-1.71.58-1.25.39-2.55.64-3.8.81-.36.05-.72.09-1.07.12-3.1.29-5.62.02-5.62-.31,0-.36,1.36-2.27,2.15-3.81.09-.17.17-.34.24-.5.17-.39.29-.73.32-1,.12-1.36.12-10.37.12-10.37,0,0,12.84,1.73,12.71,3.58-.12,1.85,3.09,6.05,2.72,7.04Z"/>
          <g class="cls-14">
            <path class="cls-17" d="M69.04,80.09c-.14.11-.29.23-.45.36-1.13-.86-2.6-1.74-3.4-1.37-.81.37-.63,2.07-.32,3.37-.29.12-.6.24-.92.36-1.36-1.87-3.09-3.84-3.76-3.72-.98.18-1.67,2.29-1.75,5.1-.36.05-.72.09-1.07.12-1.21-2.55-2.56-3.65-3.47-4.12.09-.17.17-.34.24-.5,1.01.51,2.46,1.7,3.74,4.42.09-2.76.76-5.3,2.21-5.57,1.07-.2,2.98,2.12,4.16,3.73-.29-1.37-.43-3.18.71-3.71,1.14-.53,2.92.6,4.09,1.52Z"/>
          </g>
          <path class="cls-17" d="M38.4,46.48c-10.24,2.1-26.54-3.21-26.54-3.21,0,0,.25-4.69-.37-5.18-.62-.49-2.59-.62-3.21-.25-.62.37-.86,4.07-.86,4.07,0,0-4.32-2.35-4.94-2.1-.62.25-1.36,2.47-1.36,2.47l3.95,2.84S.02,46.24.02,46.61s-.12,3.09.25,3.58c.37.49,3.58.37,3.58.37,0,0-3.09,2.72-3.09,3.09s.74,2.34,1.36,2.59c.62.25,4.07-.86,4.07-.86,0,0,3.46,1.97,12.84,1.36,9.38-.62,20.24-7.9,20.24-7.9l-.86-2.35Z"/>
          <path class="cls-1" d="M44.11,38.95l-.2.15c-.52-.3-1.04-.61-1.55-.95-2.96-1.97-2.34-8.76-1.6-14.81.74-6.05-1.36-15.18-4.81-17.28-2.47-5.55-5.06-8.15-11.6-4.07-5.06,0-12.59,2.84-12.59,2.84,0,0-2.84-.98-3.95-.12s-.27,28.59,5.55,31.84c4.2,2.34,18.14-.49,23.32,7.77,0,0,0,0,0,0,1.33,2.41.12,6.6.12,6.6,0,0,8.79,5.99,9.07,5.34.28-.65,6.94-10.37,6.94-10.37l-8.7-6.94Z"/>
          <path class="cls-17" d="M25.04,39.23c3.33.37,5.68-.28,11.63,5.09.12-2.41-7.93-10.83-7.93-10.83l-3.7,5.74Z"/>
          <path class="cls-17" d="M26.31,36.55c.17.73.7,1.47,1.44,2.21-5.62-1.28-11.83-.78-14.4-2.21-2.51-1.4-4.09-7.33-4.99-13.7-.43-3.04-.71-6.18-.86-8.97-.26-4.97-.11-8.86.29-9.18,1.11-.86,3.95.12,3.95.12-.24.24-.65,2.39-.5,7.18.03,1.15.1,2.45.21,3.91.1,1.37.24,2.89.43,4.56.04.33.07.67.11,1.01.09.79.22,1.54.38,2.26,2.14,9.68,9.47,9.54,18.18,1.33-.06.06-4.97,8.46-4.24,11.48Z"/>
          <path class="cls-9" d="M32.36,15.26c0,4.12-2.51,7.47-5.62,7.47s-5.62-3.34-5.62-7.47,2.51-7.47,5.62-7.47,5.62,3.34,5.62,7.47Z"/>
          <path class="cls-7" d="M27.17,15.5c0,2.04-1.24,3.69-2.78,3.69s-2.78-1.65-2.78-3.69,1.24-3.69,2.78-3.69,2.78,1.65,2.78,3.69Z"/>
          <path class="cls-10" d="M23.66,15.35c0,.68-.41,1.23-.93,1.23s-.93-.55-.93-1.23.41-1.23.93-1.23.93.55.93,1.23Z"/>
          <path class="cls-9" d="M12.37,23.74c-.38,1.07-.92,1.73-1.57,1.79-.88.08-1.78-.98-2.44-2.68-.48-1.23-.84-2.78-.99-4.5-.15-1.66-.09-3.2.14-4.47.33-1.88,1.03-3.14,1.94-3.22.62-.06,1.25.45,1.8,1.35.03,1.15.1,2.45.21,3.91.1,1.37.24,2.89.43,4.56.04.33.07.67.11,1.01.09.79.22,1.54.38,2.26Z"/>
          <path class="cls-7" d="M11.88,20.48c-.26.89-.74,1.49-1.33,1.54-1.02.09-2-1.48-2.18-3.51-.19-2.03.49-3.75,1.51-3.84.58-.05,1.16.44,1.57,1.25.1,1.37.24,2.89.43,4.56Z"/>
          <path class="cls-10" d="M9.96,17.76c0,.68-.21,1.23-.46,1.23s-.46-.55-.46-1.23.21-1.23.46-1.23.46.55.46,1.23Z"/>
          <path class="cls-11" d="M30.61,27.29c-.13,3.21-1.09,6.79-2.38,9.19-.34.63-.7,1.17-1.07,1.61-.14.17-.29.32-.44.45-.54.5-1.11.76-1.67.69-.64-.08-1.28-.53-1.91-1.2-1.76-1.88-3.33-5.43-3.93-6.92,3.15.06,7.08-2.03,11.34-6.04,0,0,0,0,0,0,.07.71.09,1.46.06,2.23Z"/>
          <path class="cls-12" d="M30.61,27.29c-.13,3.21-1.09,6.79-2.38,9.19-1.04.83-2.04,1.25-2.54.43-1.28-2.11-1.11-6.31,4.92-9.62Z"/>
          <path class="cls-15" d="M86.66,70.18c-.08,1-6.45,3.88-15.98,3.34-.2-.01-.4-.02-.6-.04-2.48-.17-5.16-.58-7.99-1.3-1.1-.28-2.21-.61-3.35-.99h0c-.18-.06-.36-.12-.54-.19-2.49-.87-5.07-1.99-7.7-3.42-2.28-1.24-4.22-2.51-5.86-3.77-.15-.12-.3-.23-.44-.35-9.33-7.42-8.54-14.56-7.39-14.77,2.77-.5,5.92,4.1,7.98,4.76.44.15.83.11,1.16-.19,1.85-1.73,4.07-4.32,4.07-4.32l31.72,14.81s5.06,4.81,4.94,6.42Z"/>
          <g>
            <path class="cls-16" d="M57.05,53.01c-1.16,2.8-3.78,4.27-6.32,5.7-2.35,1.32-4.78,2.68-6.09,5.12-.15-.12-.3-.23-.44-.35,1.38-2.51,3.85-3.9,6.26-5.25,2.57-1.44,5-2.81,6.08-5.43l.51.21Z"/>
            <path class="cls-16" d="M58.74,71.19h0c-.18-.06-.36-.12-.54-.19,1.69-2.8,4.15-8.01,3.75-14.14l.56-.04c.41,6.19-2.04,11.47-3.76,14.36Z"/>
            <path class="cls-16" d="M76.57,67.22c0,.22-.17.36-.96.97-1.3,1.02-3.77,2.95-4.94,5.33-.2-.01-.4-.02-.6-.04,1.18-2.59,3.81-4.65,5.19-5.73.34-.26.7-.54.77-.63,0,.01-.02.05-.02.1h.56Z"/>
          </g>
          <path class="cls-3" d="M86.66,70.18c-.08,1-6.45,3.88-15.98,3.34-.2-.01-.4-.02-.6-.04-2.48-.17-5.16-.58-7.99-1.3,4.7-.85,8.16-2.45,4.58-5.46-5.65-4.74-15.19-8.26-21.89-13.26.44.15.83.11,1.16-.19,1.85-1.73,4.07-4.32,4.07-4.32l31.72,14.81s5.06,4.81,4.94,6.42Z"/>
          <path class="cls-17" d="M84.57,69.32c5.68.99,7.41.74,7.9-.62.49-1.36-2.84-3.09-3.33-3.95-.49-.86-9.63-1.23-9.63-1.23l2.22,4.69,2.84,1.11Z"/>
          <path class="cls-1" d="M102.95,76.52c0,.19-.01.39-.03.59-.03.6-.06,1.25-.09,1.96-.04,1.01-.17,2.06-.35,3.12-.03.2-.07.41-.11.61-.01.05-.02.1-.03.15-.04.18-.07.36-.11.54-.45,2.04-1.1,3.97-1.83,5.44-.09.17-.17.34-.26.5,0,.01-.01.03-.02.04-.1.18-.2.34-.3.5-.59.92-1.21,1.5-1.79,1.57-1.38.16-1.91-1.29-2.46-2.69-.09-.22-.17-.44-.26-.64-.21-.48-.44-.91-.73-1.23-1.23-1.36-13.08-6.42-15.55-9.01-1.46-1.53-4.21-7.04-6.3-11.38-1.44-3-2.56-5.45-2.71-5.65,0,0,7.04,0,11.72,2.84,2.03,4.9,4.53,7.37,4.68,7.52,0,0,0,0,0,0,0,0,14.19-1.23,15.55-.49,1.12.61,1.15,2.15.98,5.73Z"/>
          <path class="cls-17" d="M81.73,63.76c-4.69-2.84-11.72-2.84-11.72-2.84.15.2,1.27,2.65,2.71,5.65,4.92-1.1,13.41,4.52,13.7,4.71-.16-.15-2.65-2.62-4.68-7.52Z"/>
          <g class="cls-14">
            <path class="cls-1" d="M85.55,79.24c-.94,0-2.01-.19-2.71-.41-1.04-.33-1.56-.77-1.51-1.27.15-1.34,3.07-2.34,3.4-2.45.15-.05.3.03.35.18.05.15-.03.3-.18.35-.95.32-2.94,1.22-3.02,1.99-.01.12.28.41,1.12.68,1.61.51,3.76.52,4.03.02.06-.11.04-.15.02-.18-.22-.38-1.7-.61-2.63-.64-.15,0-.27-.13-.27-.29,0-.15.14-.28.29-.27.44.02,2.64.13,3.09.93.09.15.16.41-.02.72-.27.48-1.07.66-1.97.66Z"/>
          </g>
          <g class="cls-14">
            <path class="cls-1" d="M100.11,89.46c-.1.18-.2.34-.3.5l-4.25-1.12c-.09-.22-.17-.44-.26-.64l4.82,1.26Z"/>
            <path class="cls-1" d="M102.34,82.95c-.04.18-.07.36-.11.54-1.85-.46-4.38-.8-5.34.44-.2.26-.26.54-.2.89.24,1.36,2.27,3.05,3.71,4.11-.09.17-.17.34-.26.5-1.52-1.1-3.71-2.94-4-4.51-.09-.5.01-.95.31-1.33,1.14-1.47,3.91-1.13,5.89-.64Z"/>
            <path class="cls-1" d="M99.02,78.78c-.14.48,1.46,1.93,3.45,3.41-.03.2-.07.41-.11.61-1.87-1.36-4.15-3.24-3.88-4.18.27-.88,2.62-1.63,4.46-2.09,0,.19-.01.39-.03.59-1.91.49-3.74,1.13-3.9,1.67Z"/>
          </g>
          <path class="cls-6" d="M90.67,63.85l-28.14-8.89-8.47-10.45-4.21-5.2,1.85-3.8c.1-.03,1.4-.01,3.36.08,2.29.1,5.49.31,8.74.67.19.02.39.04.59.06,3.95.46,7.92,1.14,10.36,2.15,1.11.46,2.26,1.33,3.41,2.48.13.13.26.26.39.4,1.44,1.51,2.88,3.42,4.23,5.44,3.53,5.29,6.41,11.33,7.02,12.89,0,.03.02.06.03.08.93,2.41.83,4.07.83,4.07Z"/>
          <path class="cls-4" d="M90.67,63.85l-28.14-8.89-8.47-10.45.51-2.98c7.12,10.85,24.84,16,35.24,18.15,0,.03.02.06.03.08.93,2.41.83,4.07.83,4.07Z"/>
          <path class="cls-4" d="M79.47,59.07l-.54.12c-.03-.12-2.48-10.98-4.88-15.88-2.24-.16-6.95-1.42-8.35-2.26-3.03.91-6.74,2.51-8.97,5.21l-.43-.36c2.26-2.74,5.89-4.37,8.93-5.31-.5-.82-1.07-2.88-1.42-4.31.19.02.39.04.59.06.44,1.74,1.01,3.63,1.4,4.08,0,0,0,0,0,.01.1.11.33.24.67.39,1.56.69,5.25,1.7,7.28,1.91h0c.24.03.46.04.64.04.16,0,.29,0,.4-.03.84-.14,2.24-1,3.37-1.78.13.13.26.26.39.4-1.18.83-2.71,1.77-3.67,1.93-.06.01-.14.02-.22.02,2.38,5.04,4.69,15.26,4.8,15.75Z"/>
          <path class="cls-8" d="M94.01,64.13c-.18,1.21-1.49,1.87-7.44,1.17-.21-.03-.44-.06-.66-.08-2.4-.3-5.49-.81-9.48-1.56-.83-.16-1.66-.34-2.51-.56-.18-.04-.37-.09-.55-.14-5.17-1.39-10.61-3.88-15.58-6.98-.16-.1-.33-.2-.49-.31-4.33-2.75-8.27-5.97-11.3-9.34-.14-.15-.27-.3-.41-.46-2.08-2.38-3.7-4.83-4.67-7.24-.14-.33-.26-.67-.37-1-.13-.37-.23-.73-.32-1.1-1.66-6.75,1.8-11.68,5.37-12.61.24-.06.48-.11.71-.13.45-.05.89-.03,1.32.06,4.77.98,2.68,5,4.91,11.39.2.56.39,1.13.59,1.69.1.28.2.56.3.84,1.47,4.04,3.32,8.05,7.95,11.92.15.12.3.25.46.37,1.63,1.31,3.6,2.6,5.98,3.88,2.31,1.23,4.82,2.23,7.34,3.08.18.06.36.12.54.18,3.82,1.24,7.62,2.15,10.77,2.97.22.06.43.11.64.17,4.26,1.14,7.15,2.15,6.9,3.78Z"/>
          <g class="cls-5">
            <path class="cls-8" d="M45.58,45.88c.13.16.27.31.41.46,4.04-1.36,6.32-5.67,7.43-8.56-.1-.28-.2-.56-.3-.84-1,2.8-3.31,7.66-7.54,8.93Z"/>
            <path class="cls-8" d="M57.29,55.67c.16.11.33.21.49.31,2.14-1.81,3.41-4.35,4.05-5.91-.16-.12-.31-.25-.46-.37-.61,1.53-1.91,4.18-4.09,5.97Z"/>
            <path class="cls-8" d="M73.36,62.97c.19.05.37.1.55.14,1.08-2.15,1.57-4.38,1.78-5.9-.18-.06-.36-.12-.54-.18-.21,1.5-.69,3.78-1.79,5.94Z"/>
            <path class="cls-8" d="M87.11,60.35c-.21-.06-.42-.11-.64-.17.7,2.29.51,3.94-.56,5.05.23.03.45.06.66.08,1.16-1.47.97-3.43.54-4.96Z"/>
            <path class="cls-8" d="M45.59,23.94c-1.61,2.89-3.78,7.58-5.05,13.7.11.33.23.67.37,1,1.29-6.8,3.72-11.9,5.4-14.83-.24.02-.48.07-.71.13Z"/>
          </g>
          <path class="cls-2" d="M82.79,46.81c-8.71-.23-19.62-3.54-27.72-11.2,2.29.1,5.49.31,8.74.67.19.02.39.04.59.06,3.95.46,7.92,1.14,10.36,2.15,1.11.46,2.26,1.33,3.41,2.48.13.13.26.26.39.4,1.44,1.51,2.88,3.42,4.23,5.44Z"/>
          <path class="cls-1" d="M48.28,49.57s-6.91,14.32-14.44,20.49c-7.53,6.17-12.84,5.8-12.84,5.8,0,0-2.59,2.22-3.46,2.84-.86.62-2.35,0-2.59-.99-.25-.99.99-4.07.99-4.07,0,0-2.84,1.97-3.33,1.85-.49-.12-2.59-2.47-2.22-3.33.37-.86,2.72-2.84,2.72-2.84,0,0-3.46.99-3.83.37s-.62-2.47-.25-3.09c.37-.62,5.06-2.1,5.06-2.1,0,0-1.36-3.95-1.11-4.44.25-.49,1.97-.62,2.72-.62s2.59,2.47,2.59,2.47c0,0,9.87-2.47,15.92-5.43s7.78-6.66,7.78-6.66l6.29-.25Z"/>
        </g>
      </g>
    </g>
  </g>
</svg>