<?xml version="1.0" encoding="UTF-8"?>
<svg xmlns="http://www.w3.org/2000/svg" viewBox="0 0 97.73 136.88">
  <defs>
    <style>
      .cls-1 {
        fill: #abc950;
      }

      .cls-2 {
        fill: #fc6713;
      }

      .cls-3 {
        fill: #a15b33;
      }

      .cls-3, .cls-4 {
        opacity: .4;
      }

      .cls-3, .cls-4, .cls-5 {
        mix-blend-mode: multiply;
      }

      .cls-6 {
        fill: #d4ab53;
      }

      .cls-7 {
        fill: #2c3352;
      }

      .cls-8 {
        fill: #7c564e;
      }

      .cls-9 {
        fill: #f7fafa;
      }

      .cls-10 {
        fill: #fff;
      }

      .cls-11 {
        fill: #5fb1a8;
      }

      .cls-12 {
        fill: #657331;
      }

      .cls-13 {
        fill: #e55757;
      }

      .cls-14 {
        isolation: isolate;
      }

      .cls-15 {
        fill: #fcbb4b;
      }

      .cls-4, .cls-16 {
        fill: #f4d692;
      }

      .cls-17 {
        fill: #91693a;
      }

      .cls-18 {
        fill: #332d1f;
      }

      .cls-19 {
        fill: #03968b;
      }

      .cls-20 {
        fill: #fca13f;
      }

      .cls-21 {
        fill: #b7a16e;
      }

      .cls-22 {
        fill: #fcdeab;
      }

      .cls-23 {
        fill: #94ad3d;
      }

      .cls-5 {
        opacity: .5;
      }
    </style>
  </defs>
  <g class="cls-14">
    <g id="Layer_2" data-name="Layer 2">
      <g id="_1" data-name="1">
        <g>
          <path class="cls-8" d="M50.46,110.82c-.56,1.67-2.03,3.22-4.55,4.14-.18.06-.36.13-.56.18-1.58.5-3.53.76-5.88.69-.19,0-.39-.01-.6-.02-2.35-.12-5.08-.57-8.21-1.44-2.39-.66-4.45-1.63-6.22-2.82-.15-.1-.31-.2-.45-.31-2.33-1.66-4.13-3.72-5.51-5.97-.11-.18-.22-.36-.32-.54-1.31-2.26-2.21-4.69-2.82-7.1-.05-.2-.1-.4-.15-.6-.5-2.14-.76-4.25-.88-6.19-.4-6.81,4.43-14.58,7.77-20.48.09-.16.18-.32.27-.48.7-1.25,1.33-2.42,1.81-3.46.23-.5.44-1.02.63-1.54.06-.17.12-.34.18-.51.87-2.58,1.3-5.27,1.88-7.55.04-.17.09-.34.13-.52.64-2.35,1.5-4.21,3.29-4.95,0,0,10.24,1.08,12.51,5.71,2.27,4.63,8.96,49.92,7.68,53.76Z"/>
          <g class="cls-5">
            <path class="cls-8" d="M34.27,62.31l-.5.12c-.06-.23-1.43-5.41-6.91-5.63.04-.17.09-.34.13-.52,5.78.32,7.26,5.96,7.28,6.02Z"/>
            <path class="cls-8" d="M31.15,66.92l-.37.37s-2.32-2.27-5.98-2.42c.06-.17.12-.34.18-.51,3.76.19,6.07,2.45,6.17,2.56Z"/>
            <path class="cls-8" d="M27.1,72.32l-.34.38s-2.27-2.02-4.66-2.36c.09-.16.18-.32.27-.48,2.46.43,4.63,2.36,4.74,2.45Z"/>
            <path class="cls-8" d="M23.31,97.46c-.1.05-1.58.83-4,.83-1.13,0-2.47-.17-3.96-.67-.05-.2-.1-.4-.15-.6,4.66,1.65,7.82,0,7.86-.02l.25.46Z"/>
            <path class="cls-8" d="M24.66,102.23c-.12.13-2.82,3.03-6.04,3.03-.04,0-.09,0-.13,0-.11-.18-.22-.36-.32-.54,3.19.29,6.08-2.81,6.11-2.84l.38.35Z"/>
            <path class="cls-8" d="M28.46,106.25c-.03.13-.72,2.92-4.01,5.29-.15-.1-.31-.2-.45-.31,3.25-2.29,3.95-5.06,3.95-5.1l.5.12Z"/>
            <path class="cls-8" d="M39.48,115.83c-.19,0-.39-.01-.6-.02,1.83-2.84,1.77-5.84,1.77-5.87h.52c0,.12.06,3.01-1.69,5.89Z"/>
            <path class="cls-8" d="M45.92,114.96c-.18.06-.36.13-.56.18.34-1.84-.16-3.64-.17-3.66l.5-.14c.03.09.5,1.78.23,3.62Z"/>
          </g>
          <polygon class="cls-15" points="50.39 43.41 48.06 10.39 48.97 10.18 51 43 50.39 43.41"/>
          <path class="cls-1" d="M48.8,65.22c2.26,2.41,16.19,13.66,27.43,18.97,3.17,3.48-10.63,3.29-10.63,3.29,0,0-9.62-9.64-12.95-12.33-3.32-2.69-6.89-8.63-6.89-8.63l3.04-1.3Z"/>
          <g>
            <path class="cls-1" d="M54.4,40.36c-.02.08-.05.16-.07.24-.81,2.51-3.52,4.34-6.15,8.79-.03.06-.07.12-.11.19-.23.39.17.18.45.12.03-.01.07-.02.1-.02.12,0,.19.06.07.31-.83,1.02-1.71,2.04-2.45,3.06-1.26,1.71-2.14,3.39-1.81,5.03.45,2.29,1.53,3.72,2.62,4.99.62.73,1.26,1.4,1.77,2.15.91,1.31-4.92,2.27-5.49,2.37-3.72.67-7.45,1.47-11.17.42-1.09-.31-3.61-1.47-.61-4.45,1.32-1.31,2.71-2.9,2.7-4.67,0-.23-.02-.46-.08-.7-.59-2.74-3.68-5.69-5.89-7.31-4.42-3.23-9.05-10.29-8.21-13.94-1.01-2.52-1.53-4.62-.98-6.33.57-1.76,2.27-3.11,5.73-4.09,3.23-3.45,9.9-6.84,9.9-6.84,0,0,.5-1.09,1.21-1.91.05-.06.1-.12.16-.18.03-.03.06-.07.1-.1.09-.09.18-.17.28-.24.04-.03.08-.06.11-.09.11-.08.23-.14.35-.19.08-.03.16-.06.24-.07.02,0,.04,0,.06,0,.04,0,.09.02.14.04.08.03.18.09.3.16.15.1.33.23.54.39.2.16.44.35.69.56l.19.17c.13.11.26.23.4.34.93.83,2.06,1.93,3.29,3.19.12.12.23.24.35.37.07.08.14.15.21.23.05.06.11.11.16.17.25.26.5.54.76.81l.05.05c.22.24.44.47.66.72.42.47.85.96,1.28,1.46.24.27.47.55.71.83.25.3.51.61.76.92.13.16.25.31.38.46.16.19.31.39.46.58.03.04.06.08.1.12.77.98,1.52,1.98,2.2,2.95.52.74,1,1.48,1.43,2.19.11.18.21.35.31.53.27.47.52.93.74,1.37.07.14.14.28.2.42.13.28.24.54.35.81.05.12.09.23.13.35.01.03.02.05.03.08.09.24.17.48.23.71.1.36.17.71.21,1.04.06.52.04.99-.07,1.4Z"/>
            <path class="cls-23" d="M47.03,63.07c-.56-.43-1.15-1.07-1.68-1.99-1.62-2.84-9.03-5.58-11.12-2.18,0-.23-.02-.46-.08-.7-.59-2.74-3.68-5.69-5.89-7.31-4.42-3.23-9.05-10.29-8.21-13.94-1.01-2.52-1.53-4.62-.98-6.33l10.69-4.91c-6.92,7.68-7.03,13.3-4.44,17.52,2.53,4.12,13.62,13.49,20.89,9.81-1.26,1.71-2.14,3.39-1.81,5.03.45,2.29,1.53,3.72,2.62,4.99Z"/>
            <path class="cls-23" d="M35.92,45.01c.34.06,8.72,1.87,10.2,4.19.27.42,1.45.03,2.06.19,2.63-4.45,5.34-6.27,6.15-8.78,0,0,0,0,0,0,.03-.08.05-.16.07-.25.11-.42.13-.88.06-1.4-.04-.33-.11-.68-.21-1.04-.06-.23-.14-.47-.23-.71,0-.03-.02-.06-.03-.08-.04-.12-.09-.23-.13-.35-.1-.26-.22-.53-.34-.8h0c-.06-.14-.13-.28-.2-.42-.22-.45-.47-.9-.73-1.37-.1-.17-.21-.35-.31-.53-.43-.72-.91-1.45-1.43-2.19-.68-.98-1.42-1.97-2.2-2.95-.03-.04-.06-.08-.09-.12-.15-.19-.31-.39-.46-.58-.12-.16-.25-.31-.38-.46-.25-.31-.5-.61-.76-.92-.24-.28-.47-.55-.71-.83-.43-.49-.86-.98-1.29-1.45-.22-.25-.44-.48-.66-.72l-.05-.06c-.26-.28-.51-.55-.76-.81-.05-.06-.1-.11-.16-.17-.07-.08-.14-.15-.22-.23-.12-.12-.24-.24-.35-.37-1.22-1.27-2.36-2.36-3.29-3.19-.14-.12-.27-.24-.4-.34l-.2-.17c-.25-.22-.49-.4-.69-.56-.21-.16-.39-.29-.54-.39-.12-.07-.22-.13-.3-.16-.05-.02-.1-.04-.14-.04-.02,0-.04,0-.06,0-.08.01-.16.04-.24.07-.12.04-.23.11-.35.19-.04.03-.08.05-.11.09-.09.07-.19.15-.28.24-.04.03-.07.06-.1.1-.05.06-.11.11-.16.17-.71.82-1.21,1.91-1.21,1.91.31-.02,1.98,1.03,5.01,4.09.73.73,1.53,1.58,2.42,2.56.83.91,1.73,1.95,2.7,3.1.19.23.39.46.58.7.14.17.27.33.4.5.31.39.58.77.84,1.15.58.87,1.03,1.7,1.34,2.5,2.41,6.03-2.43,9.94-12.09,10.72Z"/>
            <path class="cls-9" d="M28.35,40.19c2.69,2.54,6.48,2.89,8.47.78,1.98-2.12,1.4-5.89-1.29-8.44-2.69-2.54-6.48-2.89-8.47-.78-1.98,2.12-1.4,5.89,1.29,8.44Z"/>
            <path class="cls-1" d="M38.66,36.52c-2.25.19-6.79,3.65-7.28,7.96-.49,4.3,3.11.34,3.11.34l5.93-4.53-1.75-3.77Z"/>
            <path class="cls-7" d="M29.65,38.21c1.14,1.44,2.96,1.87,4.07.96,1.11-.91,1.08-2.81-.06-4.24-1.14-1.44-2.96-1.87-4.07-.96-1.11.91-1.08,2.81.06,4.24Z"/>
            <path class="cls-10" d="M30.29,37.93c.38.48.99.62,1.36.32.37-.3.36-.94-.02-1.41-.38-.48-.99-.62-1.36-.32-.37.3-.36.94.02,1.41Z"/>
            <path class="cls-9" d="M48.84,31.82c-.46.41-1.24.37-2.18-.03-.25-.38-.53-.77-.84-1.15-.1-.13-.2-.26-.31-.4-.03-.03-.05-.07-.08-.1-.2-.24-.39-.47-.59-.7-.03-.03-.06-.07-.09-.1-.94-1.12-1.81-2.12-2.62-3-.17-.18-.33-.37-.5-.54-.17-.18-.33-.36-.49-.53-.51-.54-.99-1.04-1.43-1.49-.24-.93-.17-1.67.27-2.06.63-.57,1.9-.26,3.34.66.97.63,2.02,1.54,3,2.66.98,1.12,1.75,2.28,2.24,3.33.03.04.04.09.06.13.69,1.5.82,2.76.2,3.32Z"/>
            <path class="cls-23" d="M45.82,30.63c.3.39.58.77.83,1.15.58.87,1.03,1.7,1.34,2.5l2.83-2.83c-.68-.98-1.42-1.97-2.2-2.95-.02-.04-.04-.09-.06-.13-.01,0-.02,0-.03,0-1.11.39-2.08,1.43-2.72,2.25Z"/>
            <path class="cls-7" d="M45.63,30.15s-.07.06-.12.09c-.03-.03-.05-.07-.08-.1-.2-.24-.39-.47-.59-.7-.03-.03-.06-.07-.09-.1-.3-.35-.59-.69-.87-1.02h0c-.47-.55-.93-1.07-1.36-1.55-.13-.15-.26-.29-.39-.43-.17-.18-.33-.37-.5-.54-.17-.18-.33-.36-.49-.53.03-.04.06-.07.1-.1.72-.64,2.27-.04,3.48,1.34,1.21,1.38,1.61,3.02.9,3.65Z"/>
            <path class="cls-10" d="M43.89,28.31c-.47-.55-.93-1.06-1.36-1.55.26-.02.62.16.93.48.36.37.53.81.43,1.07Z"/>
            <path class="cls-12" d="M37.32,46.42c2.18,1.9,5.13,3.45,7.52,4.05.63.15,1.21.25,1.74.26.2,0,.39,0,.57-.02.67-.06,1.21-.29,1.52-.72.35-.48.47-1.21.44-2.04-.1-2.36-1.42-5.62-2-6.95-1.98,2.18-5.85,3.58-11.19,4,0,0,0,0,0,0,.41.49.89.96,1.42,1.41Z"/>
            <path class="cls-13" d="M37.32,46.42c2.18,1.9,5.13,3.45,7.52,4.05,1.21-.2,2.12-.62,1.9-1.46-.56-2.18-3.41-4.65-9.43-2.58Z"/>
          </g>
          <path class="cls-1" d="M63.66,135.63c-.09.11-.46.21-1.03.28-.16.02-.34.04-.53.06-.95.09-2.24.15-3.67.18-.25,0-.5,0-.76.01-1.12.02-2.28.01-3.41-.02-.18,0-.37,0-.55-.01-.59-.02-1.17-.04-1.71-.06-2.21-.1-3.87-.29-4-.55-.39-.79,3.35-17.92,2.86-20.78-.49-2.86-2.95-5.42-2.95-5.42,1.18-2.56,4.43-5.51,4.43-5.51,0,0,.87.99,1.97,2.32,1.54,1.87,3.51,4.41,4.14,5.85,1.08,2.46,2.66,20.19,3.25,21.07.59.89,2.56,1.77,1.97,2.56Z"/>
          <path class="cls-23" d="M51.49,109.73c-.39,1.33,1.1,4.39,1.41,6.43.3,1.91-1,17.55-.9,19.93-2.21-.1-3.87-.29-4-.55-.39-.79,3.35-17.92,2.86-20.78-.49-2.86-2.95-5.42-2.95-5.42,1.18-2.56,4.43-5.51,4.43-5.51,0,0,.87.99,1.97,2.32-.98.93-2.52,2.63-2.8,3.58Z"/>
          <path class="cls-16" d="M55.09,99.39c-.03.1-.06.2-.1.31-1.54,4.77-4.73,7.21-5.65,8.31-.08.1-.16.21-.23.33-.09.15-.16.32-.23.49-.48,1.22-.54,2.9-1.14,3.5-.35.35-1.26.46-2.26.43-.17,0-.34-.01-.52-.02-.99-.06-1.96-.24-2.48-.41-.55-.18-1.3-1.35-2.43-2.46-.12-.12-.25-.24-.38-.36-1.14-1.01-2.62-1.86-4.6-1.69-.92.15-2.84.74-4.57.93-.18-.04-.36-.09-.55-.13-4.65-1.14-6.23-12.64-5.64-22.37.01-.17.02-.35.03-.52.23-3.44.74-6.63,1.48-9.01.09-.04.18-.09.26-.14.19-.11.37-.22.56-.35.3-.2.59-.42.87-.69.79-2.14,1.73-3.93,2.78-5.15,1.1-1.27,2.19-2.32,3.27-3.17.23-.18.45-.34.67-.5,1.6-1.14,3.16-1.85,4.66-2.21.65-.16,1.29-.24,1.91-.27.18,0,.36-.01.54-.01,1.95.02,3.76.63,5.35,1.6.18.11.37.23.54.35,2.55,1.75,4.48,4.42,5.48,7.02.33.84.63,1.79.91,2.81.05.17.1.34.14.52.66,2.54,1.17,5.49,1.51,8.46h0c.02.18.04.35.06.53.6,5.6.58,11.13-.25,13.87Z"/>
          <path class="cls-4" d="M54.99,99.7c-1.54,4.77-4.73,7.21-5.65,8.31-.08.1-.16.21-.23.33-.09.15-.16.32-.23.49-.48,1.22-.54,2.9-1.14,3.5-.35.35-1.26.46-2.26.43-.17,0-.34-.01-.52-.02-.99-.06-1.96-.24-2.48-.41-.55-.18-1.3-1.35-2.43-2.46-.12-.12-.25-.24-.38-.36-1.14-1.01-2.62-1.86-4.6-1.69-.92.15-2.84.74-4.57.93-.18-.04-.36-.09-.55-.13-4.65-1.14-6.23-12.64-5.64-22.37.01-.17.02-.35.03-.52.23-3.44.74-6.63,1.48-9.01.09-.04.18-.09.26-.14.19-.11.37-.22.56-.35.3-.2.59-.42.87-.69.79-2.14,1.73-3.93,2.78-5.15,1.1-1.27,2.19-2.32,3.27-3.17.23-.18.45-.34.67-.5,1.6-1.14,3.16-1.85,4.66-2.21-1.01.73-1.9,1.55-2.66,2.44-.13.15-.26.3-.38.46-2.19,2.75-3.26,6.09-3.34,9.44,0,.18,0,.35,0,.53.03,3.45,1.11,6.87,3.14,9.64.13.18.27.36.41.53,1.03,1.29,2.28,2.42,3.74,3.31,1.83,1.13,3.59,2.17,5.23,3.14.18.1.35.2.53.31,4.14,2.42,7.5,4.27,9.43,5.4Z"/>
          <path class="cls-1" d="M35.97,115.4c-.76,1.8-1.33,3.37-1.26,3.89.2,1.48,4.09,16,3.05,17.03-.13.13-.46.23-.93.32-.16.03-.33.05-.52.07-.72.09-1.66.13-2.7.16-.31,0-.63.01-.95.01-1.47.01-3.07-.02-4.53-.08-.33-.01-.66-.03-.98-.04-1.04-.05-1.97-.12-2.67-.18-.38-.03-.69-.07-.92-.11-.3-.05-.47-.1-.47-.14,0-.03,0-.06.01-.1.11-.53.88-2.13.97-2.95.1-.89,1.28-12.31,2.16-15.56.73-2.67,4.57-7.72,6.09-9.72.33-.44.55-.73.61-.82,3.05-1.58,6.5.79,6.5.79,0,0-.46.91-1.08,2.22-.71,1.48-1.64,3.46-2.38,5.21Z"/>
          <path class="cls-23" d="M38.35,110.18c-.71,1.48-1.64,3.46-2.38,5.21-1.62-.63-5.49-2.11-6.42-1.99-1.18.16-3.06,5.17-3.06,5.96s-.75,13.58-2.01,17.21c-.38-.03-.69-.07-.92-.11-.3-.05-.47-.1-.47-.14,0-.03,0-.06.01-.1.11-.53.88-2.13.97-2.95.1-.89,1.28-12.31,2.16-15.56.73-2.67,4.57-7.72,6.09-9.72,2.35.83,4.85,1.72,6.02,2.19Z"/>
          <g class="cls-5">
            <path class="cls-1" d="M28.74,119.85c-.36,0-.56-.16-.67-.3-.61-.78.12-3.11.28-3.57.05-.14.19-.21.33-.16.14.05.21.19.16.33-.34,1.03-.68,2.67-.36,3.08.02.03.1.12.34.1.68-.07,1.78-.91,1.99-1.32.01-.03.01-.04.01-.04-.07-.17-1.03-.28-1.35-.16-.07.03-.1.41,0,.81.03.14-.05.28-.19.31-.14.03-.28-.05-.31-.19-.05-.2-.26-1.18.31-1.41.35-.14,1.52-.15,1.91.28.16.18.19.41.08.63-.27.54-1.51,1.52-2.4,1.61-.05,0-.09,0-.13,0Z"/>
          </g>
          <g class="cls-5">
            <path class="cls-1" d="M55.81,115.98c-.36,0-.56-.16-.67-.3-.61-.78.12-3.11.28-3.57.05-.14.19-.21.33-.16.14.05.21.19.16.33-.34,1.03-.68,2.67-.36,3.08.02.03.1.12.34.1.68-.07,1.78-.91,1.99-1.32.01-.03.01-.04.01-.04-.07-.17-1.03-.28-1.35-.16-.07.03-.1.41,0,.81.03.14-.05.28-.19.31-.14.03-.28-.05-.31-.19-.05-.2-.26-1.18.31-1.41.35-.14,1.52-.15,1.91.28.16.18.19.41.08.63-.27.54-1.51,1.52-2.4,1.61-.05,0-.09,0-.13,0Z"/>
          </g>
          <g class="cls-5">
            <path class="cls-1" d="M36.83,136.64c-.16.03-.33.05-.52.07-.38-1.51-.91-2.83-1.29-2.81-.44.03-1.02,1.45-1.41,2.97-.31,0-.63.01-.95.01-.52-1.38-1.37-3.01-2.13-3.14-.74-.13-1.74,1.58-2.39,3.06-.33-.01-.66-.03-.98-.04-.24-1.16-.65-2.54-1.1-2.83-.08-.05-.13-.04-.17-.03-.65.19-1.68,1.57-2.33,2.57-.3-.05-.47-.1-.47-.14,0-.03,0-.06.01-.1.63-.96,1.78-2.58,2.65-2.83.2-.06.4-.02.59.1.67.43,1.1,2.06,1.32,3.11.57-1.3,1.74-3.57,2.95-3.37,1.14.19,2.06,2.22,2.52,3.43.33-1.29.96-3.21,1.85-3.28.88-.07,1.5,1.85,1.85,3.25Z"/>
          </g>
          <g class="cls-5">
            <path class="cls-1" d="M62.62,135.92c-.16.02-.34.04-.53.06-.42-1.3-1.12-3.09-1.75-3.42-.1-.05-.16-.04-.2-.03-.68.23-1.35,2.14-1.72,3.64-.25,0-.5,0-.76.01-.38-2.06-.98-3.77-1.35-3.77,0,0-.01,0-.01,0-.47.06-1.36,1.88-2.04,3.75-.18,0-.37,0-.55-.01.51-1.45,1.58-4.13,2.52-4.26.9-.12,1.5,1.97,1.83,3.61.35-1.29,1.01-3.16,1.92-3.46.2-.06.41-.04.61.07.85.46,1.63,2.57,2.03,3.82Z"/>
          </g>
          <path class="cls-21" d="M45.68,105.96c.98.25,2.48,1.5,3.44,2.38-.09.15-.16.32-.23.49-.97-.89-2.38-2.07-3.22-2.34-.05,3.09-.14,5.33-.18,6.26-.17,0-.34-.01-.52-.02.04-.93.14-3.17.18-6.27-.94.26-3.3,1.98-5.09,3.4-.12-.12-.25-.24-.38-.36,1.43-1.14,4.29-3.32,5.48-3.57.04-3.27.03-7.42-.13-11.94-.08-2.14-.19-4.37-.34-6.62-1.91.14-3.94.21-6.01.21-.86,0-1.73-.01-2.61-.04-3.96-.12-8.01-.53-11.75-1.29.01-.17.02-.35.03-.52,3.93.82,7.91,1.17,11.31,1.28,2.47.08,4.63.05,6.26-.02.93-.04,1.84-.09,2.73-.16-.31-4.23-.77-8.56-1.47-12.66-1.23.16-2.6.69-4.15,1.3-1.93.76-4.1,1.61-6.51,1.89-.54.06-1.1.1-1.66.1-1.5,0-3.09-.25-4.77-.9.19-.11.37-.22.56-.35,2.09.74,4.05.84,5.87.62,2.33-.28,4.44-1.11,6.32-1.85,1.58-.62,2.97-1.16,4.25-1.33-.15-.87-.31-1.72-.49-2.56-.07,0-.13.01-.2.01-.98,0-1.57-.61-2.24-1.3-.85-.87-1.92-1.98-4.31-2.41-.66-.12-1.41-.19-2.29-.18.23-.18.45-.34.67-.5.76.03,1.42.11,2,.23,2.34.48,3.43,1.61,4.3,2.5.67.69,1.14,1.18,1.96,1.14-.48-2.25-1.04-4.39-1.7-6.36.18,0,.36-.01.54-.01.64,1.95,1.19,4.06,1.66,6.28,1.23-.32,1.56-1.27,1.91-2.28.32-.92.68-1.93,1.77-2.41.18.11.37.23.54.35-1.15.32-1.47,1.22-1.82,2.23-.37,1.05-.78,2.23-2.3,2.61.18.85.34,1.72.49,2.6.03,0,.05,0,.08,0,2.16-.08,3.4.55,4.61,1.16,1.32.66,2.67,1.34,5.32,1.24.05.17.1.34.14.52-2.86.13-4.3-.6-5.69-1.29-1.2-.6-2.34-1.18-4.36-1.1h-.01c.69,4.1,1.16,8.44,1.47,12.66,4.21-.34,7.82-.99,10.11-1.81h0c.02.18.04.35.06.53-2.35.83-5.95,1.47-10.13,1.81.17,2.38.28,4.73.36,6.97.15,4.42.16,8.46.12,11.66Z"/>
          <g>
            <g>
              <rect class="cls-11" x="89.81" y="77.05" width=".52" height="8.99" transform="translate(-20.77 31.78) rotate(-17.98)"/>
              <rect class="cls-11" x="93.13" y="75.98" width=".52" height="8.99" transform="translate(-20.28 32.75) rotate(-17.98)"/>
            </g>
            <path class="cls-22" d="M36.73,113c2.35-1.04,4.02-3.35,5.12-5.84.66-1.5.77-2.5,2.28-3.14,1.31-.55,2.78-.47,4.18-.19,1.05.21,2.12.45,3.16.43.31,0,.61-.03.91-.08,2.54-.46,4.29-2.98,4.85-5.79.08-.39.13-.78.16-1.18.12-1.63-.08-3.27-.47-4.9-.64-1.54-1.44-2.99-2.5-4.24-.26-.3-.53-.59-.82-.86-2.1-1.95-4.99-2.96-7.32-1.84-.28.13-.54.29-.79.47-.85.6-1.58,1.42-2.3,2.21-.97,1.06-2.12,1.98-3.5,2.3-1.6.38-2.27-.37-3.69-1.2-2.35-1.37-5.07-2.27-7.58-1.72-.32.07-.64.16-.95.28-.53.2-1.02.47-1.48.79-3.1,2.2-4.39,7.02-3.78,11.37.17,1.18.44,2.33.79,3.45.38,1.12.83,2.21,1.39,3.26,2.06,3.88,5.93,7.02,9.73,6.98.56,0,1.11-.08,1.66-.23.33-.09.65-.2.95-.34Z"/>
            <path class="cls-20" d="M34.05,113.05c-3.33,0-7.12-2.76-9.22-6.71-.52-.98-.97-2.05-1.36-3.18-.35-1.13-.61-2.26-.77-3.36-.62-4.46.84-8.93,3.57-10.87.42-.3.88-.55,1.36-.73.29-.11.59-.2.88-.26.46-.1.95-.15,1.44-.15,1.74,0,3.74.63,5.77,1.81.26.15.5.3.72.44.78.5,1.46.93,2.44.93.29,0,.59-.04.91-.11,1.29-.3,2.52-1.11,3.76-2.46l.2-.22c.63-.69,1.29-1.4,2.01-1.91.24-.17.48-.31.71-.42.57-.28,1.21-.41,1.88-.41,1.61,0,3.39.79,4.87,2.17.28.26.54.53.78.82.93,1.1,1.71,2.43,2.4,4.07.4,1.73.55,3.26.44,4.7-.03.37-.08.74-.15,1.12-.57,2.88-2.31,4.99-4.43,5.38-.27.05-.54.07-.82.07h-.1c-.87,0-1.8-.19-2.69-.37l-.26-.05c-.76-.15-1.44-.23-2.08-.23-.89,0-1.7.15-2.41.45-1.43.6-1.8,1.54-2.23,2.62-.1.24-.2.5-.32.78-.86,1.94-2.39,4.49-4.85,5.57-.28.12-.56.23-.88.31-.5.13-1.01.2-1.53.21h-.06Z"/>
            <path class="cls-22" d="M43.58,102.43c-2.89.94-5.99-.65-6.93-3.54-.94-2.89.65-5.99,3.54-6.93,2.89-.94,5.99.65,6.93,3.54.94,2.89-.65,5.99-3.54,6.93Z"/>
            <path class="cls-19" d="M47.11,95.5c-.94-2.89-4.04-4.47-6.93-3.53-2.89.94-4.47,4.04-3.53,6.93.94,2.89,4.04,4.47,6.93,3.53,2.89-.94,4.47-4.04,3.53-6.93ZM46.31,100.42l-1.33-.11.11,1.33-1.23-.52-.3,1.29-1.01-.87-.69,1.14-.69-1.14-1.01.87-.3-1.3-1.22.52.11-1.33-1.33.11.52-1.22-1.3-.3.87-1-1.14-.69,1.14-.69-.87-1.01,1.29-.3-.52-1.22,1.33.11-.11-1.33,1.22.52.3-1.29,1.01.87.69-1.14.69,1.14,1.01-.87.3,1.29,1.22-.52-.11,1.33,1.33-.11-.52,1.22,1.3.3-.87,1,1.14.69-1.14.69.87,1-1.3.3.52,1.22Z"/>
            <path class="cls-18" d="M43.1,100.97c-2.08.68-4.31-.46-4.99-2.55s.46-4.31,2.55-4.99,4.31.46,4.99,2.55c.68,2.08-.46,4.31-2.55,4.99Z"/>
            <path class="cls-2" d="M36.67,98.89l.87-1.01-1.14-.69,1.14-.69-.87-1.01,1.3-.3-.52-1.23,1.33.11-.11-1.33,1.23.52.3-1.3,1.01.87.69-1.14.69,1.14,1.01-.87.3,1.3,1.23-.52-.11,1.33,1.33-.11-.52,1.23,1.3.3-.87,1.01,1.14.69-1.14.69.87,1.01-1.3.3.52,1.23-1.33-.11.11,1.33-1.22-.52-.3,1.3-1.01-.87-.69,1.14-.69-1.14-1.01.87-.3-1.3-1.23.52.11-1.33-1.33.11.52-1.23-1.3-.3ZM37.94,97.82l-.79.91,1.18.28-.47,1.11,1.2-.1-.1,1.2,1.11-.47.27,1.18.91-.79.62,1.04.62-1.04.91.79.27-1.18,1.11.47-.1-1.2,1.2.1-.47-1.11,1.18-.27-.79-.91,1.04-.62-1.04-.62.79-.91-1.18-.28.47-1.11-1.2.1.1-1.2-1.11.47-.27-1.18-.91.79-.62-1.04-.62,1.04-.91-.79-.27,1.18-1.11-.47.1,1.2-1.2-.1.47,1.11-1.18.27.79.91-1.04.62,1.04.62Z"/>
            <polygon class="cls-17" points="45.82 97.82 44.7 94.38 85.41 80.31 87.04 85.31 45.82 97.82"/>
            <g>
              <polygon class="cls-6" points="46.58 93.61 47.79 97.35 48.17 97.23 46.95 93.48 46.58 93.61"/>
              <polygon class="cls-6" points="49.89 92.45 51.15 96.34 51.57 96.22 50.3 92.3 49.89 92.45"/>
              <polygon class="cls-6" points="53.5 91.18 54.82 95.25 55.27 95.12 53.94 91.02 53.5 91.18"/>
              <polygon class="cls-6" points="57.44 89.79 58.83 94.06 59.32 93.91 57.93 89.62 57.44 89.79"/>
              <polygon class="cls-6" points="61.78 88.27 63.23 92.74 63.78 92.58 62.32 88.08 61.78 88.27"/>
              <polygon class="cls-6" points="66.57 86.59 68.1 91.29 68.7 91.11 67.17 86.38 66.57 86.59"/>
              <polygon class="cls-6" points="71.89 84.72 73.5 89.68 74.17 89.48 72.55 84.49 71.89 84.72"/>
              <polygon class="cls-6" points="77.82 82.64 79.52 87.89 80.28 87.66 78.56 82.38 77.82 82.64"/>
              <polygon class="cls-6" points="85.32 80 84.48 80.3 86.29 85.87 87.14 85.62 85.32 80"/>
            </g>
            <path class="cls-17" d="M97.69,82l-1.71-5.26c-.15-.48-.66-.72-1.12-.55l-8.93,3.33c-.36.14-.54.58-.41.99l1.49,4.58c.13.41.54.67.91.57l9.18-2.55c.48-.13.74-.63.59-1.1ZM87.91,81.36c-.3.1-.63-.07-.72-.37-.1-.3.07-.63.37-.72l7.06-2.29c.3-.1.63.07.72.37.1.3-.07.63-.37.72l-7.06,2.29ZM88.8,84.09c-.15.05-.31.03-.44-.03-.13-.07-.24-.18-.29-.33-.1-.3.07-.63.37-.72l7.06-2.29c.3-.1.63.07.72.37.1.3-.07.63-.37.72l-7.06,2.29Z"/>
            <path class="cls-11" d="M88.91,77.83c-.46.15-.95-.1-1.09-.56-.15-.46.1-.95.56-1.09.46-.15.95.1,1.09.56.15.46-.1.95-.56,1.09Z"/>
            <path class="cls-11" d="M92.25,76.75c-.46.15-.95-.1-1.09-.56-.15-.46.1-.95.56-1.09.46-.15.95.1,1.09.56.15.46-.1.95-.56,1.09Z"/>
            <path class="cls-11" d="M91.84,86.88c-.46.15-.95-.1-1.09-.56-.15-.46.1-.95.56-1.09s.95.1,1.09.56c.15.46-.1.95-.56,1.09Z"/>
            <path class="cls-11" d="M95.18,85.8c-.46.15-.95-.1-1.09-.56-.15-.46.1-.95.56-1.09.46-.15.95.1,1.09.56.15.46-.1.95-.56,1.09Z"/>
          </g>
          <path class="cls-1" d="M67.65,88.76c.13.59.93,2.39,1.46,2.86.53.47,8.4-1.69,9.22-2.04.82-.35-.18-7-.58-7.18-.41-.17-1.69-.17-1.93.23s-.12,5.02-.12,5.02c0,0-1.17-2.28-1.98-2.39-.82-.12-1.87.35-1.98.7-.12.35-.53,1.17-.53,1.17,0,0-1.52-.7-2.04-.76-.53-.06-1.63,1.87-1.52,2.39Z"/>
          <path class="cls-15" d="M9,48.51s35.75,4.08,38.28,3.8,3.38-6.47,3.38-6.47l-.79.96s-.44,3.66-2.36,4.8c-1.92,1.13-37.55-4.22-37.55-4.22l-.95,1.14Z"/>
          <g>
            <path class="cls-15" d="M30.15,10.55l-19.08,21.96-.88,1.02s-1.16-1.4-2.39-3.66c-.25-.44-.49-.91-.73-1.41-.64-1.34-1.25-2.87-1.67-4.53-1.05-4.11-.95-8.97,2.62-13.37.61-.75,1.25-1.39,1.91-1.93,3.11-2.55,6.7-2.93,9.99-2.41,2.09.33,4.05,1.03,5.69,1.77.73.33,1.39.66,1.97.98,1.6.87,2.58,1.6,2.58,1.6Z"/>
            <path class="cls-19" d="M27.57,8.95L7.79,29.86c-.25-.44-.49-.91-.73-1.41-.64-1.34-1.25-2.87-1.67-4.53l-.11-2.48,3.58-.34-.48-5.08,4.8-.98-.09-4.26,4.69-.58.13-3.61,2.01-.39c2.09.33,4.05,1.03,5.69,1.77.73.33,1.39.66,1.97.98Z"/>
            <path class="cls-2" d="M30.15,10.55l-19.96,22.98s-1.65-2.01-3.13-5.07c4.19-11.19,13.35-17.68,18.54-20.48,2.72,1.23,4.55,2.58,4.55,2.58Z"/>
            <path class="cls-3" d="M15.2,24.9s-2.18,4.08-4.12,7.61l-.88,1.02s-1.16-1.4-2.39-3.66c-.25-.44-.49-.91-.73-1.41-.64-1.34-1.25-2.87-1.67-4.53-1.05-4.11-.95-8.97,2.62-13.37.61-.75,1.25-1.39,1.91-1.93-5.35,7.9,5.27,16.28,5.27,16.28Z"/>
            <path class="cls-15" d="M51.77,9.11c-.39.36-1.49.94-3.14,1.87-4.35,2.46-12.48,7.4-21.13,17.35-3.3,3.79-6.08,7.18-8.41,10.11-6.13,7.69-9.23,12.26-10.58,12.62-.77.2-2.69-.06-4.5-.73-.66-.24-1.3-.53-1.87-.87-.37-.22-.71-.45-1-.71-.84-.72-1.32-1.6-1.06-2.59.4-1.61,2.39-5.56,5.37-10.28,3.29-5.21,7.79-11.35,12.72-16.31C26.4,11.29,39.97,3.1,45.45.7c1.15-.5,1.94-.75,2.26-.69.33.06.73.35,1.14.8.27.29.54.65.81,1.06.38.56.75,1.2,1.08,1.87,1.09,2.2,1.79,4.67,1.04,5.38Z"/>
            <path class="cls-19" d="M48.84.81l-.45,1.9c-3.93-.58-4.14-.54-4.24-.52-.38.07-.52.09-1.02,3.12-.06.34-.28,1.73-.36,2.51-.97.1-3.99.18-6.73.21h-.41s-1.31,5.68-1.31,5.68l-7.35.17-1.26,7.93-7.24,1.91.04,7.1-7.75,2.08.36,6.55-7.25,2.16.86,5.66-3.6,1.48c.3.25.63.49,1,.71l3.74-1.54-.85-5.57,7.18-2.14-.36-6.53,7.71-2.07-.04-7.1,7.12-1.88,1.23-7.74,7.3-.17,1.3-5.67c6.86-.07,7.02-.28,7.2-.49l.16-.2-.04-.2c.02-.52.54-3.91.82-4.94.77.08,2.73.36,4.12.57l.47.07.48-2.01c-.27-.4-.55-.76-.81-1.06Z"/>
            <path class="cls-2" d="M51.77,9.11c-1.41,1.31-12.35,5.51-24.26,19.22-11.92,13.71-17.13,22.23-19,22.73-.77.21-2.69-.06-4.5-.73l3.37-1.21-.82-5.39,6.91-1.72-.21-6.97,8.25-1.96-.63-7.21,7.83-1.38.8-7.12,6.72-.27,1.55-6.5,7.13-.03.88-5.5,4.65,1.22.3-2.57c1.09,2.2,1.79,4.68,1.04,5.38Z"/>
            <path class="cls-3" d="M5.43,35.89c4.31,2.69,10.13,2.8,13.66,2.55-6.13,7.69-9.23,12.26-10.58,12.62-.77.2-2.69-.06-4.5-.73-.66-.24-1.3-.53-1.87-.87-.37-.22-.71-.45-1-.71-.84-.72-1.32-1.6-1.06-2.59.4-1.61,2.39-5.56,5.37-10.28Z"/>
            <path class="cls-3" d="M51.77,9.11c-.39.36-1.49.94-3.14,1.87.18-2.58-.3-5.93-2.69-9.51-.18-.27-.34-.53-.49-.78,1.15-.5,1.94-.75,2.26-.69.33.06.73.35,1.14.8.27.29.54.65.81,1.06.38.56.75,1.2,1.08,1.87,1.09,2.2,1.79,4.67,1.04,5.38Z"/>
          </g>
          <path class="cls-1" d="M39.4,93.91c0,1.08-.51,1.29-1.16,1.54-.49.19-.72,1.65-2.52,2.92-.57.4-1.29.78-2.23,1.1,0,.02.01.03.02.05.35.95.29,2.56-3.02,1.36-3.38-1.22-19.42-6.19-16.13-15.2,3.28-9.01,12.76-16.98,17.16-22.12,0,0,2.38.81,2.27,2.48-.09,1.38-6.05,8.94-6.67,9.97-1.74,2.89-4.62,5.72-2.37,8.91,2.25,3.19,4.61,3.09,5.64,2.81,1.03-.28,2.72-2.91,3.84-3.47,1.13-.56,2.81,1.41,2.53,1.88-.28.47-2.35,3.57-2.35,3.57,0,0,4.97,2.21,4.97,4.18Z"/>
          <polygon class="cls-23" points="38.25 95.45 34.2 94.36 37.54 96.51 38.25 95.45"/>
          <path class="cls-23" d="M33.5,99.47s.01.03.02.05l-2.66-1.44c.17.03,3.57.68,4.87.28-.57.4-1.29.78-2.23,1.1Z"/>
        </g>
      </g>
    </g>
  </g>
</svg>