<?xml version="1.0" encoding="UTF-8"?>
<svg xmlns="http://www.w3.org/2000/svg" xmlns:xlink="http://www.w3.org/1999/xlink" viewBox="0 0 83.68 134.15">
  <defs>
    <style>
      .cls-1 {
        opacity: .7;
      }

      .cls-1, .cls-2 {
        fill: #404040;
      }

      .cls-1, .cls-3, .cls-4, .cls-5 {
        mix-blend-mode: multiply;
      }

      .cls-6 {
        fill: #abc950;
      }

      .cls-7 {
        fill: #2c3352;
      }

      .cls-8 {
        fill: #b84646;
      }

      .cls-9 {
        fill: #7c564e;
      }

      .cls-10 {
        fill: #f7fafa;
      }

      .cls-11 {
        fill: #fff;
      }

      .cls-12 {
        fill: #9e9897;
      }

      .cls-13 {
        fill: #5d5452;
      }

      .cls-14 {
        fill: #1c1c1c;
      }

      .cls-15 {
        fill: #e55757;
      }

      .cls-16 {
        fill: url(#linear-gradient);
      }

      .cls-16, .cls-3, .cls-5 {
        opacity: .5;
      }

      .cls-16, .cls-17 {
        mix-blend-mode: screen;
      }

      .cls-18 {
        isolation: isolate;
      }

      .cls-3, .cls-19 {
        fill: #f4d692;
      }

      .cls-20 {
        fill: #64413f;
      }

      .cls-21 {
        fill: #bd8377;
      }

      .cls-17 {
        fill: url(#linear-gradient-2);
        opacity: .3;
      }

      .cls-22 {
        fill: #b7a16e;
      }

      .cls-23 {
        fill: #94ad3d;
      }
    </style>
    <linearGradient id="linear-gradient" x1="2.96" y1="33.56" x2="7.73" y2="33.73" gradientUnits="userSpaceOnUse">
      <stop offset="0" stop-color="#fff"/>
      <stop offset="1" stop-color="#000"/>
    </linearGradient>
    <linearGradient id="linear-gradient-2" x1="12.79" y1="33.81" x2="22.77" y2="34.15" xlink:href="#linear-gradient"/>
  </defs>
  <g class="cls-18">
    <g id="Layer_2" data-name="Layer 2">
      <g id="_1" data-name="1">
        <g>
          <polygon class="cls-14" points="0 27.22 10.13 22.43 9.69 24.06 1.52 29.18 0 27.22"/>
          <path class="cls-6" d="M12.41,80.03c-4.03-.65-8.06-13.61-8.06-13.61l5.77-7.4,1.74,2.07.54,18.95Z"/>
          <polygon class="cls-15" points=".87 51.17 4.59 71.12 9.09 71.43 12.44 52.36 .87 51.17"/>
          <path class="cls-6" d="M22.54,64.46s-3.38,4.57-6.1,5.34c-2.72.76-3.92-12.09-5.23-12.52-1.31-.44-3.81-1.31-4.36-.65-.54.65-.87,2.4-.33,3.27.54.87,3.59,1.42,3.92,2.07.33.65-.33,18.08,1.96,18.08s9.47-7.62,9.47-7.62l.65-7.95Z"/>
          <g>
            <g>
              <path class="cls-13" d="M20.95,132.04c-.24-.98-.98-1.69-1.69-1.66-.03,0-.05,0-.08,0-.03,0-.05,0-.08,0-.03,0-.05,0-.08,0-.03,0-.05,0-.08,0-.03,0-.05,0-.08,0-.03,0-.05,0-.08,0-.03,0-.05,0-.08,0-.03,0-.05,0-.08,0-.03,0-.05,0-.08,0-.03,0-.05,0-.08,0-.03,0-.05,0-.08,0-.03,0-.05,0-.08,0-.03,0-.05,0-.08,0-.03,0-.05,0-.08,0-.03,0-.05,0-.08,0-.03,0-.05,0-.08,0-.03,0-.05,0-.08,0-.03,0-.05,0-.08,0-.03,0-.05,0-.08,0-.03,0-.05,0-.08,0-.03,0-.05,0-.08,0-.03,0-.05,0-.08,0-.03,0-.05,0-.08,0-.03,0-.05,0-.08,0-.03,0-.05,0-.08,0-.03,0-.05,0-.08,0-.03,0-.05,0-.08,0-.03,0-.05,0-.08,0-.03,0-.05,0-.08,0-.03,0-.05,0-.08,0-.06,0-.13,0-.19.01-.75.12-1.15,1.06-.9,2.1.24.98.98,1.69,1.69,1.66.03,0,.05,0,.08,0,.03,0,.05,0,.08,0,.03,0,.05,0,.08,0,.03,0,.05,0,.08,0,.03,0,.05,0,.08,0,.03,0,.05,0,.08,0,.03,0,.05,0,.08,0,.03,0,.05,0,.08,0,.03,0,.05,0,.08,0,.03,0,.05,0,.08,0,.03,0,.05,0,.08,0,.03,0,.05,0,.08,0,.03,0,.05,0,.08,0,.03,0,.05,0,.08,0,.03,0,.05,0,.08,0,.03,0,.05,0,.08,0,.03,0,.05,0,.08,0,.03,0,.05,0,.08,0,.03,0,.05,0,.08,0,.03,0,.05,0,.08,0,.03,0,.05,0,.08,0,.03,0,.05,0,.08,0,.03,0,.05,0,.08,0,.03,0,.05,0,.08,0,.03,0,.05,0,.08,0,.03,0,.05,0,.08,0,.03,0,.05,0,.08,0,.03,0,.05,0,.08,0,.03,0,.05,0,.08,0,.03,0,.05,0,.08,0,.06,0,.13,0,.19-.01.75-.12,1.15-1.06.9-2.1Z"/>
              <path class="cls-12" d="M20.95,132.04c.25,1.03-.15,1.97-.9,2.1-.75.12-1.56-.61-1.81-1.65-.25-1.03.15-1.97.9-2.1.75-.12,1.56.61,1.81,1.65Z"/>
              <path class="cls-13" d="M20.14,132.15c.08.34-.06.65-.33.7-.26.04-.55-.2-.63-.54-.08-.34.06-.65.33-.7.26-.04.55.2.63.54Z"/>
            </g>
            <g>
              <path class="cls-13" d="M10.48,132.04c-.24-.98-.98-1.69-1.69-1.66-.03,0-.05,0-.08,0-.03,0-.05,0-.08,0-.03,0-.05,0-.08,0-.03,0-.05,0-.08,0-.03,0-.05,0-.08,0-.03,0-.05,0-.08,0-.03,0-.05,0-.08,0-.03,0-.05,0-.08,0-.03,0-.05,0-.08,0-.03,0-.05,0-.08,0-.03,0-.05,0-.08,0-.03,0-.05,0-.08,0-.03,0-.05,0-.08,0-.03,0-.05,0-.08,0-.03,0-.05,0-.08,0-.03,0-.05,0-.08,0-.03,0-.05,0-.08,0-.03,0-.05,0-.08,0-.03,0-.05,0-.08,0-.03,0-.05,0-.08,0-.03,0-.05,0-.08,0-.03,0-.05,0-.08,0-.03,0-.05,0-.08,0-.03,0-.05,0-.08,0-.03,0-.05,0-.08,0-.03,0-.05,0-.08,0-.03,0-.05,0-.08,0-.03,0-.05,0-.08,0-.03,0-.05,0-.08,0-.03,0-.05,0-.08,0-.06,0-.13,0-.19.01-.75.12-1.15,1.06-.9,2.1.24.98.98,1.69,1.69,1.66.03,0,.05,0,.08,0,.03,0,.05,0,.08,0,.03,0,.05,0,.08,0,.03,0,.05,0,.08,0,.03,0,.05,0,.08,0,.03,0,.05,0,.08,0,.03,0,.05,0,.08,0,.03,0,.05,0,.08,0,.03,0,.05,0,.08,0,.03,0,.05,0,.08,0,.03,0,.05,0,.08,0,.03,0,.05,0,.08,0,.03,0,.05,0,.08,0,.03,0,.05,0,.08,0,.03,0,.05,0,.08,0,.03,0,.05,0,.08,0,.03,0,.05,0,.08,0,.03,0,.05,0,.08,0,.03,0,.05,0,.08,0,.03,0,.05,0,.08,0,.03,0,.05,0,.08,0,.03,0,.05,0,.08,0,.03,0,.05,0,.08,0,.03,0,.05,0,.08,0,.03,0,.05,0,.08,0,.03,0,.05,0,.08,0,.03,0,.05,0,.08,0,.03,0,.05,0,.08,0,.03,0,.05,0,.08,0,.03,0,.05,0,.08,0,.06,0,.13,0,.19-.01.75-.12,1.15-1.06.9-2.1Z"/>
              <path class="cls-12" d="M10.48,132.04c.25,1.03-.15,1.97-.9,2.1-.75.12-1.56-.61-1.81-1.65-.25-1.03.15-1.97.9-2.1.75-.12,1.56.61,1.81,1.65Z"/>
              <path class="cls-13" d="M9.67,132.15c.08.34-.06.65-.33.7-.26.04-.55-.2-.63-.54-.08-.34.06-.65.33-.7.26-.04.55.2.63.54Z"/>
            </g>
            <polygon class="cls-13" points="11.26 129.41 12.02 132.33 12.78 132.33 11.91 129.45 11.26 129.41"/>
            <polygon class="cls-13" points="9.19 132.23 16.69 132.19 16.8 132.64 9.2 132.51 9.19 132.23"/>
          </g>
          <g>
            <g>
              <path class="cls-13" d="M53.88,132.04c-.24-.98-.98-1.69-1.69-1.66-.03,0-.05,0-.08,0-.03,0-.05,0-.08,0-.03,0-.05,0-.08,0-.03,0-.05,0-.08,0-.03,0-.05,0-.08,0-.03,0-.05,0-.08,0-.03,0-.05,0-.08,0-.03,0-.05,0-.08,0-.03,0-.05,0-.08,0-.03,0-.05,0-.08,0-.03,0-.05,0-.08,0-.03,0-.05,0-.08,0-.03,0-.05,0-.08,0-.03,0-.05,0-.08,0-.03,0-.05,0-.08,0-.03,0-.05,0-.08,0-.03,0-.05,0-.08,0-.03,0-.05,0-.08,0-.03,0-.05,0-.08,0-.03,0-.05,0-.08,0-.03,0-.05,0-.08,0-.03,0-.05,0-.08,0-.03,0-.05,0-.08,0-.03,0-.05,0-.08,0-.03,0-.05,0-.08,0-.03,0-.05,0-.08,0-.03,0-.05,0-.08,0-.03,0-.05,0-.08,0-.03,0-.05,0-.08,0-.03,0-.05,0-.08,0-.06,0-.13,0-.19.01-.75.12-1.15,1.06-.9,2.1.24.98.98,1.69,1.69,1.66.03,0,.05,0,.08,0,.03,0,.05,0,.08,0,.03,0,.05,0,.08,0,.03,0,.05,0,.08,0,.03,0,.05,0,.08,0,.03,0,.05,0,.08,0,.03,0,.05,0,.08,0,.03,0,.05,0,.08,0,.03,0,.05,0,.08,0,.03,0,.05,0,.08,0,.03,0,.05,0,.08,0,.03,0,.05,0,.08,0,.03,0,.05,0,.08,0,.03,0,.05,0,.08,0,.03,0,.05,0,.08,0,.03,0,.05,0,.08,0,.03,0,.05,0,.08,0,.03,0,.05,0,.08,0,.03,0,.05,0,.08,0,.03,0,.05,0,.08,0,.03,0,.05,0,.08,0,.03,0,.05,0,.08,0,.03,0,.05,0,.08,0,.03,0,.05,0,.08,0,.03,0,.05,0,.08,0,.03,0,.05,0,.08,0,.03,0,.05,0,.08,0,.03,0,.05,0,.08,0,.03,0,.05,0,.08,0,.03,0,.05,0,.08,0,.06,0,.13,0,.19-.01.75-.12,1.15-1.06.9-2.1Z"/>
              <path class="cls-12" d="M53.88,132.04c.25,1.03-.15,1.97-.9,2.1-.75.12-1.56-.61-1.81-1.65-.25-1.03.15-1.97.9-2.1.75-.12,1.56.61,1.81,1.65Z"/>
              <path class="cls-13" d="M53.08,132.15c.08.34-.06.65-.33.7-.26.04-.55-.2-.63-.54-.08-.34.06-.65.33-.7.26-.04.55.2.63.54Z"/>
            </g>
            <g>
              <path class="cls-13" d="M43.41,132.04c-.24-.98-.98-1.69-1.69-1.66-.03,0-.05,0-.08,0-.03,0-.05,0-.08,0-.03,0-.05,0-.08,0-.03,0-.05,0-.08,0-.03,0-.05,0-.08,0-.03,0-.05,0-.08,0-.03,0-.05,0-.08,0-.03,0-.05,0-.08,0-.03,0-.05,0-.08,0-.03,0-.05,0-.08,0-.03,0-.05,0-.08,0-.03,0-.05,0-.08,0-.03,0-.05,0-.08,0-.03,0-.05,0-.08,0-.03,0-.05,0-.08,0-.03,0-.05,0-.08,0-.03,0-.05,0-.08,0-.03,0-.05,0-.08,0-.03,0-.05,0-.08,0-.03,0-.05,0-.08,0-.03,0-.05,0-.08,0-.03,0-.05,0-.08,0-.03,0-.05,0-.08,0-.03,0-.05,0-.08,0-.03,0-.05,0-.08,0-.03,0-.05,0-.08,0-.03,0-.05,0-.08,0-.03,0-.05,0-.08,0-.03,0-.05,0-.08,0-.03,0-.05,0-.08,0-.06,0-.13,0-.19.01-.75.12-1.15,1.06-.9,2.1.24.98.98,1.69,1.69,1.66.03,0,.05,0,.08,0,.03,0,.05,0,.08,0,.03,0,.05,0,.08,0,.03,0,.05,0,.08,0,.03,0,.05,0,.08,0,.03,0,.05,0,.08,0,.03,0,.05,0,.08,0,.03,0,.05,0,.08,0,.03,0,.05,0,.08,0,.03,0,.05,0,.08,0,.03,0,.05,0,.08,0,.03,0,.05,0,.08,0,.03,0,.05,0,.08,0,.03,0,.05,0,.08,0,.03,0,.05,0,.08,0,.03,0,.05,0,.08,0,.03,0,.05,0,.08,0,.03,0,.05,0,.08,0,.03,0,.05,0,.08,0,.03,0,.05,0,.08,0,.03,0,.05,0,.08,0,.03,0,.05,0,.08,0,.03,0,.05,0,.08,0,.03,0,.05,0,.08,0,.03,0,.05,0,.08,0,.03,0,.05,0,.08,0,.03,0,.05,0,.08,0,.03,0,.05,0,.08,0,.03,0,.05,0,.08,0,.03,0,.05,0,.08,0,.06,0,.13,0,.19-.01.75-.12,1.15-1.06.9-2.1Z"/>
              <path class="cls-12" d="M43.41,132.04c.25,1.03-.15,1.97-.9,2.1-.75.12-1.56-.61-1.81-1.65-.25-1.03.15-1.97.9-2.1.75-.12,1.56.61,1.81,1.65Z"/>
              <path class="cls-13" d="M42.61,132.15c.08.34-.06.65-.33.7-.26.04-.55-.2-.63-.54-.08-.34.06-.65.33-.7.26-.04.55.2.63.54Z"/>
            </g>
            <polygon class="cls-13" points="44.2 129.41 44.96 132.33 45.72 132.33 44.85 129.45 44.2 129.41"/>
            <polygon class="cls-13" points="42.13 132.23 49.62 132.19 49.73 132.64 42.14 132.51 42.13 132.23"/>
          </g>
          <path class="cls-21" d="M55.92,128.62c-1.25-4.96-12.91-.94-14.32.14,1.3.16,14.32-.14,14.32-.14Z"/>
          <path class="cls-20" d="M54.01,94.79c-.1.16-.2.31-.3.47-2.84,4.51-6.15,8.25-8.28,9.95-4.71,3.78-11.54,2.67-11.54,2.67l9.44-55.63c5.6,10.59,12.28,14.38,14.89,22.09.07.2.14.41.2.63.25.83.45,1.71.61,2.64.87,5.38-1.71,11.78-5.02,17.17Z"/>
          <g class="cls-5">
            <path class="cls-20" d="M58.43,74.98c-.07-.21-.13-.43-.2-.63-1.82,2.34-6.72,1.87-6.78,1.86l-.06.56c.23.02,4.9.47,7.04-1.79Z"/>
            <path class="cls-20" d="M48.76,92.72l-.16.53c2.45.74,4.07,1.45,5.11,2.01.1-.16.2-.31.3-.47-1.08-.58-2.74-1.31-5.25-2.07Z"/>
          </g>
          <path class="cls-9" d="M38.89,106.27c-.16.12-.31.24-.46.35-1.23.91-2.36,1.66-3.32,2.24-2.78,1.71-5.69-.31-8.13-3.45-.12-.16-.24-.32-.36-.48-2.2-2.99-3.96-6.82-4.81-9.47-1.83-5.69,7.9-52.91,7.9-52.91,4.55-3.78,8.2-3.98,10.97.33.1.16.21.33.31.5,1.16,1.99,2.16,4.83,3,8.58.4,1.8.91,3.36,1.48,4.75.08.18.15.37.23.54,2.41,5.54,5.81,8.45,7.28,14.02.05.18.09.36.14.55.57,2.44.79,5.4.41,9.27-.24,2.39-.69,4.61-1.32,6.67-.06.18-.11.36-.17.54-2.79,8.62-8.54,14.45-13.14,17.96Z"/>
          <g class="cls-5">
            <path class="cls-9" d="M40.67,42.89c-4.56,5.53-5.81,13.95-5.82,14.04l.55.08c.01-.09,1.22-8.21,5.58-13.61-.1-.18-.2-.34-.31-.5Z"/>
            <path class="cls-9" d="M45.46,56.72c-2.46,2.25-3.25,3.82-3.29,3.9l.5.25s.76-1.49,3.03-3.6c-.08-.18-.15-.36-.23-.54Z"/>
            <path class="cls-9" d="M53.11,71.83c-.04-.19-.09-.37-.14-.55-3.31.23-6.61,1.93-6.77,2.01l.26.5s3.41-1.76,6.65-1.96Z"/>
            <path class="cls-9" d="M52.2,87.77c-3.25-.41-6.34-2.43-6.37-2.46l-.31.46c.1.07,1.57,1.03,3.55,1.77.91.34,1.92.63,2.96.77.06-.18.11-.36.17-.54Z"/>
            <path class="cls-9" d="M35.05,101.13l-.51.22c.08.18,1.49,3.32,3.89,5.27.15-.12.31-.23.46-.35-2.37-1.88-3.82-5.09-3.84-5.14Z"/>
            <path class="cls-9" d="M26.62,104.94c.12.16.24.32.36.48,1.8-3.05,3.77-4.39,3.8-4.41l-.31-.46c-.1.07-2.03,1.38-3.85,4.39Z"/>
          </g>
          <path class="cls-6" d="M80.54,68c-.66.02-3.54-1.45-3.54-1.45,0,0-4.05,3.1-12.75,3.8-1.25.1-2.49.14-3.71.11-7.31-.15-14.15-2.45-19.5-5.35-3.26-1.77-7.12-2.98-10.02-5.27-.76-.6-1.44-1.51-1.28-2.47.14-.84.87-1.46,1.65-1.8,3.54-1.54,5.68,1.85,8.52,3.15,3.35,1.54,6.99,2.36,10.63,2.83,8.67,1.13,17.72-4.05,17.72-4.05,0,0,1.02-4.49,1.28-5.19.26-.69,2.13-1.84,2.71-1.62.58.22,2.25,4.92,2.25,4.92,0,0,3.55-3.15,3.98-3.26.43-.1,2.65,1.38,2.55,2.01-.1.62-3.23,4.06-3.23,4.06,0,0,4.48-.7,4.97-.25.49.45,1.3,2.86.7,3.42-.61.56-4.81,1.24-4.81,1.24,0,0,3.12,2.22,3.3,2.81.17.59-.75,2.35-1.41,2.37Z"/>
          <path class="cls-6" d="M70.52,112.48c-.4.81-1.89.02-2.66-.46-.29-.18-.47-.32-.47-.32,0,0-.04,0-.13-.01-1.36-.1-13.37-1.06-16.29-1.9-3.09-.89-14.52-12.28-14.52-12.28l3.1-3.72s2.7-1.23,3.86,1.31c0,0,.51.36,1.26.91,2,1.45,5.72,4.17,6.05,4.59.45.56,12.68-5.02,14.86-3.81.69.38,1.71,1.5,2.71,3.04.1.15.2.31.3.48.57.94,1.12,2,1.57,3.14.08.19.15.38.22.57.06.15.11.31.16.46.06.18.12.37.17.55.41,1.38.65,2.8.6,4.18,0,.19-.02.38-.04.56,0,.02,0,.04,0,.05-.02.22-.05.44-.09.65-.04.2-.08.4-.13.6-.12.48-.29.95-.51,1.41Z"/>
          <path class="cls-23" d="M70.52,112.48c-.4.81-1.89.02-2.66-.46-.29-.18-.47-.32-.47-.32,0,0-.04,0-.13-.01-1.36-.1-13.37-1.06-16.29-1.9-3.09-.89-14.52-12.28-14.52-12.28l3.1-3.72s2.7-1.23,3.86,1.31c0,0,.51.36,1.26.91-1.75,1.76-.3,11.42,7.51,12.64,7.5,1.17,14.51-.45,18.85,2.41-.12.48-.29.95-.51,1.41Z"/>
          <path class="cls-6" d="M37.68,128.94c-.42.2-1.1.36-1.96.46-.44.06-.93.1-1.45.13-.18.01-.37.02-.56.03-1.13.05-2.38.06-3.65.03h-.53s-.04-.01-.06-.01c-.18,0-.37-.01-.55-.02-1.1-.04-2.18-.11-3.17-.19-.18-.01-.35-.03-.53-.04-.18-.02-.36-.03-.53-.05-.2-.02-.4-.04-.59-.07-1.7-.19-2.85-.42-2.83-.64.02-.46.89-1.48,1.65-2.4.14-.16.27-.32.39-.48.29-.36.53-.69.66-.93.48-.93,2.06-6.23,2.29-12.36.05-1.29.03-2.48-.06-3.59h0c-.33-4.18-1.56-7.28-3.16-10.73l6.62,2.23s3.41,7.34,6.37,11.81c2.96,4.46,3.12,16.08,1.62,16.83Z"/>
          <path class="cls-23" d="M37.68,128.94c-.42.2-1.1.36-1.96.46.44-1.52.75-3.74.39-6.78-.8-6.69-4.4-14.38-6.45-16.08-.97-.81-3.13-.24-3.44,2.26-.33-4.17-1.56-7.27-3.16-10.72l6.62,2.23s3.41,7.34,6.37,11.81c2.96,4.46,3.12,16.08,1.62,16.83Z"/>
          <path class="cls-6" d="M34.65,45.57c.7,8.61,3.51,12.21,5.71,13.44,2.2,1.23-1.23,2.99-1.23,2.99l-15.2.18s6.32-7.38,1.23-11.42,9.49-5.18,9.49-5.18Z"/>
          <path class="cls-19" d="M43.41,95.11s-3.58-.29-5.76,2.72c-.43.59-.78,1.27-1.09,1.97-.08.17-.15.34-.22.52-1.07,2.58-1.72,5.37-3.63,5.75-.13.03-.25.04-.39.05-.1,0-.2,0-.31-.02-1.36-.18-3.82-1.73-6.35-4.44-.13-.14-.27-.29-.4-.44-3.38-3.78-6.76-9.63-7.66-17.09-.02-.17-.04-.35-.06-.52,0-.02,0-.05,0-.07-.14-1.36-.19-2.69-.18-3.98.02-2.81.37-5.47.94-7.91.05-.24.11-.47.17-.7,1.08-4.19,2.82-7.68,4.7-10.08.13-.17.26-.33.39-.48,1.36-1.62,2.78-2.67,4.06-3.01.1-.03.19-.05.28-.06.12-.02.23-.04.35-.06,1.93-.29,3.61.16,5.06.96.44.24.85.51,1.25.8.16.11.32.24.47.36,2.58,2.05,4.44,4.93,6.02,5.74,1.18.61,2.7,1.56,4.05,3.1.12.14.24.28.36.43,1.65,2.07,2.94,5.1,2.82,9.58,0,.05,0,.11,0,.17,0,.22-.02.43-.03.65-.48,8.09-4.82,16.08-4.82,16.08Z"/>
          <path class="cls-22" d="M22.53,84.89c.92,5.28,2.84,9.88,4.91,13.56,1.36-.43,6.54.73,9.12,1.35-.08.17-.15.34-.22.52-3.28-.79-7.52-1.63-8.62-1.37,1.77,3.08,3.62,5.5,4.99,7.12-.13.03-.25.04-.39.05-.1,0-.2,0-.31-.02-1.35-1.63-3.09-3.95-4.77-6.86-.58.51-1.16,1.54-1.58,2.42-.13-.14-.27-.29-.4-.44.43-.89,1.05-1.93,1.71-2.48-2.11-3.77-4.08-8.47-5-13.89-1.53-.12-3-.35-4.37-.73-.02-.17-.04-.35-.06-.52,0-.02,0-.05,0-.07,1.35.39,2.81.64,4.34.77-.81-5.28-.16-9.73,1.13-14.11-1.57.19-3.14.63-4.72,1.46.05-.24.11-.47.17-.7,1.57-.75,3.15-1.15,4.71-1.32.64-2.1,1.42-4.19,2.24-6.36-1.11-.48-1.83-1.53-2.26-2.41.13-.17.26-.33.39-.48.37.83,1.03,1.91,2.07,2.37l.12-.31c.62-1.64,1.26-3.32,1.88-5.07.1-.03.19-.05.28-.06.12-.02.23-.04.35-.06-.65,1.87-1.33,3.65-1.99,5.39l-.1.28c1.6.25,5.89-2.26,8.41-3.91.16.11.32.24.47.36-2.21,1.45-7.15,4.5-9.08,4.07-.79,2.09-1.55,4.11-2.17,6.13,3.33-.22,6.61.57,9.65,1.31.54.13,1.07.26,1.6.39,4.25.98,8.48-1.82,10.07-3.06.12.14.24.28.36.43-1.65,1.29-6,4.22-10.55,3.17-.53-.12-1.07-.25-1.61-.38-3.18-.77-6.42-1.55-9.68-1.29-1.32,4.43-2,8.9-1.16,14.22,9.17.6,20.57-2.93,25.82-5.96,0,.22-.02.43-.03.65-5.43,3.01-16.61,6.4-25.7,5.86Z"/>
          <g class="cls-4">
            <path class="cls-6" d="M50.9,108.51c-.08-.03-.14-.06-.2-.09-.25-.14-.3-.32-.31-.44-.03-.53.84-1.46,1.21-1.83.11-.11.28-.11.39,0,.11.11.11.28,0,.39-.54.54-1.01,1.16-1.05,1.38.27.23,1.88.38,2.61,0,.02-.01.06-.03.05-.15-.04-.79-1.64-2.65-2.08-2.81-.14-.05-.22-.21-.16-.36.05-.14.21-.22.36-.16.62.23,2.38,2.24,2.44,3.3.02.42-.21.61-.35.68-.74.38-2.19.36-2.91.09ZM50.94,107.95h0s0,0,0,0Z"/>
          </g>
          <g class="cls-4">
            <path class="cls-6" d="M70.37,104.02c-4.6-.14-4.86-.77-4.96-1.03-.31-.77,1.39-2.14,2.87-3.16.1.15.2.31.3.48-1.61,1.12-2.77,2.17-2.65,2.47.09.2,1.12.55,4.23.67.08.19.15.38.22.57Z"/>
            <path class="cls-6" d="M71.26,109.77c-1.57-.28-4.23-.88-4.48-1.88-.2-.81,1.31-1.95,3.75-3.4.06.18.12.37.17.55-3.04,1.83-3.44,2.49-3.38,2.73.13.51,2,1.1,3.98,1.45,0,.19-.02.38-.04.56Z"/>
            <path class="cls-6" d="M71.17,110.48c-1.14.52-2.39,1.1-3.31,1.54-.29-.18-.47-.32-.47-.32,0,0-.04,0-.13-.01.72-.35,1.94-.92,4-1.87-.02.22-.05.44-.09.65Z"/>
          </g>
          <g class="cls-4">
            <path class="cls-6" d="M32.03,114.02c-.63,0-1.61-1.04-2.03-1.52-.1-.11-.09-.29.02-.39.11-.11.27-.11.37,0,.64.73,1.4,1.36,1.64,1.36.09-.44-.37-1.63-1.1-2.57-.51-.66-1.02-1.04-1.37-1.01-.08,0-.14.04-.2.12-.38.54-.16,2.39.07,3.43.03.15-.05.3-.19.35-.14.04-.28-.04-.31-.19-.07-.3-.63-2.97.03-3.9.15-.22.36-.34.6-.36.68-.05,1.35.62,1.79,1.2.72.94,1.37,2.34,1.2,3.04-.07.3-.26.4-.36.43-.05.01-.09.02-.15.02Z"/>
          </g>
          <g class="cls-4">
            <path class="cls-6" d="M24.72,129.28c-.2-.02-.4-.04-.59-.07l-1.18-3.04c.14-.16.27-.32.39-.48l1.38,3.58Z"/>
            <path class="cls-6" d="M29.49,129.57c-.18,0-.37-.01-.55-.02-.35-1.67-.92-3.31-1.53-3.31h-.02c-.59.04-1.2,1.54-1.62,3.12-.18-.01-.35-.03-.53-.04.4-1.57,1.11-3.57,2.14-3.64h.05c1.09,0,1.73,2.29,2.05,3.89Z"/>
            <path class="cls-6" d="M34.28,129.53c-.18.01-.37.02-.56.03-.56-1.6-1.33-3.12-1.93-3.04-.65.09-1.29,1.61-1.72,3.07h-.53c.41-1.45,1.17-3.48,2.22-3.62,1.07-.15,1.99,1.99,2.52,3.56Z"/>
          </g>
          <path class="cls-3" d="M43.41,95.11s-3.58-.29-5.76,2.72c-.43.59-.78,1.27-1.09,1.97-.08.17-.15.34-.22.52-1.07,2.58-1.72,5.37-3.63,5.75-.13.03-.25.04-.39.05-.1,0-.2,0-.31-.02-1.36-.18-3.82-1.73-6.35-4.44-.13-.14-.27-.29-.4-.44-3.38-3.78-6.76-9.63-7.66-17.09-.02-.17-.04-.35-.06-.52,0-.02,0-.05,0-.07-.14-1.36-.19-2.69-.18-3.98,10.59,28.5,23.81,12.92,25.28,1.43,1.15-9-3.92-18.48-9.33-22.78.44.24.85.51,1.25.8.16.11.32.24.47.36,2.58,2.05,4.44,4.93,6.02,5.74,1.18.61,2.7,1.56,4.05,3.1.12.14.24.28.36.43,1.65,2.07,2.94,5.1,2.82,9.58,0,.05,0,.11,0,.17,0,.22-.02.43-.03.65-.48,8.09-4.82,16.08-4.82,16.08Z"/>
          <path class="cls-19" d="M27.6,112.2c.04.1.06.16.07.18-.03-.05-.05-.11-.07-.18Z"/>
          <path class="cls-6" d="M34.76,52.12c-.03.33-.07.66-.12.99-.09.57-.22,1.18-.63,1.6-.49.5-1.26.6-1.96.57-3.12-.14-4.25-2.37-6.6-3.93-2.01-1.33-4.31-2.17-6.62-2.84-3.38-.98-8.12-1.12-10.99-3.33-5.29-4.08-2.03-31.62-.81-32.31,1.23-.69,3.89.7,3.89.7,0,0,7.87-1.7,12.87-.95,7.07-3.07,9.25-.12,10.88,5.74,3.11,2.58,3.84,11.93,2.22,17.8-.82,2.96-1.66,5.98-1.92,9.05-.2,2.31.01,4.62-.2,6.93Z"/>
          <path class="cls-23" d="M7.84,45.18c-2.27-1.75-2.97-7.85-2.92-14.28.02-3.07.21-6.21.47-9,.48-4.96,1.19-8.78,1.64-9.03,1.23-.69,3.89.7,3.89.7-.28.21-1,2.27-1.55,7.03-.14,1.14-.26,2.44-.37,3.9-.1,1.37-.19,2.89-.25,4.57-.01.33-.02.67-.04,1.02-.02.8-.01,1.56.04,2.29.7,9.89,8.27,13.06,18.1,6.21-.07.05.36.17.22.33-4.36,4.88-16.91,8.06-19.23,6.26Z"/>
          <path class="cls-23" d="M26.74,37.34c-.45.75.43,2.81,1.02,2.23.59-.57-.78-2.64-1.02-2.23Z"/>
          <path class="cls-10" d="M29.77,26.91c-.61,4.08-3.59,7.02-6.65,6.56-3.07-.46-5.06-4.13-4.46-8.21.61-4.08,3.59-7.02,6.65-6.56,3.07.46,5.06,4.13,4.46,8.21Z"/>
          <path class="cls-7" d="M24.61,26.4c-.3,2.02-1.77,3.47-3.29,3.24-1.52-.23-2.5-2.04-2.2-4.06.3-2.02,1.77-3.47,3.29-3.24,1.52.23,2.5,2.04,2.2,4.06Z"/>
          <path class="cls-11" d="M21.15,25.73c-.1.67-.59,1.16-1.1,1.08-.51-.08-.83-.68-.73-1.35.1-.67.59-1.16,1.1-1.08.51.08.83.68.73,1.35Z"/>
          <path class="cls-10" d="M8.75,32.37c-.53,1-1.17,1.58-1.82,1.54-.89-.05-1.61-1.23-2.01-3.01-.29-1.28-.42-2.88-.32-4.6.09-1.66.38-3.18.79-4.4.61-1.81,1.48-2.95,2.39-2.9.62.03,1.17.63,1.58,1.6-.14,1.14-.26,2.44-.37,3.9-.1,1.37-.19,2.89-.25,4.57-.01.33-.02.67-.04,1.02-.02.8-.01,1.56.04,2.29Z"/>
          <path class="cls-7" d="M8.75,29.06c-.39.84-.95,1.37-1.54,1.33-1.02-.06-1.76-1.76-1.64-3.79.12-2.03,1.04-3.64,2.06-3.58.59.03,1.08.61,1.37,1.47-.1,1.37-.19,2.89-.25,4.57Z"/>
          <path class="cls-11" d="M7.25,26.09c-.1.67-.39,1.19-.64,1.15-.25-.04-.38-.61-.28-1.29.1-.67.39-1.19.64-1.15.25.04.38.61.28,1.29Z"/>
          <path class="cls-2" d="M30.6,27.11C30.6,26.79,0,27.22,0,27.22v3.16l2.5-.33s-.81,8.75.74,10.01c1.74,1.41,4.75.62,5.12.22,1.31-1.41,1-8.37,3.07-8.37,1.93,0,3.05,7.03,4.69,8.45,1.63,1.42,6.86.76,8.06-.65,1.2-1.42,2.93-9.76,2.93-9.76h3.59s-.11-2.5-.11-2.83ZM26.44,29.11l-.14.66c-.7,3.38-2.02,8.52-2.76,9.39-.47.56-2.32,1.15-4.32,1.15-1.18,0-2.13-.22-2.56-.59-.54-.47-1.16-2.14-1.7-3.61-.99-2.7-1.85-5.04-3.53-5.04-1.91,0-2.36,2.69-2.8,5.3-.2,1.2-.48,2.84-.84,3.31-.22.12-.98.36-1.92.36-.61,0-1.47-.11-2.1-.62-.64-.53-.85-4.87-.44-9.29l.14-2.12s13.96-.19,21.55-.19c.57,0,1.54,0,1.54,0l-.12,1.29Z"/>
          <path class="cls-1" d="M19.22,40.31c-1.18,0-2.13-.22-2.56-.59-.54-.47-1.16-2.14-1.7-3.61-.99-2.7-1.85-5.04-3.53-5.04-1.91,0-2.36,2.69-2.8,5.3-.2,1.2-.48,2.83-.84,3.3-.22.12-.98.36-1.92.36-.61,0-1.47-.11-2.1-.62-.64-.53-.85-4.87-.44-9.29l.14-2.12s13.95-.19,21.54-.19c.57,0,1.54,0,1.54,0l-.12,1.29-.14.66c-.7,3.38-2.02,8.52-2.76,9.39-.47.56-2.32,1.15-4.32,1.15Z"/>
          <path class="cls-2" d="M30.6,27.11l6.81-2.51c1.22-.45,2.55.3,2.79,1.58l.2,1.04c.06.34-.07.68-.34.88h0c-.45.34-1.09.18-1.34-.32l-.83-1.65-7.19,3.81-.11-2.83Z"/>
          <path class="cls-6" d="M.3,58.51c-.55.39.43,3.97.6,4.14.17.17,2.11.22,2.5,0,.39-.22.22-3.71.09-4.06s-2.89-.3-3.19-.09Z"/>
          <path class="cls-6" d="M1.08,63.56c-.55.39.43,3.97.6,4.14s2.11.22,2.5,0,.22-3.71.09-4.06-2.89-.3-3.19-.09Z"/>
          <path class="cls-6" d="M2.31,67.29c-.48.34.38,3.46.53,3.61.15.15,1.84.19,2.18,0,.34-.19.19-3.23.08-3.53-.11-.3-2.52-.26-2.78-.08Z"/>
          <path class="cls-8" d="M30.25,13.82s13.64-.47,14.89-4.86-18.07,1.9-18.07,1.9l3.18,2.96Z"/>
          <path class="cls-15" d="M5.31,49.98l.83-4.39,11.89-3s.72,0,.62.83c-.83.26-11.63,2.95-11.63,2.95l-.52,3.72-1.19-.1Z"/>
          <path class="cls-15" d="M10.41,14.95c4.73,5.95,19.84-1.13,19.84-1.13C30.25,13.82,25.54.35,21.06,0c-4.48-.35-10.64,14.94-10.64,14.94Z"/>
          <path class="cls-6" d="M12.65,12.92l-.49,1.79s.01.85,3.04,1.25c3.02.39,5.37-.22,5.37-.22,0,0,.11-2.39.05-2.22-.03.09-2.98.49-5.22.29-1.63-.14-2.76-.89-2.76-.89Z"/>
          <path class="cls-9" d="M1.93,128.62h53.95v.19c0,.64-.52,1.16-1.16,1.16H3.09c-.64,0-1.16-.52-1.16-1.16v-.19h0Z"/>
          <path class="cls-9" d="M1.93,128.62c1.25-4.96,12.91-.94,14.32.14-1.3.16-14.32-.14-14.32-.14Z"/>
          <polygon class="cls-19" points=".09 50.92 .3 52.16 13.12 53.03 13.27 51.85 11.82 51.54 11.57 49.83 2.16 49.31 1.54 50.35 .09 50.92"/>
          <path class="cls-16" d="M3.84,28.19s-.94,7.76-.04,10.15c.33.89,3.72.86,3.72.86l.94-10.93-4.62-.08Z"/>
          <path class="cls-17" d="M14.14,28.38c-.51.82.86,8.42,3.1,10.97.95,1.09,5.99-.43,5.99-.43l2.08-10.42-11.17-.12Z"/>
        </g>
      </g>
    </g>
  </g>
</svg>