<?xml version="1.0" encoding="UTF-8"?>
<svg xmlns="http://www.w3.org/2000/svg" viewBox="0 0 70.9 121.61">
  <defs>
    <style>
      .cls-1 {
        fill: #abc950;
      }

      .cls-2 {
        fill: #2c3352;
      }

      .cls-3 {
        fill: #7c564e;
      }

      .cls-4 {
        fill: #f7fafa;
      }

      .cls-5 {
        fill: #fff;
      }

      .cls-6 {
        fill: #657331;
      }

      .cls-7 {
        fill: #fff240;
        mix-blend-mode: screen;
        opacity: .3;
      }

      .cls-8 {
        fill: #e55757;
      }

      .cls-9 {
        isolation: isolate;
      }

      .cls-10 {
        opacity: .5;
      }

      .cls-10, .cls-11 {
        mix-blend-mode: multiply;
      }

      .cls-10, .cls-12 {
        fill: #f4d692;
      }

      .cls-13 {
        fill: #b7a16e;
      }

      .cls-14 {
        fill: #94ad3d;
      }
    </style>
  </defs>
  <g class="cls-9">
    <g id="Layer_2" data-name="Layer 2">
      <g id="_1" data-name="1">
        <g>
          <path class="cls-3" d="M55.98,79.14c-.06,3.45-.54,6.91-1.56,10.15-.06.22-.13.44-.21.65-1.81,5.42-5.12,10.19-10.33,13.28-2.34,1.38-4.88,2.38-7.49,2.99-.18.04-.37.09-.56.12-3.41.71-6.94.77-10.36.17-.19-.04-.39-.07-.58-.11-3.55-.71-6.95-2.13-9.95-4.28-8.37-5.99-10.81-16.47-10.33-26.26.34-6.88,1.78-11.33,3.77-14.75.1-.17.2-.34.3-.51,2.63-4.28,6.13-6.96,9.31-11.02.12-.16.24-.31.37-.47,2.12-2.81,4.07-6.3,5.5-11.38l5,.93s.57,2.39,1.4,6.28c.83-3.89,1.4-6.28,1.4-6.28l5-.93c1.43,5.08,3.38,8.57,5.5,11.38.12.16.24.32.37.47,3.18,4.07,6.68,6.75,9.31,11.02.1.17.2.34.3.51,1.46,2.5,2.62,5.56,3.27,9.72.03.19.06.39.09.58.19,1.36.33,2.84.41,4.45.06,1.1.08,2.2.06,3.3Z"/>
          <g class="cls-11">
            <path class="cls-3" d="M18.37,49.08c-.12.16-.24.32-.37.47,3.42,1,4.87,3.79,4.88,3.82l.5-.25c-.07-.14-1.51-2.95-5.01-4.05Z"/>
            <path class="cls-3" d="M8.69,60.58c-.1.17-.2.34-.3.51,3.21.56,5.07,2.51,5.09,2.54l.41-.38c-.09-.1-1.94-2.04-5.2-2.67Z"/>
            <path class="cls-3" d="M37.16,53.13l.5.25s1.46-2.83,4.88-3.82c-.12-.16-.24-.31-.37-.47-3.5,1.1-4.94,3.91-5.01,4.05Z"/>
            <path class="cls-3" d="M26.33,98.73c-1.68,2.43-1.62,5.82-1.43,7.65.19.04.38.07.58.11-.19-1.7-.31-5.11,1.31-7.44l-.46-.32Z"/>
            <path class="cls-3" d="M34.11,98.69c1.47,1.98,1.71,5.7,1.72,7.64.19-.04.37-.08.56-.12-.02-2.03-.28-5.75-1.84-7.85l-.44.33Z"/>
            <path class="cls-3" d="M55.5,71.39c-.03-.2-.06-.39-.09-.58-2.03-.26-5.63-.31-9.27,1.64l.26.49c3.57-1.91,7.17-1.8,9.1-1.55Z"/>
            <path class="cls-3" d="M47.3,85.1v.56c3.18.06,5.7,2.71,6.92,4.28.07-.21.14-.43.21-.65-1.35-1.67-3.88-4.12-7.13-4.19Z"/>
          </g>
          <path class="cls-1" d="M41.95,61.22c-.93.29-1.72.43-1.72.43,0,0-.4,0-1.08-.02-3.37-.06-13.79-.32-19.73-1.22-1.95-.3-3.41-.66-4-1.11,9.38-8.15,10.61-11.23,8.89-16.66-1.73-5.43-9.88-9.38-10.37-12.46-.2-1.26-.2-3.74-.12-6.24.11-3.6.37-7.22.37-7.22,0,0,.99-4.81.62-6.91-.37-2.1-.49-7.9,1.97-9.38,2.47-1.48,5.8,1.36,7.04,1.61,1.24.24,6.79.12,8.15.37,1.36.24,7.04-3.09,9.26-1.24,2.22,1.85,2.1,9.01,2.35,12.59.18,2.59,1.38,7.51,1.48,11.61.04,1.57-.09,3.03-.5,4.19-1.48,4.2-9.01,8.64-9.5,14.44-.36,4.16,1.26,7.49,4.16,10.19,1.14,1.06,2.48,2.02,3.99,2.89,3.67,2.13.85,3.5-1.24,4.14Z"/>
          <path class="cls-14" d="M35.04,44c-.36,4.16,1.26,7.49,4.16,10.19-5.66-1.36.9,6.35.9,6.35,0,0-.25.43-.96,1.09-2.1,1.97-8.24,6.01-23.85,6.93.18-.61.3-1.16.39-1.65h0c.75-4.25-1.56-4.46-3.68-3.75,1.14-1.39,2.3-2.67,3.42-3.85,9.38-8.15,10.61-11.23,8.89-16.66-1.73-5.43-9.88-9.38-10.37-12.46-.2-1.26-.2-3.74-.12-6.24.82,4.18,5.07,14.47,15.55,14.01,9.46-.42,14.36-9.66,15.68-12.58.04,1.57-.09,3.03-.5,4.19-1.48,4.2-9.01,8.64-9.5,14.44Z"/>
          <path class="cls-1" d="M43.19,57.08c8.36,2.47,12.81-1.23,15.21-10.95-1.76-.74-3.61-2.41-3.61-2.68s.65-2.59,1.02-2.68c.37-.09,3.24.37,3.24.37,0,0-.93-5.55-.65-5.92.28-.37,2.5-1.3,2.96-1.2.46.09,1.67,4.35,1.67,4.35,0,0,.09-4.72.74-5.09s3.05.65,3.05.65l.09,4.07s2.5-1.67,2.87-1.39c.37.28,1.11,1.11,1.11,1.85s-1.57,4.07-1.57,4.07c0,0-.82,13.98-9.53,20.36-6.57,4.81-17.31-.83-19.99-3.15.37-1.76,3.39-2.65,3.39-2.65Z"/>
          <ellipse class="cls-4" cx="18.92" cy="15.89" rx="4.95" ry="7.44"/>
          <path class="cls-2" d="M23.56,16.23c0,2.51-1.19,4.54-2.66,4.54s-2.66-2.03-2.66-4.54,1.19-4.54,2.66-4.54,2.66,2.03,2.66,4.54Z"/>
          <path class="cls-5" d="M23.25,16.23c0,.72-.34,1.3-.76,1.3s-.76-.58-.76-1.3.34-1.3.76-1.3.76.58.76,1.3Z"/>
          <path class="cls-4" d="M34.24,15.89c0,4.11,2.22,7.44,4.95,7.44s4.95-3.33,4.95-7.44-2.22-7.44-4.95-7.44-4.95,3.33-4.95,7.44Z"/>
          <path class="cls-2" d="M34.56,16.23c0,2.51,1.19,4.54,2.66,4.54s2.66-2.03,2.66-4.54-1.19-4.54-2.66-4.54-2.66,2.03-2.66,4.54Z"/>
          <path class="cls-5" d="M34.87,16.23c0,.72.34,1.3.76,1.3s.76-.58.76-1.3-.34-1.3-.76-1.3-.76.58-.76,1.3Z"/>
          <path class="cls-6" d="M33.28,30.81c-1.12,1.17-2.5,2.2-3.95,2.54-1.61.37-3.58-.48-5.11-1.65-1.91-1.46-3.15-3.4-2.2-4.09,2.04-1.48,13.42-1.94,13.79-1.11.22.5-.85,2.56-2.53,4.31Z"/>
          <path class="cls-8" d="M33.28,30.81c-1.12,1.17-2.5,2.2-3.95,2.54-1.61.37-3.58-.48-5.11-1.65,2.87-3.46,6.74-2.94,9.06-.88Z"/>
          <path class="cls-1" d="M20.91,100c.19,1.11,6.76,18.61,5.55,19.53-.81.62-1.82,1.08-2.96,1.4-.09.03-.17.05-.26.07-.18.05-.36.09-.55.13-1.68.37-3.57.5-5.41.47-.3,0-.6-.01-.9-.03-1.56-.07-3.07-.25-4.37-.48-.2-.04-.39-.07-.58-.11-.06-.01-.13-.02-.19-.04-.26-.05-.5-.11-.73-.16-1.62-.39-2.67-.84-2.67-1.17,0-.52.34-1.29.73-2.01.1-.18.2-.36.3-.52.42-.71.82-1.27.82-1.27,0,0,.28-11.76.56-13.89,0,0,0,0,0-.02.3-2.17,4.25-10.72,4.25-10.72,4.72-2.41,15.92,4.63,10.92,4.26-5-.37-4.72,3.43-4.54,4.54Z"/>
          <path class="cls-1" d="M52.68,119.62c0,.33-1.04.78-2.67,1.17-.23.05-.47.11-.73.16-.06.01-.13.03-.19.04-.19.04-.38.07-.58.11-1.3.23-2.8.41-4.37.48-.3.01-.6.03-.9.03-1.85.03-3.73-.09-5.41-.47-.19-.04-.37-.09-.55-.13-.07-.02-.14-.04-.22-.06-1.16-.32-2.18-.79-3-1.41-1.2-.93,5.37-18.42,5.55-19.53.19-1.11.46-4.91-4.54-4.54-5,.37,6.2-6.66,10.92-4.26,0,0,3.38,7.32,4.13,10.13,0,.01,0,.02,0,.03.06.23.1.42.12.58.28,2.13.56,13.89.56,13.89,0,0,.4.55.82,1.27.1.17.2.34.3.52.39.71.73,1.49.73,2.01Z"/>
          <path class="cls-14" d="M20.91,100c.19,1.11,6.76,18.61,5.55,19.53-.81.62-1.82,1.08-2.96,1.4,1.36-4.42-3.32-15.4-3.89-18.56-.62-3.46,1.48-7.65-2.34-8.15-4.88-.63-6.88,7.22-7,7.69.3-2.17,4.25-10.72,4.25-10.72,4.72-2.41,15.92,4.63,10.92,4.26-5-.37-4.72,3.43-4.54,4.54Z"/>
          <path class="cls-14" d="M50.14,101.33c-.57-1.92-2.64-7.65-6.84-7.1-3.82.49-1.73,4.69-2.34,8.15-.57,3.16-5.26,14.16-3.88,18.57-1.16-.32-2.18-.79-3-1.41-1.2-.93,5.37-18.42,5.55-19.53.19-1.11.46-4.91-4.54-4.54-5,.37,6.2-6.66,10.92-4.26,0,0,3.38,7.32,4.13,10.13Z"/>
          <g>
            <path class="cls-14" d="M49.28,120.95c.26-.05.5-.11.73-.16.71-1.26,1.43-2.45,1.93-3.18-.1-.18-.2-.36-.3-.52-.48.63-1.21,1.77-2.36,3.86Z"/>
            <path class="cls-14" d="M37.29,121.01c.18.05.36.09.55.13.39-.87,1.39-2.76,2.78-2.63,1.36.12,2.28,2.06,2.64,3.1.3,0,.6-.01.9-.03.57-2.15,1.13-2.83,1.51-3.01.17-.08.33-.08.51.01,1.06.5,1.89,1.72,2.34,2.52.2-.04.39-.07.58-.11-.46-.85-1.4-2.3-2.68-2.91-.33-.16-.67-.16-.99,0-.85.41-1.38,1.83-1.74,3.12-.45-1.21-1.42-3.08-3.01-3.23-1.82-.16-2.99,2.13-3.38,3.05Z"/>
          </g>
          <path class="cls-14" d="M46.82,104.01c-.1,0-.18-.02-.26-.04-.72-.22-1.6-1.22-1.93-2.19-.21-.63-.17-1.17.12-1.57.6-.83,2.16-.69,2.79-.59.25.04.94.08.84.48-.1.4-.62.12-.9.08-.46-.07-.93-.1-1.39-.04-.31.04-.71.15-.9.41-.23.31-.15.75-.04,1.06.29.86,1.08,1.69,1.57,1.84.14.04.3-.01.48-.16.5-.41.87-1.26.92-1.57-.22-.05-.82,0-1.44.09-.15.02-.29-.07-.32-.23-.03-.15.07-.3.23-.32,1.93-.33,2.04.09,2.08.26.11.42-.43,1.56-.99,2.09-.33.31-.63.41-.86.41Z"/>
          <path class="cls-14" d="M13.78,104.01c.1,0,.18-.02.26-.04.72-.22,1.6-1.22,1.93-2.19.21-.63.17-1.17-.12-1.57-.6-.83-2.16-.69-2.79-.59-.25.04-.94.08-.84.48.1.4.62.12.9.08.46-.07.93-.1,1.39-.04.31.04.71.15.9.41.23.31.15.75.04,1.06-.29.86-1.08,1.69-1.57,1.84-.14.04-.3-.01-.48-.16-.5-.41-.87-1.26-.92-1.57.22-.05.82,0,1.44.09.15.02.29-.07.32-.23.03-.15-.07-.3-.23-.32-1.93-.33-2.04.09-2.08.26-.11.42.43,1.56.99,2.09.33.31.63.41.86.41Z"/>
          <g>
            <path class="cls-14" d="M11.25,120.95c-.26-.05-.5-.11-.73-.16-.71-1.26-1.43-2.45-1.93-3.18.1-.18.2-.36.3-.52.48.63,1.21,1.77,2.36,3.86Z"/>
            <path class="cls-14" d="M23.24,121.01c-.18.05-.36.09-.55.13-.38-.87-1.39-2.76-2.78-2.63-1.36.12-2.28,2.06-2.64,3.1-.3,0-.6-.01-.9-.03-.57-2.15-1.13-2.83-1.51-3.01-.17-.08-.33-.08-.51.01-1.06.5-1.89,1.72-2.34,2.52-.2-.04-.39-.07-.58-.11.46-.85,1.4-2.3,2.68-2.91.33-.16.67-.16.99,0,.85.41,1.38,1.83,1.74,3.12.45-1.21,1.42-3.08,3.01-3.23,1.82-.16,2.99,2.13,3.38,3.05Z"/>
          </g>
          <path class="cls-12" d="M48.58,82.16c-.01.2-.03.4-.05.59-.59,6.17-2.52,8.45-2.52,8.45,0,0-6.26.62-9,3.94-.05.06-.1.12-.14.18-.04.1-.09.21-.14.31-.31.72-.63,1.38-.95,2-.71,1.99-1.49,3.04-2.52,3.6-.49.42-1.28.64-2.13.73-.19.02-.37.03-.56.03-.88.03-1.75-.07-2.35-.25-1.86-.55-2.86-2.41-3.47-4.1-.32-.61-.64-1.28-.96-2-.04-.1-.09-.21-.14-.31-.05-.07-.1-.13-.16-.19-2.73-3.31-8.98-3.93-8.98-3.93,0,0-2.11-2.5-2.59-9.33-.01-.2-.03-.4-.04-.61-.05-.87-.07-1.82-.06-2.84.03-2.33.49-4.77,1.24-7.13.06-.18.12-.37.18-.55,1.27-3.71,3.27-7.21,5.48-9.79.5-.58,1-1.12,1.52-1.6.83-.78,1.68-1.49,2.55-2.11h0c.17-.13.35-.25.52-.37,2.06-1.4,4.21-2.31,6.44-2.54.17-.02.33-.03.5-.04.02,0,.04,0,.06,0,2.52.16,4.95,1.2,7.26,2.85.17.12.33.24.5.36.74.56,1.47,1.18,2.19,1.85.51.48,1.02,1.02,1.52,1.6,2.23,2.61,4.24,6.14,5.51,9.89.06.19.13.38.19.57.18.57.34,1.14.49,1.72.44,1.77.7,3.56.73,5.29.02,1.37-.03,2.61-.11,3.73Z"/>
          <path class="cls-10" d="M48.58,82.16c-.01.2-.03.4-.05.59-.59,6.17-2.52,8.45-2.52,8.45,0,0-6.26.62-9,3.94-.05.06-.1.12-.14.18-.04.1-.09.21-.14.31-.31.72-.63,1.38-.95,2-.71,1.99-1.49,3.04-2.52,3.6-.49.42-1.28.64-2.13.73-.19.02-.37.03-.56.03-.88.03-1.75-.07-2.35-.25-1.86-.55-2.86-2.41-3.47-4.1-.32-.61-.64-1.28-.96-2-.04-.1-.09-.21-.14-.31-.05-.07-.1-.13-.16-.19-2.73-3.31-8.98-3.93-8.98-3.93,0,0-2.11-2.5-2.59-9.33-.01-.2-.03-.4-.04-.61-.05-.87-.07-1.82-.06-2.84.03-2.33.49-4.77,1.24-7.13.06-.18.12-.37.18-.55,1.27-3.71,3.27-7.21,5.48-9.79-9.31,23.02.31,36.72,15.68,33.02,11.8-2.84,13.77-13.98,13.55-20.85.44,1.77.7,3.56.73,5.29.02,1.37-.03,2.61-.11,3.73Z"/>
          <path class="cls-13" d="M30.33,84.86c-.16,2.3-.2,4.44-.17,6.39,2.12,0,5.39,2.63,6.85,3.9-.05.06-.1.12-.14.18-.04.1-.09.21-.14.31-1.67-1.47-4.78-3.84-6.56-3.83.1,4.62.6,8.14.96,10.16-.19.02-.37.03-.56.03-.37-2.04-.86-5.54-.96-10.1-1.68.51-4.31,2.48-5.82,3.75-.04-.1-.09-.21-.14-.31-.05-.07-.1-.13-.16-.19,1.66-1.39,4.42-3.37,6.1-3.82-.03-1.97.01-4.14.17-6.46-6.05-.08-12.38-.9-17.85-2.98-.01-.2-.03-.4-.04-.61,5.47,2.13,11.83,2.96,17.92,3.04.19-2.67.46-5.06.72-7.36.4-3.54.76-6.74.77-10.18-3.6,0-6.56,1.2-9.43,2.37-2.87,1.17-5.6,2.29-8.79,2.17.06-.18.12-.37.18-.55,3.01.06,5.63-1.01,8.39-2.14,2.92-1.19,5.94-2.43,9.65-2.41-.01-1.84-.14-3.75-.41-5.83-1.89-.16-6.25-2.22-8.08-3.13.17-.13.35-.25.52-.37,1.9.93,5.77,2.73,7.48,2.93-.24-1.7-.58-3.51-1.04-5.47.17-.02.33-.03.5-.04.02,0,.04,0,.06,0,.47,1.97.8,3.79,1.04,5.51,1.57-.2,4.75-1.86,6.22-2.66.17.12.33.24.5.36-1.36.75-4.85,2.61-6.64,2.85.27,2.08.39,4.01.4,5.85,3.67.13,6.05,1.28,8.35,2.38,2.12,1.02,4.15,2,7.11,2.25.06.19.13.38.19.57-3.22-.24-5.41-1.29-7.54-2.32-2.24-1.08-4.56-2.2-8.1-2.33,0,3.54-.37,6.78-.76,10.23-.26,2.29-.53,4.66-.72,7.31,7.15.04,13.86-.96,18.21-2.14-.01.2-.03.4-.05.59-4.32,1.14-10.85,2.11-17.81,2.11-.13,0-.26,0-.39,0Z"/>
          <g>
            <path class="cls-1" d="M15.68,66.9c-2.54,5.69-3.94,12.09-3.2,15.04,1.11,4.44,4.63,5.37,4.44,6.39-.19,1.02-1.3,2.31-2.22,2.31s-4.35-1.67-4.35-1.67c0,0,2.31,4.72,2.04,6.02-.28,1.3-1.76,2.87-2.59,2.68-.83-.19-1.57-1.11-1.57-1.11,0,0-.48.49-1.07.92-.56.41-1.21.79-1.61.65-.83-.28-1.67-1.2-1.67-1.2,0,0-.6.44-1.23.48-.32.02-.65-.07-.9-.39-1.61-2.01-2.5-6.02-.93-12.31,2.27-9.06,6.68-16.14,11.17-21.58h0c1.14-1.39,2.3-2.67,3.42-3.85,0,0,3.73-.96,4.84.06-.29.33-.57.68-.85,1.04-1.4,1.83-2.67,4.1-3.73,6.49h0Z"/>
            <path class="cls-14" d="M8.23,96.57s-.48.49-1.07.92c-1.08-3.04-.69-5.46-.69-5.46,0,0,.37,2.31,1.76,4.54Z"/>
            <path class="cls-14" d="M3.88,96.94s-.6.44-1.23.48c-.77-2.49.03-4.55.03-4.55,0,0,0,2.5,1.2,4.07Z"/>
          </g>
          <path class="cls-7" d="M30.48,55.84c-10.74,0-21.72,32.95-.12,32.95s10.49-32.95.12-32.95Z"/>
          <path class="cls-14" d="M20.26,59.36c-.29.33-.57.68-.85,1.04-1.4,1.83-2.67,4.1-3.73,6.49.75-4.24-1.56-4.45-3.68-3.75,1.14-1.39,2.3-2.67,3.42-3.85,0,0,3.73-.96,4.84.06Z"/>
        </g>
      </g>
    </g>
  </g>
</svg>