<?xml version="1.0" encoding="UTF-8"?>
<svg xmlns="http://www.w3.org/2000/svg" viewBox="0 0 85.59 119.88">
  <defs>
    <style>
      .cls-1 {
        fill: #abc950;
      }

      .cls-2 {
        fill: #2c3352;
      }

      .cls-3, .cls-4 {
        fill: #7c564e;
      }

      .cls-5 {
        fill: #f7fafa;
      }

      .cls-6 {
        fill: #fff;
      }

      .cls-7 {
        fill: #422121;
      }

      .cls-8 {
        fill: #657331;
      }

      .cls-9 {
        fill: #e55757;
      }

      .cls-10 {
        isolation: isolate;
      }

      .cls-11 {
        opacity: .4;
      }

      .cls-11, .cls-12 {
        fill: #f4d692;
      }

      .cls-11, .cls-4, .cls-13 {
        mix-blend-mode: multiply;
      }

      .cls-14 {
        fill: #b7a16e;
      }

      .cls-4, .cls-13 {
        opacity: .5;
      }

      .cls-15 {
        fill: #94ad3d;
      }
    </style>
  </defs>
  <g class="cls-10">
    <g id="Layer_2" data-name="Layer 2">
      <g id="_1" data-name="1">
        <g>
          <path class="cls-1" d="M29.66,118.94c-.46.22-1.62.36-3.15.42-.87.04-1.86.06-2.91.05-.2,0-.4,0-.59,0-1.49-.01-3.06-.07-4.55-.16-.2-.01-.39-.02-.58-.03-.19-.01-.37-.03-.56-.04-.2-.01-.4-.03-.6-.05-2.23-.18-4.07-.44-4.84-.75-.22-.09-.35-.18-.38-.29,0-.03-.01-.07-.02-.11-.18-1.23,1.33-3.43,1.41-4.37.08-.96-2.13-14.01-.89-16.31,1.34-2.48,4.26-4.49,6.82-5.87,2.52-1.36,4.71-2.11,4.71-2.11l3.02,6.04-4.41,4.59s9.53,18,7.52,18.97Z"/>
          <path class="cls-15" d="M29.66,118.94c-.46.22-1.62.36-3.15.42.2-.24.33-.5.36-.79.27-2.29-7.69-17.16-7.69-17.16,0,0,5.42-3.51,4.06-7.37-.8-2.27-2.85-2.66-4.41-2.6,2.52-1.36,4.71-2.11,4.71-2.11l3.02,6.04-4.41,4.59s9.53,18,7.52,18.97Z"/>
          <g class="cls-13">
            <path class="cls-1" d="M15.19,101.78c-.2,0-.4-.02-.6-.05-1.09-.2-1.87-.85-2.03-1.71-.24-1.29.37-2.67,1.08-3.27.39-.32.81-.43,1.19-.29.14.05.22.21.17.35-.05.14-.2.21-.34.16-.24-.09-.49.06-.66.2-.59.49-1.1,1.69-.91,2.77.14.74.9,1.13,1.57,1.25.88.16,1.67-.1,1.94-.62.09-.18.1-.34.02-.51-.29-.67-1.63-1.23-2.12-1.39-.14-.05-.23-.2-.19-.34.04-.14.19-.22.34-.17.21.07,2.02.69,2.46,1.71.14.32.13.66-.03.97-.34.68-1.13.95-1.9.95Z"/>
          </g>
          <g class="cls-13">
            <path class="cls-1" d="M17.32,119.19c-.2-.01-.4-.03-.6-.05-.49-1.2-1.36-3.19-1.91-3.19-.66,0-1.98,1.32-2.92,2.43-.22-.09-.35-.18-.38-.29,0-.03-.01-.07-.02-.11.81-.96,2.33-2.58,3.3-2.58.9,0,1.72,1.75,2.54,3.78Z"/>
            <path class="cls-1" d="M23.6,119.42c-.2,0-.4,0-.59,0-.85-1.75-1.82-3.2-2.34-3.11-.71.13-1.62,1.71-2.21,2.95-.2-.01-.39-.02-.58-.03.59-1.32,1.63-3.26,2.67-3.45,1.06-.19,2.31,2.06,3.06,3.65Z"/>
          </g>
          <path class="cls-3" d="M61.59,76.68c0,.2,0,.4,0,.6.01,1.7-.11,3.47-.39,5.32-.17,1.14-.4,2.32-.71,3.53-.5,2.03-1.24,3.92-2.16,5.64-.08.16-.17.32-.26.47-5.16,9.15-15.67,13.36-24.88,9.29-1.28-11.76,2.78-34.15,5.84-48.66,1.71-8.07,3.1-13.69,3.1-13.69l3.6-.54c1.64.28,2.78.78,3.61,1.48,1.11.93,1.67,2.24,2.1,3.88h0c.05.19.09.37.14.57.61,2.49,1.07,5.68,2.72,9.5h0c.03.08.07.15.1.23.04.09.08.18.12.28.06.13.12.25.17.38,3.23,6.85,6.64,13.4,6.86,21.71Z"/>
          <path class="cls-4" d="M61.59,76.68c0,.2,0,.4,0,.6.01,1.7-.11,3.47-.39,5.32-2.24-2.03-5.72-4.47-9.35-4.26l-12.81-25.46c1.71-8.07,3.1-13.69,3.1-13.69l3.6-.54c1.64.28,2.78.78,3.61,1.48-2.18,2.8-3.91,6.81-2.24,10.3,1.01,2.12,3.97,3.27,7.31,3.88.04.09.08.18.12.28.06.13.12.25.17.38,3.23,6.85,6.64,13.4,6.86,21.71Z"/>
          <g class="cls-13">
            <path class="cls-3" d="M51.61,44.58c-2.7-.14-6.77.1-9.73,2.27l-.34-.44c3.06-2.25,7.15-2.53,9.92-2.4h0c.05.19.09.37.14.57Z"/>
            <path class="cls-3" d="M54.56,54.59c-1.91.65-4.42,1.71-6.43,3.31l-.35-.43c2.06-1.64,4.6-2.72,6.55-3.39h0c.07.17.15.33.22.5Z"/>
            <path class="cls-3" d="M61.59,76.68c0,.2,0,.4,0,.6-2.46-1.12-7.41-3.01-11.44-2.11l-.14-.53c4.13-.91,9,.88,11.57,2.04Z"/>
            <path class="cls-3" d="M58.34,91.78c-.08.16-.17.32-.26.47-2.38-1.44-7.8-5.01-8.8-8.22l.52-.15c.93,2.99,6.22,6.48,8.55,7.89Z"/>
          </g>
          <path class="cls-7" d="M53.64,86.68c-2.17,9.24-12.5,13.77-16.9,12.51-4.4-1.27,1.61-14.32,1.61-14.32l14.91-3.44.39,5.26Z"/>
          <path class="cls-1" d="M71.37,108.79c-.74,3.24-4.59,8.37-8.49,10.31h0c-1.34.67-2.69.96-3.92.66-.39-.09-.77-.24-1.13-.46-1.4-.84-3.22-2.7-5.16-5.17-4.79-6.06-10.27-15.73-11.71-22.56,0,0,.1-6.71,4.95-3.26,1.06,1.93,2.2,3.68,3.39,5.26,0,0,0,0,0,0,6.55,8.65,14.53,12.18,16.7,13.02.36.14.57.21.57.21,0,0,5.87-2.72,4.79,1.99Z"/>
          <path class="cls-15" d="M52.67,114.14c-4.79-6.06-10.27-15.73-11.71-22.56,0,0,.1-6.71,4.95-3.26,1.06,1.93,2.2,3.68,3.39,5.26-2.64-1.74-5.72-2.07-5.48,1.45.22,3.26,6.07,14.15,8.85,19.12Z"/>
          <path class="cls-15" d="M62.94,108.07s1.45-3.14,2.9-3.14,2.71,1.21,2.05,2.9c-.66,1.69-4.94.24-4.94.24Z"/>
          <path class="cls-15" d="M71.37,108.79c-.74,3.24-4.59,8.37-8.49,10.31h0c-1.34.67-2.69.96-3.92.66-1.67-1.69,2.77-9.45,3.98-11.7l3.07-1.48c.36.14.57.21.57.21,0,0,5.87-2.72,4.79,1.99Z"/>
          <g class="cls-13">
            <path class="cls-1" d="M51.78,100.35c-1.18,0-3.05-.68-3.79-1.28-.36-.29-.51-.58-.44-.86.26-1.05,2.42-.54,2.85-.43.15.04.24.19.21.33-.03.14-.18.23-.32.19-.86-.22-2.11-.33-2.2.05,0,.02.02.12.24.3.89.72,3.3,1.38,3.9,1.08.02-.01.08-.04.03-.24-.21-.9-2.15-2.9-3.32-2.99-.15-.01-.27-.14-.26-.29,0-.15.13-.27.28-.25,1.45.11,3.57,2.32,3.83,3.43.13.54-.17.76-.3.83-.18.09-.42.13-.7.13Z"/>
          </g>
          <path class="cls-1" d="M85.1,75.63c-.88.54-4.88.36-4.88.36,0,0,4.33,4.17,4.36,4.71.02.54-.99,2.36-2.28,1.99-1.28-.36-4.63-2.54-4.63-2.54,0,0,.93,5.26.6,5.98-.33.73-1.95,1.09-2.89.18-.94-.91-1.01-2.72-2.15-3.99-4.2-.91-18.54-15.65-25.93-19.27-1.82-.9-3.49-1.79-4.98-2.64-4.53-2.6-7.31-4.73-7.31-4.73,0,0-1.03.65-2.6,1.69-4.33,2.87-12.76,8.78-15.13,12.63-3.23,5.26-6.84,5.8-6.84,5.8,0,0-1.06,2.36-1.58,2.9-.52.54-1.8.36-2.36,0-.56-.36.1-3.62.1-3.62,0,0-3.2,1.45-3.75,1.45s-1.3-.91-1.33-1.63c-.03-.7,3.11-3.64,3.29-3.8-.16.06-3.58,1.25-4.14.54-.57-.72-.76-.91-.61-1.63.1-.48,3.63-2.78,3.63-2.78l.7-2.29s-1.93-2.96-1.77-3.51c.16-.54,1.6-.84,2.5-.84s3.73,2.72,3.73,2.72c0,0,9.25-4.35,14.77-6.89,5.41-2.49,10.99-6.31,11.34-11.91,0-.12.01-.23.02-.35.38-4.05,6.86-5.52,9.29-4.73.83.27,1.19.8.67,1.59-.52.79-1,1.76-1.27,2.9-.79,3.31.21,7.97,7.17,13.23,2.12,1.6,4.53,2.96,6.99,4.1,8.43,3.91,17.49,5.32,17.49,5.32,0,0,4-4.17,4.55-3.99.55.18,2.04,1.09,2.06,1.63.02.54-2.18,4.35-2.18,4.35l.8,1.99s3.85,1.09,4.41,1.63c.57.54,1.02,2.9.14,3.44Z"/>
          <g>
            <path class="cls-1" d="M58.78,19.62c1.25,3.8-2.97,11.77-7.35,15.64-3.14,2.78-6.48,5.87-7.77,8.64-.51,1.09-.7,2.14-.42,3.1.17.59.36,1.16.56,1.71l.13.42,1.22,5.7,1,4.68s-1.71.4-3.83.9c-3.29.78-7.55,1.8-7.93,1.98-.32.15-1.2-2.45-1.99-5.01-.75-2.44-1.41-4.85-1.41-4.85,0,0,3.56-2.23,4.09-4.84,0,0-.5-1.06-.5-1.07.29-.72.4-1.43.37-2.13-.13-2.85-2.69-5.48-5.34-8.18-.15-.26-.09-.33.04-.34.03,0,.07,0,.11,0,.3.04.74.22.46-.17-.05-.07-.09-.13-.13-.19-3.24-4.47-6.3-6.14-7.41-8.73,0,0,0,0,0,0-.03-.08-.06-.17-.1-.25-.16-.43-.23-.93-.21-1.48,0-.35.05-.73.12-1.13.04-.25.1-.51.17-.78,0-.03.01-.06.02-.09.03-.13.07-.25.11-.38.09-.29.18-.58.29-.89h0c.06-.16.11-.31.17-.47.19-.5.41-1.01.65-1.53.09-.2.18-.4.28-.59.39-.8.83-1.63,1.3-2.47.63-1.11,1.32-2.24,2.05-3.36.03-.04.06-.09.09-.13.14-.22.29-.44.43-.66.12-.18.24-.35.36-.53.24-.35.48-.7.72-1.05.22-.32.45-.63.67-.95.41-.57.82-1.13,1.22-1.67.21-.28.42-.56.63-.83l.05-.07c.24-.32.49-.63.72-.94.05-.07.1-.13.15-.2.07-.09.14-.17.21-.26.11-.14.23-.28.34-.42,1.18-1.47,2.28-2.75,3.18-3.72.13-.14.26-.28.39-.41l.19-.2c.25-.25.48-.48.68-.67.21-.2.39-.35.54-.47.12-.09.22-.16.3-.2.06-.04.11-.06.15-.06.02-.01.04-.01.06-.01.09,0,.17.03.26.05.13.03.26.09.39.16.04.03.09.05.13.08.11.07.22.14.32.23.04.03.08.06.12.09.06.05.13.11.18.17.83.8,1.47,1.91,1.47,1.91,0,0,7.42,2.94,11.2,6.3,7.47,1.4,7.76,4.98,6.09,10.62Z"/>
            <path class="cls-15" d="M42.7,29.75c-.36.09-9.09,2.85-10.44,5.47-.24.47-1.54.18-2.17.41-3.24-4.47-6.3-6.14-7.41-8.73,0,0,0,0,0,0-.04-.08-.07-.17-.1-.25-.16-.43-.23-.93-.21-1.48,0-.36.05-.73.12-1.13.04-.25.1-.51.17-.78,0-.03.01-.06.02-.09.03-.13.07-.25.11-.38.08-.29.18-.58.29-.89h0c.06-.16.11-.31.17-.47.19-.5.41-1.01.65-1.53.09-.2.18-.4.28-.59.39-.8.83-1.63,1.3-2.47.63-1.11,1.32-2.24,2.05-3.36.03-.04.06-.09.09-.13.14-.22.29-.44.43-.66.12-.18.24-.35.36-.53.24-.35.48-.7.72-1.05.22-.32.45-.63.67-.95.41-.57.82-1.13,1.22-1.67.21-.28.42-.56.63-.83l.05-.07c.24-.32.49-.63.72-.94.05-.07.1-.13.15-.2.07-.09.14-.17.21-.26.11-.14.23-.28.34-.42,1.18-1.47,2.28-2.75,3.18-3.72.14-.14.26-.28.39-.41l.19-.2c.25-.25.48-.48.68-.67.21-.19.39-.35.54-.47.12-.09.22-.16.3-.2.05-.03.1-.05.15-.06.02,0,.05,0,.06,0,.09,0,.17.03.26.05.13.04.26.09.39.16.04.03.09.05.13.08.11.07.21.14.32.23.04.03.08.06.12.09.06.05.12.11.18.17.83.8,1.47,1.91,1.47,1.91-.34.01-2,1.29-4.93,4.85-.7.85-1.48,1.83-2.32,2.96-.79,1.05-1.65,2.24-2.57,3.57-.18.26-.37.53-.55.8-.13.19-.26.38-.37.57-.29.44-.55.88-.77,1.31-.53.98-.92,1.91-1.18,2.79-1.97,6.65,3.57,10.34,13.91,10.21Z"/>
            <path class="cls-5" d="M50.28,23.88c-2.61,2.97-6.61,3.72-8.93,1.66-2.32-2.05-2.08-6.13.54-9.1,2.61-2.97,6.61-3.72,8.93-1.66,2.32,2.05,2.08,6.13-.54,9.1Z"/>
            <path class="cls-1" d="M38.95,21c2.42-.03,7.59,3.21,8.53,7.74.95,4.53-3.27.67-3.27.67l-6.75-4.23,1.49-4.18Z"/>
            <path class="cls-2" d="M48.75,21.35c-1.07,1.64-2.97,2.28-4.24,1.42-1.27-.86-1.43-2.88-.36-4.52,1.07-1.64,2.97-2.28,4.24-1.42,1.27.86,1.43,2.88.36,4.52Z"/>
            <path class="cls-6" d="M45.71,18.62c-.36.55-.99.76-1.41.47-.42-.29-.48-.96-.12-1.51.36-.55.99-.76,1.41-.47.42.29.48.96.12,1.51Z"/>
            <path class="cls-5" d="M36.56,7.55c-.57.69-1.18,1.46-1.85,2.33-.15.2-.31.41-.48.63-.77,1.02-1.6,2.17-2.48,3.45-.03.04-.06.08-.09.12-.18.26-.37.53-.55.8-.13.19-.26.38-.37.57-.29.44-.55.88-.77,1.31-.96.52-1.79.64-2.31.25-.71-.53-.71-1.88-.12-3.55.02-.05.03-.09.06-.14.42-1.16,1.12-2.48,2.06-3.76.93-1.29,1.96-2.36,2.93-3.13,1.44-1.13,2.76-1.58,3.49-1.04.5.37.65,1.15.49,2.16Z"/>
            <path class="cls-15" d="M30.74,15.44c-.28.44-.54.88-.77,1.31-.53.98-.92,1.91-1.18,2.79l-3.29-2.73c.63-1.11,1.32-2.24,2.04-3.36.02-.05.03-.1.06-.14.01,0,.02,0,.03,0,1.22.3,2.36,1.31,3.12,2.12Z"/>
            <path class="cls-2" d="M34.71,9.88c-.15.2-.31.41-.48.63-.77,1.02-1.6,2.17-2.48,3.45-.64.31-1.24.36-1.65.05-.82-.61-.56-2.39.6-3.98,1.15-1.58,2.74-2.38,3.57-1.77.41.3.55.9.44,1.62Z"/>
            <path class="cls-6" d="M31.69,10.29c-.41.5-.95.74-1.21.52-.27-.22-.15-.8.25-1.31.41-.5.95-.74,1.21-.52.27.22.15.8-.25,1.31Z"/>
            <path class="cls-8" d="M41.34,31.4c-2.13,2.23-5.12,4.18-7.6,5.05-.65.23-1.27.38-1.82.45-.21.02-.42.04-.61.04-.72,0-1.31-.19-1.68-.61-.42-.48-.62-1.24-.67-2.13-.13-2.52.96-6.12,1.45-7.59,2.32,2.13,6.58,3.23,12.3,3.15,0,0,.01,0,.01,0-.39.56-.85,1.11-1.37,1.64Z"/>
            <path class="cls-9" d="M41.34,31.4c-2.13,2.23-5.12,4.18-7.6,5.05-1.3-.09-2.32-.45-2.17-1.37.38-2.37,3.16-5.28,9.77-3.68Z"/>
          </g>
          <path class="cls-12" d="M54.68,80.61c-.02.18-.04.37-.07.55-.22,1.75-.54,3.6-.98,5.51-5.18-.36-11.08,3.32-13.62,9.29-.05.1-.09.21-.13.31-.03.07-.05.13-.08.19-2.11,5.1-5.3,6.77-8.28,6.04-.21-.05-.42-.12-.63-.19-1.44-.53-2.81-1.61-3.95-3.14-.93-1.24-1.87-3.04-2.74-5.19-.07-.17-.13-.34-.2-.51-1.54-3.98-2.79-9.04-3.13-14-.01-.2-.03-.39-.04-.58-.09-1.68-.07-3.33.07-4.92.09-.93.22-1.84.4-2.71.21-1.02.46-2.01.77-2.98.09-.3.19-.6.29-.89,1.51-4.44,3.92-8.26,6.79-10.94.13-.12.27-.24.4-.36,1.38-1.22,2.85-2.17,4.38-2.81.29-.12.58-.23.88-.33.44-.15.89-.27,1.35-.36,2.38-.48,4.78,1.98,6.85,4.8.12.16.24.32.35.49.29.41.58.83.85,1.24.94,1.4,2.17,2.62,3.46,3.68,1.87,1.56,3.85,2.78,5.18,3.75.93.68,1.63,2.52,1.95,5.17.02.18.04.36.06.54.23,2.3.2,5.15-.17,8.33Z"/>
          <path class="cls-14" d="M54.68,80.61c-.02.18-.04.37-.07.55-3.65.38-9.05.81-14.78.81-3.76,0-7.65-.19-11.27-.7,0,3.9.24,7.78.74,11.41,2.36.73,7.79,2.39,10.71,3.28-.05.1-.09.21-.13.31-.03.07-.05.13-.08.19-2.85-.87-7.97-2.44-10.41-3.19.49,3.37,1.21,6.51,2.14,9.23-.21-.05-.42-.12-.63-.19-.89-2.71-1.59-5.84-2.08-9.22,0,0,0,0-.01,0-1.62-.5-3.35.16-4.59.9-.07-.17-.13-.34-.2-.51,1.29-.75,3.04-1.39,4.72-.96-.49-3.57-.74-7.41-.73-11.32-2.57-.38-4.99-.94-7.12-1.71-.01-.2-.03-.39-.04-.58,2.13.79,4.57,1.36,7.16,1.75.01-1.67.07-3.35.18-5.02.25-3.88.74-7.47,1.43-10.7-2.29.08-5.82,2.16-7.54,3.35.09-.3.19-.6.29-.89,1.97-1.29,5.17-3,7.37-3.01.46-2.05,1-3.94,1.63-5.67-.87-.66-1.66-1.57-2.21-2.27.13-.12.27-.24.4-.36.5.64,1.22,1.48,2,2.1.7-1.86,1.5-3.5,2.38-4.91.29-.12.58-.23.88-.33-1.06,1.57-1.99,3.46-2.78,5.59,1.08.64,6.65-.24,10.97-1.15.12.16.24.32.35.49-2.39.5-7.06,1.41-9.78,1.41-.76,0-1.36-.07-1.72-.24-.59,1.67-1.1,3.48-1.53,5.38.07.01.14.03.21.04,1.18.29,2.83,1.21,4.74,2.29,2.94,1.64,6.59,3.69,10,4.23,3.38.54,7.11.69,9.53.73.02.18.04.36.06.54-2.43-.03-6.22-.18-9.65-.74-3.51-.56-7.21-2.64-10.18-4.3-1.88-1.05-3.5-1.96-4.6-2.23-.07-.02-.15-.03-.22-.04-1.05,4.86-1.59,10.32-1.64,15.77,9.18,1.29,20.13.5,26.12-.13Z"/>
          <path class="cls-11" d="M54.68,80.61c-.02.18-.04.37-.07.55-.22,1.75-.54,3.6-.98,5.51-5.18-.36-11.08,3.32-13.62,9.29-.05.1-.09.21-.13.31-.03.07-.05.13-.08.19-2.11,5.1-5.3,6.77-8.28,6.04-.21-.05-.42-.12-.63-.19-1.44-.53-2.81-1.61-3.95-3.14-.93-1.24-1.87-3.04-2.74-5.19-.07-.17-.13-.34-.2-.51-1.54-3.98-2.79-9.04-3.13-14-.01-.2-.03-.39-.04-.58-.09-1.68-.07-3.33.07-4.92,2.83,18.13,19.1,17.83,26.87,6.71,3.56-5.1,2.37-11.86-.12-17.89,1.87,1.56,3.85,2.78,5.18,3.75.93.68,1.63,2.52,1.95,5.17.02.18.04.36.06.54.23,2.3.2,5.15-.17,8.33Z"/>
          <path class="cls-15" d="M50.83,57.14c2.12,1.6,4.53,2.96,6.99,4.1-4.41-1.65-9.53-3.89-12.68-6.4-1.12-.89-1.99-1.82-2.49-2.77-2.4-4.59-2.12-8.57,1.61-12.65.83-.91,1.84-1.83,3.03-2.76,6.5-5.07,11.52-11.06,11.48-17.04,1.25,3.8-2.97,11.77-7.35,15.64-3.14,2.78-6.48,5.87-7.77,8.64-.79,3.31.21,7.97,7.17,13.23Z"/>
        </g>
      </g>
    </g>
  </g>
</svg>