<?xml version="1.0" encoding="UTF-8"?>
<svg xmlns="http://www.w3.org/2000/svg" viewBox="0 0 79.15 94.29">
  <defs>
    <style>
      .cls-1 {
        fill: #abc950;
      }

      .cls-2 {
        fill: #2c3352;
      }

      .cls-3, .cls-4, .cls-5, .cls-6, .cls-7, .cls-8 {
        mix-blend-mode: multiply;
      }

      .cls-3, .cls-9 {
        fill: #94ad3d;
      }

      .cls-10, .cls-6 {
        fill: #7c564e;
      }

      .cls-4, .cls-11 {
        opacity: .4;
      }

      .cls-4, .cls-11, .cls-12, .cls-7 {
        fill: #64413f;
      }

      .cls-13 {
        fill: #f7fafa;
      }

      .cls-14 {
        fill: #fff;
      }

      .cls-15 {
        fill: #7a8f32;
      }

      .cls-16 {
        fill: #657331;
      }

      .cls-11 {
        mix-blend-mode: screen;
      }

      .cls-17 {
        fill: #e55757;
      }

      .cls-18 {
        isolation: isolate;
      }

      .cls-6 {
        opacity: .2;
      }

      .cls-19 {
        fill: #f4d692;
      }

      .cls-20 {
        fill: #b7a16e;
      }

      .cls-7, .cls-8 {
        opacity: .5;
      }
    </style>
  </defs>
  <g class="cls-18">
    <g id="Layer_2" data-name="Layer 2">
      <g id="_1" data-name="1">
        <g>
          <path class="cls-15" d="M51.95,73.56c-.37.12-3.49,6.6-3.73,7.97-.25,1.37.5,7.84.37,8.59-.12.75-9.46.37-9.46.37l1.24-18.05,11.58,1.12Z"/>
          <path class="cls-9" d="M23.82,89.87c-.25.5-.5,1.62-1.37,1.99-.87.37-3.86-1.37-3.86-1.37,0,0-.37,2.12-.87,2.61-.5.5-2.37.87-2.99.5-.62-.37-1-2.74-1-2.74,0,0-1.74,1.87-2.12,2.12-.37.25-3.23-.13-3.61-.62-.35-.47.08-1.4.12-1.49h0s-1.12.12-1.49-.13c-.01,0-.02-.01-.03-.03-.32-.27.03-1.11.15-1.84.13-.75,3.11-2.61,3.11-2.61,0,0,.37-10.46.99-13.69.62-3.24,4.36-9.83,7.22-13.57l2.49,1.87s-1.99,7.72-1.62,12.7c.37,4.98,1.87,13.44,1.87,13.44,0,0,3.24,2.36,2.99,2.86Z"/>
          <path class="cls-9" d="M66.27,67.96c5.23,1.87,9.46-.87,10.21-2.24.75-1.37-3.86-1-6.85-2.61-2.99-1.62-10.7-.75-10.7-.75l5.6,5.97,1.74-.37Z"/>
          <path class="cls-12" d="M73.49,58.87c-2.24,3.86-30.25-1.74-35.1-7.72-4.85-5.97-6.47-9.46-6.47-9.46,0,0,3.19,1.42,7.27,1.84,1.03.11,2.12.16,3.22.1.32-.02.64-.04.96-.08,2.46-.26,5.07-.73,7.54-1.18l.56-.1c3.93-.71,7.49-1.33,9.57-.96,1.78.32,4.65,2.19,7.21,5.31.13.15.25.3.37.46.15.19.3.39.44.59,1.77,2.42,3.3,5.47,4.07,9.03.15.7.27,1.42.36,2.16Z"/>
          <path class="cls-4" d="M73.49,58.87c-2.24,3.86-30.25-1.74-35.1-7.72-4.85-5.97-6.47-9.46-6.47-9.46,0,0,3.19,1.42,7.27,1.84,3.62,9.38,17.8,11.51,33.94,13.17.15.7.27,1.42.36,2.16Z"/>
          <path class="cls-7" d="M68.44,59.52s-.04,0-.06,0c-.13,0-.25-.09-.27-.22-.02-.09-1.74-8.07-3.22-11.39h0c-2.46-.22-11.61-1.53-12.64-2.67-1.76,1.81-5.44,5.84-8.05,8.71-.06.06-.13.09-.21.09-.07,0-.13-.03-.19-.07-.12-.1-.12-.28-.02-.4.71-.78,5.87-6.46,8.14-8.79-.41-.66-.75-1.59-1.01-2.41l.56-.1c.23.72.52,1.52.86,2.09.1.18.21.34.32.46,0,.01.01.02.02.03.78.88,9.08,2.2,11.95,2.47h0c.27.03.49.04.65.05.05,0,.1,0,.13,0,.53,0,1.68-.34,2.85-.75.13.15.25.3.37.46-1.19.42-2.43.81-3.11.85,1.48,3.51,3.07,10.88,3.15,11.24.03.15-.06.3-.22.33Z"/>
          <path class="cls-1" d="M44.24,56.13l-4.09,3.51-2.88,2.47-.64.08-2.98.37-.84.1-2.46.31-.55.07-1.96-1.14-8.68-5.03c-.29-.17-.56-1.69-.66-2-.51-1.48-1.06-2.94-1.67-4.38-1.13-2.66-2.42-5.47-4.23-7.75-1.39-1.74-3.09-3.24-4.77-4.69-1.71-1.47-3.48-2.86-5.14-4.39-.89-.83-2.31-1.95-2.51-3.24-.21-1.27-.2-3.78-.12-6.29.07-2.47.22-4.96.3-6.28.04-.62.07-1,.07-1,0,0,.59-2.86.69-5.14.04-.69.02-1.34-.06-1.83C.67,7.77.55,1.92,3.03.43c2.49-1.49,5.85,1.37,7.1,1.62,1.25.25,6.85.12,8.22.37,1.37.25,7.1-3.11,9.34-1.25,1.94,1.62,2.11,7.26,2.28,11.08.03.59.05,1.14.09,1.62.06.94.27,2.19.5,3.6.41,2.49.93,5.47,1,8.11.04,1.59-.09,3.05-.5,4.22,0,.02-.01.04-.02.06-1.52,4.21-7.26,7.94-7.76,13.76.23,2.52,8.11,6.68,14.14,9.5,3.78,1.77,6.83,3.01,6.83,3.01Z"/>
          <path class="cls-9" d="M40.14,59.64l-2.88,2.47-.64.08-2.98.37c-.11-.04-.21-.06-.3-.08-.21-.03-.4.03-.54.18l-2.46.31-.55.07-1.96-1.14-8.68-5.03c-.29-.17-.56-1.69-.66-2-.51-1.48-1.06-2.94-1.67-4.38-1.13-2.66-2.42-5.47-4.23-7.75-1.39-1.74-3.09-3.24-4.77-4.69-1.71-1.47-3.48-2.86-5.14-4.39-.89-.83-2.31-1.95-2.51-3.24,0,0,8.53,7.78,15.43,8.53,6.33.68,13.29-5.84,15.41-9.09-1.52,4.21-7.26,7.94-7.76,13.76.23,2.52,8.11,6.68,14.14,9.5,1,1.76,1.73,3.01,1.73,3.01l1.01,3.51Z"/>
          <path class="cls-13" d="M10.19,16.02c0,4.14-2.24,7.5-4.99,7.5S.2,20.16.2,16.02s2.24-7.5,4.99-7.5,4.99,3.36,4.99,7.5Z"/>
          <ellipse class="cls-2" cx="7.18" cy="16.36" rx="2.69" ry="4.57"/>
          <path class="cls-14" d="M9.56,16.36c0,.72-.34,1.31-.77,1.31s-.77-.59-.77-1.31.34-1.31.77-1.31.77.59.77,1.31Z"/>
          <ellipse class="cls-13" cx="25.64" cy="16.02" rx="4.99" ry="7.5"/>
          <ellipse class="cls-2" cx="23.66" cy="16.36" rx="2.69" ry="4.57"/>
          <path class="cls-14" d="M21.28,16.36c0,.72.34,1.31.77,1.31s.77-.59.77-1.31-.34-1.31-.77-1.31-.77.59-.77,1.31Z"/>
          <path class="cls-16" d="M19.68,31.08c-1.13,1.18-2.52,2.22-3.98,2.56-1.62.37-3.61-.49-5.15-1.67-1.93-1.47-3.18-3.43-2.22-4.12,2.05-1.49,13.54-1.96,13.91-1.12.22.5-.86,2.58-2.55,4.35Z"/>
          <path class="cls-17" d="M19.68,31.08c-1.13,1.18-2.52,2.22-3.98,2.56-1.62.37-3.61-.49-5.15-1.67,2.9-3.49,6.8-2.97,9.14-.89Z"/>
          <path class="cls-19" d="M71.25,70.45c-1.27,1.17-9.66,5.03-23.78,4.01-.21-.01-.42-.03-.64-.05h0c-2.29-.19-4.74-.5-7.32-.98-11.11-2.05-17.83-7.1-20.9-11.34-.12-.16-.24-.32-.34-.49-1.86-2.78-2.14-5.14-1.03-5.97,1.76-1.32,5.17.15,8.5,1.87.17.09.34.18.52.27,3.08,1.61,6.02,3.32,7.42,3.09,2.99-.5,6.72-4.36,6.72-4.36,0,0,19.04,2.24,20.42,6.35,1.37,4.11,11.95,6.23,10.46,7.59Z"/>
          <g>
            <path class="cls-20" d="M47.46,74.46c-.21-.01-.42-.03-.64-.05.63-.91,5.26-7.82,4.35-14.51-.02-.15.09-.3.24-.31.16-.02.3.09.31.24.87,6.42-3.17,12.99-4.27,14.63Z"/>
            <path class="cls-20" d="M43,57.72c-.14,0-.29.11-.29.27-.24,4.9-6.29,9.08-6.35,9.12-.13.09-.16.26-.07.39.05.08.14.12.23.12.05,0,.11-.02.16-.05.26-.18,6.34-4.37,6.59-9.55,0-.15-.11-.29-.27-.29Z"/>
            <path class="cls-20" d="M26.24,57.78c-1.8,2.06-5.22,3.5-7.64,4.31-.12-.16-.24-.32-.34-.49,2.33-.78,5.71-2.16,7.46-4.1.17.09.34.18.52.27Z"/>
          </g>
          <path class="cls-1" d="M73.36,89.25c.04.56-.75,1.17-1.99,1.72-.17.07-.35.15-.53.22-.82.32-1.79.61-2.82.84-.21.05-.41.09-.62.13-.08.01-.15.03-.23.04-.19.04-.37.07-.56.1-1.49.25-3.01.38-4.34.3-.04,0-.07,0-.11,0-.19-.01-.39-.02-.58-.03-.09,0-.18-.01-.27-.01-.2-.01-.39-.03-.59-.04-2.68-.2-5.06-.53-6.24-1.2-.18-.1-.33-.21-.45-.33-.22-.21-.35-.46-.35-.74,0-1.62,2.61-3.11,2.61-3.11,0,0-1-12.2-.25-14.07h0c.75-1.88,5.22-10.58,5.22-10.58l5.48.25s0,6.47.25,7.97c.25,1.49,6.22,16.93,6.35,18.55Z"/>
          <path class="cls-9" d="M73.36,89.25s-5.66-10.33-6.79-13.69c-1.12-3.36-.56-10.46-3.36-9.9-2.76.55-7.02,7.19-7.15,7.4.75-1.87,5.22-10.58,5.22-10.58l5.48.25s0,6.47.25,7.97c.25,1.49,6.22,16.93,6.35,18.55Z"/>
          <g class="cls-5">
            <path class="cls-1" d="M59.78,75.65c-.29,0-.57-.09-.84-.28-.8-.56-1.29-1.9-1.29-2.44,0-.14.06-.27.17-.38.5-.45,2.23-.32,2.75-.28.15.01.27.15.25.31-.01.15-.15.27-.31.25-1.06-.1-2.11-.04-2.31.12.02.39.42,1.51,1.05,1.95.26.19.53.23.81.12,1.3-.47,2.53-2.73,2.43-3.43-.05-.36-1.26-.49-2.31-.38-.15.02-.29-.1-.31-.25-.02-.15.1-.29.25-.31.46-.05,2.76-.22,2.92.86.14,1-1.29,3.49-2.8,4.04-.16.06-.32.09-.48.09Z"/>
          </g>
          <g class="cls-5">
            <path class="cls-1" d="M61.33,92.55c-.2-.01-.39-.03-.59-.04-.53-2.19-1.38-4.55-2.25-4.74-.56-.12-1.71.43-4,3.53-.18-.1-.33-.21-.45-.33,1.45-1.98,3.25-4.03,4.57-3.75,1.31.28,2.24,3.3,2.71,5.32Z"/>
            <path class="cls-1" d="M67.19,92.2c-.19.04-.37.07-.56.1-.83-2.15-1.83-4.1-2.38-4.15,0,0-.01,0-.01,0-.44,0-1.31,1.92-2.06,4.45-.19-.01-.39-.02-.58-.03.65-2.24,1.67-5.09,2.71-4.97,1.02.1,2.21,2.84,2.88,4.61Z"/>
            <path class="cls-1" d="M71.38,90.96c-.17.07-.35.15-.53.22-.47-1.02-.99-1.83-1.4-1.91-.04-.01-.1-.01-.2.06-.46.31-.9,1.51-1.22,2.7-.21.05-.41.09-.62.13.31-1.21.83-2.82,1.52-3.29.2-.14.41-.19.62-.15.67.13,1.31,1.16,1.82,2.24Z"/>
          </g>
          <path class="cls-3" d="M9.51,88.5l-1.37,2.36s-1.12.12-1.49-.12c-.01,0-.02-.01-.03-.03l2.89-2.21Z"/>
          <path class="cls-1" d="M46.72,93.17c-.43.62-1.93.93-2.36.75-.42-.18-1.76-2.14-1.86-2.29.03.14.42,1.76.06,2.23-.37.5-2.3.19-3.49.12-1.18-.06-1.62-2.49-1.62-2.49,0,0,.06,2.05-.5,2.55-.56.5-3.3.19-3.67-.37-.37-.56-.68-2.24-.68-2.24,0,0-3.55.93-4.29.37-.75-.56-.93-1.68-.75-2.43.19-.75,3.36-2.24,3.36-2.24,0,0,2.43-5.6,2.43-9.71,0-2.38-.06-4.89-1.06-8.65,0,0,0,0,0-.01,0,0,0-.02,0-.04-.44-1.64-1.06-3.53-1.93-5.74-.56-1.45-1.24-3.03-2.04-4.79,0,0,1.54-2.72,2.3-2.05,2.22,1.92,4.24,3.99,6.02,6.05,2.46,2.85,4.44,5.71,5.83,8.17.96,1.71,1.63,3.23,1.97,4.44,1.18,4.23,1.43,14.44,1.43,14.44,0,0,1.31,3.3.87,3.92Z"/>
          <path class="cls-10" d="M77.35,62.73c-1.11.22-2.91.5-5.4.68-.2.01-.41.03-.62.04-1.92.12-4.22.18-6.87.1-1.91-.05-4.01-.18-6.29-.39-.19-.02-.38-.04-.58-.06-1.84-.18-3.8-.43-5.87-.74-4.09-.63-8.13-1.86-11.81-3.42h0c-.21-.08-.41-.17-.61-.26-2.35-1.02-4.54-2.17-6.51-3.36-2.01-1.22-3.78-2.48-5.22-3.71-.15-.12-.29-.25-.43-.37-2.01-1.78-3.32-3.47-3.67-4.81-1.24-4.73.94-9.31,5.48-9.59,1.15-.07,2.29.81,3.51,2.21.19.22.38.45.58.69t0,0s0,0,0,0h0c1.05,1.28,2.15,2.87,3.38,4.53,1.99,2.7,4.31,5.6,7.18,7.67.18.13.37.27.56.39.36.24.72.47,1.1.68,3.58,2.01,8.11,3.19,12.62,3.89.21.03.43.06.65.09,2.68.39,5.34.62,7.77.76,1.85.11,3.57.16,5.07.2.22,0,.43,0,.64.01.44.01.86.02,1.25.03,6.6.12,7.22,4.11,4.11,4.73Z"/>
          <g class="cls-8">
            <path class="cls-10" d="M33.02,39.74s0,0,0,0t0,0h0c-.09,4.99-4.01,10.11-5.47,11.85-.15-.12-.29-.25-.43-.37,1.48-1.79,5.61-7.24,5.32-12.19.19.22.38.45.58.69Z"/>
            <path class="cls-10" d="M44.13,52.35c-.11,3.19-2.95,5.64-4.24,6.59h0c-.21-.08-.41-.17-.61-.26,1.03-.72,4.41-3.37,4.29-6.72.18.13.37.27.56.39Z"/>
            <path class="cls-10" d="M58.15,63.16c-.19-.02-.38-.04-.58-.06.62-1.22,1.48-3.61.28-6.19.21.03.43.06.65.09,1,2.5.28,4.84-.34,6.15Z"/>
            <path class="cls-10" d="M71.94,63.41c-.2.01-.41.03-.62.04.69-1.36,1.23-3.39.02-5.49.22,0,.43,0,.64.01,1.04,2.05.61,4.02-.04,5.44Z"/>
          </g>
          <path class="cls-9" d="M45.85,89.25s-.75-9.4-1.87-12.76c-1.12-3.36-11.02-17.74-12.14-16.62-1.07,1.07.3,8.2.42,8.85-.44-1.64-1.06-3.53-1.93-5.74-.56-1.45-1.24-3.03-2.04-4.79,0,0,1.54-2.72,2.3-2.05,2.22,1.92,4.24,3.99,6.02,6.05,2.46,2.85,4.44,5.71,5.83,8.17.96,1.71,1.63,3.23,1.97,4.44,1.18,4.23,1.43,14.44,1.43,14.44Z"/>
          <path class="cls-6" d="M36.39,44.28c-2.01,2.65-5,7.45-3.62,11.03-2.01-1.22-3.78-2.48-5.22-3.71-.15-.12-.29-.25-.43-.37-2.01-1.78-3.32-3.47-3.67-4.81-1.24-4.73.94-9.31,5.48-9.59,1.15-.07,2.29.81,3.51,2.21.19.22.38.45.58.69t0,0s0,0,0,0h0c1.05,1.28,2.15,2.87,3.38,4.53Z"/>
          <path class="cls-6" d="M77.35,62.73c-1.11.22-2.91.5-5.4.68-.2.01-.41.03-.62.04-1.92.12-4.22.18-6.87.1,1.4-1.32,3.14-3.59,1.82-5.79,1.85.11,3.57.16,5.07.2.22,0,.43,0,.64.01.44.01.86.02,1.25.03,6.6.12,7.22,4.11,4.11,4.73Z"/>
          <path class="cls-11" d="M69.06,47.68c-8.06,2.05-19.57,1.81-26.66-4.04.32-.02.64-.04.96-.08,2.46-.26,5.07-.73,7.54-1.18l.56-.1c3.93-.71,7.49-1.33,9.57-.96,1.78.32,4.65,2.19,7.21,5.31.13.15.25.3.37.46.15.19.3.39.44.59Z"/>
        </g>
      </g>
    </g>
  </g>
</svg>