<?xml version="1.0" encoding="UTF-8"?>
<svg xmlns="http://www.w3.org/2000/svg" viewBox="0 0 95.84 120.69">
  <defs>
    <style>
      .cls-1 {
        fill: #abc950;
      }

      .cls-2 {
        fill: #2c3352;
      }

      .cls-3 {
        fill: #775347;
      }

      .cls-4 {
        fill: #7c564e;
      }

      .cls-5, .cls-6 {
        fill: #9e5137;
      }

      .cls-7 {
        fill: #f7fafa;
      }

      .cls-8 {
        fill: #fff;
      }

      .cls-9 {
        isolation: isolate;
      }

      .cls-10 {
        fill: #bc905c;
      }

      .cls-6, .cls-11, .cls-12 {
        mix-blend-mode: multiply;
      }

      .cls-6, .cls-12 {
        opacity: .5;
      }

      .cls-11 {
        opacity: .4;
      }

      .cls-11, .cls-13 {
        fill: #f4d692;
      }

      .cls-14 {
        fill: #b7a16e;
      }

      .cls-15 {
        fill: #94ad3d;
      }
    </style>
  </defs>
  <g class="cls-9">
    <g id="Layer_2" data-name="Layer 2">
      <g id="_1" data-name="1">
        <g>
          <path class="cls-3" d="M29.08,94.89c.25.31,2.79,2.86,2.79,2.86l-5.61,5.44-.85-.76,4.84-4.67-11.47-9.43-4.59,4.67s-1.44-.76-1.19-.85,5.35-5.86,5.35-5.86l10.72,8.61Z"/>
          <polygon class="cls-5" points="0 99.08 20.02 118.1 22.69 114.95 23.26 114.27 30.14 106.15 10.33 88.26 2.6 96.35 2.19 96.79 0 99.08"/>
          <path class="cls-6" d="M2.19,96.79l20.5,18.16.57-.68c-3.99-3.58-17.93-15.57-20.66-17.92l-.42.44Z"/>
          <path class="cls-10" d="M14.8,105.81c-.23.25-2.64,2.18-2.64,2.18l-2.22-1.86,1.72-2.93,3.14,2.61Z"/>
          <path class="cls-15" d="M45.41,108.49c.17.98.7,2.92,1.35,4.98.05.17.11.34.16.51.31.98.64,1.96.96,2.87.08.23.16.45.24.66.72,1.96,1.36,3.38,1.57,3.16.39-.39,1.49-1.76,2.44-2.84.21-.24.41-.46.6-.66.19-.2.35-.37.5-.5.93-.84,8-5.21,8-5.49,0,0,1.3-11.72-3.07-9.2-4.37,2.51-13.2,3.81-12.74,6.51Z"/>
          <path class="cls-15" d="M72.25,93.47s-1.64,9.9-3.9,12.31c-2.26,2.42-7.87-7.4-7.71-7.64.16-.23,3.12-3.58,3.12-3.58l8.49-1.09Z"/>
          <path class="cls-4" d="M39.02,72.73c.02.17.04.33.06.5.33,2.61.82,5.19,1.45,7.59h0c.04.18.09.36.14.53.64,2.32,1.43,4.47,2.36,6.31.27.53.56,1.05.87,1.53.12.2.26.4.39.6,1.69,2.48,3.82,4.32,6.12,5.65.19.11.38.21.57.32,5.41,2.9,11.58,3.02,14.89,1.73,5.23-2.05,3.41-42.74,3.41-42.74,0,0-2.41-3.28-4.99-7.11-.1-.15-.2-.29-.3-.44-.76-1.13-1.53-2.31-2.25-3.45-.11-.17-.21-.34-.32-.51-1.43-2.3-2.63-4.43-3.11-5.79-1.6-4.5-9.6-6.28-13.96-2.59-1.84,1.56-.91,4.81-1.17,8.79,0,.17-.02.33-.04.5-.03.35-.07.7-.13,1.06-.03.16-.05.33-.08.49-.28,1.51-.81,3.1-1.77,4.71-.11.18-.21.37-.32.58-.08.16-.16.32-.23.49-.81,1.81-1.38,4.23-1.71,7-.02.16-.04.33-.06.5-.45,4.13-.38,8.99.2,13.74Z"/>
          <g class="cls-12">
            <path class="cls-4" d="M57.37,45.99l.15.51c.16-.05,2.97-.87,4.23-2.75-.11-.17-.21-.34-.32-.51-1.07,1.88-4.01,2.74-4.05,2.75Z"/>
            <path class="cls-4" d="M59.23,49.47l.12.52c.15-.03,3.01-.7,4.94-2.34-.1-.15-.2-.29-.3-.44-1.84,1.59-4.72,2.26-4.76,2.27Z"/>
          </g>
          <g class="cls-12">
            <path class="cls-4" d="M43.14,44.15c3.64.34,5.91,2.8,5.93,2.83l.41-.33c-.11-.12-2.46-2.66-6.3-3,0,.17-.02.33-.04.5Z"/>
            <path class="cls-4" d="M40.6,51.49c3.89.03,6.26,3.79,6.28,3.83l.46-.25s-2.46-3.9-6.51-4.07c-.08.16-.16.32-.23.49Z"/>
            <path class="cls-4" d="M38.83,58.99c3.78.63,5.19,1.7,5.2,1.72l.34-.38c-.07-.05-1.52-1.18-5.49-1.84-.02.16-.04.33-.06.5Z"/>
            <path class="cls-4" d="M39.02,72.73c.02.17.04.33.06.5,5.32-.09,9.25-1.69,9.29-1.71l-.21-.45s-3.91,1.59-9.14,1.66Z"/>
            <path class="cls-4" d="M40.54,80.82c.04.18.09.36.14.53,1.1.2,2.14.28,3.1.28,4.18,0,6.92-1.51,6.96-1.53l-.27-.43s-4.15,2.27-9.93,1.15Z"/>
            <path class="cls-4" d="M43.9,89.2c.12.2.26.4.39.6.55.1,1.07.15,1.56.15,4.11,0,6.61-3.2,6.65-3.24l-.43-.29c-.14.18-3.2,4.07-8.17,2.78Z"/>
            <path class="cls-4" d="M50.41,95.45c.19.11.38.21.57.31,4.45-1.91,6.21-5.84,6.23-5.89l-.49-.19s-1.79,4-6.3,5.76Z"/>
          </g>
          <path class="cls-1" d="M75.14,69.62c6.44,8.52,14.54,1.14,16.83-5.09.12-.32.23-.65.33-.98,1.92-6.2,1.64-14.81,1.64-14.81,0,0,2.18-4.05,1.87-4.88s-.62-1.25-1.35-1.04c-.73.21-3.32,3.32-3.32,3.32,0,0,1.35-5.5.93-5.92-.42-.42-2.18-1.25-2.81-.94-.62.31-2.39,6.34-2.39,6.34,0,0-.31-6.34-.62-6.65-.31-.31-2.18,0-2.91.31-.73.31-1.14,6.55-1.14,6.55,0,0-3.64-1.56-4.26-.93s-1.35,2.49-1.04,2.91,4.47,2.18,4.47,2.18c0,0,.31,7.27,0,11.01-.15,1.83-2,3.07-4.21,2.99-2.29-.08-4.96-1.57-6.49-5.27,0,0-1.97,2.39,4.47,10.91Z"/>
          <path class="cls-15" d="M75.14,69.62c6.44,8.52,14.54,1.14,16.83-5.09.12-.32.23-.65.33-.98-7.87,12.9-12.94,5.5-15.14.44-2.29-.08-4.96-1.57-6.49-5.27,0,0-1.97,2.39,4.47,10.91Z"/>
          <path class="cls-1" d="M48.71,43.71c1.89,5.82-15.12,28.64-20.06,34.31-4.94,5.67-11.78,9.45-11.78,11.92s8,7.56,9.16,7.56,3.05-2.62,3.05-2.62l1.89,1.89s1.74-1.89,2.33-7.85c.58-5.96,13.38-26.32,13.38-26.32,0,0,7.27-11.63,7.85-11.92s-5.82-6.98-5.82-6.98Z"/>
          <path class="cls-1" d="M54.34,88.5c.47,3.44,6.04,30.31,7.25,31.06.34.21.9.37,1.61.47.56.08,1.2.14,1.91.16.17,0,.35.01.53.02,1.36.02,2.89-.06,4.35-.23.15-.02.29-.03.43-.05.23-.03.47-.07.71-.11,1.02-.18,2.17-.48,3.27-.83.19-.06.37-.12.55-.18.14-.05.29-.1.43-.14.17-.06.34-.12.51-.18,2.08-.76,3.7-1.6,3.55-2-.28-.74-1.95-1.02-2.7-1.21-.12-.03-.49-.4-1.05-1.05-.13-.15-.28-.32-.43-.51-2.9-3.51-9.26-12.33-12.58-19.89-.34-.77-.65-1.52-.91-2.26,0,0-7.91-6.51-7.44-3.07Z"/>
          <path class="cls-15" d="M54.34,88.5c.47,3.44,6.04,30.31,7.25,31.06.34.21.9.37,1.61.47-1.94-6.59-6.65-27.61-6.65-27.61,0,0,2.92-.55,6.14,1.41-.34-.77-.65-1.52-.91-2.26,0,0-7.91-6.51-7.44-3.07Z"/>
          <path class="cls-15" d="M65.68,103.92c.18,0,.43-.07.62-.39.39-.63.35-1.96.17-2.32-.19-.37-.98-.39-2.35-.05-.14.04-.23.18-.19.32.04.14.18.23.32.19.76-.19,1.56-.28,1.76-.2.09.25.12,1.32-.16,1.78-.08.13-.15.13-.17.13-.42,0-1.99-1.06-2.8-1.97-.4-.45-.38-.61-.38-.61.03-.2.19-.33.32-.41.39-.22,1-.23,1.45-.03.13.06.29,0,.35-.13.06-.13,0-.29-.13-.35-.6-.27-1.39-.24-1.93.06-.33.19-.54.47-.58.8-.03.27.13.6.51,1.03.75.85,2.48,2.15,3.19,2.15Z"/>
          <g class="cls-12">
            <path class="cls-15" d="M50.5,114.05c0,.5-1.38,1.8-2.61,2.79.08.23.16.45.24.66,1.42-.59,3.4-1.15,3.94-.61.2.2.18.55.07.93.21-.24.41-.46.6-.66-.03-.26-.13-.47-.3-.64-.65-.65-2.22-.31-3.45.09.97-.84,2.06-1.92,2.05-2.58,0-.2-.09-.36-.25-.47-.72-.5-2.78-.29-4.01-.11.05.17.11.34.16.51,1.39-.2,3.06-.31,3.55.03.02.01.02.02.03.05Z"/>
          </g>
          <g class="cls-12">
            <path class="cls-1" d="M75.7,114.23c-.22,1.33-.04,2.99.19,4.26-.17.06-.34.12-.51.18-.27-1.45-.49-3.42-.11-4.95.15.19.3.35.43.51Z"/>
            <path class="cls-1" d="M66.61,117.06c.97,0,2.93,1.75,3.98,2.76-.35-1.52-.8-3.99-.21-4.57.15-.15.35-.19.58-.13.88.25,2.72,2.22,4,3.69-.18.06-.37.12-.55.18-1.3-1.48-2.91-3.17-3.59-3.36-.05-.01-.06,0-.06,0-.31.31-.06,2.28.38,4.19-.24.05-.48.08-.71.11-.14.02-.29.04-.43.05-1.22-1.15-2.75-2.39-3.38-2.39-.51,0-.83,1.33-.97,2.62-.18,0-.36,0-.53-.02.12-1.27.48-3.13,1.5-3.13Z"/>
          </g>
          <g>
            <path class="cls-1" d="M33.64,18.67c.43,2.45.44,7.29,1.3,11.12.33,1.47.78,2.79,1.43,3.77.14.21.3.42.47.62,2.79,3.23,9.99,5.64,11.68,10.61.17.51.31,1.01.41,1.5.66,3.2-.13,6.17-1.92,8.92-.82,1.25-1.84,2.45-3.04,3.6-2.92,2.82.02,3.45,2.11,3.56.93.05,1.7,0,1.7,0,0,0,.37-.09,1-.27,3.12-.83,12.73-3.47,18.04-5.68,1.74-.72-.5-4.36-.06-4.91-1.36-.51-8.54-3.88-8.68-7.27-.04-.95.03-2,.11-3.19.35-5.44,7.01-10.99,6.76-13.96-.1-1.22-.67-3.52-1.32-5.82-.93-3.32-2-6.62-2-6.62,0,0-2.03-4.24-2.17-6.28-.14-2.03-1.36-7.45-3.99-8.26-2.63-.81-5.07,2.6-6.16,3.11-1.09.51-6.28,1.68-7.48,2.22-1.21.54-7.25-1.25-8.88.98-1.64,2.23.12,8.85.72,12.23Z"/>
            <path class="cls-7" d="M52.41,16.11c.95,3.81,3.77,6.4,6.31,5.77,2.54-.63,3.83-4.23,2.89-8.05-.95-3.81-3.77-6.4-6.31-5.77s-3.83,4.23-2.89,8.05Z"/>
            <path class="cls-2" d="M52.78,16.36c.58,2.33,2.15,3.94,3.52,3.6,1.37-.34,2.01-2.5,1.43-4.83-.58-2.33-2.15-3.94-3.52-3.6s-2.01,2.5-1.43,4.83Z"/>
            <path class="cls-8" d="M53.07,16.29c.16.66.62,1.12,1.01,1.03.39-.1.57-.71.41-1.38-.16-.66-.61-1.12-1.01-1.03-.39.1-.57.71-.41,1.38Z"/>
            <path class="cls-7" d="M42.78,18.5c.95,3.81-.35,7.42-2.89,8.05-2.54.63-5.37-1.95-6.31-5.77-.95-3.81.35-7.42,2.89-8.05s5.37,1.95,6.31,5.77Z"/>
            <path class="cls-2" d="M42.57,18.89c.58,2.33-.06,4.49-1.43,4.83-1.37.34-2.94-1.27-3.52-3.6-.58-2.33.06-4.49,1.43-4.83s2.94,1.27,3.52,3.6Z"/>
            <path class="cls-8" d="M42.28,18.96c.16.66-.02,1.28-.41,1.38-.39.1-.84-.36-1.01-1.03-.16-.66.02-1.28.41-1.38.39-.1.84.36,1.01,1.03Z"/>
            <path class="cls-8" d="M47.11,32.15c1.31.83,2.83,1.47,4.25,1.45,1.58-.03,3.21-1.27,4.36-2.71,1.44-1.79,1.58-3.64,1.1-4.3-1.5.87-10.5,2.76-13.06,2.14-.1.51,1.38,2.18,3.34,3.42Z"/>
          </g>
          <path class="cls-13" d="M44.52,67.03c0,.11.01.22.02.33,0,.17.02.35.04.53.22,2.69.94,5.61,1.85,8.37.06.18.12.36.18.54,1.82,5.34,4.25,9.93,4.89,10.72,1.03,1.26,6.87,1.83,9.73,5.26.86,1.03,1.52,1.93,2.09,2.68.11.15.22.29.33.42,1.16,1.46,2.09,2.24,3.99,2.16.5-.02,1-.08,1.5-.22.19-.06.38-.12.57-.2,1.38-.57,2.75-1.86,4.07-4.58.08-.17.16-.35.24-.53.8-1.78,1.58-4.11,2.32-7.17.53-2.18.68-5.05.46-8.23-.1-1.49-.28-3.05-.55-4.63-.03-.2-.07-.4-.1-.61-.54-3.07-1.38-6.23-2.51-9.2-.07-.19-.14-.37-.21-.55-2.18-5.54-5.38-10.37-9.55-12.66-.16-.09-.33-.17-.49-.25-1.77-.87-3.71-1.29-5.81-1.11-.16.01-.31.03-.47.05-.05,0-.1.01-.14.02-3.17.4-5.57,1.43-7.38,2.89-.23.18-.45.38-.66.57-1.28,1.21-2.22,2.65-2.89,4.24-1.43,3.36-1.68,7.37-1.52,11.16Z"/>
          <path class="cls-14" d="M44.33,67.36v.53c.08,0,.16,0,.24,0,8.24-.06,12.89-3.04,16.3-5.22,1.28-.82,2.38-1.53,3.41-1.88,2.21,5.1,3.58,10.03,4.42,14.37-6.66,1.52-15.55,1.46-22.27,1.09.06.18.12.36.18.54,2.59.14,5.08.21,7.43.21,3.75,0,7.16-.18,10.09-.53,1.71-.2,3.26-.47,4.67-.79.33,1.76.57,3.42.74,4.95.38,3.36.49,6.43.44,9.09-1.45.59-4.72,3.77-6.65,5.74.11.15.22.29.33.42,2.25-2.28,5.1-4.96,6.31-5.59-.1,3.2-.44,5.78-.83,7.52.19-.06.38-.12.57-.2.38-1.8.69-4.35.78-7.45.74.14,2.12,1.52,3.29,2.87.08-.17.16-.35.24-.53-1.07-1.24-2.56-2.75-3.52-2.88.05-2.67-.06-5.72-.44-9.06-.17-1.55-.42-3.23-.75-5.01,3.05-.75,5.37-1.78,6.94-3.09-.03-.2-.07-.4-.1-.61-1.6,1.45-4.04,2.47-6.94,3.18-.84-4.35-2.21-9.29-4.42-14.39.31-.07.62-.1.93-.08,1.54.08,2.91.6,4.24,1.1,1.23.46,2.43.91,3.68,1-.07-.19-.14-.37-.21-.55-1.08-.11-2.14-.51-3.29-.94-1.36-.51-2.77-1.05-4.4-1.14-.39-.02-.78.02-1.18.12-.9-2.04-1.94-4.1-3.13-6.16,1.18-.55,1.42-1.63,1.64-2.59.16-.71.31-1.41.8-1.94-.16-.09-.33-.17-.49-.25-.5.61-.67,1.37-.83,2.07-.21.97-.4,1.82-1.39,2.25-1.07-1.82-2.27-3.64-3.6-5.44-.16.01-.31.03-.47.05-.05,0-.1.01-.14.02,1.37,1.83,2.59,3.69,3.69,5.54-.02,0-.04.01-.06.02-1.47.32-2.96-.32-4.69-1.07-1.84-.79-3.86-1.66-6.32-1.6-.23.18-.45.38-.66.57,2.66-.26,4.82.67,6.77,1.51,1.42.61,2.77,1.19,4.11,1.19.3,0,.61-.03.91-.1.08-.02.15-.04.23-.06,1.19,2.05,2.22,4.1,3.12,6.13-1.06.37-2.18,1.09-3.47,1.92-3.36,2.15-7.94,5.08-16.05,5.13-.07,0-.13,0-.2,0Z"/>
          <path class="cls-15" d="M36.83,34.18c2.79,3.23,9.99,5.64,11.68,10.61.17.51.31,1.01.41,1.5.05-.17.1-.35.15-.55.56-2.42,6.62-5.27,8.99-1.5-.04-.95.03-2,.11-3.19.35-5.44,7.01-10.99,6.76-13.96-.62,3.51-5.97,8.86-12.99,10.64-5.8,1.47-12.21-1.31-15.1-3.55Z"/>
          <path class="cls-11" d="M44.52,67.03c0,.11.01.22.02.33,0,.17.02.35.04.53.22,2.69.94,5.61,1.85,8.37.06.18.12.36.18.54,1.82,5.34,4.25,9.93,4.89,10.72,1.03,1.26,6.87,1.83,9.73,5.26.86,1.03,1.52,1.93,2.09,2.68.11.15.22.29.33.42,1.16,1.46,2.09,2.24,3.99,2.16.5-.02,1-.08,1.5-.22.19-.06.38-.12.57-.2,1.38-.57,2.75-1.86,4.07-4.58.08-.17.16-.35.24-.53.8-1.78,1.58-4.11,2.32-7.17.53-2.18.68-5.05.46-8.23-5.8,17.8-32.26-6.03-30.76-21.24-1.43,3.36-1.68,7.37-1.52,11.16Z"/>
        </g>
      </g>
    </g>
  </g>
</svg>