<?xml version="1.0" encoding="UTF-8"?>
<svg xmlns="http://www.w3.org/2000/svg" viewBox="0 0 80.5 98.57">
  <defs>
    <style>
      .cls-1, .cls-2 {
        fill: #abc950;
      }

      .cls-3, .cls-4 {
        fill: #7c564e;
      }

      .cls-2 {
        mix-blend-mode: screen;
        opacity: .3;
      }

      .cls-5 {
        fill: #67782a;
      }

      .cls-6 {
        isolation: isolate;
      }

      .cls-7, .cls-8, .cls-4, .cls-9 {
        mix-blend-mode: multiply;
      }

      .cls-7, .cls-10 {
        fill: #f4d692;
      }

      .cls-7, .cls-4, .cls-9 {
        opacity: .5;
      }

      .cls-11 {
        fill: #64413f;
      }

      .cls-12 {
        fill: #b7a16e;
      }

      .cls-13 {
        fill: #94ad3d;
      }
    </style>
  </defs>
  <g class="cls-6">
    <g id="Layer_2" data-name="Layer 2">
      <g id="_1" data-name="1">
        <g>
          <path class="cls-11" d="M59.52,75.61c.18,1.85.14,3.64-.1,5.35-.01.11-.03.21-.04.32h0c-.02.11-.03.21-.05.32h0c-.98,5.92-4.27,10.84-8.81,13.83-.17.11-.34.22-.51.33-2.91,1.79-6.29,2.8-9.88,2.8-1.72,0-3.25-.09-4.61-.24-.22-.03-.43-.05-.64-.08-7.05-.94-9.06-3.62-9.06-3.62l3.63-4.93,22.66-30.74,3.52-.77c1.5-5.53,5.84-10.08,7.58-12.8-1.82,3.68-4.94,12.22-4.94,12.22,0,0,.08,4.04.66,11.35.03.42.07.86.1,1.3.13,1.64.29,3.44.48,5.37Z"/>
          <g class="cls-9">
            <path class="cls-11" d="M56.83,82.08c-1.69-4.04-6.72-6.14-6.95-6.24l-.21.51c.06.03,5.13,2.13,6.7,6.04-.83.79-2.47,3.18-4.49,6.17-.89,1.32-1.73,2.56-1.93,2.76-.13.13-.21.39-.24.74-4.6.56-11.86-1.77-11.94-1.8l-.17.53c.3.1,5.96,1.91,10.52,1.91.54,0,1.07-.03,1.57-.09,0,.89.16,2.07.34,3.13.17-.11.34-.21.51-.33-.17-1.13-.29-2.18-.3-2.88,0-.23,0-.42.03-.57.01-.13.04-.22.09-.27.23-.23.88-1.18,2-2.84,1.28-1.9,3.31-4.89,4.23-5.91.16-.17.28-.29.37-.33.03-.01.06-.03.1-.05.48-.23,1.41-.62,2.3-.99h0c.04-.22.07-.43.1-.64-.96.4-2.03.85-2.6,1.12Z"/>
            <path class="cls-11" d="M59.04,70.24c-.04-.44-.07-.88-.1-1.3-1.21-2-2.93-4.36-4.95-5.66l-.3.47c2.25,1.45,4.18,4.39,5.35,6.49Z"/>
            <path class="cls-11" d="M33.2,93.12c.46,2,1.09,3.74,1.69,5.12.21.03.42.06.64.08-.63-1.39-1.31-3.2-1.79-5.32l-.54.12Z"/>
          </g>
          <path class="cls-4" d="M59.38,81.3c-.02.1-.03.2-.05.31h0c-.98,5.92-4.27,10.84-8.81,13.83-.17.11-.34.22-.51.33-2.91,1.79-6.29,2.8-9.88,2.8-1.72,0-3.25-.09-4.61-.24-.22-.03-.43-.05-.64-.08-7.05-.94-9.06-3.62-9.06-3.62l3.63-4.93c5.95-1.45,13.34-3.1,13.34-3.1,7.08,6.32,14.03,1.5,16.58-5.3Z"/>
          <path class="cls-3" d="M60.94,49.94c-.09.16-.17.33-.25.5-.99,1.99-1.97,4.34-2.41,7.16-1.11,7.16-21.48-9.38-21.48-9.38,8.76-5.55,26.07-8.64,26.66-4.94.28,1.77-1.09,3.86-2.53,6.66Z"/>
          <g class="cls-8">
            <path class="cls-3" d="M60.94,49.94c-.09.16-.17.33-.25.5-3.82-1.37-7.61-.6-7.66-.6l-.11-.54c.17-.04,4.04-.83,8.02.64Z"/>
          </g>
          <path class="cls-3" d="M55.2,60.43c-.15,1.47-.33,2.89-.55,4.25-.03.19-.06.37-.09.55-.54,3.25-1.29,6.17-2.2,8.8-.06.18-.13.36-.19.54-1.81,5.03-4.24,8.95-7.09,12-.13.14-.26.27-.38.4-2.76,2.85-5.9,4.9-9.22,6.37-.13.06-.27.12-.4.17-.04.01-.07.03-.11.04-9.82,4.11-16.31-.91-16.31-.91l31.23-34.31,5.31,2.1Z"/>
          <g class="cls-9">
            <path class="cls-3" d="M54.65,64.68c-.03.19-.06.37-.09.55-2.48-.3-5.5-.64-5.84-.58l-.13-.54c.4-.1,3.87.3,6.06.57Z"/>
            <path class="cls-3" d="M52.36,74.03c-.06.18-.13.36-.19.54-3.03-.37-6.49-.77-6.72-.77v-.56c.28,0,4.48.5,6.91.79Z"/>
            <path class="cls-3" d="M45.09,86.56c-.13.14-.26.27-.38.4-1.61-1.95-3.55-4.27-3.77-4.5l.39-.39c.25.25,2.34,2.77,3.76,4.48Z"/>
            <path class="cls-3" d="M35.49,93.33c-.13.06-.27.12-.4.17-.04.01-.07.03-.11.04l-1.51-3.39.51-.23,1.51,3.4Z"/>
          </g>
          <path class="cls-1" d="M40.76,47.84v3.09s-1.48,1.48-5.43.37c-3.95-1.11-9.34-5.62-8.15-16.54.36-3.27,1.47-5.86,2.97-7.87,3.12-4.22,7.89-5.84,10.73-5.58,4.2.37,2.22,11.72,2.22,11.72,0,0-2.5.36-6.21,3.18-.07.05-.14.1-.2.16-3.83,2.96-3.08,10.62,4.07,11.48Z"/>
          <path class="cls-13" d="M43.1,33.03s-2.5.36-6.21,3.18c2.29-4.97-3.47-12.46-6.74-9.32,3.12-4.22,7.89-5.84,10.73-5.58,4.2.37,2.22,11.72,2.22,11.72Z"/>
          <path class="cls-1" d="M80.01,49.32c-1.73,6.29-8.92,9.75-15.04,11.23-.06.02-.12.03-.17.04-.01,0-.03,0-.04.01-.51.12-1.01.23-1.5.32-1.98.37-3.77.53-5.1.5-.17-.37-.31-.73-.43-1.07-1.35-3.91.43-5.47.43-5.47,6.17.62,10.62-4.44,9.88-9.26-.21-1.35-.72-2.31-1.36-3.07-1.45-1.74-3.51-2.43-3.89-4.31-.05-.24-.07-.49-.06-.77.13-3.45,1.85-8.89,7.16-8.64.83.04,1.72.35,2.6.88,4.75,2.84,9.6,12.01,7.52,19.61Z"/>
          <path class="cls-13" d="M80.01,49.32c-1.73,6.29-8.92,9.75-15.04,11.23,2.05-.56,13.18-5.02,13-15.43-.19-10.74-11.66-11.85-11.29-2.57-1.63-1.96-4.04-2.59-3.95-5.08.13-3.45,1.85-8.89,7.16-8.64,5.31.25,12.59,11.48,10.12,20.49Z"/>
          <path class="cls-1" d="M72.49,29.71c-.2.54-.41,1.03-.63,1.46-1.15,2.3-5.28,4.1-9.08,7.06-1.5,1.17-2.94,2.53-4.13,4.17-4.2,5.8-6.66,10.86-.49,12.46.73,2.75,2.68,4.88,1.94,5.9-.26.36-.86.58-1.94.64-4.2.25-7.53-.37-7.53-.37l-12.59-9.38.77-1.09,1.94-2.74c5.31-.49,8.15-3.82,4.81-8.15-3.33-4.32-7.9-10.49-7.78-13.82.12-3.33,4.57-16.41,5.06-18.14.49-1.73,1.97-6.66,3.21-7.53,1.24-.87,4.32,1.36,5.92,1.48,1.61.12,10.62.98,12.34.74,1.73-.25,3.58-.99,5.55-.13,1.97.87,3.95,7.9,4.44,13.46.43,4.81-.54,10.46-1.84,13.96Z"/>
          <path class="cls-13" d="M63.26,60.92c-1.98.37-3.77.53-5.1.5-4.2.25-7.53-.37-7.53-.37l-12.59-9.38.77-1.09c6.68-.77,9.87.09,11.69,4.3,1.14,2.63,3.66,4.56,7.23,5.47.74.19,1.53.33,2.36.43,1,.12,2.05.17,3.17.14Z"/>
          <path class="cls-10" d="M49.41,67.46c-.04.19-.08.37-.12.56-.6,2.72-1.48,5.37-2.49,7.59-.11.24-.22.48-.34.72-.08.17-.16.34-.26.51-3.98,7.93-10.02,11.73-10.02,11.73,0,0-6.54-1.73-11.85,1.73-5.31,3.45-10.74-23.82-10.74-23.82,2.11-2.45,4.08-4.53,5.95-6.3.02-.02.05-.04.07-.07.14-.14.29-.27.43-.4,2.24-2.08,4.32-3.7,6.32-4.95.29-.19.58-.36.87-.53,5.54-3.23,10.41-3.66,15.98-3.3.91.06,1.71.25,2.42.55.29.12.56.26.82.43,1.35.84,2.27,2.16,2.85,3.79,1.14,3.18.97,7.54.09,11.77Z"/>
          <path class="cls-7" d="M49.41,67.46c-.04.19-.08.37-.12.56-.6,2.72-1.48,5.37-2.49,7.59-.11.24-.22.48-.34.72-.08.17-.16.34-.26.51-3.98,7.93-10.02,11.73-10.02,11.73,0,0-6.54-1.73-11.85,1.73-5.31,3.45-10.74-23.82-10.74-23.82,2.11-2.45,4.08-4.53,5.95-6.3-1.73,6.84,10.89,16.03,20.65,10.49,8.41-4.77,9.82-10.8,9.12-14.98,1.14,3.18.97,7.54.09,11.77Z"/>
          <path class="cls-13" d="M36.19,88.57c-1.23,3.58-6.08,3.3-6.45,3.18-.37-.12-7.01-5.77-7.01-5.77l-4.57,4.69s-2.84,7.9-5.18,7.9c-1.86,0-3.62-.58-5.22-1.46-.17-.09-.33-.18-.49-.28-1.22-.73-2.34-1.62-3.31-2.54-.15-.14-.29-.28-.43-.43-.14-.14-.29-.29-.42-.43-.14-.15-.27-.29-.4-.44-1.17-1.29-2.01-2.52-2.42-3.31-.11-.21-.19-.39-.24-.53-.06-.18-.07-.3-.02-.34.49-.49,4.57-.86,4.57-.86,0,0,12.72-13.7,16.66-14.07,3.95-.37,14.94,14.69,14.94,14.69Z"/>
          <g class="cls-8">
            <path class="cls-13" d="M3.11,93.43c-.14-.15-.27-.29-.4-.44.7-1.39,1.29-2.8,1.13-3.21-.15-.39-1.85-.36-3.55-.1-.11-.21-.19-.39-.24-.53,1.44-.24,3.96-.51,4.31.43.26.69-.54,2.48-1.25,3.85Z"/>
            <path class="cls-13" d="M7.76,97.11c-.17-.09-.33-.18-.49-.28.53-1.44.87-3.01.38-3.34-.48-.32-2.11.16-3.68.8-.15-.14-.29-.28-.43-.43,1.54-.65,3.63-1.36,4.43-.83.91.61.31,2.72-.2,4.08Z"/>
          </g>
          <path class="cls-12" d="M28.79,65.86c-.42.88-.96,1.76-1.57,2.62,5.9,4.42,13.63,6.7,19.25,7.85-.08.17-.16.34-.26.51-5.67-1.17-13.39-3.48-19.32-7.92-3.33,4.46-8.42,8.21-8.68,8.4l-.33-.45c.07-.05,5.24-3.86,8.56-8.29-2.89-2.25-5.33-5.04-6.82-8.46.14-.14.29-.27.43-.4,1.45,3.41,3.85,6.18,6.72,8.42.59-.83,1.11-1.67,1.51-2.51,1.38-2.88,3.65-6.09,6.69-8.76-2.4-1.25-5.22-2.05-8.61-2.1.29-.19.58-.36.87-.53,3.2.17,5.89,1,8.19,2.23,2.81-2.36,6.25-4.24,10.21-4.98.29.12.56.26.82.43-4.09.61-7.63,2.47-10.52,4.85,3.14,1.8,5.55,4.32,7.61,6.84,1.52,1.86,3.83,3.09,5.85,3.88-.04.19-.08.37-.12.56-2.1-.8-4.53-2.09-6.16-4.08-2.05-2.51-4.48-5.04-7.63-6.81-3.05,2.64-5.34,5.85-6.71,8.72Z"/>
          <path class="cls-5" d="M41.22,12.88c.08-.24,1.76-1.51,2.87-1.39,1.11.12,2.28,2.34,2.28,2.34,0,0-.3-2.94-1.94-3.26-1.64-.32-3.22,2.3-3.22,2.3Z"/>
          <path class="cls-5" d="M56.74,15.63s2.96-3.39,5.99-2.72c3.02.68,3.95,5.12,3.95,5.12,0,0-2.84-4.01-4.44-4.2-1.6-.19-5.49,1.79-5.49,1.79Z"/>
          <path class="cls-13" d="M60.38,25.38c-.3.13-.2.67.06,1.27-1.32.67-2.75,1.24-4.16,1.73-1.49.51-3.02.89-4.54,1.02-1.51.13-3.06-.03-4.2-.82-.29-.19-.54-.43-.76-.7-.12-.13-.22-.29-.33-.43-.11-.15-.2-.31-.3-.46-.37-.64-.62-1.35-.78-2.1-.32-1.5-.26-3.09-.06-4.66.2-1.58.58-3.14,1.02-4.69.44-1.55.98-3.07,1.51-4.6.54-1.53,1.11-3.04,1.69-4.56-1.44,2.91-2.83,5.85-3.9,8.94-.53,1.54-1.03,3.12-1.29,4.76-.27,1.63-.41,3.33-.12,5.03.14.85.4,1.7.82,2.48.21.39.44.77.73,1.12.3.35.63.68,1.01.95.75.54,1.63.86,2.49,1.02.87.15,1.74.15,2.59.08,1.69-.16,3.3-.64,4.84-1.2.78-.28,1.52-.63,2.26-.98.67-.33,1.33-.68,1.97-1.08.37.58.8,1.05,1.02,1.02.56-.06-.68-3.52-1.54-3.15Z"/>
          <path class="cls-1" d="M29.16,91.29c-.14.13-.3.25-.46.37-.14.11-.3.21-.46.31-.99.64-2.27,1.2-3.69,1.68-.18.06-.37.12-.56.18-.03.01-.07.03-.1.03-.18.06-.36.11-.54.17-1.57.47-3.25.84-4.82,1.11-.2.03-.4.06-.59.09-.09.01-.18.03-.27.04-.19.03-.38.06-.56.08-2.2.3-4.06.35-4.96.12-.24-.06-.41-.14-.5-.24t0,0c-.32-.4-.6-3.05-.8-6.54-.4-7.18-.43-17.93.3-20.12.74-2.22,5.8-6.05,8.15-4.44.44.3.96,1.3,1.51,2.71h0c2.39,6.15,5.41,20.25,5.41,20.25,0,0,4.07,3.21,2.96,4.2Z"/>
          <path class="cls-2" d="M10.83,88.7c-.4-7.18-.43-17.93.3-20.12.74-2.22,5.8-6.05,8.15-4.44.44.3.96,1.3,1.51,2.71h0c.73,8.36-6.74,18.09-9.96,21.86Z"/>
          <g class="cls-8">
            <path class="cls-1" d="M15.47,71.03c-.36,0-.58-.14-.71-.29-.49-.56-.69-1.11-.63-1.7.09-.85.76-1.72,2.03-2.66.12-.09.3-.06.39.06.09.12.06.3-.06.39-1.13.83-1.73,1.59-1.81,2.27-.05.42.12.84.49,1.27.17.2.62.07.86-.02,1.32-.49,2.97-2.1,2.97-2.47-.19-.14-1.49.13-2.71.59-.14.05-.3-.02-.36-.16-.05-.14.02-.3.16-.36.58-.22,2.54-.9,3.19-.53.14.08.24.22.26.37.12.75-1.78,2.36-3,2.94-.46.22-.81.3-1.09.3Z"/>
          </g>
          <g class="cls-8">
            <path class="cls-1" d="M17.66,95.29c-.19.03-.38.06-.56.08-.82-2.22-1.81-4.17-2.38-4.17-.71,0-1.85,2.32-2.58,4.29-.24-.06-.41-.14-.5-.24.58-1.57,1.86-4.6,3.08-4.6,1.08,0,2.25,2.69,2.94,4.65Z"/>
            <path class="cls-1" d="M23.89,93.87c-.18.06-.36.11-.54.17-.75-1.29-2.3-3.84-3.03-3.72-.58.1-1.3,2.34-1.8,4.83-.2.03-.4.06-.59.09.41-2.11,1.2-5.27,2.28-5.47,1.04-.19,2.37,1.87,3.67,4.09Z"/>
            <path class="cls-1" d="M28.7,91.66c-.14.11-.3.21-.46.31-1.24-1.43-2.54-2.53-3.03-2.29-.31.15-.77.89-.66,3.97-.18.06-.37.12-.56.18-.08-1.97.01-4.17.97-4.65.95-.48,2.62,1.17,3.74,2.47Z"/>
          </g>
        </g>
      </g>
    </g>
  </g>
</svg>