<?xml version="1.0" encoding="UTF-8"?>
<svg xmlns="http://www.w3.org/2000/svg" viewBox="0 0 88.84 114.92">
  <defs>
    <style>
      .cls-1 {
        fill: #abc950;
      }

      .cls-2 {
        fill: #2c3352;
      }

      .cls-3 {
        fill: #7c564e;
      }

      .cls-4, .cls-5, .cls-6, .cls-7, .cls-8 {
        fill: #64413f;
      }

      .cls-4, .cls-5, .cls-9, .cls-10, .cls-8 {
        mix-blend-mode: multiply;
      }

      .cls-4, .cls-9 {
        opacity: .4;
      }

      .cls-11 {
        fill: #f7fafa;
      }

      .cls-12 {
        fill: #fff;
      }

      .cls-13 {
        fill: #657331;
      }

      .cls-14 {
        fill: #e55757;
      }

      .cls-15 {
        isolation: isolate;
      }

      .cls-5, .cls-7 {
        opacity: .3;
      }

      .cls-9, .cls-16 {
        fill: #f4d692;
      }

      .cls-17 {
        fill: #b7a16e;
      }

      .cls-7 {
        mix-blend-mode: screen;
      }

      .cls-8 {
        opacity: .5;
      }

      .cls-18 {
        fill: #94ad3d;
      }
    </style>
  </defs>
  <g class="cls-15">
    <g id="Layer_2" data-name="Layer 2">
      <g id="_1" data-name="1">
        <g>
          <path class="cls-18" d="M42.18,90.35s-3.83,2.59-5.06,4.81c-1.23,2.22-6.05,19.38-8.39,19.75-.88.14-3.43-1.03-6.24-2.64-.19-.1-.37-.21-.56-.32-1.18-.69-2.39-1.44-3.53-2.2-.19-.12-.37-.24-.56-.37-.27-.18-.53-.36-.78-.54-.17-.11-.33-.23-.49-.34-1.57-1.12-2.84-2.15-3.47-2.88-.15-.17-.26-.33-.33-.46-.08-.15-.11-.27-.09-.37.37-1.6,6.66-2.59,6.66-2.59,0,0,10.62-14.32,11.85-15.3,1.23-.99,5.68-1.85,5.68-1.85l5.31,5.31Z"/>
          <g class="cls-10">
            <path class="cls-18" d="M33.04,90.52c-.35,0-.71-.05-1.06-.15-.15-.04-.23-.2-.19-.34.04-.15.19-.23.34-.19,1.04.31,2.16.07,2.86-.6.43-.42.61-.93.49-1.41-.12-.49-.78-.48-1.15-.43-.94.13-1.68.66-1.68.83.32.47,1.34.34,1.68.26.15-.04.3.05.34.2.04.15-.05.3-.2.34-.07.02-1.68.41-2.27-.49-.13-.2-.13-.45.02-.67.41-.63,1.88-1.16,2.81-1.01.53.09.89.39,1,.85.17.68-.07,1.38-.65,1.94-.6.58-1.45.89-2.34.89Z"/>
          </g>
          <g class="cls-10">
            <path class="cls-18" d="M17.05,108.85c-.17-.11-.33-.23-.49-.34.43-1.63.67-3.27.25-3.63-.46-.4-2.19.1-3.72.74-.15-.17-.26-.33-.33-.46,1.4-.61,3.62-1.4,4.42-.7.72.63.31,2.79-.13,4.39Z"/>
            <path class="cls-18" d="M22.48,112.27c-.19-.1-.37-.21-.56-.32-.01-1.61-.12-3.03-.32-3.28-.27-.12-1.65.39-3.21,1.08-.19-.12-.37-.24-.56-.37,1.93-.9,3.79-1.57,4.2-1.07.37.47.45,2.45.45,3.95Z"/>
          </g>
          <path class="cls-18" d="M53.04,44.07s12.96.12,17.77,1.11c4.81.99,14.56,9.75,14.56,9.75,0,0,3.09.25,3.33.74.25.49.12,2.1-.25,2.59-.37.49-4.44.37-4.44.37,0,0,2.72,3.21,2.72,3.7s-1.48,2.59-2.35,2.59-3.21-2.59-3.21-2.59c0,0,.86,4.44.74,5.18-.12.74-1.73,1.73-2.22,1.48-.49-.25-2.59-4.81-2.59-4.81l-3.21-.12-20.86-19.99Z"/>
          <path class="cls-6" d="M76.78,68.8c0,.19-.01.37-.03.56-.16,2.8-.74,5.66-1.57,8.39-1.45,4.73-3.69,9.07-5.94,12.07-1.07,1.42-2.13,2.54-3.12,3.25-2.9-3.23-5.44-6.92-7.64-10.72-.09-.17-.19-.33-.28-.5-5.96-10.47-9.35-21.6-10.51-25.8-.3-1.11-.46-1.74-.46-1.74l1.11-19.5c2.51,4.34,5.02,7.26,7.8,9.62,1.97,1.68,4.07,3.08,6.4,4.52.16.1.33.2.5.3,2,1.22,4.15,2.47,6.54,3.95,5.6,3.48,7.45,9.37,7.2,15.6Z"/>
          <path class="cls-8" d="M76.78,68.8c0,.19-.01.37-.03.56-2.54-.5-6.58-1.4-7.89-2.23-1.56,7.26-9.42,14.38-10.37,15.21-.04.03-.07.06-.08.07l-.36-.42s.06-.06.16-.14c1.21-1.1,8.85-8.23,10.17-15.16-1.7-2.03-5.91-10.87-6.53-12.91-3.24.12-9.9.37-12.37.56l-.04-.56c2.45-.18,9.06-.43,12.32-.55,0-.99.49-3.09.78-4.29.16.1.33.2.5.3-.32,1.31-.72,3.14-.73,3.96,0,.08,0,.14,0,.2,0,.07.04.19.09.35.64,1.94,4.38,9.75,6.08,12.17.19.27.35.47.48.59.01.01.03.03.04.04.89.74,4.88,1.67,7.76,2.24Z"/>
          <path class="cls-4" d="M69.24,89.82c-1.07,1.42-2.13,2.54-3.12,3.25-2.9-3.23-5.44-6.92-7.64-10.72-.09-.17-.19-.33-.28-.5-5.96-10.47-9.35-21.6-10.51-25.8.51-5.52.9-9.64.9-9.64,3.97,23.46,15.48,37.93,20.65,43.41Z"/>
          <path class="cls-13" d="M9.84,31.85c-1.73-1.11,4.57-6.66,4.57-6.66l8.52-2.96-4.94,9.75s-5.18.49-8.15-.12Z"/>
          <path class="cls-14" d="M15.09,25.46c-2.78,1.57-3.89,6.39-.19,5.55,3.7-.83,4.44-7.22,4.44-7.22l-2.41-.74-1.85,2.41Z"/>
          <path class="cls-1" d="M46.5,63.94c-.04-.1-1.08-.99-2.55-2.21-1.17-.97-2.61-2.14-4.05-3.3-3.2-2.58-6.35-5.1-6.35-5.1,0,0,2.08-6.11-5.07-12.49-.04-.03-.07-.07-.11-.1-7.28-6.42-17.15-7.41-18.51-8.89,3.95-.37,7.16-2.47,7.65-7.04-5.06,3.33-13.7,3.95-15.43,1.97C.34,24.81-.23,10.22,2.68,5.93c2.1-3.08,9.01-3.45,9.63-3.7S14.28.13,18.98,0c4.69-.12,6.42,2.96,6.42,2.96,0,0,9.5,1.85,10.74,8.76,1.24,6.91-3.33,12.96-2.1,19.13,1.23,6.17,10.24,13.7,10.24,13.7,0,0,.36,3.01.78,6.66.67,5.69,1.51,12.94,1.44,12.72Z"/>
          <path class="cls-18" d="M45.06,51.22l-1.12,10.51-.1.9-4.63-1.9s.3-.9.67-2.3c.89-3.34.96-8.66-.43-12.14-1.35-3.37-6.85-5.19-11-5.45-.04-.03-.07-.07-.11-.1-7.28-6.42-17.15-7.41-18.51-8.89,0,0,11.23,3.09,19.63-2.84,3.7-2.61,5.8-11.23,4.07-17.65-1.73-6.42-8.15-8.39-8.15-8.39,0,0,9.5,1.85,10.74,8.76,1.24,6.91-3.33,12.96-2.1,19.13,1.23,6.17,10.24,13.7,10.24,13.7,0,0,.36,3.01.78,6.66Z"/>
          <path class="cls-11" d="M20.77,14.8c-.4,4.08-3.24,7.14-6.33,6.83s-5.28-3.86-4.88-7.94,3.24-7.14,6.33-6.83,5.28,3.86,4.88,7.94Z"/>
          <path class="cls-2" d="M14.62,14.78c0,2.05-1.09,3.71-2.44,3.71s-2.44-1.66-2.44-3.71,1.09-3.71,2.44-3.71,2.44,1.66,2.44,3.71Z"/>
          <path class="cls-12" d="M11.69,14.75c0,.65-.35,1.18-.78,1.18s-.78-.53-.78-1.18.35-1.18.78-1.18.78.53.78,1.18Z"/>
          <path class="cls-16" d="M51.15,91.28c-.02,4.06,1.23,7.21.04,7.58-1.22.38-5.55-1.22-10.02-6.22-.13-.14-.25-.28-.37-.43-1.78-2.06-3.57-4.67-5.17-7.9-.02-.03-.03-.07-.05-.1-.08-.17-.17-.34-.25-.51-.67-1.41-1.31-2.93-1.91-4.58-.96-2.67-1.69-5.28-2.23-7.77-.04-.19-.08-.37-.11-.55-.88-4.28-1.19-8.17-1.11-11.33,0-.19,0-.38.01-.57.21-5.35,1.56-8.43,3.07-7.43,1.3.86,3.6,2.4,5.76,3.84,2.78,1.85,5.35,3.57,5.35,3.57,0,0,.03.04.07.11.08.11.21.32.4.61,1.83,2.84,8.34,13.53,9.4,22.85-2.12,2.77-2.78,5.67-2.87,8.25,0,.2-.01.39-.01.58Z"/>
          <path class="cls-9" d="M51.15,91.28c-.02,4.06,1.23,7.21.04,7.58-1.22.38-5.55-1.22-10.02-6.22-.13-.14-.25-.28-.37-.43-1.78-2.06-3.57-4.67-5.17-7.9,10.63,1.93,5.52-20.42,3.18-29.01,2.78,1.85,5.35,3.57,5.35,3.57,0,0,.03.04.07.11.08.11.21.32.4.61,1.83,2.84,8.34,13.53,9.4,22.85-2.12,2.77-2.78,5.67-2.87,8.25,0,.2-.01.39-.01.58Z"/>
          <g>
            <path class="cls-17" d="M47.98,70.11c-3.11,1.56-6.46,1.31-9.69,1.07-2.35-.17-4.76-.35-7.1.16-.04-.19-.08-.37-.11-.55,2.41-.53,4.86-.34,7.25-.17,3.31.24,6.43.47,9.4-1.01l.24.5Z"/>
            <path class="cls-17" d="M51.62,76.24c-.07.07-6.93,6.21-16.05,7.98-.08-.17-.17-.34-.25-.51,9.03-1.7,15.85-7.81,15.93-7.87l.37.41Z"/>
            <path class="cls-17" d="M54.47,91.32l-.14.54s-1.32-.35-3.18-.57c-2.79-.33-6.88-.39-9.98,1.36-.13-.14-.25-.28-.37-.43,3.25-1.9,7.47-1.86,10.36-1.51,1.86.22,3.17.57,3.31.61Z"/>
            <path class="cls-17" d="M46.79,59.34l-.09.55s-.82-.13-2.07-.29c-3.42-.43-10.32-1.09-14.66-.14,0-.19,0-.38.01-.57,4.28-.9,10.7-.34,14.25.09,1.45.18,2.42.33,2.56.36Z"/>
          </g>
          <path class="cls-1" d="M36.5,50.11c-2.1,16.29-18.88,8.39-21.97,3.21.49-2.96.62-5.31.25-5.8-.37-.49-2.47-.99-3.09-.74s-2.47,4.2-2.47,4.2c0,0-5.18-2.96-5.68-2.96s-1.36,2.1-1.23,2.96c.12.86,4.07,3.33,4.07,3.33,0,0-5.43-.12-5.92.25-.49.37-.62,2.72-.25,3.33s4.69,1.48,4.69,1.48c0,0-3.83,2.35-4.07,2.84-.25.49.49,2.72,1.23,3.33.74.62,4.69-.25,4.69-.25,0,0,9.5,7.9,19.62,4.94,10.12-2.96,13.79-16.91,13.79-16.91l-3.67-3.21Z"/>
          <path class="cls-1" d="M83.25,111.25c-.04.2-.07.4-.11.57-.24,1.06-.56,1.7-.84,1.73-1.23.12-4.69-3.7-4.69-3.7,0,0-22.46-.5-23.82-2.72-.96-1.56-3-9.81-2.55-16.51.19-2.84.83-5.41,2.18-7.06l6.79,7.78.13,7.65s15.92-6.17,18.27-3.95c1.14,1.08,2.04,2.31,2.73,3.61.35.66.65,1.33.91,2,.07.18.13.35.19.53.48,1.4.77,2.83.93,4.18.02.2.04.4.06.59,0,.04,0,.08.01.12.01.2.03.4.04.6.11,1.77,0,3.37-.22,4.58Z"/>
          <path class="cls-18" d="M81.32,98.65c-7.63-1.67-21.8,2.07-21.8,2.07,0,0-.93-10.92-5.37-11.29-1.44-.12-2.35.42-2.93,1.2.19-2.84.83-5.41,2.18-7.06l6.79,7.78.13,7.65s15.92-6.17,18.27-3.95c1.14,1.08,2.04,2.31,2.73,3.61Z"/>
          <path class="cls-18" d="M56.47,107.05c-.7,0-1.03-.26-1.19-.5-.42-.63-.54-1.45-.31-2.18.21-.67.68-1.19,1.3-1.44.14-.06.3.01.36.15.06.14-.01.3-.15.36-.47.19-.82.58-.98,1.09-.18.57-.09,1.21.24,1.71.2.3.78.27,1.11.23,1.27-.17,2.77-1.02,2.95-1.37-.24-.18-1.45-.25-2.66-.16-.15.02-.29-.1-.3-.26-.01-.15.1-.29.26-.3.81-.06,2.75-.15,3.17.39.11.13.13.3.08.47-.23.7-2.15,1.6-3.42,1.77-.16.02-.31.03-.45.03Z"/>
          <g>
            <path class="cls-18" d="M83.42,105.95c-1.9-.48-4.74-1.35-4.74-2.27s2.28-2.32,3.55-3.03c.07.18.13.35.19.53-1.63.93-3.18,2.05-3.18,2.5.03.36,1.85,1.09,4.12,1.68.02.2.04.4.06.59Z"/>
            <path class="cls-18" d="M83.25,111.25c-.04.2-.07.4-.11.57-1.41-.75-3.25-1.87-3.34-2.68-.11-.98,2.18-2.33,3.64-3.07.01.2.03.4.04.6-1.68.9-3.17,1.94-3.12,2.41.05.48,1.44,1.39,2.9,2.17Z"/>
          </g>
          <path class="cls-7" d="M76.78,68.8c0,.19-.01.37-.03.56-.16,2.8-.74,5.66-1.57,8.39-11.53-4.91-20.15-19.29-19.03-33.32,1.97,1.68,4.07,3.08,6.4,4.52.16.1.33.2.5.3,2,1.22,4.15,2.47,6.54,3.95,5.6,3.48,7.45,9.37,7.2,15.6Z"/>
          <g>
            <path class="cls-3" d="M66.62,94.42c-1.12,1.2-3.07.74-6.04-1.94-.14-.13-.29-.27-.44-.41-1.53-1.44-3.31-3.43-5.37-6.05-1.35-1.71-2.6-3.52-3.74-5.43-.1-.16-.2-.33-.3-.49-2.23-3.8-4.06-7.97-5.49-12.46-.46-1.45-.88-2.94-1.26-4.46-.05-.19-.09-.37-.14-.56-1.11-4.57-1.83-9.42-2.16-14.49-.13-2.05-.23-3.96-.29-5.72,0-.19-.01-.38-.01-.57-.31-10.86,1-16.29,5.62-16.29,1.23,0,2.71,1.36,2.59,4.2-.07,1.54-.65,5.89-.43,12.55,0,.2.01.39.02.59.19,4.78.79,10.71,2.27,17.6.04.19.08.37.12.56.19.87.39,1.75.61,2.64.53,2.18,1.16,4.24,1.85,6.19.97,2.74,2.06,5.25,3.19,7.53.08.17.16.33.25.5,2.45,4.86,5.04,8.66,6.87,11.4.11.16.21.32.31.47,1.64,2.47,2.55,4.01,1.97,4.63Z"/>
            <g class="cls-10">
              <path class="cls-3" d="M49.18,42.89c-1.55-.48-4.82-1.27-7.79-.47,0-.19-.01-.38-.01-.57,2.98-.76,6.13-.05,7.78.46,0,.2.01.39.02.59Z"/>
            </g>
            <g class="cls-10">
              <path class="cls-3" d="M51.57,61.05c-1.75.12-4.79.57-7.58,2.14-.05-.19-.09-.37-.14-.56,2.83-1.56,5.82-2.01,7.6-2.14.04.19.08.37.12.56Z"/>
            </g>
            <g class="cls-10">
              <path class="cls-3" d="M57.47,77.91c-1.58.83-4.08,2.02-6.43,2.68-.1-.16-.2-.33-.3-.49,2.33-.64,4.88-1.86,6.48-2.69.08.17.16.33.25.5Z"/>
            </g>
            <g class="cls-10">
              <path class="cls-3" d="M64.65,89.79c-.9.81-2.22,1.78-4.07,2.69-.14-.13-.29-.27-.44-.41,1.94-.93,3.3-1.94,4.2-2.76.11.16.21.32.31.47Z"/>
            </g>
          </g>
          <path class="cls-5" d="M66.62,94.42c-1.12,1.2-3.07.74-6.04-1.94-.14-.13-.29-.27-.44-.41-1.53-1.44-3.31-3.43-5.37-6.05-1.35-1.71-2.6-3.52-3.74-5.43-.1-.16-.2-.33-.3-.49-2.23-3.8-4.06-7.97-5.49-12.46,3.97,3.63,6.9,3.32,8.78,2.24.97,2.74,2.06,5.25,3.19,7.53.08.17.16.33.25.5,2.45,4.86,5.04,8.66,6.87,11.4.11.16.21.32.31.47,1.64,2.47,2.55,4.01,1.97,4.63Z"/>
        </g>
      </g>
    </g>
  </g>
</svg>