<?xml version="1.0" encoding="UTF-8"?>
<svg xmlns="http://www.w3.org/2000/svg" viewBox="0 0 66.76 121.83">
  <defs>
    <style>
      .cls-1 {
        fill: #abc950;
      }

      .cls-2 {
        fill: #2c3352;
      }

      .cls-3 {
        fill: #7c564e;
      }

      .cls-4 {
        fill: #f7fafa;
      }

      .cls-5 {
        fill: #fff;
      }

      .cls-6 {
        fill: #657331;
      }

      .cls-7 {
        fill: #e55757;
      }

      .cls-8, .cls-9, .cls-10, .cls-11 {
        mix-blend-mode: multiply;
      }

      .cls-8, .cls-9, .cls-11 {
        opacity: .4;
      }

      .cls-12 {
        isolation: isolate;
      }

      .cls-13 {
        fill: #64413f;
      }

      .cls-9, .cls-14 {
        fill: #f4d692;
      }

      .cls-15 {
        fill: #b7a16e;
      }

      .cls-11, .cls-16 {
        fill: #94ad3d;
      }
    </style>
  </defs>
  <g class="cls-12">
    <g id="Layer_2" data-name="Layer 2">
      <g id="_1" data-name="1">
        <g>
          <path class="cls-16" d="M22.54,118.69c.3.55,1.58,1.32,4.08,1.77.17.03.34.06.52.09.85.13,1.83.22,2.94.26.28.01.56.01.84.01.08,0,.16,0,.24,0h.35c.06,0,.11,0,.18,0,1.47,0,2.93-.1,4.23-.24.03,0,.05,0,.08,0,.16-.02.32-.04.47-.06.01,0,.03,0,.04,0,1.39-.17,2.54-.41,3.23-.66.19-.07.35-.14.46-.21.14-.09.21-.18.21-.27,0-.76-1.95-4.58-1.95-5.25s.68-7.62-.34-10.25c-1.02-2.63-5.08-9.49-5.34-9.57l-2.71-2.29-5.51.68s3.47,10.33,3.3,11.18c-.17.85-5.76,14.06-5.34,14.83Z"/>
          <path class="cls-11" d="M35.98,105.47c.11,0,.26-.05.4-.24.44-.62.62-2.7.41-3.17-.22-.5-2.15-1-2.97-1.2-.12-.03-.24.05-.27.17-.03.12.05.24.17.27,1.18.28,2.53.73,2.67.95.18.4-.09,2.62-.42,2.78-.6-.06-2.82-1.23-2.85-1.62.03-.17.92-.36,1.99-.33,0,0,0,0,0,0,.12,0,.22-.1.22-.22,0-.12-.1-.23-.22-.23-.7-.02-2.33.02-2.45.71-.02.14.02.29.14.45.53.69,2.57,1.64,3.13,1.68.01,0,.02,0,.04,0Z"/>
          <g class="cls-8">
            <path class="cls-16" d="M35.99,120.57c.16-.02.32-.04.47-.05.01.02.03.04.04.07,0-.03,0-.05,0-.07.12-1.73.45-3.26.88-3.26.57,0,1.6,1.36,2.34,2.6.19-.07.35-.14.46-.21-.62-1.06-1.84-2.89-2.81-2.89-.84,0-1.19,1.62-1.34,3.06-.03.26-.05.53-.06.77Z"/>
            <path class="cls-16" d="M31.15,120.83h.35c.06,0,.11,0,.18,0,.49-1.78,1.16-3.44,1.63-3.52.01,0,.02,0,.03,0,.47,0,1.58,1.53,2.57,3.28.03,0,.05,0,.08,0,.16-.02.32-.04.47-.06-.13-.22-.26-.47-.41-.71-.86-1.45-2.04-3.13-2.83-3-.84.13-1.55,2.1-1.96,3.6h0c-.04.15-.08.3-.11.43Z"/>
            <path class="cls-16" d="M26.62,120.46c.17.03.34.06.52.09.54-1.34,1.2-2.52,1.58-2.56.37-.05,1.33,1.28,2.19,2.84.08,0,.16,0,.24,0h.35c-.07-.13-.15-.28-.24-.43h0c-.76-1.34-1.84-3.01-2.6-2.93-.77.09-1.56,1.76-2.04,2.98Z"/>
          </g>
          <g>
            <path class="cls-13" d="M0,77.13c0,.36.01.72.03,1.07.24,4.37,1.6,8.42,3.24,11.1,3.24,5.28,9.63,4.91,9.63,4.91l5.83-47.21-1.85-5.55c-.9,10.62-7.91,17.12-12.11,22.21-.18.22-.36.44-.52.66-.36.44-.68.87-.97,1.3C.85,69.12-.04,73.21,0,77.13Z"/>
            <g class="cls-10">
              <path class="cls-13" d="M4.77,63.65c2.36-.35,5.27-.6,7.26-.17l-.12.54c-2.07-.45-5.26-.11-7.67.28.17-.22.34-.43.52-.66Z"/>
              <path class="cls-13" d="M8.74,83.01v.56c-4.04-.05-6.94-2.9-8.71-5.36-.02-.36-.03-.71-.03-1.07,1.63,2.48,4.59,5.82,8.74,5.88Z"/>
            </g>
          </g>
          <path class="cls-16" d="M37.62,64.96c1.3,9.07,8.24,16.29,9.44,17.03,1.2.74,4.81,1.48,5.28,2.04.46.56-.09,1.3-.46,2.22-.37.93-3.52.28-3.52.28,0,0,2.13,5.28,1.94,5.83-.19.56-1.57,1.76-2.31,1.85-.74.09-3.24-2.5-3.24-2.5,0,0,.28,4.26-.09,4.81-.37.56-2.41.46-2.96-.46-.56-.93-1.3-3.52-1.3-3.52,0,0-.83,2.41-1.2,2.96-.37.56-2.13.09-2.5-.46-.37-.56.56-3.15.46-3.89s-1.11-3.33-1.11-3.33l1.57-22.86Z"/>
          <g>
            <path class="cls-3" d="M9.01,97.73c1.76,6.2,8.05,3.89,8.05,3.89l11.39-58.97c-.37-8.42-9.05-13.74-11.66-6.76-.73,1.95-.6,4.12-.51,6.76,0,.21.01.43.02.65.1,3.36.02,7.47-1.93,12.81-.07.18-.13.36-.2.54-.51,1.33-1.14,2.74-1.92,4.24-1.29,2.49-2.27,5.15-3,7.86-.05.19-.1.37-.14.55-2.9,11.34-1.5,23.49-.1,28.43Z"/>
            <g class="cls-10">
              <path class="cls-3" d="M16.28,42.65c0,.21.01.43.02.65,2.3,1.2,6.45,3.73,7.73,6.86l.51-.21c-1.41-3.46-5.97-6.14-8.26-7.3Z"/>
              <path class="cls-3" d="M14.17,56.65c1.18.61,2.48,1.54,3.51,2.92l.44-.33c-1.11-1.5-2.5-2.48-3.75-3.13-.07.18-.13.36-.2.54Z"/>
              <path class="cls-3" d="M9.11,69.3c.84.19,1.8.58,2.68,1.33l.36-.42c-.97-.82-1.99-1.25-2.9-1.46-.05.19-.1.37-.14.55Z"/>
            </g>
          </g>
          <path class="cls-6" d="M50.79,38.82c3.21-1.48,2.59-8.76,2.59-8.76l-6.66.86s.86,7.78,4.07,7.9Z"/>
          <path class="cls-7" d="M51.78,31.17c.49,4.07-1.85,7.16-2.96,4.81-1.11-2.35-.74-4.44-.74-4.44l3.7-.37Z"/>
          <path class="cls-1" d="M32.28,53.14c3.46-10.86,9.75-13.94,10.99-14.31s4.57,1.48,7.53,0c-1.85-.25-1.85-6.29-1.85-6.29,0,0,12.82-2.69,16.53-5.63.38-.3.67-.6.83-.9.09-.17.15-.33.17-.5.49-5.06-.99-14.07-3.95-18.88-1.97-3.21-8.15-3.46-8.15-3.46,0,0-6.54-3.7-8.64-3.08-2.1.62-5.55,3.95-5.55,3.95,0,0-9.13,3.08-10.37,7.04-1.24,3.95,2.34,11.48,1.85,19.5-.15,2.43-.98,5.15-2.21,7.99-2.85,6.55-7.86,13.73-11.73,19.41-5.55,8.15,11.11,6.05,14.56-4.81Z"/>
          <path class="cls-16" d="M29.45,38.54c6.46-6.82,13.81.28,13.81.28,1.23-.37,4.57,1.48,7.53,0-1.85-.25-1.85-6.29-1.85-6.29,0,0,12.82-2.69,16.53-5.63.34-.36.62-.66.83-.9.51-.59.63-.8.17-.5-2.9,1.91-19.13,5.86-22.65,3.27-3.52-2.59-6.85-11.29-4.63-18.14C41.41,3.77,45.73.07,45.73.07c-2.1.62-5.55,3.95-5.55,3.95,0,0-9.13,3.08-10.37,7.04-1.24,3.95,2.34,11.48,1.85,19.5-.15,2.43-.98,5.15-2.21,7.99Z"/>
          <path class="cls-4" d="M44.34,15.79c.4,4.08,3.24,7.14,6.33,6.84,3.1-.31,5.28-3.86,4.88-7.94-.4-4.08-3.24-7.14-6.33-6.83-3.1.31-5.28,3.86-4.88,7.94Z"/>
          <path class="cls-2" d="M50.49,15.77c0,2.05,1.09,3.71,2.44,3.71s2.44-1.66,2.44-3.71-1.09-3.71-2.44-3.71-2.44,1.66-2.44,3.71Z"/>
          <path class="cls-5" d="M53.42,15.74c0,.65.35,1.18.78,1.18s.78-.53.78-1.18-.35-1.18-.78-1.18-.78.53-.78,1.18Z"/>
          <path class="cls-14" d="M19.94,96.97c.06.18.13.36.19.53.97,2.58,2.21,4.58,3.75,5.63.49-.28.96-.56,1.41-.84.39-.24.76-.47,1.13-.71h0c2.16-1.41,3.93-2.82,5.39-4.3.13-.14.27-.27.4-.41,3.12-3.31,4.74-6.96,5.75-11.57.31-1.43.56-2.94.78-4.57.03-.2.06-.41.09-.61.03-.27.07-.54.1-.81.35-2.87.38-5.99.16-9.06-.02-.24-.04-.47-.06-.7-.32-3.77-1.01-7.41-1.98-10.35-.07-.2-.14-.41-.21-.6-1.09-3.08-2.49-5.28-4.05-5.81-.2-.07-.4-.11-.61-.13-.01,0-.03,0-.04,0-1.57-.07-3.83,1.11-6.24,3.42-.19.19-.38.37-.57.57-.13.14-.27.27-.4.41-1.64,1.75-3.32,4-4.88,6.7-3.27,5.67-3.61,23.29-.12,33.21Z"/>
          <path class="cls-9" d="M19.94,96.97c.06.18.13.36.19.53.97,2.58,2.21,4.58,3.75,5.63.49-.28.96-.56,1.41-.84.39-.24.76-.47,1.13-.71h0c2.16-1.41,3.93-2.82,5.39-4.3.13-.14.27-.27.4-.41,3.12-3.31,4.74-6.96,5.75-11.57-8.52,12.55-19.42,4.52-15.14-19.13.7-3.86,1.77-7.21,3.07-10.1-.19.19-.38.37-.57.57-.13.14-.27.27-.4.41-1.64,1.75-3.32,4-4.88,6.7-3.27,5.67-3.61,23.29-.12,33.21Z"/>
          <path class="cls-15" d="M33.65,81.31c-6.55-.13-14.44-2.58-14.9-2.72l.16-.53c.11.04,8.28,2.56,14.84,2.68.69-4.01,1-8.13.9-12.26-1.46-.15-3.17.04-5.45.61-5.47,1.37-9.41-.61-9.57-.69l.25-.49s3.92,1.97,9.19.65c2.32-.58,4.07-.78,5.57-.64-.07-2.24-.26-4.49-.58-6.71-1.58-.16-6.49-2.71-9.12-4.14.13-.14.27-.28.4-.41,3.3,1.78,7.33,3.8,8.64,4-.41-2.71-1-5.38-1.78-7.98.21.01.41.06.61.13.74,2.51,1.3,5.12,1.69,7.81.67-.25,1.58-1.11,2.37-1.99.07.2.14.4.21.6-.79.86-1.72,1.71-2.5,1.94.31,2.24.5,4.52.56,6.83,1.43.21,2.63.75,3.92,1.58.02.23.04.47.06.7-1.31-.89-2.53-1.47-3.95-1.7,0,0,0,0,0,0h0s0,0,0,0c.08,4.05-.22,8.16-.9,12.2,1.72,0,3.31-.18,4.59-.63-.03.21-.06.41-.09.61-1.31.41-2.89.58-4.57.58h-.03c-.91,5.17-2.44,10.04-4.49,14.42.8.18,1.81.66,2.56,1.13-.13.14-.26.28-.4.41-.7-.43-1.64-.9-2.41-1.03-.9,1.87-1.9,3.65-2.98,5.32h0c-.37.24-.74.47-1.13.71,1.31-1.89,2.5-3.92,3.55-6.07-1.5.05-5.68.74-8.72,1.28-.07-.17-.13-.35-.19-.53,2.57-.46,7.71-1.33,9.17-1.31,2.1-4.41,3.62-9.28,4.54-14.36Z"/>
          <path class="cls-1" d="M7.95,119.1c.23.46,1.05,1.07,2.58,1.6.52.18,1.12.35,1.81.5.18.04.37.08.56.11.92.18,1.98.32,3.2.41.3.02.61.04.91.05.08,0,.17.01.26.01h.38c.07.02.13.02.19.02,1.6.05,3.2.01,4.63-.09.03,0,.06,0,.09,0,.18-.01.35-.03.52-.04.01,0,.03,0,.04,0,1.53-.13,2.8-.34,3.55-.59.21-.07.39-.14.51-.21.16-.09.24-.19.25-.28.03-.83-1.94-5.08-1.91-5.82.03-.74,1.06-8.3.06-11.21-.11-.32-.26-.69-.43-1.1-1.43-3.39-4.75-9.49-5-9.58l-2.86-2.61-6.04.51s3.36,11.43,3.14,12.35c-.22.92-6.88,15.11-6.45,15.96Z"/>
          <path class="cls-16" d="M7.95,119.1c.23.46,1.05,1.07,2.58,1.6.53-1.69,5.06-16.09,5.85-18.33.83-2.38,2.59-4.72,4.77-3.52,1.2.66,2.82,2.24,4.02,3.61-1.43-3.39-4.75-9.49-5-9.58l-2.86-2.61-6.04.51s3.36,11.43,3.14,12.35c-.22.92-6.88,15.11-6.45,15.96Z"/>
          <g class="cls-10">
            <path class="cls-1" d="M23.29,106.25c.14,0,.33-.06.5-.3.55-.77.76-3.35.51-3.92-.27-.61-2.66-1.24-3.68-1.48-.15-.04-.3.06-.33.21-.04.15.06.3.21.33,1.46.35,3.13.9,3.3,1.17.22.49-.11,3.24-.52,3.44-.74-.07-3.48-1.53-3.52-2,.04-.21,1.15-.44,2.47-.41.14,0,.28-.12.28-.27,0-.15-.12-.28-.27-.28-.86-.02-2.88.03-3.03.88-.03.17.03.36.18.55.66.85,3.18,2.02,3.87,2.08.01,0,.03,0,.04,0Z"/>
          </g>
          <g class="cls-10">
            <path class="cls-1" d="M22.56,121.72c.18-.01.35-.03.52-.04.01.03.03.05.04.08,0-.03,0-.06,0-.08.21-1.88.63-3.54,1.1-3.52.62.02,1.69,1.55,2.45,2.94.21-.07.39-.14.51-.21-.63-1.18-1.89-3.24-2.94-3.28-.91-.04-1.37,1.72-1.59,3.29-.04.29-.07.57-.1.84Z"/>
            <path class="cls-1" d="M17.27,121.79h.38c.07.02.13.02.19.02.6-1.93,1.41-3.71,1.92-3.78.01,0,.02,0,.04,0,.51.02,1.66,1.74,2.67,3.69.03,0,.06,0,.09,0,.18-.01.35-.03.52-.04-.13-.25-.27-.52-.42-.8-.88-1.62-2.1-3.5-2.96-3.39-.93.11-1.78,2.23-2.29,3.84h0c-.05.16-.1.32-.14.47Z"/>
            <path class="cls-1" d="M12.34,121.21c.18.04.37.08.56.11.65-1.44,1.41-2.7,1.84-2.73.41-.04,1.4,1.46,2.27,3.2.08,0,.17.01.26.01h.38c-.08-.14-.15-.3-.24-.46h0c-.77-1.5-1.89-3.36-2.72-3.3-.85.07-1.78,1.86-2.36,3.17Z"/>
          </g>
          <path class="cls-1" d="M7.47,93.01c.24.71,1.17,1.47,1.96,2,.64.43,1.19.72,1.19.72,0,0,.19,1.42.37,1.91.19.49,2.9.25,3.46-.12s1.3-4.38,1.3-4.38c0,0,.68,4.14,1.05,4.14s2.22.56,2.78,0c.56-.56.74-5.43,1.17-5.92.43-.49,3.39.25,3.82-.37.43-.62,1.42-2.96,1.05-3.45-.37-.5-4.94-1.54-5.31-2.65-.19-.56-.46-4.37-.15-9.42.31-5.02,1.21-11.27,3.37-16.76,0,0-2.78-5.18-4.28-2.97-1.44,2.13-8.56,10.82-10.36,18.47-.07.29-.13.59-.19.88-1.42,7.84-1.67,16.66-1.24,17.96Z"/>
          <path class="cls-16" d="M9.43,95c.64.43,1.19.72,1.19.72l-.43-3.82-.76,3.11Z"/>
        </g>
      </g>
    </g>
  </g>
</svg>