<?xml version="1.0" encoding="UTF-8"?>
<svg xmlns="http://www.w3.org/2000/svg" viewBox="0 0 96.67 116.82">
  <defs>
    <style>
      .cls-1 {
        fill: #abc950;
      }

      .cls-2 {
        fill: #2c3352;
      }

      .cls-3 {
        fill: #7c564e;
      }

      .cls-4 {
        fill: #f7fafa;
      }

      .cls-5 {
        fill: #fff;
      }

      .cls-6 {
        isolation: isolate;
      }

      .cls-7, .cls-8, .cls-9 {
        mix-blend-mode: multiply;
      }

      .cls-7, .cls-10 {
        fill: #f4d692;
      }

      .cls-7, .cls-9 {
        opacity: .5;
      }

      .cls-11 {
        fill: #64413f;
      }

      .cls-12 {
        fill: #b7a16e;
      }

      .cls-13 {
        fill: #94ad3d;
      }
    </style>
  </defs>
  <g class="cls-6">
    <g id="Layer_2" data-name="Layer 2">
      <g id="_1" data-name="1">
        <g>
          <path class="cls-11" d="M74.99,70.93c-.04.18-.07.36-.11.54-1.08,5.22-2.88,9.88-4.27,12.22-3.09,5.18-9.88,6.54-9.88,6.54l-10.62-55.42c8.95,7.96,16.54,9.18,21.67,15.48.14.17.27.34.41.52.52.69,1.02,1.44,1.49,2.27,2.7,4.74,2.52,11.64,1.3,17.84Z"/>
          <g class="cls-9">
            <path class="cls-11" d="M72.19,50.82c-.14-.18-.27-.35-.41-.52-.89,2.83-5.64,4.1-5.69,4.12l.14.54c.22-.06,4.76-1.27,5.97-4.14Z"/>
            <path class="cls-11" d="M69.35,70.83l.03.56c2.55-.16,4.32-.06,5.49.09.04-.18.08-.36.11-.54-1.21-.17-3.03-.27-5.64-.1Z"/>
          </g>
          <path class="cls-3" d="M64.84,86.97c-.1.17-.21.33-.31.49-.83,1.28-1.63,2.38-2.32,3.26-2.01,2.57-5.44,1.7-8.82-.39-.17-.1-.34-.21-.51-.32-3.1-2.03-6.09-5-7.82-7.19-3.7-4.69-11.11-52.33-11.11-52.33,2.94-5.14,6.29-6.59,10.39-3.52.15.11.31.23.46.36,1.78,1.46,3.71,3.77,5.81,6.99,1.01,1.54,2.03,2.83,3.05,3.93.14.14.27.29.41.43,4.2,4.34,8.4,5.89,11.73,10.58.11.15.21.31.32.47,1.39,2.09,2.63,4.78,3.62,8.54.61,2.32.96,4.56,1.1,6.71.01.19.02.38.03.57.4,9.05-2.95,16.52-6.02,21.42Z"/>
          <g class="cls-9">
            <path class="cls-3" d="M44.33,26.97c-2.34,6.78-.56,15.1-.54,15.18l.54-.12c-.02-.09-1.73-8.12.46-14.7-.16-.13-.31-.25-.46-.36Z"/>
            <path class="cls-3" d="M53.65,38.25c-1.52,2.97-1.71,4.72-1.72,4.81l.56.06s.19-1.66,1.57-4.44c-.14-.14-.27-.28-.41-.43Z"/>
            <path class="cls-3" d="M66.11,49.73c-.11-.16-.21-.31-.32-.47-3.02,1.37-5.52,4.12-5.64,4.25l.41.37s2.58-2.84,5.55-4.16Z"/>
            <path class="cls-3" d="M70.83,64.98c-3.19.75-6.79-.06-6.83-.07l-.13.54c.12.03,1.83.42,3.94.42.97,0,2.02-.08,3.04-.32,0-.19-.02-.38-.03-.57Z"/>
            <path class="cls-3" d="M59.44,83.5l-.4.39c.14.14,2.56,2.59,5.48,3.58.1-.16.21-.33.31-.49-2.88-.93-5.36-3.44-5.39-3.47Z"/>
            <path class="cls-3" d="M52.87,90.02c.17.11.34.22.51.32.62-3.48,2-5.44,2.01-5.46l-.45-.32c-.07.1-1.42,2.01-2.07,5.46Z"/>
          </g>
          <path class="cls-1" d="M90.47,36.55c-.61.25-3.82-.12-3.82-.12,0,0-2.71,4.32-10.62,8.02-1.13.53-2.28,1-3.44,1.4-6.91,2.41-14.11,2.66-20.14,1.81-7.04-.99-13.95-1.23-13.95-1.23,0,0-8.02,6.91-15.67,10.24-7.65,3.33-14.32,1.61-14.32,1.61,0,0-2.47,2.22-3.08,2.22s-1.98-.5-1.98-.99,1.73-3.21,1.73-3.21c0,0-3.33.74-3.95.13-.61-.62-1.23-1.61-1.23-2.47s3.95-2.84,3.95-2.84c0,0-3.58-1.6-3.7-2.59-.13-.98,1.11-2.96,1.48-3.08s4.57,2.47,4.57,2.47c0,0-.49-3.46,0-3.95.49-.49,2.84-.62,3.33-.37.49.25.74,2.47,1.23,4.07,4.69,1.48,18.14-.74,21.23-3.33,0,0,0,0,0,0-5.19-8.26-19.13-5.42-23.32-7.77C2.94,33.29,2.1,5.57,3.21,4.7c1.11-.86,3.95.12,3.95.12,0,0,7.53-2.84,12.59-2.84,6.54-4.07,9.13-1.48,11.6,4.07,3.45,2.1,5.55,11.23,4.81,17.28-.74,6.05-1.36,12.84,1.6,14.81,6.64,4.42,13.82,4.81,22.34,2.84,8.52-1.97,15.18-10,15.18-10,0,0-.61-4.57-.61-5.31s1.36-2.47,1.97-2.47,3.82,3.82,3.82,3.82c0,0,2.22-4.2,2.59-4.44.37-.24,2.96.37,3.09.99.12.62-1.61,4.94-1.61,4.94,0,0,3.95-2.22,4.57-1.97.61.25,2.22,2.22,1.85,2.96-.37.74-4.07,2.84-4.07,2.84,0,0,3.7.98,4.07,1.48.37.49.12,2.47-.5,2.71Z"/>
          <path class="cls-13" d="M72.59,45.84c-6.91,2.41-14.11,2.66-20.14,1.81-7.04-.99-13.95-1.23-13.95-1.23,0,0-8.02,6.91-15.67,10.24-7.65,3.33-14.32,1.61-14.32,1.61,0,0,13.03-.14,22.34-7.9,2.96-2.47,4.94-7.41,10.37-7.65,5.34-.24,12.12,6.2,31.37,3.13Z"/>
          <path class="cls-13" d="M21.72,36.55c.17.73.7,1.47,1.44,2.21-5.62-1.28-11.83-.78-14.4-2.21-2.51-1.4-4.09-7.33-4.99-13.7-.43-3.04-.71-6.18-.86-8.97-.26-4.97-.11-8.86.29-9.18,1.11-.86,3.95.12,3.95.12-.24.24-.65,2.39-.5,7.18.03,1.15.1,2.45.21,3.91.1,1.37.24,2.89.43,4.56.04.33.07.67.11,1.01.09.79.22,1.54.38,2.26,2.14,9.68,10.1,11.7,18.82,3.48-.06.06.41.14.26.3-1.27,1.37-5.87,6-5.14,9.03Z"/>
          <path class="cls-13" d="M26.3,26.01c-.34.8.84,2.71,1.34,2.06.5-.65-1.16-2.5-1.34-2.06Z"/>
          <ellipse class="cls-4" cx="22.15" cy="15.26" rx="5.62" ry="7.47"/>
          <path class="cls-2" d="M22.59,15.5c0,2.04-1.24,3.69-2.78,3.69s-2.78-1.65-2.78-3.69,1.24-3.69,2.78-3.69,2.78,1.65,2.78,3.69Z"/>
          <path class="cls-5" d="M19.07,15.35c0,.68-.41,1.23-.93,1.23s-.93-.55-.93-1.23.41-1.23.93-1.23.93.55.93,1.23Z"/>
          <path class="cls-4" d="M7.78,23.74c-.38,1.07-.92,1.73-1.57,1.79-.88.08-1.78-.98-2.44-2.68-.48-1.23-.84-2.78-.99-4.5-.15-1.66-.09-3.2.14-4.47.33-1.88,1.03-3.14,1.94-3.22.62-.06,1.25.45,1.8,1.35.03,1.15.1,2.45.21,3.91.1,1.37.24,2.89.43,4.56.04.33.07.67.11,1.01.09.79.22,1.54.38,2.26Z"/>
          <path class="cls-1" d="M96.64,81.72c-.09.9-1.76.68-2.65.5-.33-.07-.56-.13-.56-.13,0,0-.04.01-.12.03-1.31.38-12.89,3.68-15.92,3.92-3.21.24-17.9-6.42-17.9-6.42l1.6-4.57s2.1-2.1,4.07-.12c0,0,.6.16,1.5.41,2.38.66,6.82,1.91,7.27,2.18.61.37,10.12-9.13,12.59-8.76.78.11,2.13.81,3.6,1.9.15.11.3.22.44.34.86.68,1.75,1.48,2.57,2.39.14.15.27.3.4.46.11.12.21.25.31.38.12.15.24.3.35.45.87,1.14,1.59,2.4,2.02,3.71.06.18.11.36.16.54,0,.02.01.04.01.05.06.21.11.43.14.64.04.2.07.4.09.6.06.5.06,1,.01,1.5Z"/>
          <path class="cls-13" d="M96.64,81.72c-.09.9-1.76.68-2.65.5-.33-.07-.56-.13-.56-.13,0,0-.04.01-.12.03-1.31.38-12.89,3.68-15.92,3.92-3.21.24-17.9-6.42-17.9-6.42l1.6-4.57s2.1-2.1,4.07-.12c0,0,.6.16,1.5.41-1.03,2.26,3.71,10.81,11.46,9.22,7.44-1.53,13.44-5.49,18.5-4.34.06.5.06,1,.01,1.5Z"/>
          <path class="cls-2" d="M7.29,20.48c-.26.89-.74,1.49-1.33,1.54-1.02.09-2-1.48-2.18-3.51-.19-2.03.49-3.75,1.51-3.84.58-.05,1.16.44,1.57,1.25.1,1.37.24,2.89.43,4.56Z"/>
          <path class="cls-1" d="M66.46,116.15c-.43.2-1.16.36-2.07.46-.47.06-.99.1-1.54.13-.19.01-.39.02-.6.03-1.21.05-2.55.06-3.91.03h-.57s-.04-.01-.06-.01c-.2,0-.39-.01-.59-.02-1.18-.04-2.34-.11-3.4-.19-.19-.01-.38-.03-.57-.04-.19-.02-.39-.03-.57-.05-.22-.02-.43-.04-.64-.07-1.83-.19-3.07-.42-3.07-.64,0-.46.87-1.47,1.64-2.39.14-.16.27-.32.39-.47.29-.36.53-.68.66-.93.46-.93,1.85-6.2,1.76-12.31-.02-1.28-.11-2.47-.27-3.57h0c-.59-4.16-2.09-7.25-3.99-10.68l7.22,2.22s4.07,7.31,7.5,11.76c3.42,4.44,4.26,16.01,2.68,16.75Z"/>
          <path class="cls-13" d="M66.46,116.15c-.43.2-1.16.36-2.07.46.39-1.51.59-3.73.03-6.75-1.23-6.66-6.91-19.5-9.13-19.25-1.34.15-2.05,3-2.24,5.49-.59-4.15-2.09-7.24-3.99-10.68l7.22,2.22s4.07,7.31,7.5,11.76c3.42,4.44,4.26,16.01,2.68,16.75Z"/>
          <path class="cls-10" d="M65.17,74.93s-3.45.99-4.44,4.57c-.2.7-.29,1.46-.33,2.23-.01.19-.02.37-.03.56-.1,2.79.27,5.63-1.39,6.65-.11.07-.22.13-.35.18-.09.04-.19.07-.3.09-1.34.3-4.19-.28-7.5-1.94-.17-.09-.35-.18-.53-.27-4.49-2.36-9.7-6.66-13.15-13.33-.08-.16-.16-.31-.24-.47-.01-.02-.02-.04-.03-.06-.6-1.22-1.12-2.45-1.57-3.67-.97-2.64-1.57-5.26-1.89-7.74-.03-.24-.06-.48-.09-.72-.46-4.3-.05-8.18.87-11.09.06-.2.13-.4.2-.59.71-2,1.67-3.48,2.75-4.24.08-.06.16-.11.24-.16.1-.06.2-.12.31-.17,1.71-.94,3.43-1.11,5.08-.87.49.07.98.18,1.46.31.19.05.38.11.57.17,3.14,1.02,5.88,3.06,7.65,3.27,1.31.16,3.07.51,4.87,1.48.16.09.32.18.49.28,2.27,1.36,4.54,3.75,5.99,7.99.02.05.04.11.05.16.07.2.14.41.2.61,2.38,7.74,1.11,16.75,1.11,16.75Z"/>
          <path class="cls-12" d="M42.03,72.66c2.71,4.63,6.12,8.26,9.34,10.99,1.12-.87,6.39-1.6,9.02-1.93-.01.19-.02.37-.03.56-3.35.41-7.61,1.1-8.56,1.73,2.74,2.27,5.31,3.89,7.16,4.92-.11.07-.22.13-.35.18-.09.04-.19.07-.3.09-1.83-1.05-4.27-2.62-6.86-4.76-.36.68-.55,1.85-.64,2.83-.17-.09-.35-.18-.53-.27.1-.98.3-2.18.74-2.92-3.3-2.79-6.79-6.51-9.55-11.26-1.48.42-2.94.72-4.34.85-.08-.16-.16-.31-.24-.47-.01-.02-.02-.04-.03-.06,1.4-.1,2.86-.39,4.33-.8-2.61-4.66-3.55-9.06-3.88-13.62-1.41.73-2.73,1.69-3.91,3.01-.03-.24-.06-.48-.09-.72,1.2-1.25,2.54-2.18,3.95-2.88-.13-2.19-.13-4.42-.12-6.74-1.21-.06-2.25-.79-2.96-1.46.06-.2.13-.4.2-.59.63.64,1.63,1.43,2.77,1.5v-.33c.01-1.75.02-3.55-.01-5.41.08-.06.16-.11.24-.16.1-.06.2-.12.31-.17.05,1.98.03,3.89.02,5.75v.3c1.58-.33,4.72-4.18,6.51-6.61.19.05.38.11.57.17-1.57,2.14-5.12,6.72-7.08,6.99-.01,2.24-.01,4.39.11,6.5,3.04-1.37,6.39-1.78,9.49-2.15.55-.07,1.1-.13,1.64-.2,4.33-.57,7.3-4.67,8.36-6.39.16.09.32.18.49.28-1.09,1.79-4.15,6.05-8.78,6.66-.54.07-1.09.14-1.64.2-3.25.39-6.56.79-9.52,2.18.31,4.61,1.24,9.04,3.88,13.73,8.8-2.65,18.25-9.94,22.11-14.62.07.2.14.41.2.61-4.04,4.72-13.32,11.8-22.03,14.49Z"/>
          <g class="cls-8">
            <path class="cls-1" d="M76.87,84.86c-.08,0-.15,0-.22-.02-.28-.05-.4-.19-.44-.3-.21-.49.28-1.66.5-2.14.06-.14.23-.2.37-.14.14.06.2.23.14.37-.32.69-.54,1.43-.5,1.66.33.12,1.89-.3,2.45-.91.02-.02.04-.05,0-.16-.32-.72-2.46-1.91-2.94-1.91-.15,0-.28-.12-.28-.28s.12-.28.28-.28c.66,0,3.02,1.27,3.45,2.24.17.39.01.64-.09.76-.56.62-1.93,1.1-2.69,1.1ZM76.72,84.33h0,0Z"/>
          </g>
          <g class="cls-8">
            <path class="cls-1" d="M93.54,73.85c-4.36,1.48-4.82.98-5.01.77-.56-.61.56-2.49,1.59-3.96.15.11.3.22.44.34-1.11,1.61-1.84,3.01-1.62,3.24.15.16,1.24.13,4.19-.86.14.15.27.3.4.46Z"/>
            <path class="cls-1" d="M96.39,78.92c-1.57.29-4.27.65-4.85-.2-.47-.69.54-2.29,2.32-4.5.12.15.24.3.35.45-2.21,2.78-2.35,3.54-2.21,3.74.3.43,2.26.33,4.23-.03.06.18.11.36.16.54Z"/>
            <path class="cls-1" d="M96.55,79.62c-.88.89-1.86,1.87-2.56,2.6-.33-.07-.56-.13-.56-.13,0,0-.04.01-.12.03.56-.58,1.49-1.54,3.09-3.15.06.21.11.43.14.64Z"/>
          </g>
          <g class="cls-8">
            <path class="cls-1" d="M58.07,101.3c-.67,0-1.79-1.04-2.26-1.52-.11-.11-.11-.28,0-.39s.28-.11.39,0c.73.73,1.58,1.35,1.84,1.36.07-.44-.49-1.62-1.32-2.56-.58-.66-1.15-1.03-1.53-1.01-.09,0-.15.04-.21.12-.37.54-.03,2.38.27,3.41.04.15-.04.3-.19.34-.15.04-.3-.04-.34-.19-.09-.3-.84-2.95-.19-3.88.15-.22.37-.34.62-.36.73-.05,1.48.62,1.98,1.19.83.94,1.6,2.33,1.46,3.03-.06.3-.25.4-.36.43-.05.01-.1.02-.15.02Z"/>
          </g>
          <g class="cls-8">
            <path class="cls-1" d="M52.59,116.49c-.22-.02-.43-.04-.64-.07l-1.44-3.03c.14-.16.27-.32.39-.47l1.68,3.57Z"/>
            <path class="cls-1" d="M57.72,116.78c-.2,0-.39-.01-.59-.02-.47-1.66-1.17-3.3-1.83-3.3h-.02c-.63.04-1.2,1.53-1.56,3.11-.19-.01-.38-.03-.57-.04.34-1.56.99-3.55,2.08-3.62h.06c1.16,0,1.98,2.28,2.42,3.87Z"/>
            <path class="cls-1" d="M62.85,116.74c-.19.01-.39.02-.6.03-.69-1.6-1.6-3.11-2.24-3.03-.69.09-1.3,1.6-1.67,3.05h-.57c.36-1.44,1.06-3.47,2.17-3.6,1.14-.15,2.25,1.98,2.9,3.55Z"/>
          </g>
          <path class="cls-7" d="M65.17,74.93s-3.45.99-4.44,4.57c-.2.7-.29,1.46-.33,2.23-.01.19-.02.37-.03.56-.1,2.79.27,5.63-1.39,6.65-.11.07-.22.13-.35.18-.09.04-.19.07-.3.09-1.34.3-4.19-.28-7.5-1.94-.17-.09-.35-.18-.53-.27-4.49-2.36-9.7-6.66-13.15-13.33-.08-.16-.16-.31-.24-.47-.01-.02-.02-.04-.03-.06-.6-1.22-1.12-2.45-1.57-3.67,19.89,22.99,26.82,3.78,24.18-7.5-2.07-8.83-10.14-15.94-16.71-18.08.49.07.98.18,1.46.31.19.05.38.11.57.17,3.14,1.02,5.88,3.06,7.65,3.27,1.31.16,3.07.51,4.87,1.48.16.09.32.18.49.28,2.27,1.36,4.54,3.75,5.99,7.99.02.05.04.11.05.16.07.2.14.41.2.61,2.38,7.74,1.11,16.75,1.11,16.75Z"/>
          <path class="cls-10" d="M53.23,99.49c.04.1.07.16.09.18-.03-.05-.06-.11-.09-.18Z"/>
          <path class="cls-5" d="M5.37,17.75c0,.68-.21,1.23-.46,1.23s-.46-.55-.46-1.23.21-1.23.46-1.23.46.55.46,1.23Z"/>
        </g>
      </g>
    </g>
  </g>
</svg>