<?xml version="1.0" encoding="UTF-8"?>
<svg xmlns="http://www.w3.org/2000/svg" viewBox="0 0 51.59 93.22">
  <defs>
    <style>
      .cls-1, .cls-2 {
        fill: #abc950;
      }

      .cls-3 {
        fill: #2c3352;
      }

      .cls-4, .cls-5, .cls-6 {
        fill: #7c564e;
      }

      .cls-7 {
        fill: #f7fafa;
      }

      .cls-8 {
        fill: #fff;
      }

      .cls-9 {
        fill: #e0e3e3;
      }

      .cls-9, .cls-10, .cls-5, .cls-11, .cls-12 {
        mix-blend-mode: multiply;
      }

      .cls-10 {
        opacity: .3;
      }

      .cls-10, .cls-13 {
        fill: #94ad3d;
      }

      .cls-2, .cls-5, .cls-11, .cls-6 {
        opacity: .4;
      }

      .cls-2, .cls-6 {
        mix-blend-mode: screen;
      }

      .cls-14 {
        isolation: isolate;
      }

      .cls-11, .cls-15 {
        fill: #f4d692;
      }

      .cls-16 {
        fill: #b7a16e;
      }

      .cls-12 {
        opacity: .5;
      }
    </style>
  </defs>
  <g class="cls-14">
    <g id="Layer_2" data-name="Layer 2">
      <g id="_1" data-name="1">
        <g>
          <path class="cls-4" d="M51.41,52.45c-.16,2.14-.5,4.2-1,6.16-.04.18-.09.36-.14.54-.38,1.39-.83,2.72-1.37,4-2.66,6.37-7.2,11.35-12.93,14.09-2.98,1.43-6.41,2.11-9.88,2.11-.19,0-.37,0-.55,0-4.82-.1-9.67-1.52-13.4-4.15-5.48-3.85-9.01-9.7-10.82-16.05-.05-.18-.1-.36-.14-.54-.12-.47-.23-.94-.32-1.41-.32-1.53-.55-3.12-.67-4.75-.34-4.58-.23-8.43.63-11.95.15-.62.32-1.22.52-1.82.06-.17.12-.34.17-.51,1.55-4.3,4.42-8.19,9.25-12.46l9.97-1.03.07-1.04,5.01.52,5.01-.52.06,1.04,9.97,1.03c4.83,4.27,7.7,8.16,9.24,12.46.06.17.12.34.18.51.14.41.26.83.38,1.25,1,3.67,1.14,7.69.78,12.51Z"/>
          <path class="cls-6" d="M50.64,39.94c-11.55,2.06-40.47,6.44-49.83.56.15-.62.32-1.22.52-1.82.06-.17.12-.34.17-.51,1.55-4.3,4.42-8.19,9.25-12.46l9.97-1.03.07-1.04,5.01.52,5.01-.52.06,1.04,9.97,1.03c4.83,4.27,7.7,8.16,9.24,12.46.06.17.12.34.18.51.14.41.26.83.38,1.25Z"/>
          <path class="cls-5" d="M41.26,57.62l-29.17,2.92s-7.53,2.64-11.24-3.34c.09.48.2.95.32,1.41.04.18.09.36.14.54,1.82,6.36,5.35,12.2,10.82,16.05,3.73,2.62,8.57,4.05,13.4,4.15.19,0,.37,0,.55,0,3.47,0,6.91-.69,9.88-2.11,5.72-2.74,10.26-7.72,12.93-14.09-6.22-.18-7.64-5.53-7.64-5.53Z"/>
          <g class="cls-12">
            <path class="cls-4" d="M1.18,58.61c.04.18.09.36.14.54,2.18-.28,6.39-1.12,8.31-3.49l-.43-.34c-1.8,2.23-5.94,3.03-8.03,3.29Z"/>
            <path class="cls-4" d="M4.82,39.58c-.91-.52-2.24-1.03-3.3-1.4h0c-.06.17-.12.34-.17.51,1.05.37,2.34.87,3.21,1.36l.27-.47Z"/>
            <path class="cls-4" d="M42.39,55.32l-.43.34c1.92,2.37,6.13,3.21,8.31,3.49.05-.18.1-.36.14-.54-2.09-.27-6.23-1.06-8.03-3.29Z"/>
            <path class="cls-4" d="M50.26,38.69c-.06-.17-.12-.34-.17-.51h0c-1.07.37-2.4.89-3.3,1.4l.27.47c.86-.5,2.16-1,3.21-1.36Z"/>
            <path class="cls-4" d="M25.56,73.8c-.28,1.81-.17,3.99-.02,5.55.19,0,.37,0,.55,0-.15-1.54-.27-3.71,0-5.48l-.54-.08Z"/>
          </g>
          <path class="cls-1" d="M42.91,24.04c-.12,4.32-1.38,8.33-4.63,10.18-3.77,2.14-8.62,1.57-12-.09-3.38,1.66-8.23,2.23-12,.09-4.1-2.33-5.04-8.1-4.51-13.6.27-2.81.92-5.55,1.72-7.73l7.15-9.41,1.12-1.47s2.3-.46,6.53-.44c4.23-.02,6.53.44,6.53.44l2.21,2.91,6.06,7.97c1.13,3.06,1.95,7.23,1.84,11.15Z"/>
          <path class="cls-2" d="M33.61,3.47c-3.83,2.37-9.12,3.1-14.04-.18l.18-1.28s2.3-.46,6.53-.44c4.23-.02,6.53.44,6.53.44l.79,1.46Z"/>
          <path class="cls-10" d="M42.91,24.04c-.12,4.32-1.38,8.33-4.63,10.18-3.77,2.14-8.62,1.57-12-.09-3.38,1.66-8.23,2.23-12,.09-4.1-2.33-5.04-8.1-4.51-13.6.94,5.33,3.86,6.19,6.88,5.09,4.01-1.46,8.75-3.01,13.67-.46,4.92,2.55,10.03,5.93,12.58-1.18,0-.01,0-.02.01-.03Z"/>
          <path class="cls-7" d="M20.72,16.05c0,4.53-2.18,8.2-4.86,8.2s-4.86-3.67-4.86-8.2c0-.7.05-1.38.15-2.03.54-3.55,2.44-6.17,4.71-6.17,1.16,0,2.22.68,3.05,1.82,1.11,1.5,1.82,3.8,1.82,6.38Z"/>
          <path class="cls-3" d="M20.43,17.31c0,1.67-.92,3.03-2.07,3.03s-2.07-1.36-2.07-3.03.93-3.03,2.07-3.03,2.07,1.36,2.07,3.03Z"/>
          <path class="cls-8" d="M20.14,17.28c0,.8-.44,1.44-.98,1.44s-.98-.65-.98-1.44.44-1.44.98-1.44.98.65.98,1.44Z"/>
          <path class="cls-7" d="M41.56,16.05c0,4.53-2.18,8.2-4.86,8.2s-4.86-3.67-4.86-8.2c0-2.49.66-4.73,1.7-6.23.85-1.23,1.95-1.97,3.16-1.97,2.27,0,4.18,2.63,4.71,6.19.09.65.15,1.32.15,2.01Z"/>
          <path class="cls-9" d="M18.91,9.67c-1.92,1.79-4.89,4.06-7.76,4.35.54-3.55,2.44-6.17,4.71-6.17,1.16,0,2.22.68,3.05,1.82Z"/>
          <path class="cls-9" d="M41.42,14.04c-3.97-1.17-6.52-3-7.88-4.22.85-1.23,1.95-1.97,3.16-1.97,2.27,0,4.18,2.63,4.71,6.19Z"/>
          <path class="cls-3" d="M32.13,17.31c0,1.67.92,3.03,2.07,3.03s2.07-1.36,2.07-3.03-.92-3.03-2.07-3.03-2.07,1.36-2.07,3.03Z"/>
          <path class="cls-8" d="M32.42,17.28c0,.8.44,1.44.98,1.44s.98-.65.98-1.44-.44-1.44-.98-1.44-.98.65-.98,1.44Z"/>
          <path class="cls-13" d="M2.86,39.2s-1.94,9.6.73,12.52c2.67,2.92,5.1-6.32,5.1-6.32l-2.07-6.93-3.77.73Z"/>
          <path class="cls-13" d="M48.74,39.2s1.94,9.6-.73,12.52c-2.67,2.92-5.1-6.32-5.1-6.32l2.07-6.93,3.77.73Z"/>
          <path class="cls-15" d="M44.28,53.86c-.03.2-.06.4-.09.59-.79,4.72-2.38,8.09-2.38,8.09,0,0-6.32,1.46-8.14,5.47-.25.55-.52,1.14-.81,1.74-.08.17-.16.34-.25.5-.83,1.6-1.89,3.15-3.48,3.9-.68.32-1.5.53-2.37.61-.18.02-.37.03-.56.03-1.71.06-3.51-.35-4.67-1.25-1.66-1.29-2.62-3.37-3.47-5.25-.04-.09-.09-.19-.13-.28-.03-.07-.07-.15-.11-.22-1.94-3.85-8.03-5.25-8.03-5.25,0,0-1.62-3.42-2.4-8.2-.03-.22-.07-.44-.1-.67-.23-1.59-.36-3.32-.3-5.11.06-1.89.39-3.76.93-5.56.15-.51.32-1.01.51-1.51.06-.18.13-.35.2-.53,1.89-4.74,5.23-9.1,9.38-12.11.39-.29.79-.56,1.19-.81.16-.11.33-.21.5-.31.33-.2.66-.39,1-.58,1.76-.95,3.49-1.55,5.29-1.57.19,0,.38,0,.58.01.92.05,1.85.26,2.81.65.63.26,1.24.56,1.83.9,1.13.63,2.19,1.41,3.19,2.26.15.12.3.25.44.38,1.1.97,2.11,2.02,3.05,3.08,2.22,2.51,4.07,5.44,5.25,8.59.07.18.13.36.2.55.74,2.1,1.18,4.3,1.25,6.54.06,1.86-.08,3.65-.33,5.29Z"/>
          <path class="cls-16" d="M24.53,56.83c-.04,3.07.12,5.84.38,8.26,2.48.34,6.6,3.55,7.95,4.66-.08.17-.16.34-.25.5-1.19-.97-5.26-4.18-7.63-4.59.51,4.44,1.34,7.62,1.78,9.1-.18.02-.37.03-.56.03-.46-1.57-1.28-4.77-1.78-9.18-1.99.01-4.94,1.76-6.36,2.68-.04-.09-.09-.19-.13-.28-.03-.07-.07-.15-.11-.22,1.47-.95,4.43-2.67,6.54-2.73-.26-2.42-.41-5.18-.37-8.22-.36,0-.72,0-1.09,0-5.91,0-11.64-.66-15.51-2.5-.03-.22-.07-.44-.1-.67,3.99,2.03,10.3,2.66,16.71,2.57.05-2.12.19-4.37.46-6.74.36-3.11.85-5.87,1.28-8.31.17-.93.32-1.83.47-2.69-2.28,0-4.92.7-7.7,1.44-3.41.91-6.91,1.85-10.08,1.56.06-.18.13-.35.2-.53,3.03.23,6.43-.68,9.74-1.56,2.85-.76,5.56-1.48,7.93-1.46.31-1.93.54-3.72.59-5.47-2.32-.45-6.03-3.16-7.69-4.43.16-.11.33-.21.5-.31,1.68,1.28,5.09,3.74,7.2,4.19.02-2.09-.23-4.15-.9-6.34.19,0,.38,0,.58.01.65,2.2.88,4.29.86,6.4,1.94.08,5.26-1.62,6.98-2.59.15.12.3.25.44.38-1.68.96-5.13,2.76-7.29,2.76-.04,0-.09,0-.13,0-.05,1.76-.27,3.55-.57,5.42,2.21.12,4.44.81,6.81,1.54,2.81.87,5.93,1.84,9.49,1.95.07.18.13.36.2.55-3.73-.08-6.95-1.08-9.86-1.98-2.35-.73-4.56-1.41-6.73-1.52-.15.9-.31,1.83-.48,2.78-.43,2.43-.92,5.18-1.28,8.27-.27,2.34-.41,4.57-.46,6.67,7.88-.16,15.83-1.37,19.73-2.38-.03.2-.06.4-.09.59-4.06,1.03-11.88,2.22-19.66,2.38Z"/>
          <path class="cls-11" d="M44.28,53.86c-.03.2-.06.4-.09.59-.79,4.72-2.38,8.09-2.38,8.09,0,0-6.32,1.46-8.14,5.47-.25.55-.52,1.14-.81,1.74-.08.17-.16.34-.25.5-.83,1.6-1.89,3.15-3.48,3.9-.68.32-1.5.53-2.37.61-.18.02-.37.03-.56.03-1.71.06-3.51-.35-4.67-1.25-1.66-1.29-2.62-3.37-3.47-5.25-.04-.09-.09-.19-.13-.28-.03-.07-.07-.15-.11-.22-1.94-3.85-8.03-5.25-8.03-5.25,0,0-1.62-3.42-2.4-8.2-.03-.22-.07-.44-.1-.67-.23-1.59-.36-3.32-.3-5.11.06-1.89.39-3.76.93-5.56.15-.51.32-1.01.51-1.51.06-.18.13-.35.2-.53,1.89-4.74,5.23-9.1,9.38-12.11-10.5,16.38-7.64,34.19,7.75,33.13,15.72-1.08,11.74-28.31,5.45-34.83,1.13.63,2.19,1.41,3.19,2.26.15.12.3.25.44.38,1.1.97,2.11,2.02,3.05,3.08,2.22,2.51,4.07,5.44,5.25,8.59.07.18.13.36.2.55.74,2.1,1.18,4.3,1.25,6.54.06,1.86-.08,3.65-.33,5.29Z"/>
          <path class="cls-1" d="M2.86,39.2c-.3,1.92,3.28,4.38,3.28,4.38,0,0,1.22,3.65,1.58,3.77.36.12,1.58-.24,1.82-.61.24-.36-.24-3.89-.24-3.89,0,0,2.31,1.09,3.04.97.73-.12,1.46-1.46,1.58-1.94.12-.49-1.58-2.8-1.58-2.8,0,0,3.65.49,4.01,0,.36-.49,1.22-1.7.97-2.19-.24-.49-3.28-2.19-3.28-2.19,0,0,2.31-2.8,2.31-3.28s-1.34-1.7-2.07-1.46-2.43,1.58-2.43,1.58c0,0-2.55-.73-3.4-.49s-5.1,4.98-5.59,8.14Z"/>
          <path class="cls-1" d="M48.74,39.2c.3,1.92-3.28,4.38-3.28,4.38,0,0-1.22,3.65-1.58,3.77-.36.12-1.58-.24-1.82-.61-.24-.36.24-3.89.24-3.89,0,0-2.31,1.09-3.04.97-.73-.12-1.46-1.46-1.58-1.94-.12-.49,1.58-2.8,1.58-2.8,0,0-3.65.49-4.01,0-.36-.49-1.22-1.7-.97-2.19.24-.49,3.28-2.19,3.28-2.19,0,0-2.31-2.8-2.31-3.28s1.34-1.7,2.07-1.46c.73.24,2.43,1.58,2.43,1.58,0,0,2.55-.73,3.4-.49.85.24,5.1,4.98,5.59,8.14Z"/>
          <path class="cls-1" d="M24.79,91.52c-.03.09-.09.15-.18.19-1.21.48-2.52.84-3.86,1.08-.19.04-.39.07-.58.1-.04,0-.07.01-.11.01-.19.03-.39.06-.58.08-1.56.2-3.13.27-4.64.23-.2,0-.41-.01-.61-.02-.12,0-.24-.01-.37-.02-.2-.01-.39-.02-.58-.04-1.17-.09-2.28-.24-3.27-.43-.66-.13-1.27-.27-1.81-.43-.2-.05-.38-.11-.56-.17-1.31-.44-2.13-.97-2.23-1.47-.36-1.94,3.16-15.43,5.22-19.08-2.07-1.95-1.94-6.2-.85-9,1.01.11,1.94.34,2.8.67,4.86,1.86,7.5,6.79,8.74,9.78,1.46,3.52-.12,13.25-.12,13.25,0,0,2.14,2.31,3.12,3.94.35.58.55,1.07.46,1.34Z"/>
          <g class="cls-12">
            <path class="cls-1" d="M17.6,75.19c-.95,0-1.79-.38-2.03-.98-.1-.25-.22-.89.77-1.45.13-.08.3-.03.37.1.07.13.03.3-.1.37-.26.15-.67.44-.53.78.17.42,1.12.84,2.28.54.49-.12.75-.37.75-.74,0-.68-.85-1.71-1.97-2.01-.15-.04-.23-.19-.19-.33.04-.15.19-.23.33-.19,1.27.34,2.38,1.53,2.37,2.54,0,.62-.43,1.09-1.16,1.27-.3.07-.59.11-.88.11Z"/>
          </g>
          <g class="cls-12">
            <path class="cls-1" d="M13.87,93.17c-.2-.01-.39-.02-.58-.04-.38-1.41-.99-3.1-1.68-3.49-.65-.36-2.21,1.14-3.4,2.62-.2-.05-.38-.11-.56-.17,1-1.28,3.02-3.58,4.22-2.92.94.51,1.63,2.57,2.01,4Z"/>
            <path class="cls-1" d="M20.06,92.9c-.19.03-.39.06-.58.08-.57-1.02-1.45-2.22-2.32-2.22h-.07c-.83.06-1.67,1.3-2.25,2.44-.2,0-.41-.01-.61-.02.61-1.24,1.63-2.88,2.82-2.96,1.31-.09,2.42,1.59,3,2.68Z"/>
            <path class="cls-1" d="M24.79,91.52c-.97-1.17-2.03-2.18-2.51-1.99-.61.24-1.18,1.84-1.53,3.26-.19.04-.39.07-.58.1.3-1.31.94-3.47,1.91-3.86.61-.25,1.46.35,2.25,1.15.35.58.55,1.07.46,1.34Z"/>
          </g>
          <path class="cls-1" d="M46.18,90.62c-.09.5-.92,1.03-2.23,1.47-.18.06-.36.12-.56.17-.39.12-.82.22-1.27.32-1.12.24-2.42.44-3.81.54-.19.02-.39.03-.58.04-.12,0-.24.01-.37.02-.2,0-.4.01-.61.02-1.51.04-3.08-.02-4.64-.23-.19-.02-.39-.05-.58-.08-.04,0-.07-.01-.11-.01-.2-.03-.39-.06-.58-.1-1.34-.24-2.64-.59-3.86-1.08-.09-.04-.15-.1-.18-.19-.09-.27.11-.76.46-1.34.98-1.63,3.12-3.94,3.12-3.94,0,0-1.58-9.72-.12-13.25,1.17-2.84,3.6-7.4,7.98-9.45,1.07-.5,2.25-.86,3.56-1,1.09,2.8,1.22,7.05-.85,9,2.07,3.65,5.59,17.14,5.22,19.08Z"/>
          <g class="cls-12">
            <path class="cls-1" d="M34,75.19c.95,0,1.79-.38,2.03-.98.1-.25.22-.89-.77-1.45-.13-.08-.3-.03-.37.1-.07.13-.03.3.1.37.26.15.67.44.53.78-.17.42-1.12.84-2.28.54-.49-.12-.75-.37-.75-.74,0-.68.85-1.71,1.97-2.01.15-.04.23-.19.19-.33-.04-.15-.19-.23-.33-.19-1.27.34-2.38,1.53-2.37,2.54,0,.62.43,1.09,1.16,1.27.3.07.59.11.88.11Z"/>
          </g>
          <g class="cls-12">
            <path class="cls-1" d="M37.73,93.17c.2-.01.39-.02.58-.04.38-1.41.99-3.1,1.68-3.49.65-.36,2.21,1.14,3.4,2.62.2-.05.38-.11.56-.17-1-1.28-3.02-3.58-4.22-2.92-.94.51-1.63,2.57-2.01,4Z"/>
            <path class="cls-1" d="M31.53,92.9c.19.03.39.06.58.08.57-1.02,1.45-2.22,2.32-2.22h.07c.83.06,1.67,1.3,2.25,2.44.2,0,.41-.01.61-.02-.61-1.24-1.63-2.88-2.82-2.96-1.31-.09-2.42,1.59-3,2.68Z"/>
            <path class="cls-1" d="M26.8,91.52c.97-1.17,2.03-2.18,2.51-1.99.61.24,1.18,1.84,1.53,3.26.19.04.39.07.58.1-.3-1.31-.94-3.47-1.91-3.86-.61-.25-1.46.35-2.25,1.15-.35.58-.55,1.07-.46,1.34Z"/>
          </g>
          <path class="cls-13" d="M10.01,92.69c-.66-.13-1.27-.27-1.81-.43-.2-.05-.38-.11-.56-.17-1.31-.44-2.13-.97-2.23-1.47-.36-1.94,3.16-15.43,5.22-19.08-2.07-1.95-1.94-6.2-.85-9,1.01.11,1.94.34,2.8.67-2.52,1.18-.93,8.54,1.33,10.45-3.36,3.36-5.05,13.24-3.91,19.03Z"/>
          <path class="cls-13" d="M46.18,90.62c-.09.5-.92,1.03-2.23,1.47-.18.06-.36.12-.56.17-.39.12-.82.22-1.27.32,1.28-4.77-4.51-19.29-4.51-19.29,0,0,3.35-8.56.63-9.76,1.07-.5,2.25-.86,3.56-1,1.09,2.8,1.22,7.05-.85,9,2.07,3.65,5.59,17.14,5.22,19.08Z"/>
          <path class="cls-1" d="M22.25,4.02c-.16.59-.37.97-.37.97-2.19,4.13-8.81,7.78-10.76,7.78s-1.33-3.04-.67-4.19c.58-1,3.06-1.27,5.36-4.17.37-.46.73-.99,1.08-1.6,2.55-4.44,5.1-2.68,5.47-1.04.19.83.05,1.65-.12,2.25Z"/>
          <path class="cls-1" d="M41.44,12.77c-1.83,0-7.82-3.23-10.33-7.06-.16-.24-.3-.47-.43-.71,0,0-.85-1.58-.49-3.22.36-1.64,2.92-3.4,5.47,1.04.54.93,1.1,1.68,1.67,2.28,2.13,2.27,4.25,2.58,4.77,3.49.67,1.16,1.28,4.19-.67,4.19Z"/>
          <path class="cls-2" d="M22.36,1.77c.19.83.05,1.65-.12,2.25-1.77,1.22-4.09,1.99-6.43.38.37-.46.73-.99,1.08-1.6,2.55-4.44,5.1-2.68,5.47-1.04Z"/>
          <path class="cls-2" d="M37.34,5.09c-2.1,1.07-4.73,1.94-6.22.62-.16-.24-.3-.47-.43-.71,0,0-.85-1.58-.49-3.22.36-1.64,2.92-3.4,5.47,1.04.54.93,1.1,1.68,1.67,2.28Z"/>
        </g>
      </g>
    </g>
  </g>
</svg>