<?xml version="1.0" encoding="UTF-8"?>
<svg id="Layer_2" xmlns="http://www.w3.org/2000/svg" viewBox="0 0 102.07 149.22">
  <defs>
    <style>
      .cls-1, .cls-2 {
        fill: #fff;
      }

      .cls-2 {
        stroke: #dbd6c6;
        stroke-miterlimit: 10;
        stroke-width: 2px;
      }

      .cls-3 {
        fill: #ffeea4;
      }

      .cls-4 {
        fill: #3a3735;
      }

      .cls-5 {
        fill: #998abc;
      }

      .cls-6 {
        fill: #f9c44e;
      }

      .cls-7 {
        fill: #ffd7d7;
      }

      .cls-8 {
        fill: #f9bbbb;
      }

      .cls-9 {
        fill: #dbd6c6;
      }
    </style>
  </defs>
  <g id="_Ñëîé_1" data-name="Ñëîé_1">
    <g>
      <ellipse class="cls-2" cx="51.04" cy="105.79" rx="50.04" ry="42.43"/>
      <g>
        <path class="cls-9" d="M26.14,72.2c-.11.09-7.65,4.23-9.36,5.15-.54.4-7.21-4.82-11.09-11.4-1.97-3.33-6.12-23.54-4.57-24.65.7-.49,24.86,9.02,25.02,30.9Z"/>
        <path class="cls-1" d="M26.06,72.25c-1.91,1.04-6.77,3.74-9.28,5.1-2.42-1.81-5.47-4.65-7.93-8.8-1.65-2.8-5.15-19.89-3.85-20.8.77-.54,20.02,7.65,21.06,24.5Z"/>
        <path class="cls-7" d="M23.9,73.44c-.19.09-4.82,2.66-4.99,2.76-.9.48-5.46-5.73-7.08-9.1-1.12-2.34-3.68-11.54-2.17-12.42,1.51-.91,9.85,5.54,14.25,18.76Z"/>
      </g>
      <g>
        <path class="cls-9" d="M74.89,71.85c.11.09,7.65,4.23,9.36,5.15.54.4,7.21-4.82,11.09-11.4,1.97-3.33,6.12-23.54,4.57-24.65-.7-.49-24.86,9.02-25.02,30.9Z"/>
        <path class="cls-1" d="M74.97,71.9c1.91,1.04,6.77,3.74,9.28,5.1,2.42-1.81,5.47-4.65,7.93-8.8,1.65-2.8,5.15-19.89,3.85-20.8-.77-.54-20.02,7.65-21.06,24.5Z"/>
        <path class="cls-7" d="M77.13,73.09c.19.09,4.82,2.66,4.99,2.76.9.48,5.46-5.73,7.08-9.1,1.12-2.34,3.68-11.54,2.17-12.42-1.51-.91-9.85,5.54-14.25,18.76Z"/>
      </g>
      <path class="cls-4" d="M38.09,106.13c-.41.02-.73.36-.71.77.08,1.71-.54,3.35-1.74,4.6-1.15,1.21-2.74,1.91-4.36,1.92-1.68,0-3.29-.71-4.46-1.96-1.2-1.28-1.82-3-1.69-4.73.03-.41-.28-.76-.69-.79-.37-.04-.76.28-.79.69-.01.16,0,.31,0,.47l-3.93,1.17c-.39.12-.62.53-.5.92.1.32.39.53.71.53.07,0,.14-.01.21-.03l3.64-1.09c.14.75.4,1.47.75,2.15l-3.15,2c-.34.22-.45.68-.23,1.02.14.22.38.34.63.34.14,0,.27-.04.4-.12l3.16-2.01c.13.16.26.32.4.48.51.54,1.08.99,1.7,1.36l-2.06,3c-.23.34-.15.8.19,1.03.13.09.28.13.42.13.23,0,.47-.11.61-.32l2.2-3.2c.78.28,1.61.43,2.44.43,2.06-.01,4.03-.88,5.46-2.38,1.47-1.55,2.24-3.57,2.14-5.69-.02-.41-.38-.74-.77-.71Z"/>
      <path class="cls-4" d="M81.31,108.32l-3.93-1.17c0-.16,0-.31,0-.47-.03-.41-.42-.72-.79-.69-.41.03-.72.38-.69.79.12,1.73-.5,3.45-1.69,4.73-1.17,1.24-2.78,1.96-4.42,1.96-1.65,0-3.23-.71-4.39-1.92-1.2-1.25-1.81-2.89-1.74-4.61.02-.41-.3-.75-.71-.77-.41-.04-.76.3-.77.71-.09,2.12.67,4.14,2.15,5.69,1.43,1.5,3.41,2.37,5.42,2.38.87,0,1.7-.15,2.48-.43l2.2,3.2c.14.21.38.32.61.32.14,0,.29-.04.42-.13.34-.23.42-.69.19-1.03l-2.06-3c.62-.37,1.2-.82,1.7-1.36.14-.15.27-.32.4-.48l3.16,2.01c.12.08.26.12.4.12.24,0,.48-.12.63-.34.22-.35.12-.8-.23-1.02l-3.15-2c.36-.68.61-1.4.75-2.15l3.64,1.09c.07.02.14.03.21.03.32,0,.61-.21.71-.53.12-.39-.11-.81-.5-.92Z"/>
      <g>
        <path class="cls-7" d="M76.29,71.15c11.05,2.88,22.33,15.44,10.4,10.4,8.97,4.75,15.22,18.68,4.65,9.99,4.06,11.49,2.65,13.76-4.65,4.24,1.83,8.93-2.69,7.5-6.98.68.05,5.85-3.76.25-6.71-4.79,1.09-6.84,2.19-13.69,3.29-20.53Z"/>
        <path class="cls-8" d="M53.84,62.66c4.73-5.38,31.85-2.92,16.15,2.6,9.26-.35,23.36,9.53,9.58,6.43,6.77,6.08,6.62,9.46-2.05,5.75,6.16,6.79,8.35,10.86,0,6.98,7.26,8.66,7.82,12.28-2.19,7.12,2.13,12.01-4.5,3.68-6.71-2.05.76,15.45-21.26-19.47-14.78-26.83Z"/>
        <path class="cls-7" d="M27.95,70.46c-11.05,2.88-22.33,15.44-10.4,10.4-8.97,4.75-15.22,18.68-4.65,9.99-4.06,11.49-2.65,13.76,4.65,4.24-1.83,8.93,2.69,7.5,6.98.68-.05,5.85,3.76.25,6.71-4.79-1.09-6.84-2.19-13.69-3.29-20.53Z"/>
        <path class="cls-8" d="M50.4,61.98c-4.73-5.38-31.85-2.92-16.15,2.6-9.26-.35-23.36,9.53-9.58,6.43-6.77,6.08-6.62,9.46,2.05,5.75-6.16,6.79-8.35,10.86,0,6.98-7.26,8.66-7.82,12.28,2.19,7.12-2.13,12.01,4.5,3.68,6.71-2.05-.76,15.45,21.26-19.47,14.78-26.83Z"/>
        <path class="cls-7" d="M52.96,61.94c.43-.7,1.1-1.65,2.08-2.58,2.39-2.28,6-3.92,6.78-3.08.93,1-2.33,5.45-3.11,6.49,8.1,1.48,14.93,12.03,3.56,5.75,7.61,6.96,9.98,10.84.27,7.12,9.68,4.87-.43,18.43-3.01,4.93-.66,10.43-8.96,12.44-9.31.55-3.15,11.63-11.57,13.67-7.94,1.09-9.33,4.91-4.43-2.83.04-6.66-8.07,2.71-4.77-.95,1.88-6.2-12.47,2.45-9.8-.68,1.37-6.84-.23-.91-.95-3.98.23-4.77,1.19-.8,4.07.85,7.16,4.23Z"/>
      </g>
      <g>
        <path class="cls-3" d="M52.2,65.01c6.47.05,8.82.55,10.17-1.15,2.65-3.31-7.67-56.32-8.64-60.51-1.05-4.53-1.9-4.36-2.67-.11-12.43,68.97-16.42,61.64,1.13,61.77Z"/>
        <path class="cls-6" d="M47.04,24.86c-5.64-3.8,10.1-7.57,8.75-11.7,1.43.3,1.99,1.2,1.32,2.63-1.57,3.37-8.89,3.73-10.07,9.07Z"/>
        <path class="cls-6" d="M57.86,25.07c2.54,10.41-18.28,7.96-14.12,16.96,1.13-5.76,6.24-4.3,12.22-8.71,3.52-2.6,6.36-6.84,1.91-8.25Z"/>
        <path class="cls-6" d="M60.4,41.35c1.93.26,2.82,1.56,1.8,3.78-3.36,7.34-20.68,5.94-21.97,15.92-2.11-2.47.33-5.87,2.97-7.64,5.16-3.47,18.46-5.24,17.2-12.06Z"/>
      </g>
      <path class="cls-7" d="M23.62,125.96c0,1.56-2.81,2.83-6.27,2.83s-6.27-1.27-6.27-2.83,2.81-2.83,6.27-2.83,6.27,1.27,6.27,2.83Z"/>
      <path class="cls-7" d="M92.11,125.96c0,1.56-2.81,2.83-6.27,2.83s-6.27-1.27-6.27-2.83,2.81-2.83,6.27-2.83,6.27,1.27,6.27,2.83Z"/>
      <path class="cls-5" d="M80.83,44.82c-1.76,0-3.19,1.43-3.19,3.19,0,1.14.6,2.14,1.51,2.7-.15.18-.31.38-.49.58-1.74,1.97-3.57,4.05-5.29,3.78-1.99-.31-3.3-3.7-4.08-5.74-.35-.9-.56-1.66-.75-2.25,1.21-.25,2.11-1.32,2.11-2.61,0-1.47-1.19-2.66-2.66-2.66s-2.66,1.19-2.66,2.66c0,.85.4,1.59,1.02,2.08-.4.46-.89,1.07-1.59,1.79-1.89,1.96-2.95,3.05-4.08,3.17-2.79.31-5.85-5.26-7.65-8.41,1.09-.51,1.84-1.6,1.84-2.88,0-1.76-1.43-3.19-3.19-3.19s-3.19,1.43-3.19,3.19c0,1.22.69,2.27,1.7,2.81-1.79,3.13-4.88,8.8-7.69,8.49-1.13-.13-2.19-1.22-4.08-3.17-.7-.72-1.19-1.33-1.59-1.79.62-.49,1.02-1.23,1.02-2.08,0-1.47-1.19-2.66-2.66-2.66s-2.66,1.19-2.66,2.66c0,1.28.91,2.35,2.11,2.61-.19.59-.4,1.35-.75,2.25-.78,2.04-2.09,5.43-4.08,5.74-1.72.27-3.55-1.81-5.29-3.78-.18-.2-.34-.4-.49-.58.9-.56,1.51-1.56,1.51-2.7,0-1.76-1.43-3.19-3.19-3.19s-3.19,1.43-3.19,3.19,1.43,3.19,3.19,3.19c.12,0,.23-.02.34-.03.6,2.72,2.08,8.1,5.13,18.05,2.78-1.05,5.98-2.06,9.58-2.87,5.35-1.21,10.18-1.65,14.21-1.75,4.02.09,8.86.54,14.21,1.75,3.59.81,6.8,1.83,9.58,2.87,3.05-9.95,4.53-15.33,5.13-18.05.11.01.22.03.34.03,1.76,0,3.19-1.43,3.19-3.19s-1.43-3.19-3.19-3.19ZM36.41,63.18c-3.65-.96-5.95-2.87-5.85-4.58.05-.86.73-2.11,1.88-2.29.87-.14,1.82.37,2.41,1.29.03-1.09.57-2.02,1.39-2.35,1.07-.44,2.3.27,2.79.98.97,1.41,0,4.24-2.62,6.95ZM52.09,62.55c-4.49-2.63-6.84-6.02-6.07-8.26.39-1.12,1.76-2.53,3.34-2.34,1.21.14,2.28,1.17,2.72,2.61.44-1.43,1.51-2.47,2.72-2.61,1.59-.18,2.96,1.22,3.34,2.34.77,2.24-1.58,5.63-6.07,8.26ZM67.78,63.64c-2.62-2.71-3.59-5.54-2.62-6.95.49-.71,1.72-1.42,2.79-.98.82.33,1.36,1.26,1.39,2.35.59-.91,1.53-1.43,2.41-1.29,1.14.18,1.83,1.43,1.88,2.29.1,1.71-2.2,3.62-5.85,4.58Z"/>
    </g>
  </g>
</svg>