<?xml version="1.0" encoding="UTF-8"?>
<svg id="Layer_2" xmlns="http://www.w3.org/2000/svg" viewBox="0 0 102.07 148.65">
  <defs>
    <style>
      .cls-1 {
        fill: #ea6e6e;
      }

      .cls-2, .cls-3 {
        fill: #fff;
      }

      .cls-4 {
        fill: #fce170;
      }

      .cls-3 {
        stroke: #dbd6c6;
        stroke-miterlimit: 10;
        stroke-width: 2px;
      }

      .cls-5 {
        fill: #ffeea4;
      }

      .cls-6 {
        fill: #3a3735;
      }

      .cls-7 {
        fill: #f9c44e;
      }

      .cls-8 {
        fill: #ffd7d7;
      }

      .cls-9 {
        fill: #d2b0ff;
      }

      .cls-10 {
        fill: #f9bbbb;
      }

      .cls-11 {
        fill: #d0eae7;
      }

      .cls-12 {
        fill: #dbd6c6;
      }
    </style>
  </defs>
  <g id="_Ñëîé_1" data-name="Ñëîé_1">
    <g>
      <ellipse class="cls-3" cx="51.04" cy="105.22" rx="50.04" ry="42.43"/>
      <path class="cls-6" d="M43.53,109.27c-.23-.34-.69-.43-1.03-.2l-3.63,2.45c-.21-.29-.44-.58-.69-.85-.34-.35-.7-.67-1.09-.95l2.28-3.47c.22-.34.13-.8-.21-1.03-.34-.23-.8-.13-1.03.21l-2.32,3.53c-.71-.33-1.48-.54-2.27-.63v-4.07c0-.41-.34-.74-.75-.74-.41,0-.73.33-.73.74v4.05c-.8.07-1.56.28-2.3.6l-2.27-3.46c-.23-.34-.69-.44-1.03-.21-.34.22-.44.68-.21,1.03l2.21,3.37c-.42.29-.81.62-1.17,1-.24.25-.46.53-.67.81l-3.5-2.37c-.34-.23-.8-.14-1.03.2-.23.34-.14.8.2,1.03l3.57,2.41c-.55,1.17-.82,2.47-.74,3.78.02.39.35.7.74.7.45-.03.76-.38.74-.79-.1-1.75.54-3.48,1.76-4.75,1.19-1.24,2.8-1.96,4.47-1.9,1.6.03,3.12.71,4.27,1.92,1.18,1.24,1.8,2.87,1.74,4.57-.01.41.31.75.72.77.48.04.75-.31.77-.72.04-1.23-.21-2.42-.71-3.51l3.71-2.51c.34-.23.43-.69.2-1.03Z"/>
      <path class="cls-6" d="M83.71,109.25c-.23-.34-.69-.43-1.03-.2l-3.5,2.37c-.21-.28-.42-.56-.67-.81-.36-.37-.75-.71-1.17-.99l2.21-3.37c.22-.34.13-.8-.21-1.03-.34-.23-.8-.13-1.03.21l-2.27,3.46c-.73-.32-1.5-.53-2.29-.61v-4.05c0-.41-.32-.74-.73-.74-.44-.06-.75.33-.75.74v4.07c-.79.09-1.55.3-2.27.63l-2.32-3.53c-.23-.34-.69-.44-1.03-.21-.34.22-.44.68-.21,1.03l2.28,3.47c-.38.28-.75.59-1.08.95-.25.27-.48.55-.69.85l-3.63-2.45c-.34-.23-.8-.14-1.03.2-.23.34-.14.8.2,1.03l3.71,2.51c-.5,1.09-.75,2.28-.71,3.51.01.4.34.72.74.72.43-.01.75-.36.74-.77-.06-1.7.56-3.32,1.74-4.57,1.15-1.21,2.66-1.89,4.27-1.92,1.68-.02,3.28.66,4.47,1.9,1.22,1.27,1.87,3.01,1.76,4.75-.02.41.29.76.7.78.43,0,.76-.3.78-.7.08-1.31-.19-2.61-.74-3.78l3.57-2.41c.34-.23.43-.69.2-1.03Z"/>
      <g>
        <path class="cls-12" d="M27.78,72.66c-.11.09-7.65,4.23-9.36,5.15-.54.4-7.21-4.82-11.09-11.4-1.97-3.33-6.12-23.54-4.57-24.65.7-.49,24.86,9.02,25.02,30.9Z"/>
        <path class="cls-2" d="M27.7,72.71c-1.91,1.04-6.77,3.74-9.28,5.1-2.42-1.81-5.47-4.65-7.93-8.8-1.65-2.8-5.15-19.89-3.85-20.8.77-.54,20.02,7.65,21.06,24.5Z"/>
        <path class="cls-8" d="M25.54,73.9c-.19.09-4.82,2.66-4.99,2.76-.9.48-5.46-5.73-7.08-9.1-1.12-2.34-3.68-11.54-2.17-12.42,1.51-.91,9.85,5.54,14.25,18.76Z"/>
      </g>
      <g>
        <path class="cls-12" d="M74.53,73.32c.11.09,7.65,4.22,9.36,5.15.54.4,7.21-4.82,11.09-11.4,1.97-3.33,6.12-23.54,4.57-24.65-.7-.49-24.86,9.02-25.02,30.9Z"/>
        <path class="cls-2" d="M74.61,73.37c1.91,1.04,6.77,3.74,9.28,5.1,2.42-1.81,5.47-4.65,7.93-8.8,1.65-2.8,5.15-19.89,3.85-20.8-.77-.54-20.02,7.65-21.06,24.5Z"/>
        <path class="cls-8" d="M76.77,74.56c.19.09,4.82,2.66,4.99,2.76.91.48,5.46-5.73,7.08-9.1,1.12-2.34,3.68-11.54,2.17-12.42-1.51-.91-9.85,5.54-14.25,18.76Z"/>
      </g>
      <g>
        <path class="cls-9" d="M76.98,98.03c-7.03.7-11.34-3.61-15.44.34-1.27,1.19-.93,1.48-2.43,2.53-2.06,1.65-6.73,2.48-9.07.7-2.4-1.87-10.83-11.63-19.37-4.09-4.72,4.14-4.45,10.91-8.24,11.42-1.68.28-3.17-.35-6.02.69-8.85,3.02-5.62,8.88-6.75,9.27-1.08.33-4.73-4.25-4.77-9.56-.15-13.55,16.26-1.97,8.14-21.34-2.59-6.4-.75-20.6,18.28-23.34,6.11-.85,7.12,1.21,13.57-.55,2.21-.57,15.59-9.63,26.27-1.15.75.61,1.31,1.19,1.75,1.82.45.63.68,1.17.77,1.36,0,0,.9,1.99,2.91,5.47,1.84,3.19,5.05,2.44,8.17,5,3.95,3.24,5.98,10.37,3.4,15.24-2.13,4.02-7.21,5.79-11.17,6.19Z"/>
        <path class="cls-10" d="M44.88,64.1c-11.57,10.06-17.45,4.6-22.56,10.3-2.24,2.5-4.74,13.56-3.57,19.17,3.46,16.86-10.02,7.3-12.14,22.15-.94-1.72-1.7-3.98-1.72-6.39-.15-13.56,16.26-1.97,8.14-21.34-2.6-6.4-.76-20.6,18.28-23.34,6.12-.86,7.11,1.21,13.57-.55Z"/>
        <path class="cls-4" d="M83.37,75.36c-11.47,18.33-38.26-6.56-51.6,21.3-5.27,3.5-5.48,10.71-8.45,12.03-1.65.66-3.25-.05-5.76.58,13.65-10.03,3.85-16.26,8.33-26.22,6.03-13.38,30.71-7.54,44.09-20.93,1.69,1.11,2.58,2.05,3.13,2.92,1.02,1.62.72,2.04,1.68,3.71,1.52,2.65,3.97,4.11,5.79,5.2,1.11.66,2.09,1.11,2.8,1.41Z"/>
        <path class="cls-11" d="M89.37,84.62c0,.2,0,.4-.03.6-.61,5.89-17.66,10.49-31.19,7.1-5.64-1.41-10.03-4.05-14.8-1.91-1.46.66-2.82,1.69-8.32,4.79-.39.1-.79.23-1.19.38-.77.29-1.46.66-2.07,1.08-.4.26-.76.55-1.1.85.46-2.52,2.04-9.11,7.84-13.87,2.82-2.31,6.34-3.9,10.59-4.6,11.42-1.87,18,6.91,32.57-4.46.91.39,1.75.83,2.5,1.32,3.55,2.27,5.31,5.53,5.2,8.72Z"/>
        <path class="cls-9" d="M76.98,98.03c-7.08.85-9.73-3.25-13.95-.91-2.66,1.48-3.11,3.94-6.61,5.02-1.98.61-3.81.43-5.06.18-4.01-1.78-8.1-9.9-17.09-6.9,3.74-5.6,9.26-6.66,15.87-6.27,12.52.71,17.37,11.75,39.25-4.11,1.15,7.5-4.87,12.09-12.41,12.99Z"/>
        <path class="cls-10" d="M61.54,98.37c-.34.32-.67.71-1.01,1.15-1.32,2.02-5.52,3.83-9.27,2.78-2.2-.6-6.06-6.79-12.31-7.43,3.52-1.61,6.1-1.54,7.88-1.13,3.17.75,4.33,2.74,8.19,3.96,2.48.78,4.78.83,6.52.67Z"/>
      </g>
      <g>
        <path class="cls-5" d="M63.69,64.52c-1.37,1.72-3.74,1.21-10.27,1.17-7.6-.06-9.91.59-11.3-1.16-1.05-1.32-.64-4-.53-5.04.09-.89.26-1.53.53-2.55.76-2.9,1.31-3.27,1.75-5.14.6-2.57-.3-2.51.29-5.25.58-2.71,1.45-2.75,1.46-4.8,0-.76-.11-1.9.16-3.65.03-.17.09-.59.21-1.11.48-2.19,1.08-2.93,1.39-4.31.16-.71.28-1.76.02-3.15.05-.31.13-.77.25-1.33.52-2.39,1.08-3.07,1.48-4.59.57-2.17-.21-2.13.31-4.96.31-1.68.61-1.82,1.01-3.78.31-1.51.22-1.86.46-4.06.34-3.11.8-5.03,1.4-7.51C52.97.36,53.26,0,53.5,0c.15,0,.52.12,1.46,3.38.65,2.27,1.22,4.22,1.55,7.18.27,2.35.08,2.65.46,4.39.41,1.86.72,2,1.06,3.72.44,2.25-.01,2.46.36,4.8.38,2.39.88,2.31,1.2,4.6.32,2.24-.14,2.4.22,4.58.35,2.15.82,2.13,1.13,4.16.35,2.31-.22,2.51.07,4.8.31,2.45,1,2.42,1.37,4.91.38,2.57-.35,2.63.05,5.15.31,1.94.75,2.01,1.44,5.13.31,1.42.5,2.31.51,3.54.01,1.31.11,3.12-.71,4.16Z"/>
        <path class="cls-7" d="M56.77,11.87c-.81.21-1.93.41-3.27.39-1.13-.02-2.1-.2-2.83-.39-.06-.07-.54-.66-.37-1.46.16-.76.77-1.1.86-1.15.56.19,1.36.38,2.34.41,1.17.03,2.12-.2,2.74-.41.14.13.55.53.69,1.2.14.69-.08,1.24-.17,1.41Z"/>
        <path class="cls-7" d="M58.27,20.03c-1.16.32-2.78.63-4.72.61-1.79-.02-3.29-.31-4.4-.61-.45-.39-.65-1-.5-1.57.2-.76.91-1.03.98-1.05,1.01.25,2.33.47,3.87.49,1.74.02,3.21-.22,4.3-.49.1.05.66.37.85,1.05.23.85-.33,1.51-.38,1.57Z"/>
        <path class="cls-7" d="M59.81,29.4c-1.69.37-3.83.68-6.31.7-2.4.01-4.47-.26-6.13-.58.01-.04.01-.07.02-.11-.07-.07-.5-.47-.48-1.1.01-.57.38-1.08.94-1.32,1.45.34,3.37.66,5.65.63,2.4-.02,4.41-.41,5.89-.82.09.05.69.37.85,1.1.19.84-.39,1.46-.43,1.51Z"/>
        <path class="cls-7" d="M61.14,38.08c-1.87.52-4.48,1.05-7.61,1.06-3.21,0-5.87-.53-7.77-1.06-.06-.08-.51-.68-.33-1.48.16-.72.73-1.07.82-1.13,1.79.49,4.27.97,7.25.97,2.98,0,5.46-.48,7.24-.97.09.04.7.33.88,1.02.15.56-.04,1.17-.49,1.58Z"/>
        <path class="cls-7" d="M62.55,47.7c-2.23.64-5.32,1.27-9.02,1.3-3.99.03-7.29-.64-9.61-1.3-.48-.38-.69-1-.54-1.57.21-.8,1-1.04,1.04-1.05,2.37.54,5.47,1.02,9.11,1,3.42-.02,6.36-.48,8.64-1,.09.05.68.38.84,1.1.18.85-.41,1.47-.46,1.52Z"/>
        <path class="cls-7" d="M64.06,58c-2.82.64-6.39,1.19-10.53,1.23-4.64.05-8.6-.55-11.64-1.23-.51-.41-.71-1.08-.51-1.66.25-.71.97-.93,1.04-.95,2.89.66,6.67,1.25,11.11,1.2,4-.04,7.44-.58,10.14-1.2.07.03.74.37.88,1.15.15.84-.45,1.42-.49,1.46Z"/>
      </g>
      <path class="cls-8" d="M22.9,121.21c.17,0,.29.26.86,1.94.49,1.43.55,1.66.84,1.89.29.23.51.22,1.89.35,2.02.2,2.19.29,2.23.42.1.35-.84,1.01-2.08,1.87-.63.44-.88.57-1.03.93-.19.45-.02.8.24,1.88.35,1.41.53,2.12.3,2.28-.12.08-.34,0-1.91-1.1-1.16-.82-1.34-.98-1.72-1-.37-.01-.55.13-1.75.83-1.71,1-1.93,1.06-2.04.97-.11-.09-.12-.31.48-2.27.39-1.28.49-1.48.39-1.83-.1-.38-.31-.52-1.39-1.47-1.4-1.24-1.54-1.43-1.49-1.58.06-.17.37-.19,2.12-.22,1.55-.03,1.76-.03,2.05-.21.29-.19.37-.39,1-1.83.69-1.57.83-1.85,1.01-1.85Z"/>
      <path class="cls-8" d="M81.07,121.21c.17,0,.29.26.86,1.94.49,1.43.55,1.66.84,1.89.29.23.51.22,1.89.35,2.02.2,2.19.29,2.23.42.1.35-.84,1.01-2.08,1.87-.63.44-.88.57-1.03.93-.19.45-.02.8.24,1.88.35,1.41.53,2.12.3,2.28-.12.08-.34,0-1.91-1.1-1.16-.82-1.34-.98-1.72-1-.37-.01-.55.13-1.75.83-1.71,1-1.93,1.06-2.04.97-.11-.09-.12-.31.48-2.27.39-1.28.49-1.48.39-1.83-.1-.38-.31-.52-1.39-1.47-1.4-1.24-1.54-1.43-1.49-1.58.06-.17.37-.19,2.12-.22,1.55-.03,1.76-.03,2.05-.21.29-.19.37-.39,1-1.83.69-1.57.83-1.85,1.01-1.85Z"/>
      <path class="cls-1" d="M81.36,66.86c.18-3.08-3.33-4.76-3.48-4.82-2.28-1.07-4.55-.39-5.8.17-.18-1.21-.76-2.35-1.6-3.06-.39-.33-.8-.55-1.22-.7.57-.49,1.11-1.13,1.45-1.99.87-2.17.38-5.25-1.59-6.11-.79-.35-1.81-.34-2.67.03-.62.26-1.08.69-1.33,1.2-.43-1.73-1.64-4.94-4.73-6.04-1.07-.38-2.38-.51-3.63-.26,1.13-1.63,1-2.23.84-2.49-.13-.19-.41-.4-.73-.44-1.19-.17-2.24,1.87-2.29,1.97.06-.38.9-5.73-.72-6.36-.36-.14-.72,0-.79.03-1.15.5-1.4,3.04-.82,6.25-.08-.15-1.25-2.18-2.31-1.95,0,0-.34.07-.56.39-.4.56.07,1.72.82,2.95-1.54-.66-3.37-.6-4.77-.1-3.09,1.09-4.29,4.31-4.73,6.03-.26-.52-.72-.94-1.33-1.2-.86-.36-1.89-.37-2.67-.03-1.97.87-2.47,3.94-1.59,6.11.34.86.88,1.5,1.45,1.99-.42.15-.83.37-1.22.7-.85.71-1.43,1.84-1.6,3.06-1.25-.56-3.52-1.24-5.8-.17-.15.07-3.66,1.75-3.48,4.82.08,1.37.91,3.04,2.58,3.66.44.16.92.24,1.41.24.07,0,.14,0,.2-.01-.27.12-.54.22-.81.34-.62.28-.89,1.01-.62,1.63.21.45.65.72,1.12.72.17,0,.34-.04.51-.11,7.45-3.36,15.69-5.19,23.84-5.29,8.62-.11,17.31,1.7,25.18,5.22.62.28,1.35,0,1.63-.62.28-.62,0-1.35-.62-1.63-.25-.11-.51-.21-.77-.32.23-.04.46-.1.68-.18,1.67-.62,2.5-2.29,2.58-3.66ZM69.86,64.85c-1.11,1.35-3.06,1.03-3.44.95-.48-.1-1.38-.29-1.58-.84-.1-.28-.06-.67.1-.99.09-.18.29-.49.67-.61.47-.15,1.02.05,1.37.49.29.35.8.4,1.15.12.35-.29.4-.8.12-1.15-.78-.95-2.03-1.36-3.14-1.02-.71.22-1.3.74-1.65,1.45-.36.73-.43,1.58-.17,2.28.15.42.41.74.7.99-1.76-.3-3.52-.54-5.29-.69,1.49-1.24,2.75-2.57,3.76-3.94.66-.67,1.97-1.73,3.83-1.98.87-.12,2.18-.29,3.12.5,1.12.94,1.56,3.1.44,4.46ZM66.42,55.01c1.14.36,2.11-.41,2.29-.57.34-.3.38-.81.08-1.15-.3-.34-.81-.38-1.16-.09-.09.07-.46.33-.72.25-.15-.05-.25-.21-.3-.31-.14-.29-.14-.62-.07-.81.09-.24.37-.39.53-.46.44-.19,1.01-.2,1.38-.04.97.43,1.34,2.48.73,4-.7,1.74-2.59,2.3-2.96,2.4-.07.02-.11.03-.14.03-.64.09-1.22.25-1.75.45.66-1.49,1.03-2.99,1.07-4.45.27.35.62.61,1.02.74ZM59.83,47.08c2.6.92,3.51,3.99,3.78,5.27.89,4.22-1.99,9.38-7.35,13.29-.27-.01-.55-.02-.82-.03.73-1.22,1.43-2.89,1.63-4.95.2-2.14-.21-3.97-.76-5.39,1.04.2,2.18.08,3.12-.58.92-.65,2.07-2.16,1.45-3.65-.48-1.16-1.91-1.85-3.24-1.58-1.13.23-1.75,1.05-1.97,1.39-.24.38-.13.89.26,1.13.38.24.89.13,1.13-.26.08-.13.38-.55.9-.66.57-.11,1.22.17,1.41.6.22.53-.37,1.32-.88,1.68-.95.67-2.42.36-3.25-.31-1.32-1.07-1.43-3.51-.22-5,1.33-1.65,3.74-1.36,4.83-.97ZM42.19,52.35c.27-1.28,1.18-4.35,3.78-5.27,1.09-.39,3.5-.68,4.83.97,1.2,1.5,1.1,3.93-.22,5-.82.67-2.3.98-3.25.31-.51-.36-1.1-1.15-.88-1.68.18-.44.84-.72,1.41-.6.52.1.82.53.9.66.24.38.75.5,1.13.26.38-.24.5-.75.26-1.13-.22-.34-.84-1.17-1.97-1.39-1.34-.27-2.76.43-3.24,1.58-.62,1.49.52,3,1.45,3.65.94.66,2.07.78,3.12.58-.55,1.42-.96,3.25-.76,5.39.2,2.09.92,3.77,1.66,5-.26.01-.52.01-.78.03-5.41-3.92-8.32-9.11-7.43-13.35ZM37.34,51.84c.37-.16.94-.15,1.38.04.16.07.44.21.53.46.07.19.07.52-.07.81-.05.09-.14.26-.3.31-.26.08-.63-.18-.72-.25-.34-.3-.86-.26-1.16.09-.3.34-.26.86.09,1.16.18.16,1.16.93,2.29.57.4-.13.75-.38,1.02-.74.05,1.46.41,2.96,1.07,4.45-.53-.21-1.11-.37-1.75-.45-.03,0-.07,0-.1-.01-.41-.11-2.3-.68-3-2.42-.61-1.52-.24-3.57.73-4ZM36.38,60.4c.94-.79,2.25-.62,3.12-.5,1.86.25,3.16,1.31,3.83,1.98,1.04,1.4,2.34,2.76,3.88,4.03-1.93.2-3.84.49-5.75.86.44-.28.83-.67,1.04-1.25.25-.7.19-1.55-.17-2.28-.35-.71-.94-1.22-1.65-1.45-1.1-.34-2.36.06-3.14,1.02-.29.35-.23.87.12,1.15.35.29.87.23,1.15-.12.36-.44.91-.63,1.37-.49.38.12.58.43.67.61.16.33.2.72.1.99-.2.56-1.1.74-1.58.84-.38.08-2.33.4-3.44-.95-1.12-1.36-.68-3.51.44-4.46ZM30.79,65.89c-.84-.48-1.92-.38-2.75.27-.36.28-.43.79-.15,1.15.28.36.79.43,1.15.15.31-.23.68-.29.94-.14.3.17.38.65.3.91-.06.22-.3.45-.64.62-.62.31-1.43.37-2.05.14-.93-.35-1.47-1.38-1.52-2.22-.12-1.98,2.51-3.23,2.54-3.24,2.41-1.13,4.9.39,5.18.56.15.64.43,1.26.88,1.81,1,1.23,2.38,1.57,3.46,1.62-2.34.59-4.64,1.31-6.89,2.17.29-.3.51-.64.62-1.01.26-.9-.02-2.19-1.06-2.78ZM52.65,65.58c-.11,0-.22.01-.33.01-.78-1.07-1.73-2.79-1.94-5.08-.29-3.08.9-5.45,1.63-6.59.22-.26.41-.51.57-.79-.99,3.05-1.14,5.6-.29,6.51.1.1.22.19.22.19.12.08.27.17.46.17.21,0,.36-.11.49-.2,0,0,.13-.09.23-.2.82-.93.64-3.39-.37-6.31.14.22.29.42.47.61.74,1.16,1.93,3.53,1.64,6.61-.22,2.29-1.16,4.01-1.94,5.08-.28,0-.55-.02-.83-.01ZM76.16,68.84c-.34-.17-.57-.4-.64-.62-.08-.26,0-.73.3-.91.26-.15.63-.09.94.14.36.27.87.21,1.15-.15.28-.36.21-.87-.15-1.15-.84-.64-1.92-.75-2.75-.27-1.04.6-1.32,1.88-1.06,2.78.05.17.12.33.2.48-1.89-.66-3.81-1.24-5.75-1.73.92-.16,1.94-.58,2.73-1.54.45-.55.73-1.17.88-1.81.28-.18,2.76-1.69,5.18-.56.03.01,2.65,1.26,2.54,3.24-.05.82-.54,1.86-1.52,2.22-.62.23-1.42.18-2.05-.14Z"/>
    </g>
  </g>
</svg>