<?xml version="1.0" encoding="UTF-8"?>
<svg id="Layer_2" xmlns="http://www.w3.org/2000/svg" viewBox="0 0 104.27 151.16">
  <defs>
    <style>
      .cls-1 {
        fill: #f7faf5;
      }

      .cls-2, .cls-3 {
        fill: #fff;
      }

      .cls-4 {
        fill: #c0dddb;
      }

      .cls-5 {
        fill: #fce170;
      }

      .cls-3 {
        stroke: #dbd6c6;
        stroke-miterlimit: 10;
        stroke-width: 2px;
      }

      .cls-6 {
        fill: #c97d7d;
      }

      .cls-7 {
        fill: #9fccad;
      }

      .cls-8 {
        fill: #75a081;
      }

      .cls-9 {
        fill: #ffeea4;
      }

      .cls-10 {
        fill: #3a3735;
      }

      .cls-11 {
        fill: #998abc;
      }

      .cls-12 {
        fill: #f9c44e;
      }

      .cls-13 {
        fill: #ffd7d7;
      }

      .cls-14 {
        fill: #d2b0ff;
      }

      .cls-15 {
        fill: #dbd6c6;
      }
    </style>
  </defs>
  <g id="_Ñëîé_1" data-name="Ñëîé_1">
    <g>
      <ellipse class="cls-3" cx="51.04" cy="107.73" rx="50.04" ry="42.43"/>
      <g>
        <path class="cls-15" d="M26.61,71.44c-.11.09-7.65,4.22-9.36,5.15-.54.4-7.21-4.82-11.09-11.4C4.19,61.86.04,41.66,1.59,40.54c.7-.49,24.86,9.02,25.02,30.9Z"/>
        <path class="cls-2" d="M26.53,71.49c-1.91,1.04-6.77,3.74-9.28,5.1-2.42-1.81-5.47-4.65-7.93-8.8-1.65-2.8-5.15-19.89-3.85-20.8.77-.54,20.02,7.65,21.06,24.5Z"/>
        <path class="cls-13" d="M24.37,72.68c-.19.09-4.82,2.66-4.99,2.76-.9.48-5.46-5.73-7.08-9.1-1.12-2.34-3.68-11.54-2.17-12.42,1.51-.91,9.85,5.54,14.25,18.76Z"/>
      </g>
      <g>
        <path class="cls-15" d="M75.36,71.1c.11.09,7.65,4.22,9.36,5.15.54.4,7.21-4.82,11.09-11.4,1.97-3.33,6.12-23.54,4.57-24.65-.7-.49-24.86,9.02-25.02,30.9Z"/>
        <path class="cls-2" d="M75.44,71.15c1.91,1.04,6.77,3.74,9.28,5.1,2.42-1.81,5.47-4.65,7.93-8.8,1.65-2.8,5.15-19.89,3.85-20.8-.77-.54-20.02,7.65-21.06,24.5Z"/>
        <path class="cls-13" d="M77.6,72.34c.19.09,4.82,2.66,4.99,2.76.9.48,5.46-5.73,7.08-9.1,1.12-2.34,3.68-11.54,2.17-12.42-1.51-.91-9.85,5.54-14.25,18.76Z"/>
      </g>
      <path class="cls-10" d="M42.44,108.72c-.23-.34-.69-.43-1.03-.2l-3.63,2.45c-.21-.29-.44-.58-.69-.85-.34-.36-.7-.67-1.09-.95l2.28-3.47c.22-.34.13-.8-.21-1.03-.34-.23-.8-.13-1.03.21l-2.32,3.53c-.71-.33-1.48-.54-2.27-.63v-4.07c0-.41-.34-.74-.75-.74-.41,0-.73.33-.73.74v4.05c-.8.07-1.56.28-2.3.6l-2.27-3.46c-.23-.34-.69-.44-1.03-.21-.34.22-.44.68-.21,1.03l2.21,3.37c-.42.29-.81.62-1.17,1-.24.25-.46.53-.67.81l-3.5-2.37c-.34-.23-.8-.14-1.03.2-.23.34-.14.8.2,1.03l3.57,2.41c-.55,1.17-.82,2.47-.74,3.78.02.39.35.7.74.7.45-.03.76-.38.74-.79-.1-1.75.54-3.48,1.76-4.75,1.19-1.24,2.8-1.96,4.47-1.9,1.6.03,3.12.71,4.27,1.92,1.18,1.24,1.8,2.87,1.74,4.57-.01.41.31.75.72.77.48.04.75-.31.77-.72.04-1.23-.21-2.42-.71-3.51l3.71-2.51c.34-.23.43-.69.2-1.03Z"/>
      <path class="cls-10" d="M80.61,108.71c-.23-.34-.69-.43-1.03-.2l-3.5,2.37c-.21-.28-.42-.56-.67-.81-.36-.37-.75-.71-1.17-1l2.21-3.37c.22-.34.13-.8-.21-1.03-.34-.23-.8-.13-1.03.21l-2.27,3.46c-.73-.32-1.5-.53-2.29-.61v-4.05c0-.41-.32-.74-.73-.74-.44-.06-.75.33-.75.74v4.07c-.79.09-1.55.3-2.27.63l-2.32-3.53c-.23-.34-.69-.44-1.03-.21-.34.22-.44.68-.21,1.03l2.28,3.47c-.38.28-.75.59-1.08.95-.25.27-.48.55-.69.85l-3.63-2.45c-.34-.23-.8-.14-1.03.2-.23.34-.14.8.2,1.03l3.71,2.51c-.5,1.09-.75,2.28-.71,3.51.01.4.34.72.74.72.43-.01.75-.36.74-.77-.06-1.7.56-3.32,1.74-4.57,1.15-1.21,2.66-1.89,4.27-1.92,1.68-.02,3.28.66,4.47,1.9,1.22,1.27,1.87,3.01,1.76,4.75-.02.41.29.76.7.78.43,0,.76-.3.78-.7.08-1.31-.19-2.61-.74-3.78l3.57-2.41c.34-.23.43-.69.2-1.03Z"/>
      <g>
        <path class="cls-9" d="M61.44,64.12c-1.44,1.8-4.24,1.87-9.8,1.94-6.57.08-9.85.12-11.36-1.84-.6-.79-1.08-2.02.97-10.97.81-3.54,1.51-6.02,2.1-7.79.04-.12.08-.24.12-.36.13-.39.27-.73.39-1.05.04-.11.08-.21.12-.31-.01-.03-.04-.04-.05-.07-.17-.2-.32-.43-.45-.67-.55-1.07-.15-2.86.68-6.41.71-3,1.24-5.22,1.91-6.85.2-.51.41-.96.65-1.36.04-.07.08-.12.12-.19-.05-.04-.11-.09-.15-.15-.12-.12-.24-.24-.35-.39-.07-.09-.13-.2-.17-.31-.69-1.44.11-4.26,1.63-9.49.37-1.25.67-2.2.97-2.92.08-.17.15-.33.23-.48.15-.29.29-.53.45-.75-.11-.07-.21-.13-.32-.23-.05-.03-.11-.08-.16-.13-.05-.04-.11-.09-.15-.15-.63-.75-.83-1.91.2-5.63C50.17,3.38,51.12-.05,52.32,0c1.03.04,1.59,2.58,2.72,7.66.72,3.22.68,4.39.08,5.23-.03.04-.05.07-.08.11-.11.13-.23.24-.36.35.17.19.31.37.43.57.13.21.25.45.35.71.28.67.48,1.47.69,2.35,1.45,6.29,1.84,8.69,1.82,9.74-.01.56-.13.75-.27.93-.12.17-.27.32-.43.45-.07.07-.15.12-.23.19.01.03.03.05.04.08.21.47.44,1.04.65,1.72.2.59.39,1.25.59,2.03,1.52,6.01,2.27,9.02.68,11.25-.09.13-.2.24-.31.36.04.07.05.12.08.17.16.37.32.79.47,1.23.11.32.21.65.32,1.01.64,2.26,1.17,5.21,1.87,9.04,1.23,6.74.67,8.09,0,8.93Z"/>
        <path class="cls-12" d="M49.45,13.71c.43.21,1.37.6,2.6.53,1.31-.07,2.24-.6,2.64-.87-.49,1.04-1.51,1.72-2.64,1.74-1.65.04-2.56-1.34-2.6-1.41Z"/>
        <path class="cls-12" d="M51.94,30.9c-3.19-.02-4.95-2.49-5.1-2.71,1.1.43,2.9.97,5.18.98,2.19.01,3.94-.48,5.03-.88-.16.23-1.95,2.62-5.11,2.6Z"/>
        <path class="cls-12" d="M51.3,47.15c-4.36-.03-6.95-2.99-7.32-3.42-.01-.03-.04-.04-.05-.07,1.62.59,4.15,1.29,7.29,1.32,3.24.04,5.84-.64,7.5-1.22-.36.43-3.01,3.41-7.41,3.39Z"/>
      </g>
      <path class="cls-13" d="M23.28,128.12c0,2.77-2.24,5.01-5.01,5.01s-5.01-2.24-5.01-5.01,2.24-5.01,5.01-5.01,5.01,2.24,5.01,5.01Z"/>
      <path class="cls-13" d="M89.37,128.12c0,2.77-2.24,5.01-5.01,5.01s-5.01-2.24-5.01-5.01,2.24-5.01,5.01-5.01,5.01,2.24,5.01,5.01Z"/>
      <g>
        <path class="cls-8" d="M26.33,73.71c-9.94,1.65-16.89,11.81-15.57,21.21,9.94-1.65,16.89-11.81,15.57-21.21Z"/>
        <path class="cls-7" d="M.87,74.29c7.53,6.69,19.81,5.71,26.28-1.23-7.53-6.69-19.81-5.71-26.28,1.23Z"/>
        <path class="cls-8" d="M77.7,76.83c9.93.12,18.22,8.98,18.35,18.33-9.93-.12-18.22-8.98-18.35-18.33Z"/>
        <path class="cls-7" d="M104.27,73.04c-6.23,7.74-18.32,8.79-25.75,3.11,6.23-7.74,18.32-8.79,25.75-3.11Z"/>
        <g>
          <path class="cls-5" d="M63.7,83.7c11.65.16,12.85-17.11,1.36-18.65,2.46-10.95-13.29-16.19-17.75-5.72-9.15-5.49-19.1,6.35-11.71,14.37-2.52,2.76-3.25,6.88-1.5,10.44,3.68,7.5,11.48,4.28,11.97,5.27,4.75,9.67,19.48,4.9,17.64-5.72ZM49.39,73.68c.72-.79,1.29-1.68,1.7-2.65,1.1.66,2.32,1.09,3.59,1.26-.27,1.18-.3,2.42-.09,3.64-1.14-.02-2.29.17-3.41.59-.38-.95-.89-1.86-1.79-2.84Z"/>
          <path class="cls-1" d="M54.09,82.52c.91,1.45,2.69.21,1.45-3.55,2.11,4.37,2.79,1.89,2.75,1.54-.3-2.56-1.88-3.57-1.74-3.76,4.82,4.02,5.34,1.59,1.89-.76-1.28-.87-1.11-.52-.97-.95,6.16,1.71,5.82-.47,1.62-1.2-.3-.05-.79-.05,1.21-.14,4.65-.22,7.4-2.38-2.45-1.45,7.6-3.22,5.03-4.9,2.43-3.92,2.48-2.02,2.13-4.5-4.11-.37.7-1.34,1.61-2.4,1.84-3.74.18-1.04-1.47-1.81-3.52,1.92-1.84,3.36-.21.22.05-2.47.13-1.31-1.93-.69-2.6,2-1.06-3.59-2.28-3.04-2.35-2.23-.24,2.61,1.13,4.99-.11,2.42-2.12-4.39-5.05-3.6-1.31,2.76-.22.18.06.34-1.1-.83-3.1-3.13-3.93-1.54-3.6-.57.95,2.84,2.08.78-1.12.77-1.25,0-1.99,1.44,1.82,3.48.18.09.15.08.07.06-4.5-.94-4.05.79-3.47,1.21,2.2,1.6,8.52.6,3.27,1.68-4.87,1-5.84,4.12,2.54,1.34.71,1.45-3.61,1.82-3.31,4.17.08.62,1.21,1.16,2.68-.19-1.33,1.65-.36,2.04.17,1.8,2.04-.91.13-.56.75,1.04.92,2.33,4.03-3.58,4.23-3.56-1.54,5.91.81,4.91,1.09,4.39,2.91-5.33-.8-5.15,1.88-.89Z"/>
          <path class="cls-6" d="M53.28,76c-3.73,1.83-6.51-3.81-2.77-5.65,3.73-1.83,6.51,3.81,2.77,5.65Z"/>
          <path class="cls-6" d="M48.26,72.62c-.81.4-1.41-.83-.6-1.23.81-.4,1.41.83.6,1.23Z"/>
          <path class="cls-6" d="M50.01,70.4c-.81.4-1.41-.83-.6-1.23.81-.4,1.41.83.6,1.23Z"/>
          <path class="cls-6" d="M52.65,69.71c-.81.4-1.41-.83-.6-1.23.81-.4,1.41.83.6,1.23Z"/>
          <path class="cls-6" d="M48.46,75.37c-.81.4-1.41-.83-.6-1.23.81-.4,1.41.83.6,1.23Z"/>
          <path class="cls-6" d="M50.26,77.49c-.81.4-1.41-.83-.6-1.23.81-.4,1.41.83.6,1.23Z"/>
          <path class="cls-6" d="M53.21,77.74c-.81.4-1.41-.83-.6-1.23.81-.4,1.41.83.6,1.23Z"/>
          <path class="cls-6" d="M55.13,71.09c-.81.4-1.41-.83-.6-1.23.81-.4,1.41.83.6,1.23Z"/>
          <path class="cls-6" d="M56.36,73.59c-.81.4-1.41-.83-.6-1.23.81-.4,1.41.83.6,1.23Z"/>
          <path class="cls-6" d="M55.46,76.22c-.81.4-1.41-.83-.6-1.23.81-.4,1.41.83.6,1.23Z"/>
        </g>
        <g>
          <path class="cls-11" d="M82.72,77.47c-3.62-1.33-3.36-.19.69-2.55,8.23-4.8,6.87-7.13-1.36-2.33-4.24,2.48-3.35,3.26-1.66-1.19,3.37-8.91.85-9.87-2.52-.95-1.83,4.85-.3,4.76-2.72-.12-4.24-8.53-6.66-7.33-2.41,1.2,2.31,4.64,3.23,3.66-1.31,2.03-8.97-3.22-9.88-.68-.91,2.54,4.65,1.67,4.29.17-.27,3.06-8.05,5.1-6.6,7.38,1.44,2.28,4.19-2.66,3.14-3.41,1.51,1.56-2.98,9.05-.42,9.9,2.56.84,1.56-4.76.41-4.82,2.19-1.53,4.53,8.38,6.9,7.1,2.37-1.28-1.63-3.01-2.19-2.35,1.48-1.01,8.95,3.28,9.88.75.93-2.53Z"/>
          <path class="cls-14" d="M79.81,74.9c2.73-2.38,7.71-8.53,6.69-9.41-.94-.81-6.35,4.71-8.6,8.47.82-4.08.62-11.96-.66-12-1.26-.04-1.95,7.6-1.34,11.92-11.23-8.93-16.26-4.75-1.87,1.47-13.62,1.02-13.4,6.03.07,2.44-10.45,10.38-6.07,14.26,1.62,1.61-.83,14.87,4.61,12.5,2.27-1.18,8.26,10.54,13.12,8.38,2.46-.93,14.41,2.27,13.22-3.19-.64-2.39Z"/>
          <path class="cls-2" d="M78.08,75.81c.47,1.31-1.51,2.02-1.98.71-.47-1.31,1.51-2.02,1.98-.71Z"/>
        </g>
        <g>
          <path class="cls-11" d="M27.18,70.97c.45,3.83,1.35,3.09-2.59.54-8-5.18-9.46-2.92-1.47,2.26,4.12,2.67,4.42,1.52-.32,2.02-9.47,1.01-9.19,3.69.29,2.68,5.16-.55,4.38-1.88,1.12,2.49-5.7,7.63-3.54,9.25,2.16,1.61,3.1-4.15,1.81-4.53,2.4.26,1.17,9.46,3.85,9.13,2.68-.33-.61-4.9-1.78-3.9,2.85-1.14,8.18,4.88,9.57,2.57,1.38-2.32-4.26-2.54-4.46-1.27.71-2.05,9.42-1.42,9.02-4.09-.4-2.67-4.95.75-4.49,1.81-2.35-1.26,5.44-7.82,3.23-9.36-2.21-1.54-1.95,2.81-1.11,3.01-1.57-.87-1.1-9.46-3.78-9.15-2.68.31Z"/>
          <path class="cls-14" d="M26.2,74.72c-3.36-1.37-11.09-3.03-11.41-1.73-.3,1.21,7.07,3.55,11.44,3.85-4.02,1.11-10.96,4.84-10.41,6,.53,1.14,7.66-1.69,11.24-4.18-2.91,14.05,3.09,16.65,2.15,1.01,7.05,11.69,11.43,9.24,2.15-1.17,13.97,4.65,15.46-1.01.71-2.17,13.65-5.97,9.08-9.75-2.08-1.49,5.68-12.12,1.56-15.49-1.94-1.77-4.47-13.88-8.81-10.36-1.84,1.64Z"/>
          <path class="cls-2" d="M27.78,75.86c.96-1.01,2.48.44,1.52,1.45-.96,1.01-2.48-.44-1.52-1.45Z"/>
        </g>
      </g>
      <path class="cls-4" d="M16.56,106.52c-.01,2.29.17,6.52.53,14.98.03.67.1,2.31,1.22,3.14.41.31.82.4,1.01.44,3.16.57,8.1.91,8.9.94,2.26.1,2.53.17,4.24.19.27,0,1.47-.02,3.88-.06,1.3-.02,1.96-.04,2.82-.14,1.67-.2,2.41-.5,2.99-.93.53-.39.83-.82,1-1.07,3.19-4.69,6.45-11.17,6.54-11.35.07-.16.19-.39.37-.63.13-.17.34-.43.66-.61.53-.3,1.25-.31,1.79,0,.33.19.55.48.7.69.17.23.27.43.33.55,0,0,3.3,6.6,6.54,11.36.17.24.47.67,1,1.07.58.43,1.32.73,2.99.93.86.1,1.52.12,2.82.14,2.41.04,3.61.06,3.88.06,1.71-.02,1.98-.09,4.24-.19.8-.04,5.75-.38,8.9-.94.19-.03.6-.13,1.01-.44,1.12-.83,1.19-2.48,1.22-3.14.36-8.46.54-12.69.53-14.98,0-1.13-.07-2.26-.02-3.38.02-.49,0-1.3-.03-2.93-.01-.47-.03-1.05-.34-1.69-.1-.21-.33-.66-.81-1,0,0-.47-.33-1.12-.41-1.01-.13-14.42-.03-32.72.21-18.3-.24-31.71-.34-32.72-.21-.66.08-1.12.41-1.12.41-.48.34-.71.79-.81,1-.31.64-.33,1.22-.34,1.69-.04,1.63-.05,2.44-.03,2.93.05,1.13-.02,2.26-.02,3.38ZM54.27,101.04c.4-.54.93-.89.93-.89.84-.67,1.84-.61,2.2-.62,8.09-.19,18.73-.45,20.95-.6.82-.05,1.64.05,2.46.05,1.02,0,2.49-.04,3.03.69.02.02.04.05.05.06.42.62.43,1.23.44,1.5.02.8-.01,5.84-.09,15.92-.02,2.6-.07,4.39-1.39,5.54-.89.77-1.94.87-3.02.96-3.94.32-11.74.93-16.02-.22-.5-.13-1.25-.37-2-.95-.73-.57-1.12-1.2-1.58-1.98-1.52-2.59-1.93-3.56-1.93-3.56-2.32-5.48-3.37-6.73-4.31-10.62-.14-.57-.87-3.7.29-5.28ZM18.92,101.22c0-.27.02-.87.44-1.5,0-.01.03-.04.05-.06.54-.73,2.01-.69,3.03-.69.82,0,1.64-.1,2.45-.05,2.22.15,12.86.4,20.95.6.36,0,1.36-.05,2.2.62,0,0,.53.35.93.89,1.15,1.58.42,4.71.29,5.28-.94,3.89-1.99,5.15-4.31,10.62,0,0-.41.96-1.93,3.56-.46.79-.86,1.42-1.58,1.98-.75.58-1.5.82-2,.95-4.28,1.15-12.08.54-16.02.22-1.07-.09-2.13-.19-3.02-.96-1.32-1.15-1.37-2.94-1.39-5.54-.08-10.08-.12-15.13-.09-15.92Z"/>
    </g>
  </g>
</svg>