<?xml version="1.0" encoding="UTF-8"?>
<svg id="Layer_2" xmlns="http://www.w3.org/2000/svg" viewBox="0 0 105.46 145.84">
  <defs>
    <style>
      .cls-1, .cls-2 {
        fill: #fff;
      }

      .cls-3 {
        fill: #729dc4;
      }

      .cls-4 {
        fill: #fce170;
      }

      .cls-2 {
        stroke: #dbd6c6;
        stroke-miterlimit: 10;
        stroke-width: 2px;
      }

      .cls-5 {
        fill: #f97d7d;
      }

      .cls-6 {
        fill: #9fccad;
      }

      .cls-7 {
        fill: #75a081;
      }

      .cls-8 {
        fill: #ffeea4;
      }

      .cls-9 {
        fill: #3a3735;
      }

      .cls-10 {
        fill: #f9c44e;
      }

      .cls-11 {
        fill: #ffd7d7;
      }

      .cls-12 {
        fill: #d2b0ff;
      }

      .cls-13 {
        fill: #f9bbbb;
      }

      .cls-14 {
        fill: #d0eae7;
      }

      .cls-15 {
        fill: #dbd6c6;
      }
    </style>
  </defs>
  <g id="_Ñëîé_1" data-name="Ñëîé_1">
    <g>
      <ellipse class="cls-2" cx="53.46" cy="102.41" rx="50.04" ry="42.43"/>
      <g>
        <path class="cls-15" d="M25.36,72.43c-.11.09-7.65,4.23-9.36,5.15-.54.4-7.21-4.82-11.09-11.4-1.97-3.33-6.12-23.54-4.57-24.65.7-.49,24.86,9.02,25.02,30.9Z"/>
        <path class="cls-1" d="M25.28,72.48c-1.91,1.04-6.77,3.74-9.28,5.1-2.42-1.81-5.47-4.65-7.93-8.8-1.65-2.8-5.15-19.89-3.85-20.8.77-.54,20.02,7.65,21.06,24.5Z"/>
        <path class="cls-11" d="M23.11,73.67c-.19.09-4.82,2.66-4.99,2.76-.9.48-5.46-5.73-7.08-9.1-1.12-2.34-3.68-11.54-2.17-12.42,1.51-.91,9.85,5.54,14.25,18.76Z"/>
      </g>
      <g>
        <path class="cls-15" d="M80.11,73.08c.11.09,7.65,4.23,9.36,5.15.54.4,7.21-4.82,11.09-11.4,1.97-3.33,6.12-23.54,4.57-24.65-.7-.49-24.86,9.02-25.02,30.9Z"/>
        <path class="cls-1" d="M80.19,73.13c1.91,1.04,6.77,3.74,9.28,5.1,2.42-1.81,5.47-4.65,7.93-8.8,1.65-2.8,5.15-19.89,3.85-20.8-.77-.54-20.02,7.65-21.06,24.5Z"/>
        <path class="cls-11" d="M82.35,74.32c.19.09,4.82,2.66,4.99,2.76.9.48,5.46-5.73,7.08-9.1,1.12-2.34,3.68-11.54,2.17-12.42-1.51-.91-9.85,5.54-14.25,18.76Z"/>
      </g>
      <g>
        <path class="cls-8" d="M64.84,61.3c-.07.43-.47,3.01-2.16,4.76-1.46,1.5-2.66,1.16-7.89,1.19-5.78.03-7.1.46-8.66-1.18-.25-.26-1.76-1.88-2.14-4.69-.36-2.69.44-5.57,2.08-7.72.25-.34.52-.65.81-.95-.05-.1-.11-.22-.18-.35-.39-.85-.91-2.25-.97-4.04-.1-2.98,1.14-5.23,2.1-6.52.55-.74,1.01-1.18,1.1-1.25-.04-.04-.1-.12-.17-.21-.42-.56-1.32-1.96-1.35-3.98-.02-1.7.56-3.33,1.55-4.48.34-.4.73-.74,1.16-1.01-.21-.4-1.18-2.04-1.08-4.39.08-1.66.67-2.9,1.22-3.72.53-.76,1.03-1.16,1.12-1.24-.22-.39-1.26-2.33-.76-4.74.42-2.1,1.67-3.08,1.92-3.27.06-.5.11-.94.16-1.37.45-3.7.87-6.65,1.21-8.78C54.18,1.63,54.46.01,54.86,0c.4-.01.74,1.49,1.13,3.46.39,2.05.88,4.85,1.33,8.31.06.5.13.98.19,1.49.31.27,1.54,1.4,1.8,3.58.28,2.29-.72,3.92-.87,4.14,0,.01.04.03.07.05.19.16.69.63,1.19,1.39.54.84,1.05,2.03,1.13,3.59.12,2.52-1.02,4.23-1.23,4.56.02.01.04.04.06.05.2.21.67.72,1.09,1.57.36.69.68,1.62.78,2.76.22,2.29-.58,3.99-.89,4.57-.04.08-.08.13-.1.17.2.21.68.78,1.17,1.7.64,1.15,1.29,2.82,1.45,4.99.21,2.9-.63,5.1-1,5.96-.02.04-.04.08-.05.1.49.52.93,1.11,1.3,1.75,1.24,2.09,1.78,4.66,1.44,7.11Z"/>
        <path class="cls-10" d="M57.54,13.29c-.38.24-1.25.71-2.46.76-1.23.04-2.14-.38-2.53-.59.51,1.02,1.59,1.62,2.69,1.53,1.01-.09,1.9-.74,2.3-1.7Z"/>
        <path class="cls-10" d="M55.2,23.48c-1.53.14-3.02-.63-3.81-1.97.59.28,1.86.79,3.52.7,1.77-.09,3.03-.82,3.58-1.17-.57,1.36-1.84,2.3-3.3,2.44Z"/>
        <path class="cls-10" d="M54.84,33.64c-1.95,0-3.75-1.07-4.7-2.78,1.22.64,2.43,1.18,3.81,1.31,2.11.21,3.87-.52,5.7-1.54-.91,1.84-2.78,3.01-4.81,3.02Z"/>
        <path class="cls-10" d="M48.94,40.54c.8.48,2.9,1.58,5.73,1.43.72-.04,2.82-.23,4.91-1.59.4-.26.72-.51.94-.69-1.2,2.35-3.59,3.82-6.14,3.79-3.35-.04-5.26-2.67-5.45-2.94Z"/>
        <path class="cls-10" d="M55.61,56.71c-3.34.44-6.72-1.12-8.73-4,.97.65,3.84,2.38,7.87,2.25,3.76-.13,6.38-1.81,7.35-2.51-.29.47-2.41,3.73-6.49,4.27Z"/>
      </g>
      <path class="cls-9" d="M40.49,104.61c-.41.02-.73.36-.71.77.08,1.71-.54,3.35-1.74,4.6-1.15,1.21-2.74,1.91-4.36,1.92-1.68,0-3.29-.71-4.46-1.96-1.2-1.28-1.82-3-1.69-4.73.03-.41-.28-.76-.69-.79-.37-.04-.76.28-.79.69-.01.16,0,.31,0,.47l-3.93,1.17c-.39.12-.62.53-.5.92.1.32.39.53.71.53.07,0,.14-.01.21-.03l3.64-1.09c.14.75.4,1.47.75,2.15l-3.15,2c-.34.22-.45.68-.23,1.02.14.22.38.34.63.34.14,0,.27-.04.4-.12l3.16-2.01c.13.16.26.32.4.48.51.54,1.08.99,1.7,1.36l-2.06,3c-.23.34-.15.8.19,1.03.13.09.28.13.42.13.23,0,.47-.11.61-.32l2.2-3.2c.78.28,1.61.43,2.44.43,2.06-.01,4.03-.88,5.46-2.38,1.47-1.55,2.24-3.57,2.14-5.69-.02-.41-.38-.74-.77-.71Z"/>
      <path class="cls-9" d="M83.72,106.8l-3.93-1.17c0-.16,0-.31,0-.47-.03-.41-.42-.72-.79-.69-.41.03-.72.38-.69.79.12,1.73-.5,3.45-1.69,4.73-1.17,1.24-2.78,1.96-4.42,1.96-1.65,0-3.23-.71-4.39-1.92-1.2-1.25-1.81-2.89-1.74-4.61.02-.41-.3-.75-.71-.77-.41-.04-.76.3-.77.71-.09,2.12.67,4.14,2.15,5.69,1.43,1.5,3.41,2.37,5.42,2.38.87,0,1.7-.15,2.48-.43l2.2,3.2c.14.21.38.32.61.32.14,0,.29-.04.42-.13.34-.23.42-.69.19-1.03l-2.06-3c.62-.37,1.2-.82,1.7-1.36.14-.15.27-.32.4-.48l3.16,2.01c.12.08.26.12.4.12.24,0,.48-.12.63-.34.22-.35.12-.8-.23-1.02l-3.15-2c.36-.68.61-1.4.75-2.15l3.64,1.09c.07.02.14.03.21.03.32,0,.61-.21.71-.53.12-.39-.11-.81-.5-.92Z"/>
      <path class="cls-11" d="M26.01,123.17c0,1.56-2.81,2.83-6.27,2.83s-6.27-1.27-6.27-2.83,2.81-2.83,6.27-2.83,6.27,1.27,6.27,2.83Z"/>
      <path class="cls-11" d="M94.5,123.17c0,1.56-2.81,2.83-6.27,2.83s-6.27-1.27-6.27-2.83,2.81-2.83,6.27-2.83,6.27,1.27,6.27,2.83Z"/>
      <g>
        <path class="cls-7" d="M90.65,85.5c-.67-.31-4.96-2.35-6.75-6.97.65-.23,4.86-1.66,9.69.55.67.31,4.96,2.35,6.75,6.97-.65.23-4.86,1.66-9.69-.55Z"/>
        <path class="cls-6" d="M88.63,70.4c.57-.48,4.23-3.49,9.18-3.14-.07.69-.57,5.11-4.62,8.54-.57.48-4.23,3.49-9.18,3.14.07-.69.57-5.11,4.62-8.54Z"/>
        <path class="cls-6" d="M60.77,85.27c-.56-.65-4.08-4.85-3.73-10.57.8.07,5.9.6,9.91,5.24.56.65,4.08,4.85,3.73,10.57-.8-.07-5.9-.6-9.91-5.24Z"/>
        <path class="cls-6" d="M38.92,79.04c.51-.69,3.84-5.04,9.49-5.95.11.79.71,5.89-2.94,10.81-.51.69-3.84,5.04-9.49,5.95-.11-.79-.71-5.89,2.94-10.81Z"/>
        <path class="cls-7" d="M72.78,63.02c-.54.51-4.04,3.7-8.99,3.61.03-.69.3-5.12,4.16-8.75.54-.51,4.04-3.7,8.99-3.61-.03.69-.3,5.12-4.16,8.75Z"/>
        <path class="cls-6" d="M31.09,62.38c-.4-.5-2.95-3.71-2.57-7.98.59.07,4.4.57,7.29,4.12.4.5,2.95,3.71,2.57,7.98-.59-.07-4.4-.57-7.29-4.12Z"/>
        <path class="cls-7" d="M12.46,69.89c.74.42,5.47,3.2,7.06,8.71-.77.2-5.76,1.42-11.09-1.61-.74-.42-5.47-3.2-7.06-8.71.77-.2,5.76-1.42,11.09,1.61Z"/>
        <path class="cls-6" d="M13.96,84.39c-.7.49-5.23,3.59-10.88,2.68.15-.79,1.17-5.82,6.18-9.35.7-.49,5.23-3.59,10.88-2.68-.15.79-1.17,5.82-6.18,9.35Z"/>
        <g>
          <path class="cls-3" d="M41.9,67.51c-.96-2.69-3.91-4.08-6.6-3.13-.77.28-1.44.72-1.97,1.28,0-.56-.1-1.13-.3-1.68-.96-2.68-3.91-4.08-6.6-3.13-2.68.96-4.08,3.91-3.13,6.6.1.27.22.52.35.77-.94-.23-1.96-.19-2.94.16-2.68.96-4.08,3.91-3.13,6.6.78,2.19,2.88,3.52,5.09,3.42-.52,1.17-.62,2.53-.15,3.84.96,2.68,3.91,4.08,6.6,3.13,1.87-.67,3.11-2.3,3.37-4.13,1.37,1.25,3.36,1.73,5.23,1.06,2.68-.96,4.08-3.91,3.13-6.6-.27-.77-.72-1.43-1.27-1.96,2.14-1.21,3.16-3.82,2.31-6.22Z"/>
          <path class="cls-14" d="M33.89,68.01c-1.08-.88-2.67-.72-3.55.36-.25.31-.42.67-.5,1.03-.14-.23-.33-.45-.55-.63-1.08-.88-2.67-.72-3.55.36-.88,1.08-.72,2.67.36,3.55.11.09.22.16.34.23-.45.14-.87.41-1.19.81-.88,1.08-.72,2.67.36,3.55.88.72,2.1.74,2.99.15.08.62.38,1.22.91,1.64,1.08.88,2.67.72,3.55-.36.61-.75.72-1.75.37-2.58.89.18,1.84-.13,2.45-.88.88-1.08.72-2.67-.36-3.55-.31-.25-.66-.42-1.03-.5.59-1.05.36-2.4-.6-3.18Z"/>
          <path class="cls-3" d="M31.59,73.17c.2.57-.09,1.19-.66,1.39-.57.2-1.19-.09-1.39-.66-.2-.57.09-1.19.66-1.39.57-.2,1.19.09,1.39.66Z"/>
        </g>
        <g>
          <path class="cls-3" d="M84.9,69.03c-.96-2.68-3.91-4.08-6.6-3.13-.77.28-1.44.72-1.97,1.28,0-.56-.1-1.13-.3-1.68-.96-2.68-3.91-4.08-6.6-3.13-2.69.96-4.08,3.91-3.13,6.6.1.27.22.52.35.77-.94-.23-1.96-.19-2.94.16-2.68.96-4.08,3.91-3.13,6.6.78,2.19,2.88,3.52,5.09,3.42-.52,1.17-.62,2.53-.15,3.84.96,2.68,3.91,4.08,6.6,3.13,1.87-.67,3.11-2.3,3.37-4.13,1.37,1.25,3.36,1.73,5.23,1.06,2.68-.96,4.08-3.91,3.13-6.6-.27-.77-.72-1.43-1.27-1.96,2.14-1.22,3.16-3.82,2.31-6.22Z"/>
          <path class="cls-14" d="M76.89,69.53c-1.08-.88-2.67-.72-3.55.36-.25.31-.42.67-.5,1.03-.14-.23-.33-.45-.55-.63-1.08-.88-2.67-.72-3.55.36-.88,1.08-.72,2.67.36,3.55.11.09.22.16.34.23-.45.14-.87.41-1.19.81-.88,1.08-.72,2.67.36,3.55.88.72,2.1.74,2.99.15.08.62.38,1.22.91,1.64,1.08.88,2.67.72,3.55-.36.61-.75.72-1.75.37-2.58.89.18,1.84-.13,2.45-.88.88-1.08.72-2.67-.36-3.55-.31-.25-.66-.42-1.03-.5.59-1.05.36-2.4-.6-3.18Z"/>
          <path class="cls-3" d="M74.59,74.69c.2.57-.09,1.19-.66,1.39-.57.2-1.19-.09-1.39-.66-.2-.57.09-1.19.66-1.39.57-.2,1.19.09,1.39.66Z"/>
        </g>
        <g>
          <path class="cls-5" d="M65.51,53.17c-3.01-3.28-8.11-3.49-11.39-.48-.94.87-1.63,1.91-2.06,3.04-.35-.8-.83-1.56-1.45-2.24-3.01-3.28-8.11-3.49-11.39-.48-3.28,3.01-3.49,8.11-.48,11.39.3.33.63.62.97.89-1.49.25-2.93.91-4.13,2.01-3.28,3.01-3.49,8.11-.48,11.39,2.45,2.67,6.29,3.3,9.4,1.82-.04,2,.66,4.02,2.12,5.61,3.01,3.28,8.11,3.49,11.39.48,2.28-2.09,3.07-5.19,2.33-7.99,2.72.97,5.88.44,8.16-1.66,3.28-3.01,3.49-8.11.48-11.39-.86-.94-1.9-1.62-3.02-2.05,2.33-3.05,2.22-7.42-.47-10.34Z"/>
          <path class="cls-13" d="M66.64,73.03c-2.1-2.51-6.32-3.72-10.18-4.02.9-.31,1.81-.62,2.7-.95,1.81-.66,4.17-1.08,5.39-2.65.33-.42.33-1.29-.37-1.39-2.02-.28-3.71.85-5.53,1.67-1.05.47-2.09.96-3.14,1.46,1.17-1.09,2.31-2.22,3.45-3.34,1.5-1.47,3.59-2.91,4.32-4.92.23-.62-.49-1.37-1.12-1.12-2.08.83-3.56,3.1-5.05,4.72-1.25,1.35-2.5,2.72-3.69,4.13.99-1.73,1.87-3.53,2.78-5.3.97-1.9,2.39-3.79,2.44-5.96.01-.53-.61-.69-.96-.4-1.82,1.48-2.58,4.24-3.56,6.32-.47,1-.95,2-1.41,3.02-.24-2.86-1.23-5.84-3.06-7.82-.6-.65-1.46.06-1.35.78.28,1.76.94,3.35,1.47,5.05.29.95.54,1.9.78,2.86-1.03-1.03-2.04-2.08-3.01-3.17-1.63-1.83-3.05-3.96-4.93-5.54-.68-.57-1.91-.05-1.6.93,1.14,3.63,4.13,6.75,7.26,9.26-.64-.06-1.29-.11-1.93-.17-2.16-.18-4.42-.45-6.54.11-1.05.28-.86,1.6,0,1.96,1.87.77,4.05.81,6.06.92.12,0,.24.01.36.02-.06.03-.13.05-.19.08-2.15.96-4.78,1.71-6.37,3.51-.45.51-.17,1.42.58,1.4,2.2-.06,4.21-1.34,6.15-2.29.76-.37,1.51-.76,2.26-1.13-.17.19-.34.39-.51.58-1.1,1.26-2.35,2.63-2.89,4.23-.29.87.75,1.56,1.49,1.14,1.56-.88,2.68-2.49,3.76-3.88.05-.06.09-.12.14-.18-.06.69-.11,1.37-.19,2.03-.25,2.21-1.09,5.04-.21,7.13.23.54.89.68,1.24.16,1.2-1.76.97-4.23,1.16-6.3.1-1.08.29-2.23.39-3.37.43,1.03.85,2.06,1.28,3.09.72,1.73,1.29,3.62,2.67,4.95.35.34,1.06-.15,1.34-.55.59-.88-.51-2.29-1.86-5.27-.63-1.38-1.05-2.53-1.29-3.23.93.06,2.4.23,4.11.75,3.63,1.1,5.33,2.02,6.77,2.1.78.04,1.01-.91.59-1.42Z"/>
          <path class="cls-1" d="M54.34,67.45c.76.82.7,2.11-.12,2.86-.82.76-2.11.7-2.86-.12-.76-.82-.7-2.11.12-2.86.82-.76,2.11-.7,2.86.12Z"/>
        </g>
        <path class="cls-4" d="M79.02,66.12c-.24-.07-.48.03-.62.22l-3.94-1.19,3.61-.41c.08.18.26.29.46.27.25-.03.43-.26.4-.51-.03-.25-.26-.43-.51-.4-.2.02-.35.18-.39.37l-3.55.4,3.61-1.96c.17.16.43.21.65.09.27-.15.37-.49.23-.76-.15-.27-.49-.37-.76-.23-.22.12-.32.36-.28.6l-3.63,1.97,2.37-2.8c.18.07.39.03.52-.12.16-.19.14-.48-.05-.64s-.48-.14-.64.05c-.13.16-.14.37-.03.53l-2.38,2.82,1.22-3.99c.24,0,.46-.15.53-.39.09-.3-.08-.61-.37-.7-.3-.09-.61.08-.7.37-.07.24.03.48.22.62l-1.24,4.05-.29-3.73c.18-.07.3-.25.29-.45-.02-.25-.24-.44-.49-.42s-.44.24-.42.49c.02.2.16.36.35.4l.28,3.66-1.77-3.79c.17-.16.24-.42.13-.64-.13-.28-.47-.4-.75-.27-.28.13-.4.47-.27.75.11.23.34.34.58.31l1.73,3.71-2.72-2.3c.07-.18.03-.39-.12-.52-.19-.16-.48-.14-.64.05-.16.19-.14.48.05.64.16.13.37.14.53.03l2.88,2.44-4.15-1.27c0-.24-.15-.46-.39-.53-.3-.09-.61.08-.7.37-.09.3.08.61.37.7.24.07.48-.03.62-.22l4.05,1.24-3.63.28c-.07-.18-.25-.3-.45-.29-.25.02-.44.24-.42.49.02.25.24.44.49.42.2-.02.36-.16.4-.35l3.69-.29-3.72,2.04c-.17-.16-.43-.21-.65-.09-.27.15-.37.49-.22.76.15.27.49.37.76.22.22-.12.32-.36.27-.6l3.48-1.91-2.14,2.72c-.18-.07-.39-.02-.52.14-.16.2-.12.49.08.64.2.16.49.12.64-.08.13-.16.12-.38.01-.54l2.39-3.05-1.27,4.2c-.24,0-.46.15-.53.39-.09.3.08.61.38.7.3.09.61-.08.7-.38.07-.24-.03-.48-.22-.62l1.18-3.91.4,3.54c-.18.08-.29.26-.27.46.03.25.26.43.51.4.25-.03.43-.26.4-.51-.02-.2-.18-.35-.37-.39l-.39-3.38,1.64,3.54c-.17.16-.24.42-.13.64.13.28.46.4.75.27.28-.13.4-.46.27-.75-.11-.23-.34-.34-.58-.31l-1.75-3.79,2.91,2.29c-.07.18-.02.39.14.52.2.16.49.12.64-.08.16-.2.12-.49-.08-.64-.16-.13-.37-.12-.54-.01l-2.98-2.35,4.1,1.24c0,.24.15.46.39.53.3.09.61-.08.7-.38.09-.3-.08-.61-.38-.7Z"/>
        <path class="cls-4" d="M43.57,81.94c-.26-.08-.53.03-.68.25l-4.37-1.31,4-.46c.09.2.29.32.51.3.28-.03.48-.28.45-.56-.03-.28-.28-.48-.56-.45-.22.03-.39.2-.43.41l-3.93.45,3.99-2.17c.19.18.48.24.72.1.3-.16.41-.54.25-.84-.16-.3-.54-.41-.84-.25-.24.13-.35.4-.31.66l-4.01,2.18,2.63-3.1c.2.08.43.04.58-.13.18-.21.15-.53-.06-.71-.21-.18-.53-.15-.71.06-.15.17-.15.41-.04.59l-2.64,3.12,1.35-4.41c.26,0,.5-.17.59-.43.1-.33-.08-.68-.41-.78-.33-.1-.68.08-.78.41-.08.26.03.54.24.69l-1.37,4.48-.32-4.13c.2-.08.33-.28.32-.5-.02-.28-.27-.49-.54-.47-.28.02-.49.27-.47.54.02.22.18.4.39.45l.31,4.05-1.96-4.2c.19-.18.26-.46.15-.71-.15-.31-.52-.45-.83-.3-.31.15-.44.52-.3.83.12.25.38.38.64.34l1.92,4.11-3.01-2.55c.08-.2.04-.43-.13-.58-.21-.18-.53-.15-.71.06-.18.21-.15.53.06.71.17.15.41.15.59.04l3.19,2.7-4.6-1.4c0-.26-.17-.5-.43-.59-.33-.1-.68.08-.78.41-.1.33.08.68.41.78.26.08.54-.03.68-.24l4.49,1.37-4.02.31c-.08-.2-.28-.33-.5-.32-.28.02-.49.27-.47.54.02.28.27.49.54.47.22-.02.4-.18.45-.39l4.08-.32-4.11,2.25c-.19-.18-.48-.23-.72-.1-.3.16-.41.54-.25.84s.54.41.84.25c.24-.13.35-.4.3-.66l3.85-2.11-2.37,3.01c-.2-.07-.43-.02-.57.16-.17.22-.13.54.09.71.22.17.54.13.71-.09.14-.18.14-.42.02-.59l2.65-3.37-1.4,4.65c-.26,0-.5.17-.58.43-.1.33.09.68.42.77.33.1.68-.09.77-.42.08-.27-.03-.53-.25-.68l1.3-4.33.45,3.92c-.2.09-.32.29-.3.51.03.28.28.48.56.45.28-.03.48-.28.45-.56-.03-.22-.2-.39-.41-.43l-.43-3.75,1.82,3.92c-.19.18-.26.46-.15.71.14.31.51.45.82.3.31-.14.45-.51.3-.83-.12-.25-.38-.38-.64-.35l-1.94-4.2,3.22,2.53c-.07.2-.02.43.16.57.22.17.54.13.71-.09.17-.22.13-.54-.09-.71-.18-.14-.42-.14-.59-.02l-3.3-2.6,4.54,1.37c0,.26.17.5.43.58.33.1.68-.09.77-.42.1-.33-.09-.68-.42-.77Z"/>
        <g>
          <path class="cls-13" d="M26.95,75.8c-.45-.35-1.08-.54-2.33-.28-1.02.22-2.31.7-3.91,1.34,4-2.26,4.95-2.9,5.1-3.9.02-.17.1-.69-.2-1.11-.36-.52-1.06-.59-1.19-.61-1.42-.15-2.72,1.55-4.8,4.48,1.72-4.27,2.07-5.36,1.56-6.24-.08-.14-.35-.6-.85-.75-.6-.18-1.19.2-1.31.27-1.29.82-1.15,3.2-.92,7.21,0-.02-.02-.05-.03-.09-1.41-4.99-1.79-6.15-2.78-6.55-.16-.06-.64-.26-1.13-.07-.59.23-.82.89-.87,1.01-.51,1.43,1.04,3.22,3.66,6.23-4.29-2.74-5.34-3.35-6.34-2.99-.16.06-.65.23-.89.7-.29.56-.03,1.21.02,1.33.54,1.35,2.7,1.69,6.34,2.15-4.35.92-5.42,1.24-5.86,2.14-.07.15-.3.62-.15,1.12.19.6.83.88.95.94,1.29.57,3.02-.62,5.81-2.73-3.13,3.89-3.83,4.87-3.59,5.89.04.16.16.67.59.96.53.35,1.2.16,1.33.12,1.44-.4,2-2.63,2.9-6.39.49,4.79.69,5.95,1.57,6.5.14.09.59.37,1.1.26.53-.11.86-.57.99-.77,0,0,.02-.04.04-.08.69-1.24-1.1-4.76-1.1-4.76-.19-.37-.46-.89-.83-1.5.17.17,4.19,3.96,5.82,3.52.71-.19.95-.61.95-.61.34-.53.14-1.2.11-1.33-.4-1.38-2.48-1.93-5.98-2.73,4.6.28,5.75.26,6.42-.5.46-.53.44-1.04.44-1.04-.02-.62-.51-1.04-.67-1.15Z"/>
          <path class="cls-5" d="M19.94,77.89c0,.73-.59,1.32-1.32,1.32s-1.32-.59-1.32-1.32.59-1.32,1.32-1.32,1.32.59,1.32,1.32Z"/>
        </g>
        <g>
          <path class="cls-13" d="M94.35,76.16c-.45-.35-1.08-.54-2.33-.28-1.02.22-2.31.7-3.91,1.34,4-2.26,4.95-2.9,5.1-3.9.02-.17.1-.69-.2-1.11-.36-.52-1.06-.59-1.19-.61-1.42-.15-2.72,1.55-4.8,4.48,1.72-4.27,2.07-5.36,1.56-6.24-.08-.14-.35-.6-.85-.75-.6-.18-1.19.2-1.31.27-1.29.82-1.15,3.2-.92,7.21,0-.02-.02-.05-.03-.09-1.41-4.99-1.79-6.15-2.78-6.55-.15-.06-.64-.26-1.13-.07-.59.23-.82.89-.87,1.01-.51,1.43,1.04,3.22,3.66,6.23-4.29-2.74-5.34-3.35-6.34-2.99-.16.06-.65.23-.89.7-.29.56-.03,1.21.02,1.33.54,1.35,2.7,1.69,6.34,2.15-4.35.92-5.42,1.24-5.86,2.14-.07.15-.3.62-.15,1.12.19.6.83.88.95.94,1.29.57,3.02-.62,5.81-2.73-3.13,3.89-3.83,4.87-3.59,5.89.04.16.16.67.59.96.53.35,1.2.16,1.33.12,1.44-.4,2-2.63,2.9-6.39.49,4.79.69,5.95,1.57,6.5.14.09.59.37,1.1.26.53-.11.86-.57.99-.77,0,0,.02-.04.04-.08.69-1.24-1.1-4.76-1.1-4.76-.19-.37-.46-.89-.83-1.5.17.17,4.19,3.96,5.82,3.52.71-.19.95-.61.95-.61.34-.53.14-1.2.11-1.33-.4-1.38-2.48-1.93-5.98-2.73,4.6.28,5.75.26,6.42-.5.46-.53.44-1.04.44-1.04-.02-.62-.51-1.04-.67-1.15Z"/>
          <path class="cls-5" d="M87.33,78.25c0,.73-.59,1.32-1.32,1.32s-1.32-.59-1.32-1.32.59-1.32,1.32-1.32,1.32.59,1.32,1.32Z"/>
        </g>
      </g>
      <path class="cls-12" d="M24.18,118.21c1.28,1.13,3.39,2.96,6.72,3.78,5.99,1.48,10.89-1.52,11.69-2.03.97-.61,6.85-4.5,7-10.92.03-1.08-.12-2.06-.37-2.97,1.26-.56,3.02-1.1,5.12-1,2.11.09,3.78.75,4.95,1.39-.18.8-.29,1.66-.26,2.58.15,6.42,6.03,10.31,7,10.92.81.51,5.71,3.51,11.69,2.03,3.33-.82,5.45-2.65,6.72-3.78,7.13-6.3,7.01-15.52,6.93-21.29-.02-1.49-.16-3.45-1.54-4.76-1.3-1.25-3.14-1.36-4.62-1.33-16.13.35-22.83,9.59-22.83,9.59-.6.83-1.3,1.81-1.9,2.93-1.49-.76-3.52-1.49-6.01-1.59-2.67-.11-4.91.55-6.52,1.26-.56-.99-1.18-1.85-1.73-2.6,0,0-6.69-9.25-22.83-9.59-1.48-.03-3.32.08-4.62,1.33-1.38,1.31-1.52,3.28-1.54,4.76-.07,5.77-.19,14.99,6.93,21.29ZM62.19,109.6c0-2.32,1.13-4,1.96-5.25,2.7-4.04,6.85-5.47,9.66-6.44.33-.11,3.91-1.32,8.33-1.05,1.42.09,2.5.3,3.43,1.05,1.42,1.15,1.69,2.95,1.82,3.78.65,4.28-1.43,14.87-9.73,17.36-.6.18-5.19,1.48-9.66-1.05-.59-.33-5.82-3.39-5.81-8.4ZM21.24,101.68c.13-.83.4-2.63,1.82-3.78.93-.75,2.01-.96,3.43-1.05,4.42-.27,8,.94,8.33,1.05,2.81.97,6.96,2.4,9.66,6.44.83,1.25,1.96,2.93,1.96,5.25,0,5.01-5.22,8.07-5.81,8.4-4.47,2.53-9.06,1.23-9.66,1.05-8.3-2.49-10.38-13.09-9.73-17.36Z"/>
    </g>
  </g>
</svg>