<?xml version="1.0" encoding="UTF-8"?>
<svg id="Layer_2" xmlns="http://www.w3.org/2000/svg" viewBox="0 0 103.74 151.78">
  <defs>
    <style>
      .cls-1, .cls-2 {
        fill: #fff;
      }

      .cls-3 {
        fill: #fce170;
      }

      .cls-4 {
        fill: #ef9c9c;
      }

      .cls-2 {
        stroke: #dbd6c6;
        stroke-miterlimit: 10;
        stroke-width: 2px;
      }

      .cls-5 {
        fill: #9fccad;
      }

      .cls-6 {
        fill: #75a081;
      }

      .cls-7 {
        fill: #ffeea4;
      }

      .cls-8 {
        fill: #3a3735;
      }

      .cls-9 {
        fill: #998abc;
      }

      .cls-10 {
        fill: #f9c44e;
      }

      .cls-11 {
        fill: #ffd7d7;
      }

      .cls-12 {
        fill: #d2b0ff;
      }

      .cls-13 {
        fill: #dbd6c6;
      }
    </style>
  </defs>
  <g id="_Ñëîé_1" data-name="Ñëîé_1">
    <g>
      <ellipse class="cls-2" cx="52.66" cy="108.36" rx="50.04" ry="42.43"/>
      <g>
        <path class="cls-13" d="M28.77,73.35c-.11.09-7.65,4.23-9.36,5.15-.54.4-7.21-4.82-11.09-11.4-1.97-3.33-6.12-23.54-4.57-24.65.7-.49,24.86,9.02,25.02,30.9Z"/>
        <path class="cls-1" d="M28.69,73.4c-1.91,1.04-6.77,3.74-9.28,5.1-2.42-1.81-5.47-4.65-7.93-8.8-1.65-2.8-5.15-19.89-3.85-20.8.77-.54,20.02,7.65,21.06,24.5Z"/>
        <path class="cls-11" d="M26.53,74.59c-.19.09-4.82,2.66-4.99,2.76-.9.48-5.46-5.73-7.08-9.1-1.12-2.34-3.68-11.54-2.17-12.42,1.51-.91,9.85,5.54,14.25,18.76Z"/>
      </g>
      <g>
        <path class="cls-13" d="M74.52,73c.11.09,7.65,4.23,9.36,5.15.54.4,7.21-4.82,11.09-11.4,1.97-3.33,6.12-23.54,4.57-24.65-.7-.49-24.86,9.02-25.02,30.9Z"/>
        <path class="cls-1" d="M74.6,73.06c1.91,1.04,6.77,3.74,9.28,5.1,2.42-1.81,5.47-4.65,7.93-8.8,1.65-2.8,5.15-19.89,3.85-20.8-.77-.54-20.02,7.65-21.06,24.5Z"/>
        <path class="cls-11" d="M76.77,74.24c.19.09,4.82,2.66,4.99,2.76.9.48,5.46-5.73,7.08-9.1,1.12-2.34,3.68-11.54,2.17-12.42-1.51-.91-9.85,5.54-14.25,18.76Z"/>
      </g>
      <path class="cls-8" d="M37.12,107.42c-.41.01-.73.35-.72.76.05,1.69-.57,3.3-1.76,4.53-1.16,1.21-2.69,1.88-4.31,1.89-1.68,0-3.28-.7-4.44-1.92-1.21-1.27-1.83-2.93-1.73-4.67.02-.41-.29-.76-.7-.78-.42-.01-.71.26-.76.62-.48.34-1.53.94-2.94.85-1.22-.09-2.1-.67-2.52-1.01-.32-.26-.78-.21-1.04.11-.26.32-.21.78.11,1.04.55.45,1.72,1.23,3.35,1.34.14.01.28.01.41.01,1.11,0,2.03-.32,2.69-.65.09.59.26,1.17.48,1.72-.39.4-1.01.91-1.92,1.18-1.08.33-2.02.16-2.49.03-.4-.11-.81.12-.91.52-.11.39.12.8.52.91.42.12.96.22,1.6.22.52,0,1.1-.07,1.72-.26.97-.29,1.68-.79,2.2-1.25.25.39.54.75.86,1.09.18.19.36.36.55.53-.24.42-.62.91-1.19,1.32-.9.65-1.84.78-2.32.8-.41.02-.73.36-.71.77.02.4.35.71.74.71.82-.03,2.01-.25,3.16-1.08.72-.52,1.2-1.13,1.53-1.67,1.13.64,2.4,1,3.7,1h.06c2.03-.02,3.93-.85,5.37-2.35,1.46-1.52,2.23-3.51,2.17-5.6-.01-.41-.37-.7-.76-.72Z"/>
      <path class="cls-8" d="M80.89,110.24c.13,0,.27,0,.41-.01,1.63-.11,2.8-.89,3.35-1.34.32-.26.36-.73.1-1.04-.26-.32-.73-.36-1.04-.1-.42.34-1.29.92-2.52,1.01-1.4.09-2.46-.51-2.93-.85-.05-.37-.33-.63-.76-.62-.41.02-.72.37-.7.78.1,1.71-.53,3.42-1.73,4.67-1.16,1.22-2.76,1.92-4.39,1.92-1.67-.01-3.2-.69-4.36-1.89-1.18-1.23-1.81-2.84-1.76-4.53.01-.41-.31-.75-.72-.76-.42-.02-.75.31-.76.72-.06,2.09.71,4.08,2.17,5.6,1.44,1.5,3.35,2.33,5.37,2.35h.06c1.29,0,2.57-.35,3.69-.99.4.65.92,1.22,1.54,1.67,1.15.83,2.34,1.05,3.13,1.08.43,0,.76-.31.77-.71.02-.41-.3-.76-.71-.77-.48-.02-1.42-.15-2.32-.8-.57-.41-.94-.9-1.19-1.32.19-.17.38-.34.55-.53.32-.34.61-.71.86-1.09.52.46,1.23.95,2.2,1.25.61.19,1.2.26,1.72.26.63,0,1.18-.1,1.6-.22.39-.11.63-.52.52-.91-.11-.39-.51-.62-.91-.52-.57.16-1.46.28-2.48-.03-.91-.28-1.53-.78-1.92-1.18.22-.55.39-1.13.48-1.72.67.34,1.59.66,2.7.66Z"/>
      <g>
        <path class="cls-7" d="M58.4,66.26c-.6.26-2.14.31-5.23.4-1.67.05-1.13-.04-3.37,0-3.07.05-3.98.18-5.02-.49-.6-.39-.9-.87-1.27-1.46-.66-1.07-.89-2.15-1.02-3.65-.19-2.16-.44-5.49,1.06-9.44.25-.67.5-1.2.66-1.53-.12-.98-.22-2.16-.21-3.5,0,0,.02-1.59.21-3.2.43-3.59,1.54-6.51,2.48-8.53-.12-.95-.2-2-.2-3.15.02-2.97.61-5.47,1.24-7.33.38-.91.76-1.79,1.14-2.66-.06-.71-.08-1.47-.05-2.29.11-2.93.9-5.35,1.67-7.09.4-3.85.91-6.91,1.31-9.02C52.17,1.41,52.49,0,52.93,0c.16,0,.51.19,1.3,3.45.54,2.2.84,4.01,1.01,5.19.14.27.27.56.39.86,1.06,2.62,1.09,5.17.83,7.17.75,1.15,2.16,3.69,2.11,7.09-.02,1.41-.29,2.6-.58,3.52.83,1.44,2.12,4.17,2.09,7.72-.01,1.34-.21,2.51-.45,3.47,1.29,3.05,2.29,6.91,1.89,11.26-.04.43-.09.86-.16,1.27.06.17.14.4.22.66,1.67,5.44.53,12.97-3.19,14.6Z"/>
        <path class="cls-10" d="M58,27.27c-.33,1.2-.86,1.95-1.26,2.4-1.76,1.99-4.06,1.63-7.5,3.49-1.15.62-2.01,1.27-2.53,1.7.86-1.7,1.88-2.62,2.62-3.13,2.09-1.45,3.9-1.06,6.55-2.74,1-.63,1.71-1.3,2.13-1.73Z"/>
        <path class="cls-10" d="M58.26,41.54c-1.77,2.95-4.73,4.2-5.93,4.71-2.01.86-2.54.56-4.66,1.6-1.55.76-2.71,1.62-3.45,2.24.48-.75,1.26-1.84,2.45-2.91,2.92-2.61,5.4-2.51,8.53-4.64,1.21-.82,2.82-2.18,4.33-4.49-.14.86-.46,2.15-1.27,3.49Z"/>
        <path class="cls-10" d="M56.46,16.67c-.23.81-.58,1.32-.85,1.62-1.19,1.34-2.74,1.1-5.06,2.36-.77.42-1.35.85-1.71,1.14.58-1.15,1.27-1.77,1.76-2.11,1.41-.98,2.63-.72,4.42-1.84.68-.43,1.15-.88,1.44-1.16Z"/>
        <path class="cls-10" d="M59.87,55.04c-2.05,3.41-5.47,4.86-6.86,5.45-2.33.99-2.94.65-5.39,1.85-1.79.88-3.13,1.87-3.99,2.59.55-.87,1.46-2.13,2.84-3.37,3.38-3.02,6.25-2.91,9.86-5.36,1.4-.95,3.26-2.52,5.01-5.2-.16.99-.53,2.48-1.47,4.04Z"/>
        <path class="cls-10" d="M54.85,9.76c-.55.91-1.47,1.3-1.84,1.46-.62.27-.79.17-1.44.5-.48.24-.84.5-1.07.69.15-.23.39-.57.76-.9.9-.81,1.67-.78,2.64-1.44.37-.25.87-.68,1.34-1.39-.04.27-.14.67-.39,1.08Z"/>
      </g>
      <path class="cls-11" d="M18.79,123.74c.17,0,.29.26.86,1.94.49,1.43.55,1.66.84,1.89.29.23.51.22,1.89.35,2.02.2,2.19.29,2.23.42.1.35-.84,1.01-2.08,1.87-.63.44-.88.57-1.03.93-.19.45-.02.8.24,1.88.35,1.41.53,2.12.3,2.28-.12.08-.34,0-1.91-1.1-1.16-.82-1.34-.98-1.72-1-.37-.01-.55.13-1.75.83-1.71,1-1.93,1.06-2.04.97-.11-.09-.12-.31.48-2.27.39-1.28.49-1.48.39-1.83-.1-.38-.31-.52-1.39-1.47-1.4-1.24-1.54-1.43-1.49-1.58.06-.17.37-.19,2.12-.22,1.55-.03,1.76-.03,2.05-.21.29-.19.37-.39,1-1.83.69-1.57.83-1.85,1.01-1.85Z"/>
      <path class="cls-11" d="M83.96,123.74c.17,0,.29.26.86,1.94.49,1.43.55,1.66.84,1.89.29.23.51.22,1.89.35,2.02.2,2.19.29,2.23.42.1.35-.84,1.01-2.08,1.87-.63.44-.88.57-1.03.93-.19.45-.02.8.24,1.88.35,1.41.53,2.12.3,2.28-.12.08-.34,0-1.91-1.1-1.16-.82-1.34-.98-1.72-1-.37-.01-.55.13-1.75.83-1.71,1-1.93,1.06-2.04.97-.11-.09-.12-.31.48-2.27.39-1.28.49-1.48.39-1.83-.1-.38-.31-.52-1.39-1.47-1.4-1.24-1.54-1.43-1.49-1.58.06-.17.37-.19,2.12-.22,1.55-.03,1.76-.03,2.05-.21.29-.19.37-.39,1-1.83.69-1.57.83-1.85,1.01-1.85Z"/>
      <g>
        <path class="cls-6" d="M24.78,79.05c-8.2,5.18-19.7,2.34-24.78-5.26,8.2-5.18,19.7-2.34,24.78,5.26Z"/>
        <path class="cls-5" d="M5.95,93.43c1.1-9.64,10.52-16.82,19.62-16.02-1.1,9.64-10.52,16.82-19.62,16.02Z"/>
        <path class="cls-6" d="M78.96,79c8.2,5.18,19.7,2.34,24.78-5.26-8.2-5.18-19.7-2.34-24.78,5.26Z"/>
        <path class="cls-5" d="M97.79,93.38c-1.1-9.64-10.52-16.82-19.62-16.02,1.1,9.64,10.52,16.82,19.62,16.02Z"/>
        <g>
          <path class="cls-12" d="M56.84,63.13c-.14-13.62-21.72-7.91-15.12,4-11.89-2.86-13.73,16.46-1.53,15.92-4.9,10.98,13.6,16.61,15.36,4.43,7.72,7.08,18.67-4.37,11.08-11.73,10.67-6.06-1.27-21.45-9.79-12.62Z"/>
          <path class="cls-9" d="M51.38,68.99c-3.5-5.66-11.08,2.18-5.31,5.49-5.69,1.81-1.59,10.35,3.38,7.04.72,5.83,9.88,3.51,7.54-2.03,5.02,1.01,6.7-6.54,1.67-7.71,2.93-5.23-5.95-8.65-7.28-2.8Z"/>
          <path class="cls-1" d="M54.12,74.88c.76,2.12-2.45,3.26-3.2,1.14-.76-2.12,2.45-3.26,3.2-1.14Z"/>
        </g>
        <g>
          <path class="cls-3" d="M75.64,72.53c-3.52-8.08-14.94.77-8,6.2-7.81,1.29-4.03,13.28,3.11,9.87-.15,7.79,12.3,6.46,10.27-1.24,6.39,2.27,10.03-7.32,3.65-9.79,4.83-6.31-6.17-12.47-9.02-5.05Z"/>
          <path class="cls-1" d="M85.09,83.75c-3.31-3.94-9.65-1.47-4.85-3.23,1.18-.43,2.7-.7,3.5-1.72.21-.27.21-.84-.24-.9-1.16-.16-1.72.18-5.62,2.03,3.86-3.59,4.67-4.33,5.04-5.36,1.39-3.79-6.65,4.93-6.4,5.01,4.99-8.72,3.9-10.76.45-3.46-2.09,4.43.34.4-2.9-3.12-.39-.42-.95.04-.87.51.18,1.14.61,2.17.95,3.27,1.42,4.56-1.85-1.46-4.64-3.8-.44-.37-1.24-.03-1.04.6,1.67,5.34,6.93,6.19,3.46,5.9-5.81-.49-7,1.54-.08,1.95-7.12,3.17-4.99,4.25.11,1.75,1.81-.89,1.63-.92,1.14-.36-3.07,3.49-2.04,5.57,1.62.86-.29,3.23-.83,4.58-.26,5.94.15.35.58.44.81.11.78-1.14.63-2.74.75-4.09.49-5.24,1.86,5.39,3.68,2.66.49-.74-.83-2.01-2.04-5.51,2.96.2,9.47,3.36,7.44.93Z"/>
          <path class="cls-4" d="M77.11,80.13c1.18,1.28-.76,3.06-1.94,1.78-1.18-1.28.76-3.06,1.94-1.78Z"/>
        </g>
        <g>
          <path class="cls-3" d="M28.74,72.52c-3.52-8.08-14.94.77-8,6.2-7.81,1.29-4.03,13.28,3.11,9.87-.15,7.79,12.3,6.46,10.27-1.24,6.39,2.27,10.03-7.32,3.65-9.79,4.83-6.31-6.17-12.47-9.02-5.05Z"/>
          <path class="cls-1" d="M38.19,83.74c-3.31-3.94-9.65-1.47-4.85-3.23,1.18-.43,2.7-.7,3.5-1.72.21-.27.21-.84-.24-.9-1.16-.16-1.72.18-5.62,2.03,3.86-3.59,4.67-4.33,5.04-5.36,1.39-3.79-6.65,4.93-6.4,5.01,4.99-8.72,3.9-10.76.45-3.46-2.09,4.43.34.4-2.9-3.12-.39-.42-.95.04-.87.51.18,1.14.61,2.17.95,3.27,1.42,4.56-1.85-1.46-4.64-3.8-.44-.37-1.24-.03-1.04.6,1.67,5.34,6.93,6.19,3.46,5.9-5.81-.49-7,1.54-.08,1.95-7.12,3.17-4.99,4.25.11,1.75,1.81-.89,1.63-.92,1.14-.36-3.07,3.49-2.04,5.57,1.62.86-.29,3.23-.83,4.58-.26,5.94.15.35.58.44.81.11.78-1.14.63-2.74.75-4.09.49-5.24,1.86,5.39,3.68,2.66.49-.74-.83-2.01-2.04-5.51,2.96.2,9.47,3.36,7.44.93Z"/>
          <path class="cls-4" d="M30.22,80.12c1.18,1.28-.76,3.06-1.94,1.78-1.18-1.28.76-3.06,1.94-1.78Z"/>
        </g>
      </g>
    </g>
  </g>
</svg>