<?xml version="1.0" encoding="UTF-8"?>
<svg id="Layer_2" xmlns="http://www.w3.org/2000/svg" viewBox="0 0 102.07 152.92">
  <defs>
    <style>
      .cls-1, .cls-2 {
        fill: #fff;
      }

      .cls-2 {
        stroke: #dbd6c6;
        stroke-miterlimit: 10;
        stroke-width: 2px;
      }

      .cls-3 {
        fill: #9fccad;
      }

      .cls-4 {
        fill: #75a081;
      }

      .cls-5 {
        fill: #ffeea4;
      }

      .cls-6 {
        fill: #3a3735;
      }

      .cls-7 {
        fill: #f9c44e;
      }

      .cls-8 {
        fill: #8db2ac;
      }

      .cls-9 {
        fill: #ffd7d7;
      }

      .cls-10 {
        fill: #d2b0ff;
      }

      .cls-11 {
        fill: #d0eae7;
      }

      .cls-12 {
        fill: #dbd6c6;
      }
    </style>
  </defs>
  <g id="_Ñëîé_1" data-name="Ñëîé_1">
    <g>
      <ellipse class="cls-2" cx="51.04" cy="109.5" rx="50.04" ry="42.43"/>
      <g>
        <path class="cls-12" d="M25.6,74.13c-.11.09-7.65,4.22-9.36,5.15-.54.4-7.21-4.82-11.09-11.4-1.97-3.33-6.12-23.54-4.57-24.65.7-.49,24.86,9.02,25.02,30.9Z"/>
        <path class="cls-1" d="M25.52,74.18c-1.91,1.04-6.77,3.74-9.28,5.1-2.42-1.81-5.47-4.65-7.93-8.8-1.65-2.8-5.15-19.89-3.85-20.8.77-.54,20.02,7.65,21.06,24.5Z"/>
        <path class="cls-9" d="M23.36,75.37c-.19.09-4.82,2.66-4.99,2.76-.91.48-5.46-5.73-7.08-9.1-1.12-2.34-3.68-11.54-2.17-12.42,1.51-.91,9.85,5.54,14.25,18.76Z"/>
      </g>
      <g>
        <path class="cls-12" d="M74.35,73.78c.11.09,7.65,4.22,9.36,5.15.54.4,7.21-4.82,11.09-11.4,1.97-3.33,6.12-23.54,4.57-24.65-.7-.49-24.86,9.02-25.02,30.9Z"/>
        <path class="cls-1" d="M74.43,73.83c1.91,1.04,6.77,3.74,9.28,5.1,2.42-1.81,5.47-4.65,7.93-8.8,1.65-2.8,5.15-19.89,3.85-20.8-.77-.54-20.02,7.65-21.06,24.5Z"/>
        <path class="cls-9" d="M76.59,75.02c.19.09,4.82,2.66,4.99,2.76.9.48,5.46-5.73,7.08-9.1,1.12-2.34,3.68-11.54,2.17-12.42-1.51-.91-9.85,5.54-14.25,18.76Z"/>
      </g>
      <path class="cls-6" d="M34.07,109.6c-1.44-1.5-3.35-2.33-5.37-2.35h-.06c-1.4,0-2.77.42-3.97,1.16-.49-.18-1.7-.73-2.43-2.05-.6-1.08-.58-2.13-.52-2.66.05-.41-.25-.78-.65-.82-.4-.05-.78.24-.82.65-.08.71-.1,2.11.7,3.55.68,1.24,1.67,1.96,2.42,2.36-.06.06-.13.12-.19.18-.32.34-.61.71-.86,1.1-.53-.06-1.48-.27-2.36-1.02-.81-.69-1.2-1.51-1.37-2.07-.12-.39-.54-.6-.93-.49-.39.12-.61.54-.49.93.24.75.74,1.84,1.83,2.76.91.77,1.87,1.11,2.59,1.27-.25.62-.41,1.26-.5,1.92-.52.08-1.32.1-2.2-.24-1.04-.4-1.66-1.12-1.93-1.51-.24-.34-.7-.41-1.03-.18-.33.24-.41.7-.18,1.03.37.53,1.21,1.49,2.61,2.04.76.29,1.48.39,2.08.39.23,0,.44-.02.63-.04.08.33.36.57.71.57.45-.02.76-.37.74-.78-.1-1.74.52-3.4,1.73-4.67,1.17-1.23,2.76-1.94,4.44-1.92,1.62.01,3.15.69,4.31,1.89,1.18,1.23,1.81,2.84,1.76,4.53-.01.41.31.75.72.76.39,0,.75-.31.76-.72.06-2.09-.71-4.08-2.17-5.6Z"/>
      <path class="cls-6" d="M83.54,112.19c-.33-.24-.8-.16-1.03.18-.28.39-.9,1.11-1.94,1.51-.88.34-1.68.32-2.2.24-.08-.66-.25-1.31-.5-1.93.95-.21,1.86-.63,2.59-1.26,1.09-.92,1.6-2.01,1.83-2.76.12-.39-.09-.81-.49-.93-.39-.12-.81.09-.93.49-.18.57-.56,1.38-1.38,2.07-.87.74-1.82.95-2.35,1.02-.26-.39-.54-.76-.87-1.1-.06-.06-.13-.12-.19-.18.76-.41,1.74-1.13,2.42-2.36.59-1.06.83-2.32.7-3.54-.04-.41-.42-.7-.82-.66-.41.04-.7.41-.66.82.06.53.07,1.59-.52,2.66-.73,1.32-1.94,1.87-2.43,2.05-1.22-.77-2.63-1.19-4.03-1.17-2.03.02-3.93.85-5.37,2.35-1.46,1.52-2.23,3.51-2.17,5.6.01.41.37.73.76.72.41-.01.73-.35.72-.76-.05-1.69.57-3.3,1.76-4.53,1.16-1.21,2.69-1.88,4.31-1.89,1.68,0,3.28.7,4.44,1.92,1.2,1.25,1.83,2.96,1.73,4.67-.02.41.29.76.7.78.39,0,.67-.24.75-.57.19.02.4.04.64.04.6,0,1.32-.09,2.07-.39,1.33-.51,2.15-1.39,2.61-2.04.24-.33.16-.8-.17-1.03Z"/>
      <g>
        <path class="cls-5" d="M53.23,6.18c-.18.1-.45.22-.78.3-.57.15-1.04.12-1.37.09-.39-.03-.97-.12-1.64-.4.03-.14.04-.2.05-.29.1-.65.25-1.54.49-2.6.38-1.61.7-3,1.12-3.24.03-.01.05-.03.08-.03.03-.01.04-.01.05-.01.68,0,1.26,2.54,1.44,3.38.01.06.54,2.65.57,2.8Z"/>
        <path class="cls-5" d="M54.12,11.03c-.48.3-1.47.79-2.78.78-1.32-.01-2.29-.51-2.8-.84-.16-.36-.5-1.26-.32-2.42.21-1.31.96-2.13,1.23-2.39.23.11.5.23.8.33,1.33.41,2.53-.09,2.98-.3.28.26.93.92,1.21,2,.36,1.4-.16,2.54-.31,2.85Z"/>
        <path class="cls-5" d="M54.62,17.17c-.17.09-.39.19-.65.28,0,0-.36.12-.75.22-2.26.57-4.28-.01-5.45-.48-.2-.6-.45-1.63-.34-2.91.14-1.57.77-2.71,1.13-3.27.43.25,1.45.77,2.84.75,1.35-.02,2.33-.53,2.76-.78.32.48,1.01,1.63,1.07,3.26.05,1.36-.36,2.41-.6,2.93Z"/>
        <path class="cls-5" d="M55.4,24.16c-.64.37-2.13,1.11-4.16,1.1-1.9-.02-3.3-.7-3.95-1.06-.3-.5-.86-1.59-.88-3.05-.04-2.08,1.02-3.53,1.36-3.96.57.31,1.84.89,3.55.86,1.57-.03,2.74-.57,3.31-.88.31.29,1.61,1.58,1.72,3.67.09,1.71-.67,2.93-.94,3.33Z"/>
        <path class="cls-5" d="M56.29,31.85c-.75.45-1.76.92-2.98,1.18-3.11.67-5.79-.39-7.21-1.14-.26-.57-.94-2.23-.53-4.33.34-1.72,1.25-2.85,1.68-3.33.52.39,1.77,1.2,3.56,1.33,2.42.18,4.15-1.03,4.61-1.37.41.5,1.41,1.89,1.57,3.94.14,1.78-.43,3.13-.72,3.72Z"/>
        <path class="cls-5" d="M57.37,40.27c-1.03.62-2.56,1.29-4.51,1.52-3.15.38-5.74-.63-7.23-1.43-.36-.49-1.29-1.91-1.3-3.94,0-2.47,1.38-4.1,1.73-4.5,1.21.55,3.32,1.27,5.96,1.08,1.82-.13,3.28-.67,4.28-1.14.33.29,2.06,1.86,2.2,4.46.11,2.03-.82,3.49-1.14,3.96Z"/>
        <path class="cls-5" d="M59.05,45.02c-.06,1.59-.69,2.77-1.05,3.34-1.17.6-3.26,1.48-6.01,1.64-3.29.19-5.82-.76-7.08-1.33-.38-.51-1.18-1.73-1.26-3.45-.13-2.74,1.66-4.56,1.97-4.86.84.53,3.1,1.79,6.21,1.68,2.74-.09,4.71-1.2,5.55-1.74.38.45,1.75,2.2,1.65,4.72Z"/>
        <path class="cls-5" d="M60.82,60.49c0,.22-.02,3.04-2,4.51-.06.05-.11.08-.14.1-.4.26-1.31.62-4.57.84-3.78.25-6.1,0-7.53-.21-2.62-.4-3.38-.85-3.87-1.26-.31-.25-1.68-1.43-1.88-3.35-.21-1.93.82-3.87,2.61-5.02,1.57.59,3.91,1.25,6.81,1.34,3.76.12,6.74-.78,8.49-1.47.3.28,2.07,1.92,2.08,4.52Z"/>
        <path class="cls-5" d="M58.75,55.96c-1.54.65-3.98,1.46-7.08,1.58-3.7.15-6.62-.75-8.28-1.41-.14-.14-1.67-1.79-1.21-4.12.47-2.34,2.55-3.26,2.73-3.34,1.29.53,3.18,1.14,5.5,1.26,3.34.15,6.01-.79,7.62-1.54.29.21,1.73,1.3,2.05,3.32.37,2.37-1.14,4.05-1.33,4.26Z"/>
        <g>
          <path class="cls-7" d="M51.4,6.82c-1.04.02-1.76-.51-1.95-.67.48.13,1.15.27,1.95.27.74,0,1.37-.12,1.83-.24-.21.16-.87.63-1.83.64Z"/>
          <path class="cls-7" d="M51.37,12.06c-1.55,0-2.58-.85-2.81-1.06.58.23,1.55.55,2.8.55,1.22,0,2.19-.3,2.76-.52-.25.22-1.24,1.03-2.75,1.04Z"/>
          <path class="cls-7" d="M47.79,17.17c.86.25,2.1.51,3.6.49,1.33-.02,2.43-.25,3.23-.49-.35.29-1.52,1.19-3.27,1.23-1.93.05-3.23-.96-3.56-1.23Z"/>
          <path class="cls-7" d="M51.37,25.87c-2.33.01-3.8-1.42-4.07-1.68.9.33,2.36.75,4.2.72,1.69-.03,3.04-.42,3.9-.74-.26.27-1.71,1.69-4.03,1.7Z"/>
          <path class="cls-7" d="M51.39,42.57c-3.17-.03-5.24-1.77-5.75-2.23,1.29.45,3.32,1,5.86.98,2.55-.01,4.58-.59,5.87-1.06-.47.43-2.65,2.33-5.98,2.3Z"/>
          <path class="cls-7" d="M46.12,31.87c1.16.37,2.88.78,4.97.79,2.21.01,4.01-.42,5.2-.81-.5.41-2.41,1.86-5.22,1.82-2.64-.04-4.43-1.37-4.96-1.79Z"/>
          <path class="cls-7" d="M50.88,58.49c-3.81-.05-6.47-1.73-7.43-2.4,1.91.47,4.41.9,7.36.92,3.16.02,5.83-.43,7.83-.92-.94.66-3.75,2.45-7.75,2.4Z"/>
          <path class="cls-7" d="M51.07,50.81c-3.2-.06-5.42-1.58-6.16-2.14,1.59.43,3.86.85,6.6.78,2.7-.07,4.93-.6,6.48-1.1-.65.55-3.19,2.52-6.92,2.45Z"/>
        </g>
      </g>
      <path class="cls-9" d="M22.13,123.57c.17,0,.29.26.86,1.94.49,1.43.55,1.66.84,1.89.29.23.51.22,1.89.35,2.02.2,2.19.29,2.23.42.1.35-.84,1.01-2.08,1.87-.63.44-.88.57-1.03.93-.19.45-.02.8.24,1.88.35,1.41.53,2.12.3,2.28-.12.08-.34,0-1.91-1.1-1.16-.82-1.34-.98-1.72-1-.37-.01-.55.13-1.75.83-1.71,1-1.93,1.06-2.04.97-.11-.09-.12-.31.48-2.27.39-1.28.49-1.48.39-1.83-.1-.38-.31-.52-1.39-1.47-1.4-1.24-1.54-1.43-1.49-1.58.06-.17.37-.19,2.12-.22,1.55-.03,1.76-.03,2.05-.21.29-.19.37-.39,1-1.83.69-1.57.83-1.85,1.01-1.85Z"/>
      <path class="cls-9" d="M80.3,123.57c.17,0,.29.26.86,1.94.49,1.43.55,1.66.84,1.89.29.23.51.22,1.89.35,2.02.2,2.19.29,2.23.42.1.35-.84,1.01-2.08,1.87-.63.44-.88.57-1.03.93-.19.45-.02.8.24,1.88.35,1.41.53,2.12.3,2.28-.12.08-.34,0-1.91-1.1-1.16-.82-1.34-.98-1.72-1-.37-.01-.55.13-1.75.83-1.71,1-1.93,1.06-2.04.97-.11-.09-.12-.31.48-2.27.39-1.28.49-1.48.39-1.83-.1-.38-.31-.52-1.39-1.47-1.4-1.24-1.54-1.43-1.49-1.58.06-.17.37-.19,2.12-.22,1.55-.03,1.76-.03,2.05-.21.29-.19.37-.39,1-1.83.69-1.57.83-1.85,1.01-1.85Z"/>
      <g>
        <path class="cls-4" d="M75.35,76.9c7.83,4.95,18.81,2.23,23.66-5.02-7.83-4.95-18.81-2.23-23.66,5.02Z"/>
        <path class="cls-3" d="M89.78,94.45c1.15-9.19-5.98-17.98-14.61-19.28-1.15,9.19,5.98,17.98,14.61,19.28Z"/>
        <path class="cls-4" d="M25.53,77.39c-8.17,4.36-18.93.85-23.23-6.74,8.17-4.36,18.93-.85,23.23,6.74Z"/>
        <path class="cls-3" d="M9.86,93.83c-.47-9.25,7.29-17.49,15.98-18.15.47,9.25-7.29,17.49-15.98,18.15Z"/>
        <g>
          <path class="cls-8" d="M59.72,73.72c-5.58-2.05-5.19-.29,1.06-3.93,12.69-7.4,10.6-11-2.1-3.59-6.54,3.82-5.16,5.03-2.57-1.84,5.19-13.74,1.31-15.22-3.89-1.47-2.83,7.48-.46,7.33-4.2-.19-6.54-13.15-10.27-11.3-3.72,1.85,3.56,7.15,4.98,5.64-2.02,3.13-13.83-4.96-15.24-1.05-1.4,3.91,7.17,2.57,6.61.26-.41,4.71-12.41,7.87-10.18,11.38,2.23,3.51,6.46-4.09,4.85-5.26,2.33,2.41-4.59,13.96-.64,15.26,3.95,1.3,2.41-7.34.63-7.43,3.37-2.36,6.86,12.69,10.75,11.14,3.66-1.98-2.51-4.64-3.37-3.63,2.29-1.55,13.79,5.06,15.23,1.16,1.43-3.9Z"/>
          <path class="cls-11" d="M55.24,69.76c4.22-3.68,11.88-13.15,10.31-14.5-1.41-1.22-9.68,7.06-13.26,13.06,1.27-6.3.96-18.45-1.01-18.5-1.84-.05-3.05,11.41-2.06,18.37-17.34-13.79-25.06-7.32-2.89,2.26-20.82,1.56-20.74,9.32.11,3.76-15.95,15.84-9.37,22,2.49,2.48-1.28,22.91,7.11,19.27,3.5-1.82,12.72,16.23,20.22,12.91,3.79-1.44,22.17,3.49,20.41-4.92-.98-3.68Z"/>
          <path class="cls-1" d="M52.57,71.16c.72,2.02-2.33,3.11-3.05,1.09-.72-2.02,2.33-3.11,3.05-1.09Z"/>
        </g>
        <g>
          <path class="cls-10" d="M78,75.58c3.87-2.19,9.02-4.64,7.16-7.32-2.49-3.58-7.01,3.21-8.74,5.66,1.68-4.16,4.17-9.27,1.04-10.2-5.29-1.58-3.13,12.78-3.24,10.93-.98-3.49-2.43-11.09-5.75-9.81-4.17,1.61,1.61,7.74,4.08,10.57-3-1.92-8.94-6.48-10.55-3.35-2.01,3.91,6.21,4.69,9.29,5.09-3.96.83-9.74,1.66-8.77,4.76,1.26,4.08,7.37-.74,9.87-2.62-2.2,2.73-7.28,8.08-4.37,10,3.67,2.42,5.32-5.61,6.17-9.15.37,3.6.56,10.53,3.89,9.87,3.64-.73.6-7.21-1.32-10.38,8.57,8.17,10,4.09,9.88,4.26,2.36-3.67-5.65-5.26-8.58-5.93,6.71.41,8.39.39,9.37-.73,1.44-1.64,1.41-5.96-9.43-1.66Z"/>
          <path class="cls-9" d="M76.86,77.08c0,2.55-3.86,2.55-3.86,0s3.86-2.55,3.86,0Z"/>
        </g>
        <g>
          <path class="cls-10" d="M30.29,76.33c3.87-2.19,9.02-4.64,7.16-7.32-2.49-3.58-7.01,3.21-8.74,5.66,1.68-4.16,4.17-9.27,1.04-10.2-5.29-1.58-3.13,12.78-3.24,10.93-.98-3.49-2.43-11.09-5.75-9.81-4.17,1.61,1.61,7.74,4.08,10.57-3-1.92-8.94-6.48-10.55-3.35-2.01,3.91,6.21,4.69,9.29,5.09-3.96.83-9.74,1.66-8.77,4.76,1.26,4.08,7.37-.74,9.87-2.62-2.2,2.73-7.28,8.08-4.37,10,3.67,2.42,5.32-5.61,6.17-9.15.37,3.6.56,10.53,3.89,9.87,3.64-.73.6-7.21-1.32-10.38,8.57,8.17,10,4.09,9.88,4.26,2.36-3.67-5.65-5.26-8.58-5.93,6.71.41,8.39.39,9.37-.73,1.44-1.64,1.41-5.96-9.43-1.66Z"/>
          <path class="cls-9" d="M29.15,77.84c0,2.55-3.86,2.55-3.86,0s3.86-2.55,3.86,0Z"/>
        </g>
      </g>
    </g>
  </g>
</svg>