<?xml version="1.0" encoding="UTF-8"?>
<svg id="Layer_2" xmlns="http://www.w3.org/2000/svg" viewBox="0 0 102.07 151.36">
  <defs>
    <style>
      .cls-1, .cls-2 {
        fill: #fff;
      }

      .cls-3 {
        fill: #fce170;
      }

      .cls-2 {
        stroke: #dbd6c6;
        stroke-miterlimit: 10;
        stroke-width: 2px;
      }

      .cls-4 {
        fill: #ffeea4;
      }

      .cls-5 {
        fill: #3a3735;
      }

      .cls-6 {
        fill: #f9c44e;
      }

      .cls-7 {
        fill: #ffd7d7;
      }

      .cls-8 {
        fill: #d2b0ff;
      }

      .cls-9 {
        fill: #f9bbbb;
      }

      .cls-10 {
        fill: #d0eae7;
      }

      .cls-11 {
        fill: #dbd6c6;
      }
    </style>
  </defs>
  <g id="_Ñëîé_1" data-name="Ñëîé_1">
    <g>
      <ellipse class="cls-2" cx="51.04" cy="107.94" rx="50.04" ry="42.43"/>
      <g>
        <path class="cls-11" d="M27.66,73.11c-.11.09-7.65,4.22-9.36,5.15-.54.4-7.21-4.82-11.09-11.4-1.97-3.33-6.12-23.54-4.57-24.65.7-.49,24.86,9.02,25.02,30.9Z"/>
        <path class="cls-1" d="M27.58,73.16c-1.91,1.04-6.77,3.74-9.28,5.1-2.42-1.81-5.47-4.65-7.93-8.8-1.65-2.8-5.15-19.89-3.85-20.8.77-.54,20.02,7.65,21.06,24.5Z"/>
        <path class="cls-7" d="M25.42,74.35c-.19.09-4.82,2.66-4.99,2.76-.9.48-5.46-5.73-7.08-9.1-1.12-2.34-3.68-11.54-2.17-12.42,1.51-.91,9.85,5.54,14.25,18.76Z"/>
      </g>
      <g>
        <path class="cls-11" d="M76.41,72.76c.11.09,7.65,4.22,9.36,5.15.54.4,7.21-4.82,11.09-11.4,1.97-3.33,6.12-23.54,4.57-24.65-.7-.49-24.86,9.02-25.02,30.9Z"/>
        <path class="cls-1" d="M76.49,72.81c1.91,1.04,6.77,3.74,9.28,5.1,2.42-1.81,5.47-4.65,7.93-8.8,1.65-2.8,5.15-19.89,3.85-20.8-.77-.54-20.02,7.65-21.06,24.5Z"/>
        <path class="cls-7" d="M78.65,74c.19.09,4.82,2.66,4.99,2.76.9.48,5.46-5.73,7.08-9.1,1.12-2.34,3.68-11.54,2.17-12.42-1.51-.91-9.85,5.54-14.25,18.76Z"/>
      </g>
      <path class="cls-3" d="M42.78,55.08l-.27.33c.16-.25.35-.49.53-.75-.05.15-.15.29-.25.42Z"/>
      <g>
        <path class="cls-9" d="M96.66,92.03c-.36.57-4.2,1.6-11.88,3.66-1.69.45-2.82.74-4.05.25-2.25-.9-2.51-3.48-4.3-7.72-2.31-5.48-5.64-10.14-6.25-9.88-.25.11-.07,1.05.41,3.06,2.25,9.53,4.11,12.53,2.65,14.38-1.03,1.29-3.26,1.57-4.37,1.57s-2.22.32-3.36-.36c-1.65-1.04-3.14-10.09-4.25-10.09-.52.02-.73,1.43-1.76,4.78-2.46,7.83-1.69,6.81-15.32,6.54-17.78-.35-16.96,2.23-18.85-6.91-.56-2.56-.76-4.83-1.44-4.95-.18-.03-.34.09-.43.17-1.5,1.18-2.36,3.74-3.04,5.24-.9,1.99-1.35,2.99-2.34,3.66-1.13.75-3.62.26-8.56-.75-1.91-.39-3.23-.72-3.81-1.81-.12-.24-.44-.93-.16-2.16,2.77-11.97,14.22-21.66,14.22-21.66,2.92-2.83,8.65-7.61,17.2-10,5.7-1.6,10.33-1.49,13.48-1.39,11.62.37,20.15,4.44,22.1,5.42,15.63,7.78,27.2,24.1,24.13,28.95Z"/>
        <path class="cls-8" d="M24.63,65.13c-3.64,5.83-7.23,12.54-10.38,20.16-1.38,3.34-2.56,6.62-3.58,9.74-.53-.09-1-.18-1.42-.25-.58-.13-1.09-.24-1.51-.33-.98-.24-1.54-.42-1.73-.64-2.96-3.4,4.38-16.89,15.05-25.85.96-.82,2.13-1.8,3.56-2.84Z"/>
        <path class="cls-3" d="M36.95,59.06c-2.85,4.11-5.78,9-8.38,14.65-2.04,4.42-3.58,8.67-4.78,12.67-.76.07-1.8,2.24-3.07,4.94-.11.23-.21.44-.21.44-.08.16-.19.42-.33.73-.55,1.3-.57,1.81-1.06,2.4-.33.4-.69.61-.82.68-.57.31-1.17.39-2.89.2-1.22-.13-2.14-.28-2.31-.31-.75-.12-1.76-.3-2.96-.53,1.04-3.85,2.44-8.03,4.34-12.38,2.94-6.73,6.42-12.47,9.94-17.29,1.02-.74,3.71-2.64,6.83-4.09,1.69-.79,3.38-1.39,3.53-1.44.85-.3,1.59-.52,2.16-.69Z"/>
        <path class="cls-8" d="M90.92,94.03c-.84.24-4.2,1.16-4.34,1.2-.66.17-1.69.56-3.16.8-.55.09-1.01.14-1.33.16-1.45-4-2.94-7.38-4.29-10.14-2.73-5.67-4.87-8.87-10.74-18.79-1.69-2.85-3.25-5.53-4.69-8,1.18.33,2.22.65,3.07.93,1.71.56,2.96,1.05,3.25,1.16,1.04.41,1.93.79,2.64,1.11,4.16,4.67,8.38,10.22,12.23,16.7,3.09,5.18,5.49,10.22,7.36,14.87Z"/>
        <path class="cls-10" d="M49.06,57.42c-2.08,5.39-4.23,12.38-5.49,20.71-1.17,7.74-1.26,14.59-.97,20.09-2.62.04-9.8.12-10.76.12.44-4.96,1.31-10.6,2.87-16.69,2.51-9.78,6.11-17.83,9.49-24.01.53-.05,1.08-.09,1.64-.13,1.12-.07,2.19-.1,3.22-.09Z"/>
        <path class="cls-3" d="M67.16,97.43c-.64-.02-1.16-.13-1.65-.44-1.13-.71-1.18-1.84-2.47-6.02-1.18-3.8-1.55-4.07-1.78-4.07-.38.02-.6.78-1.05,2.38-.2.67-.42,1.45-.71,2.4-.91,2.89-1.35,4.34-1.78,4.96-.93,1.35-2.51,1.74-5.05,1.78.54-4.17.95-8.64,1.15-13.38.42-10.28-.25-19.53-1.37-27.48.55.04,1.11.09,1.68.15,1.42.15,2.47.32,2.74.36.49.08,1.11.19,1.84.35,1.89,5.22,3.84,11.42,5.33,17.78,1.84,7.94,2.74,15.16,3.14,21.23Z"/>
        <path class="cls-10" d="M82.85,96.12c-.25.07-.66.16-1.17.13,0,0-.7-.04-1.37-.38-1.81-.89-4.12-7.62-4.12-7.62-1.94-5.63-5.38-9.9-5.89-9.67-.12.05-.15.36.49,2.94,1.02,4.14,2.16,8.38,2.16,8.38.85,3.07,1.26,4.63.62,5.6-.62.92-1.77,1.3-2.64,1.59-1.56.51-3.1.39-3.75.34-.34-.03-.61-.06-.8-.09-.89-10.6-2.87-22.12-6.58-34.17-.51-1.65-1.05-3.27-1.6-4.85,1.53.36,3.07.72,4.6,1.07,3.69,4.98,7.54,10.82,11.23,17.58,3.74,6.83,6.62,13.31,8.83,19.16Z"/>
        <path class="cls-8" d="M44.46,57.62c-2.93,5.2-6.11,12.02-8.6,20.29-2.31,7.74-3.38,14.74-3.85,20.43-1.01.05-1.84-.05-2.42-.16-.96-.18-1.82-.36-2.53-1.06-.21-.21-.37-.41-.5-.65-.24-.42-.58-1.98-1.24-5.14-.13-.58-.62-3.07-.73-3.58-.22-.93-.38-1.31-.69-1.36-.06,0-.17,0-.28.05-.08.03-.13.08-.17.11,1.53-4.4,3.39-9.11,5.63-14.06,2.16-4.76,4.39-9.1,6.6-13.02,2.27-.73,4.79-1.33,7.53-1.69.42-.06.84-.1,1.25-.15Z"/>
      </g>
      <path class="cls-5" d="M38.13,107.53c-.43.01-.77.38-.76.81.06,1.78-.61,3.48-1.88,4.77-1.26,1.28-2.9,2.01-4.7,1.95-1.76-.03-3.41-.77-4.63-2.08-1.23-1.32-1.85-3.03-1.74-4.81.03-.43-.3-.8-.74-.83-.43-.03-.8.3-.83.74-.02.29-.02.58,0,.86-.77.75-2.42,2.15-4.15,2.2-.41.02-.85,0-1.18-.28-.05-.04-.51-.45-.41-.92.09-.43.57-.64.57-.64.4-.17.59-.63.42-1.03-.17-.4-.63-.59-1.03-.42-.21.09-1.26.58-1.5,1.77-.21,1.03.35,1.93.94,2.43.69.58,1.48.65,1.99.65.09,0,.18,0,.25,0,1.74-.05,3.31-1.02,4.42-1.93.3,1.05.82,2.03,1.53,2.89-.4.99-1.33,2.83-2.87,3.48-.38.16-.8.31-1.21.17-.07-.02-.64-.23-.72-.7-.08-.44.3-.81.3-.81.31-.3.32-.8.01-1.11-.3-.31-.8-.32-1.11-.01-.16.16-.96,1-.75,2.2.18,1.04,1.03,1.67,1.76,1.91.3.1.58.14.85.14.65,0,1.18-.23,1.48-.36,1.74-.74,2.82-2.42,3.45-3.75,1.39,1.11,3.11,1.76,4.88,1.78.04,0,.08,0,.12,0,2.13,0,4.21-.88,5.72-2.42,1.57-1.6,2.4-3.7,2.33-5.92-.01-.43-.36-.76-.81-.76Z"/>
      <path class="cls-5" d="M87.75,109.67c-.24-1.19-1.29-1.69-1.5-1.77-.39-.16-.86.02-1.03.42-.17.4.02.86.42,1.03,0,0,.48.21.57.64.09.47-.36.87-.41.92-.33.28-.77.29-1.19.28-1.73-.05-3.38-1.44-4.15-2.2.01-.29.01-.57,0-.86-.03-.43-.41-.77-.83-.74-.43.02-.76.4-.74.83.1,1.78-.52,3.49-1.75,4.81-1.22,1.31-2.87,2.05-4.63,2.08-1.74.04-3.43-.66-4.69-1.95-1.27-1.29-1.94-2.98-1.88-4.77.01-.43-.33-.8-.76-.81-.45,0-.8.34-.81.76-.07,2.22.76,4.32,2.33,5.92,1.52,1.54,3.59,2.42,5.72,2.42.04,0,.08,0,.12,0,1.8-.03,3.49-.66,4.88-1.78.62,1.32,1.71,3.01,3.45,3.75.3.13.83.36,1.48.36.27,0,.55-.04.85-.14.73-.25,1.58-.88,1.76-1.92.22-1.23-.65-2.11-.75-2.21-.31-.3-.81-.29-1.1.02-.3.31-.29.81.01,1.11,0,0,.37.37.3.8-.08.47-.65.68-.72.7-.41.13-.82,0-1.21-.17-1.54-.66-2.47-2.5-2.87-3.48.71-.87,1.23-1.85,1.53-2.89,1.11.92,2.68,1.89,4.42,1.93.07,0,.15,0,.24,0,.51,0,1.31-.07,2-.65.59-.5,1.15-1.4.94-2.43Z"/>
      <g>
        <path class="cls-4" d="M55.38,65.97c5.36.09,5.33-1.3,5.75-4.53.33-2.57-.1-5.26-1.48-7.66.84-2.87.42-5.88-1.43-8.34.76-3.7.12-7.26-1.73-10.3,1.97-5.46-1.6-7.87-1.2-9.49.37-1.54.24-3.1-.29-4.41-2.02-5.11.34-2.7-1.06-6.8-.66-2.02-1.33-1.69-1.06-2.92.75-2.76-.68-3.8-1.66-8.21-1-4.71-1.45-4.27-2.47.54-1.91,2.16-.93,4.63-.93,4.81-1.61,1.37-1.8,3.66-.96,5.09-2.6,3.59-.45,4.95-1.34,6.61-2.04,3.71-.09,5.75-1.17,7.1-1.49,1.83-1.88,4.51-.53,7.18-1.92,2.48-2.03,5.42-1,7.62-1.49,2.05-1.74,4.94-.93,7.12-1.32,2.23-1.81,5.11-1.08,8.07-2.93,9.95,3.12,8.51,14.55,8.51Z"/>
        <g>
          <path class="cls-6" d="M51.71,6.2c-1.23-.39-2.25-1.25-2.93-2.35.14,1.7,1.53,2.73,2.93,2.35Z"/>
          <path class="cls-6" d="M52.71,12.15c-2.1-.36-3.81-1.7-4.86-3.51,0,1.4,2.04,4.17,4.86,3.51Z"/>
          <path class="cls-6" d="M53.86,19.28c-2.88-1.11-5.24-3.08-6.97-5.54.98,3.49,3.77,5.59,6.97,5.54Z"/>
          <path class="cls-6" d="M55.04,26.47c-3.42-1.66-6.49-3.98-9.09-6.8,1.81,4.12,5.31,6.51,9.09,6.8Z"/>
          <path class="cls-6" d="M56.5,35.14c-4.1-2.18-8.01-4.93-11.58-8.27,2.26,4.51,6.53,7.57,11.58,8.27Z"/>
          <path class="cls-6" d="M43.84,34.65c3.31,5.93,8.55,9.68,14.38,10.8-5.2-2.88-10.02-6.51-14.38-10.8Z"/>
          <path class="cls-6" d="M59.66,53.78c-6.83-1.82-12.61-6-16.81-11.51,3.45,7.15,9.87,11.34,16.81,11.51Z"/>
          <path class="cls-6" d="M61.02,62.16c-7.05-3.02-13.49-7.36-19.1-12.77,4.51,7.44,11.54,11.93,19.1,12.77Z"/>
          <path class="cls-6" d="M54.73,65.96c-5.17-1.88-9.85-4.8-13.89-8.5,3.2,5.24,8.28,8.29,13.89,8.5Z"/>
        </g>
      </g>
      <path class="cls-7" d="M21.65,126.58c-.43-.93-1.74-2-3.08-1.72-1.03.22-1.87,1.2-2.16,2.48-.29-1.28-1.12-2.26-2.16-2.48-1.34-.28-2.66.79-3.08,1.72-.89,1.95,1.19,5.29,5.24,8.36,4.04-3.06,6.13-6.41,5.24-8.36Z"/>
      <path class="cls-7" d="M91.35,126.58c-.43-.93-1.74-2-3.08-1.72-1.03.22-1.87,1.2-2.16,2.48-.29-1.28-1.12-2.26-2.16-2.48-1.34-.28-2.66.79-3.08,1.72-.89,1.95,1.19,5.29,5.24,8.36,4.04-3.06,6.13-6.41,5.24-8.36Z"/>
    </g>
  </g>
</svg>