<?xml version="1.0" encoding="UTF-8"?>
<svg id="Layer_2" xmlns="http://www.w3.org/2000/svg" viewBox="0 0 102.87 150.91">
  <defs>
    <style>
      .cls-1 {
        fill: #ddc7ff;
      }

      .cls-2 {
        fill: #ea6e6e;
      }

      .cls-3, .cls-4 {
        fill: #fff;
      }

      .cls-5 {
        fill: #fce170;
      }

      .cls-4 {
        stroke: #dbd6c6;
        stroke-miterlimit: 10;
        stroke-width: 2px;
      }

      .cls-6 {
        fill: #f97d7d;
      }

      .cls-7 {
        fill: #9fccad;
      }

      .cls-8 {
        fill: #75a081;
      }

      .cls-9 {
        fill: #ffeea4;
      }

      .cls-10 {
        fill: #3a3735;
      }

      .cls-11 {
        fill: #f9c44e;
      }

      .cls-12 {
        fill: #ffd7d7;
      }

      .cls-13 {
        fill: #d2b0ff;
      }

      .cls-14 {
        fill: #dbd6c6;
      }
    </style>
  </defs>
  <g id="_Ñëîé_1" data-name="Ñëîé_1">
    <g>
      <ellipse class="cls-4" cx="51.83" cy="107.48" rx="50.04" ry="42.43"/>
      <g>
        <path class="cls-14" d="M25.36,72.47c-.11.09-7.65,4.23-9.36,5.15-.54.4-7.21-4.82-11.09-11.4-1.97-3.33-6.12-23.54-4.57-24.65.7-.49,24.86,9.02,25.02,30.9Z"/>
        <path class="cls-3" d="M25.28,72.52c-1.91,1.04-6.77,3.74-9.28,5.1-2.42-1.81-5.47-4.65-7.93-8.8-1.65-2.8-5.15-19.89-3.85-20.8.77-.54,20.02,7.65,21.06,24.5Z"/>
        <path class="cls-12" d="M23.11,73.71c-.19.09-4.82,2.66-4.99,2.76-.91.48-5.46-5.73-7.08-9.1-1.12-2.34-3.68-11.54-2.17-12.42,1.51-.91,9.85,5.54,14.25,18.76Z"/>
      </g>
      <g>
        <path class="cls-14" d="M75.11,73.12c.11.09,7.65,4.22,9.36,5.15.54.4,7.21-4.82,11.09-11.4,1.97-3.33,6.12-23.54,4.57-24.65-.7-.49-24.86,9.02-25.02,30.9Z"/>
        <path class="cls-3" d="M75.19,73.17c1.91,1.04,6.77,3.74,9.28,5.1,2.42-1.81,5.47-4.65,7.93-8.8,1.65-2.8,5.15-19.89,3.85-20.8-.77-.54-20.02,7.65-21.06,24.5Z"/>
        <path class="cls-12" d="M77.35,74.36c.19.09,4.82,2.66,4.99,2.76.9.48,5.46-5.73,7.08-9.1,1.12-2.34,3.68-11.54,2.17-12.42-1.51-.91-9.85,5.54-14.25,18.76Z"/>
      </g>
      <g>
        <path class="cls-13" d="M92.95,86.63c-.04,1.56-.44,3.18-1.01,4.7-.73,1.95-1.78,3.96-2.15,4.64-.54,1-.65,1.1-.93,1.74-.57,1.31-1.19,2.74-.75,4.27.31,1.06,1.02,1.85,1.02,1.85.3.33.48.43.96.92.76.78,1.14,1.17,1.05,1.37-.33.69-4.17-.44-5.62-1.76-3.04-2.7-.86-6.12-2.81-9.46-3.56-6.14-14.58-.92-23.48-8.54-2.88-2.46-5.82-6.27-6.84-10.43-.23-.95-.31-1.87-.31-1.87-.03-.4-.07-1.19.04-2.17,0,0,.08-.93.35-1.83,1.3-4.42,5.58-8.36,10.65-8.9,4.29-.44,8.58,1.61,10.21,3.91.71,1.02,1.3,2.21,1.3,2.21.95,2.02.69,2.54,1.44,3.91.8,1.46,1.97,2.44,3.05,3.13,2.02,1.3,2.69.78,5.31,1.85,0,0,1.24.5,7.06,4.64,1.6,2.36,1.5,4.96,1.46,5.84Z"/>
        <path class="cls-1" d="M92.93,88.78c-.13.89-.34,1.53-.41,1.76-.11.36-.22.67-.32.93-.34.77-.72,1.26-1.38,2.52-2.28-5.52-4.83-7.24-6.86-7.72-3.33-.78-5.21,1.85-9.27.75-3.21-.88-5.33-3.41-7.31-5.77-3.19-3.81-2.86-5.59-4.85-6.85-1.66-1.06-4.52-1.55-9.92.86-.22-.87-.41-1.82-.46-2.8-.02-.24-.03-.5-.02-.75,2.46-1.21,4.61-2.01,6.31-2.55,5.32-1.67,7.29-1.17,8.47-.35.46.33.76.68,2.39,3.3,3.16,5.1,2.75,4.97,3.49,5.83,2.86,3.27,7.71,3.88,9.8,4.14,3.34.41,4.63-.29,6.36,1,.93.69,1.66,1.87,3.09,4.22.31.53.61,1.02.86,1.48Z"/>
        <path class="cls-13" d="M93.13,86.59c-.01,2-.47,3.56-.6,3.95-.11.36-.22.67-.32.93-.57-3.09-1.81-6.99-4.83-8.26-1.83-.77-2.74.1-5.86-.14-.49-.04-6.62-.58-10.49-4.68-3.28-3.48-1.94-6.33-4.39-8.24-1.94-1.51-5.85-2.1-14.56,2.28-.03-1.19.09-2.91.92-4.71,2.24-4.88,8.42-7.65,13.77-6.62,3.78.73,6.27,3.27,7.09,4.18,2.81,3.17,1.54,4.92,4.07,7.34,2.68,2.56,4.74,1.17,9.48,4.3,1.7,1.12,3.17,2.1,4.3,3.99,1.13,1.91,1.44,3.96,1.42,5.66Z"/>
        <path class="cls-1" d="M93.13,86.59c-2.09-4.85-4.51-6.52-6.44-7.11-2.1-.63-2.89.26-6.15-.6-.65-.17-5.04-1.17-7.58-4.69-1.48-2.06-.57-2.51-2.03-4.39-2.38-3.06-6.14-3.55-6.57-3.6-2.17-.23-3.76.32-5.82,1.04-2.85,1.01-4.97,2.41-6.35,3.48.08-.73.28-1.81.83-2.98,2.15-4.66,8.25-7.69,13.77-6.62,3.78.73,6.27,3.27,7.09,4.18,2.81,3.17,1.54,4.92,4.07,7.34,2.68,2.56,4.74,1.17,9.48,4.3,1.7,1.12,3.17,2.1,4.3,3.99,1.13,1.91,1.44,3.96,1.42,5.66Z"/>
        <path class="cls-13" d="M92.05,91.81c-.29.58-2.5,4.94-3.19,6.3.04-1.01-.01-2.64-.69-4.47-.15-.39-1.29-3.4-3.74-5.08-4.65-3.19-8.93,1.21-14.54-1.39-1.86-.86-3.64-2.46-5.26-5.35-1.91-3.37-2.23-8.69-12.24-7.69-.1-.03-.2-.06-.3-.1,0-.72,0-1.44.01-2.16,2.56-.77,6.43-1.47,9.88.28,4.89,2.49,4.14,6.47,8.05,10.59,5.72,6.04,15.48-.45,20.16,5,1.22,1.43,1.67,3.04,1.87,4.05Z"/>
        <path class="cls-1" d="M89.99,95.84c-.2.36-.49.91-.81,1.58-.16.33-.24.49-.31.67-.18.42-.56,1.29-.64,2.38-.04.45-.09,1.11.15,1.89.37,1.24,1.25,2,1.71,2.34-.47,0-1.12-.09-1.77-.46,0,0-.23-.14-.45-.31-2.74-2.08-1.73-7.42-2.22-9.07-.53-1.64-1.28-2.77-2.22-3.56-5.46-4.52-12.79.3-18.54-4.28-3.37-2.67-2.44-5.97-7.06-8.98-2.05-1.34-4.06-1.86-5.42-2.13-.14-.62-.25-1.24-.31-1.87-.02-.13-.01-.26-.03-.38,1.2-.55,4.13-.19,6.21.58,5.34,1.97,5.5,5.41,9.16,9.71,4.49,5.27,13.17-.26,18.93,4.73,2.33,2.02,3.24,4.89,3.63,7.15Z"/>
      </g>
      <g>
        <path class="cls-13" d="M60,81.93c-.32.67-.65,1.23-.93,1.67-.42.64-.79,1.11-1.03,1.41,0,0-.4.5-.83.97-3.64,3.97-7.1,4.62-7.1,4.62,0,0-2.32.43-4.02-.41-.28-.1-.6-.24-1.69-.85-.5-.28-1.18-.68-1.97-1.17.32-.68.78-1.45,1.47-2.13,2.33-2.3,5.58-2.26,8.29-2.49,2.04-.19,4.68-.61,7.8-1.61Z"/>
        <path class="cls-1" d="M60.84,79.92c-.35,1.04-.9,2.33-1.78,3.68-.54.83-1.09,1.52-1.61,2.09-1.53-.86-2.82-1.05-3.58-1.09-3.67-.22-6.66,2.29-8.27,3.63-.53.45-.94.84-1.19,1.09-.51-.39-1.2-.83-2.09-1.2-.59-.25-1.14-.4-1.62-.5.2-.47,3.72-8.37,11.64-9.4,3.99-.52,7.16.96,8.5,1.69Z"/>
        <path class="cls-13" d="M60.62,80.42c-6.79-2.31-10.24-.48-11.2.11-2.47,1.53-3.71,3.03-3.71,3.03-1.41,1.71-2.08,3.53-3.93,3.98-.48.12-.84.13-1.08.09-3.73-.6-7.84,5.04-12.95,5.61-1,.11-2.6.11-4.7-.74.42-1.42,1.26-3.43,3.1-4.9,3.45-2.77,7.35.6,11.56-2.2,1.58-1.05,3.34-3,3.91-3.63,1.4-1.55,1.61-2.11,2.63-3.1,2-1.95,4.2-2.73,5.24-3.1,5.53-1.95,11.13.29,12.2.74-.04.49-.11,1.02-.23,1.6-.21,1-.52,1.84-.83,2.51Z"/>
        <path class="cls-1" d="M61.67,76.43c-2.39-.69-7.39-1.74-12.46.26-.94.37-2.14.84-3.5,1.86-2.96,2.2-3.23,4.31-6.06,6.4-1.36,1.01-2.6,1.41-3.76,1.81-5.24,1.81-8.24.12-9.72,2.12-.39.52-.99,1.71-2.45,3.22-.2.21-.38.38-.49.49-.78-.22-1.78-.43-2.96-.46-.71-.02-1.35.02-1.91.09.52-.28,1.2-.76,1.61-1.56.44-.87.06-1.36.37-2.18.47-1.22,1.64-2.71,4.63-3.81.25-.09,1.07-.24,2.7-.54,2.3-.43,3.68-.66,4.14-.74.79-.14,4.25-.84,7.11-2.87,3.4-2.41,2.74-4.44,6.02-6.44,2.22-1.35,4.39-1.56,5.46-1.66,5.92-.51,10.26,3.13,11.26,4Z"/>
        <path class="cls-13" d="M61.65,76.53c-5.31-3.08-10.64-3.57-13.61-2.31-2.04.86-3.67,2.33-3.67,2.33-.5.71-1.25,1.69-2.3,2.71-.83.8-3.62,3.35-8.15,4.76-5.39,1.68-9.17.2-10.63,2.34-.83,1.21-.47,4.12-4.61,5.83-5.17,1.17-7.15,4.96-7.87,8.47-.63,3.08.49,6.51-.35,6.81-.51.18-1.37-.93-1.97-1.81-.78-9.57.93-12.67,2.73-13.68,1.51-.56,3.5-1.59,4.76-3.59,1.21-1.92.78-3.21,1.32-4.71,1.57-4.33,7.58-4.23,15.9-6.74,8.22-2.47,9.34-11.93,18.65-8.96,3.27,1.04,4.58,3.57,9.56,3.51.33,1.43.45,3.17.25,5.04Z"/>
        <path class="cls-1" d="M61.7,73.47c-5.29-2.57-13.54-5.6-18.22-2.04-1.92,1.46-3.64,4.46-3.56,4.3-5.71,9.97-20.96.76-21,10.54-.02,4.86-5.11,5.71-7.36,8.45-1.61,1.95-3.22,5.26-2.94,11.15-.72-.97-1.72-2.5-2.43-4.58-.35-1.03-1.6-4.81-.49-8.88.97-3.57,2.58-3.12,4.27-6.81,2.64-5.79-.2-9.35,3.04-13.07.34-.39,1.72-1.91,3.96-2.62,2.56-.81,3.8.21,6.73.19,4.17-.03,7.36-2.12,8.79-3.06,3.72-2.43,3.19-4.09,6.41-5.94,3.97-2.29,8.23-1.76,9.36-1.6.51.07,8.02,1.24,11.67,7.97,1.27,2.35,1.64,4.58,1.76,6.01Z"/>
        <path class="cls-13" d="M60.96,69.9c-24.7-15.26-18.78,2.99-31.07,4.74-4.82.66-12.66-2.87-14.31,7.14-.88,5.37-1.6,5.88-3.17,8.2-1.86,2.73-3.14,2.54-4.46,4.79-1.48,2.51-1.53,5.55-.85,8.65-5.54-11.25.97-14.58,2.41-18.03,2.07-5.05-.39-7.16,1.96-11.32,4.01-7.1,8.99-4.6,12.12-4.74,10.3-.39,10.9-5.93,13.9-8.11,7.77-5.66,21.57-.03,23.46,8.68Z"/>
      </g>
      <path class="cls-12" d="M23.23,126.03c-.43-.93-1.74-2-3.08-1.72-1.03.22-1.87,1.2-2.16,2.48-.29-1.28-1.12-2.26-2.16-2.48-1.34-.28-2.66.79-3.08,1.72-.89,1.95,1.19,5.29,5.24,8.36,4.04-3.06,6.13-6.41,5.24-8.36Z"/>
      <path class="cls-12" d="M89.68,126.03c-.43-.93-1.74-2-3.08-1.72-1.03.22-1.87,1.2-2.16,2.48-.29-1.28-1.12-2.26-2.16-2.48-1.34-.28-2.66.79-3.08,1.72-.89,1.95,1.19,5.29,5.24,8.36,4.04-3.06,6.13-6.41,5.24-8.36Z"/>
      <g>
        <path class="cls-9" d="M55.41,6.18c-.18.1-.45.22-.78.3-.57.15-1.04.12-1.37.09-.39-.03-.97-.12-1.64-.4.03-.14.04-.2.05-.29.1-.65.25-1.54.49-2.6.38-1.61.7-3,1.12-3.24.03-.01.05-.03.08-.03.03-.01.04-.01.05-.01.68,0,1.26,2.54,1.44,3.38.01.06.54,2.65.57,2.8Z"/>
        <path class="cls-9" d="M56.3,11.03c-.48.3-1.47.79-2.78.78-1.32-.01-2.29-.51-2.8-.84-.16-.36-.5-1.26-.32-2.42.21-1.31.96-2.13,1.23-2.39.23.11.5.23.8.33,1.33.41,2.53-.09,2.98-.3.28.26.93.92,1.21,2,.36,1.4-.16,2.54-.31,2.85Z"/>
        <path class="cls-9" d="M56.8,17.17c-.17.09-.39.19-.65.28,0,0-.36.12-.75.22-2.26.57-4.28-.01-5.45-.48-.2-.6-.45-1.63-.34-2.91.14-1.57.77-2.71,1.13-3.27.43.25,1.45.77,2.84.75,1.35-.02,2.33-.53,2.75-.78.32.48,1.01,1.63,1.07,3.26.05,1.36-.36,2.41-.6,2.93Z"/>
        <path class="cls-9" d="M57.58,24.16c-.64.37-2.13,1.11-4.16,1.09-1.9-.02-3.3-.7-3.95-1.06-.3-.5-.86-1.59-.88-3.05-.04-2.08,1.02-3.53,1.36-3.96.57.31,1.84.89,3.55.86,1.57-.03,2.74-.57,3.31-.88.31.29,1.61,1.58,1.72,3.67.09,1.71-.67,2.93-.94,3.33Z"/>
        <path class="cls-9" d="M58.47,31.85c-.75.45-1.76.92-2.98,1.18-3.11.67-5.79-.39-7.21-1.14-.26-.57-.94-2.23-.53-4.33.34-1.72,1.25-2.85,1.68-3.33.52.39,1.77,1.2,3.56,1.33,2.42.18,4.15-1.03,4.61-1.37.41.5,1.41,1.89,1.57,3.94.14,1.78-.43,3.13-.72,3.72Z"/>
        <path class="cls-9" d="M59.55,40.27c-1.03.62-2.56,1.29-4.51,1.52-3.15.38-5.74-.63-7.23-1.43-.36-.49-1.29-1.91-1.3-3.94,0-2.47,1.38-4.1,1.73-4.5,1.21.55,3.32,1.27,5.96,1.08,1.82-.13,3.28-.67,4.28-1.14.33.29,2.06,1.86,2.2,4.46.11,2.03-.82,3.49-1.14,3.96Z"/>
        <path class="cls-9" d="M61.23,45.02c-.06,1.59-.69,2.77-1.05,3.34-1.17.6-3.26,1.48-6.01,1.64-3.29.19-5.82-.76-7.08-1.33-.38-.51-1.18-1.73-1.26-3.45-.13-2.74,1.66-4.56,1.97-4.86.84.53,3.1,1.79,6.21,1.68,2.74-.09,4.71-1.2,5.55-1.74.38.45,1.75,2.2,1.65,4.72Z"/>
        <path class="cls-9" d="M63.01,60.49c0,.22-.02,3.04-2,4.51-.06.05-.11.08-.14.1-.4.26-1.31.62-4.57.84-3.78.25-6.1,0-7.53-.21-2.62-.4-3.38-.85-3.87-1.26-.31-.25-1.68-1.43-1.88-3.35s.82-3.87,2.61-5.02c1.57.59,3.91,1.25,6.81,1.34,3.76.12,6.74-.78,8.49-1.47.3.28,2.07,1.92,2.08,4.52Z"/>
        <path class="cls-9" d="M60.93,55.96c-1.54.65-3.98,1.46-7.08,1.58-3.7.15-6.62-.75-8.28-1.41-.14-.14-1.67-1.79-1.21-4.12.47-2.34,2.55-3.26,2.72-3.34,1.29.53,3.18,1.14,5.5,1.26,3.34.15,6.01-.79,7.62-1.54.29.21,1.73,1.3,2.05,3.32.37,2.37-1.14,4.05-1.33,4.26Z"/>
        <g>
          <path class="cls-11" d="M53.58,6.82c-1.04.02-1.76-.51-1.95-.67.48.13,1.15.27,1.95.27.74,0,1.37-.12,1.83-.24-.21.16-.87.63-1.83.64Z"/>
          <path class="cls-11" d="M53.55,12.06c-1.55,0-2.58-.85-2.81-1.06.58.23,1.55.55,2.8.55,1.22,0,2.19-.3,2.76-.52-.25.22-1.24,1.03-2.75,1.04Z"/>
          <path class="cls-11" d="M49.97,17.17c.86.25,2.1.51,3.6.49,1.33-.02,2.43-.25,3.23-.49-.35.29-1.52,1.19-3.27,1.23-1.93.05-3.23-.96-3.56-1.23Z"/>
          <path class="cls-11" d="M53.55,25.87c-2.33.01-3.8-1.42-4.07-1.68.9.33,2.36.75,4.2.72,1.69-.03,3.04-.42,3.9-.74-.26.27-1.71,1.69-4.03,1.7Z"/>
          <path class="cls-11" d="M53.57,42.57c-3.17-.03-5.24-1.77-5.75-2.23,1.29.45,3.32,1,5.86.98,2.55-.01,4.58-.59,5.87-1.06-.47.43-2.65,2.33-5.98,2.3Z"/>
          <path class="cls-11" d="M48.3,31.87c1.16.37,2.88.78,4.97.79,2.21.01,4.01-.42,5.2-.81-.5.41-2.41,1.86-5.22,1.82-2.64-.04-4.43-1.37-4.96-1.79Z"/>
          <path class="cls-11" d="M53.06,58.49c-3.81-.05-6.47-1.73-7.43-2.4,1.91.47,4.41.9,7.36.92,3.16.02,5.83-.43,7.83-.92-.94.66-3.75,2.45-7.75,2.4Z"/>
          <path class="cls-11" d="M53.26,50.81c-3.2-.06-5.42-1.58-6.16-2.14,1.59.43,3.86.85,6.6.78,2.7-.07,4.93-.6,6.48-1.1-.65.55-3.19,2.52-6.92,2.45Z"/>
        </g>
      </g>
      <g>
        <path class="cls-8" d="M47.41,60.3c.74.03,5.48.29,8.9,3.89-.51.46-3.87,3.39-9.18,3.18-.74-.03-5.48-.29-8.9-3.89.51-.46,3.87-3.39,9.18-3.18Z"/>
        <path class="cls-7" d="M53.71,73.15c-.49.56-3.67,4.09-8.62,4.48-.04-.69-.2-5.14,3.3-9.13.49-.56,3.67-4.09,8.62-4.48.04.69.2,5.14-3.3,9.13Z"/>
        <g>
          <path class="cls-2" d="M53.32,51.27c.1-.82.33-2.28,1.4-3.58.23-.28,1.77-2.1,3.19-1.79,1.39.3,2.54,2.6,2.16,5.66,2.92-3.37,5.8-5.09,6.77-4.4.95.66.36,3.78-1.48,7.36,5.5-1.56,6.66-.4,6.96.02,1.29,1.85-1.72,7.08-6.11,9.21-3.66,1.78-9.22,1.86-12.04-1.41-1.96-2.28-1.59-5.21-.86-11.07Z"/>
          <g>
            <path class="cls-5" d="M59.21,49.82c-.09-.82-.82-1.41-1.64-1.32-.82.09-1.41.82-1.32,1.64.06.54.39.97.85,1.18l-1.35,7.75c-.05.31.15.6.46.65.31.05.6-.15.65-.46l1.37-7.89c.63-.23,1.05-.86.97-1.56Z"/>
            <path class="cls-5" d="M68.38,53c-.72-.4-1.63-.13-2.02.59-.26.47-.23,1.02.02,1.46l-5.55,5.58c-.22.22-.22.58,0,.8.09.09.19.14.3.16.18.03.36-.02.5-.16l5.65-5.68c.65.17,1.35-.1,1.69-.72.4-.72.13-1.63-.59-2.02Z"/>
            <path class="cls-5" d="M63.75,49.71c-.8-.17-1.6.34-1.77,1.14-.11.53.07,1.04.43,1.39l-3.71,6.94c-.15.28-.04.62.23.77.06.03.11.05.17.06.23.04.48-.07.6-.29l3.78-7.07c.67-.02,1.27-.49,1.41-1.17.17-.8-.34-1.6-1.14-1.77Z"/>
          </g>
          <path class="cls-6" d="M49.49,56.47c.33,1.94,1.35,7.85,6.21,10.06,3.37,1.53,6.72.44,8.96-.29,5.6-1.83,10.51-6.46,9.76-8.11-.62-1.37-5.14-.74-7.73.06-2.4.74-4.14,1.93-5.21,2.79.46-.7,1.54-2.57,1.04-4.66-.12-.5-.3-1.29-.95-1.64-1.15-.62-2.81.64-3.19.92-1.39,1.06-1.94,2.53-2.15,3.33.14-1.5.19-4.49-1.48-7.48-.23-.4-2.35-4.13-3.88-3.74-1.6.41-1.99,5.16-1.37,8.75Z"/>
        </g>
      </g>
      <path class="cls-10" d="M34.88,109.19c-1.54-1.57-3.6-2.47-5.84-2.42-2.01.03-3.96.86-5.43,2.27-1.09-.21-3.09-.76-4.1-2.11-.25-.34-.49-.7-.46-1.13.01-.11.08-.68.51-.87.4-.18.86.1.86.1.37.23.85.12,1.08-.25.23-.37.11-.85-.25-1.08-.19-.12-1.21-.69-2.32-.2-.96.42-1.37,1.39-1.44,2.17-.09,1.06.49,1.83.76,2.21,1.06,1.42,2.82,2.15,4.22,2.52-.59.88-.99,1.84-1.2,2.86-.98.24-3.16.62-4.65-.3-.36-.22-.72-.47-.84-.88-.03-.11-.17-.67.15-1,.31-.31.82-.22.84-.22.42.08.84-.21.91-.63.08-.43-.21-.83-.63-.91-.22-.04-1.37-.2-2.23.66-.92.93-.65,2.18-.55,2.55.3,1.02,1.12,1.53,1.52,1.77,1.01.62,2.18.82,3.27.82.75,0,1.46-.1,2.05-.22,0,.14,0,.29,0,.43.02.42.37.74.78.74.48-.03.81-.4.78-.83-.1-1.78.52-3.49,1.75-4.81,1.22-1.32,2.87-2.05,4.63-2.08,1.77-.05,3.43.66,4.69,1.95,1.27,1.29,1.94,2.98,1.88,4.77-.01.43.33.8.76.81.45,0,.8-.34.81-.76.07-2.22-.76-4.32-2.33-5.92Z"/>
      <path class="cls-10" d="M84.07,110.57c-.85-.86-2.01-.7-2.23-.66-.43.08-.71.49-.63.91.08.43.5.71.91.63,0,0,.52-.09.83.22.35.35.17.96.16.99-.12.42-.48.67-.84.88-1.5.92-3.68.54-4.66.3-.21-1.02-.61-1.99-1.2-2.86,1.41-.37,3.16-1.1,4.22-2.52.28-.37.85-1.14.76-2.21-.03-.37-.24-1.64-1.44-2.16-1.12-.49-2.13.09-2.32.21-.37.23-.47.71-.25,1.08.23.37.71.48,1.08.25,0,0,.45-.28.85-.1.43.19.5.76.51.86.04.44-.2.8-.46,1.13-1.01,1.35-3.01,1.9-4.1,2.11-1.48-1.43-3.38-2.23-5.43-2.26-.04,0-.08,0-.12,0-2.13,0-4.21.88-5.72,2.42-1.57,1.6-2.4,3.7-2.33,5.92.02.43.4.74.81.76.43-.01.77-.38.76-.81-.06-1.78.61-3.48,1.88-4.77,1.26-1.28,2.92-2.01,4.7-1.95,1.76.03,3.4.77,4.63,2.08,1.23,1.32,1.85,3.03,1.75,4.81-.03.43.3.8.74.83.46,0,.8-.32.83-.74,0-.14,0-.29,0-.43.59.12,1.3.21,2.05.21,1.09,0,2.26-.2,3.27-.82.39-.24,1.21-.75,1.52-1.77.22-.74.2-1.8-.55-2.55Z"/>
    </g>
  </g>
</svg>