<?xml version="1.0" encoding="UTF-8"?>
<svg id="Layer_2" xmlns="http://www.w3.org/2000/svg" viewBox="0 0 105.46 144.42">
  <defs>
    <style>
      .cls-1, .cls-2 {
        fill: #fff;
      }

      .cls-2 {
        stroke: #dbd6c6;
        stroke-miterlimit: 10;
        stroke-width: 2px;
      }

      .cls-3 {
        fill: #f97d7d;
      }

      .cls-4 {
        fill: #9fccad;
      }

      .cls-5 {
        fill: #75a081;
      }

      .cls-6 {
        fill: #ffeea4;
      }

      .cls-7 {
        fill: #3a3735;
      }

      .cls-8 {
        fill: #bfddd7;
      }

      .cls-9 {
        fill: #f9c44e;
      }

      .cls-10 {
        fill: #ffd7d7;
      }

      .cls-11 {
        fill: #f9bbbb;
      }

      .cls-12 {
        fill: #d0eae7;
      }

      .cls-13 {
        fill: #dbd6c6;
      }
    </style>
  </defs>
  <g id="_Ñëîé_1" data-name="Ñëîé_1">
    <g>
      <ellipse class="cls-2" cx="51.82" cy="100.99" rx="50.04" ry="42.43"/>
      <g>
        <path class="cls-13" d="M25.36,72.83c-.11.09-7.65,4.22-9.36,5.15-.54.4-7.21-4.82-11.09-11.4-1.97-3.33-6.12-23.54-4.57-24.65.7-.49,24.86,9.02,25.02,30.9Z"/>
        <path class="cls-1" d="M25.28,72.88c-1.91,1.04-6.77,3.74-9.28,5.1-2.42-1.81-5.47-4.65-7.93-8.8-1.65-2.8-5.15-19.89-3.85-20.8.77-.54,20.02,7.65,21.06,24.5Z"/>
        <path class="cls-10" d="M23.11,74.07c-.19.09-4.82,2.66-4.99,2.76-.9.48-5.46-5.73-7.08-9.1-1.12-2.34-3.68-11.54-2.17-12.42,1.51-.91,9.85,5.54,14.25,18.76Z"/>
      </g>
      <g>
        <path class="cls-13" d="M80.11,73.49c.11.09,7.65,4.22,9.36,5.15.54.4,7.21-4.82,11.09-11.4,1.97-3.33,6.12-23.54,4.57-24.65-.7-.49-24.86,9.02-25.02,30.9Z"/>
        <path class="cls-1" d="M80.19,73.54c1.91,1.04,6.77,3.74,9.28,5.1,2.42-1.81,5.47-4.65,7.93-8.8,1.65-2.8,5.15-19.89,3.85-20.8-.77-.54-20.02,7.65-21.06,24.5Z"/>
        <path class="cls-10" d="M82.35,74.73c.19.09,4.82,2.66,4.99,2.76.9.48,5.46-5.73,7.08-9.1,1.12-2.34,3.68-11.54,2.17-12.42-1.51-.91-9.85,5.54-14.25,18.76Z"/>
      </g>
      <g>
        <path class="cls-6" d="M56.69,66.26c-.6.26-2.14.31-5.23.4-1.67.05-1.13-.04-3.37,0-3.07.05-3.98.18-5.02-.49-.6-.39-.9-.87-1.27-1.46-.66-1.07-.89-2.15-1.02-3.65-.19-2.16-.44-5.49,1.06-9.44.25-.67.5-1.2.66-1.53-.12-.98-.22-2.16-.21-3.5,0,0,.02-1.59.21-3.2.43-3.59,1.54-6.51,2.48-8.53-.12-.95-.2-2-.2-3.15.02-2.97.61-5.47,1.24-7.33.38-.91.76-1.79,1.14-2.66-.06-.71-.08-1.47-.05-2.29.11-2.93.9-5.35,1.67-7.09.4-3.85.91-6.91,1.31-9.02C50.46,1.41,50.79,0,51.22,0c.16,0,.51.19,1.3,3.45.54,2.2.84,4.01,1.01,5.19.14.27.27.56.39.86,1.06,2.62,1.09,5.17.83,7.17.75,1.15,2.16,3.69,2.11,7.09-.02,1.41-.29,2.6-.58,3.52.83,1.44,2.12,4.17,2.09,7.72-.01,1.34-.21,2.51-.45,3.47,1.29,3.05,2.29,6.91,1.89,11.26-.04.43-.09.86-.16,1.27.06.17.14.4.22.66,1.67,5.44.53,12.97-3.19,14.6Z"/>
        <path class="cls-9" d="M56.29,27.27c-.33,1.2-.86,1.95-1.26,2.4-1.76,1.99-4.06,1.63-7.5,3.49-1.15.62-2.01,1.27-2.53,1.7.86-1.7,1.88-2.62,2.62-3.13,2.09-1.45,3.9-1.06,6.55-2.74,1-.63,1.71-1.3,2.13-1.73Z"/>
        <path class="cls-9" d="M56.55,41.54c-1.77,2.95-4.73,4.2-5.93,4.71-2.01.86-2.54.56-4.66,1.6-1.55.76-2.71,1.62-3.45,2.24.47-.75,1.26-1.84,2.45-2.91,2.92-2.61,5.4-2.51,8.53-4.64,1.21-.82,2.82-2.18,4.33-4.49-.14.86-.46,2.15-1.27,3.49Z"/>
        <path class="cls-9" d="M54.76,16.67c-.23.81-.58,1.32-.85,1.62-1.19,1.34-2.74,1.1-5.06,2.36-.77.42-1.35.85-1.71,1.14.58-1.15,1.27-1.77,1.76-2.11,1.41-.98,2.63-.72,4.42-1.84.68-.43,1.15-.88,1.44-1.16Z"/>
        <path class="cls-9" d="M58.16,55.04c-2.05,3.41-5.47,4.86-6.86,5.45-2.33.99-2.94.65-5.39,1.85-1.79.88-3.13,1.87-3.99,2.59.55-.87,1.46-2.13,2.84-3.37,3.38-3.02,6.25-2.91,9.86-5.36,1.4-.95,3.26-2.52,5.01-5.2-.16.99-.53,2.48-1.47,4.04Z"/>
        <path class="cls-9" d="M53.15,9.76c-.55.91-1.47,1.3-1.84,1.46-.62.27-.79.17-1.44.5-.48.23-.84.5-1.07.69.15-.23.39-.57.76-.9.9-.81,1.67-.78,2.64-1.44.37-.25.87-.68,1.34-1.39-.04.27-.14.67-.39,1.08Z"/>
      </g>
      <path class="cls-7" d="M42.01,105.53c-.23-.34-.69-.43-1.03-.2l-3.63,2.45c-.21-.29-.44-.58-.69-.85-.34-.35-.7-.67-1.09-.95l2.28-3.47c.22-.34.13-.8-.21-1.03-.34-.23-.8-.13-1.03.21l-2.32,3.53c-.71-.33-1.48-.54-2.27-.63v-4.07c0-.41-.34-.74-.75-.74-.41,0-.73.33-.73.74v4.05c-.8.07-1.56.28-2.3.6l-2.27-3.46c-.23-.34-.69-.44-1.03-.21-.34.22-.44.68-.21,1.03l2.21,3.37c-.42.29-.81.62-1.17,1-.24.25-.46.53-.67.81l-3.5-2.37c-.34-.23-.8-.14-1.03.2-.23.34-.14.8.2,1.03l3.57,2.41c-.55,1.17-.82,2.47-.74,3.78.02.39.35.7.74.7.45-.03.76-.38.74-.79-.1-1.75.54-3.48,1.76-4.75,1.19-1.24,2.8-1.96,4.47-1.9,1.6.03,3.12.71,4.27,1.92,1.18,1.24,1.8,2.87,1.74,4.57-.01.41.31.75.72.77.48.04.75-.31.77-.72.04-1.23-.21-2.42-.71-3.51l3.71-2.51c.34-.23.43-.69.2-1.03Z"/>
      <path class="cls-7" d="M82.19,105.52c-.23-.34-.69-.43-1.03-.2l-3.5,2.37c-.21-.28-.42-.56-.67-.81-.36-.37-.75-.71-1.17-.99l2.21-3.37c.22-.34.13-.8-.21-1.03-.34-.23-.8-.13-1.03.21l-2.27,3.46c-.73-.32-1.5-.53-2.29-.6v-4.05c0-.41-.32-.74-.73-.74-.44-.06-.75.33-.75.74v4.07c-.79.09-1.55.3-2.27.63l-2.32-3.53c-.23-.34-.69-.44-1.03-.21-.34.22-.44.68-.21,1.03l2.28,3.47c-.38.28-.75.59-1.08.95-.25.27-.48.55-.69.85l-3.63-2.45c-.34-.23-.8-.14-1.03.2-.23.34-.14.8.2,1.03l3.71,2.51c-.5,1.09-.75,2.28-.71,3.51.01.4.34.72.74.72.43-.01.75-.36.74-.77-.06-1.7.56-3.32,1.74-4.57,1.15-1.21,2.66-1.89,4.27-1.92,1.68-.02,3.28.66,4.47,1.9,1.22,1.27,1.87,3.01,1.76,4.75-.02.41.29.76.7.78.43,0,.76-.3.78-.7.08-1.31-.19-2.61-.74-3.78l3.57-2.41c.34-.23.43-.69.2-1.03Z"/>
      <path class="cls-10" d="M22.6,121.93c0,2.77-2.24,5.01-5.01,5.01s-5.01-2.24-5.01-5.01,2.24-5.01,5.01-5.01,5.01,2.24,5.01,5.01Z"/>
      <path class="cls-10" d="M90.69,121.93c0,2.77-2.24,5.01-5.01,5.01s-5.01-2.24-5.01-5.01,2.24-5.01,5.01-5.01,5.01,2.24,5.01,5.01Z"/>
      <g>
        <g>
          <path class="cls-5" d="M44.05,82.56c-.04.07-.1.12-.18.16-.21.09-.45,0-.54-.21-1.01-2.3-2.17-4.54-3.46-6.67-4.86-8.06-11.63-14.83-20.12-20.15-.19-.12-.25-.37-.13-.56.12-.19.37-.25.56-.13,8.6,5.38,15.46,12.25,20.39,20.42,1.31,2.16,2.49,4.44,3.51,6.77.06.13.04.27-.03.38Z"/>
          <path class="cls-5" d="M21.64,56.35c-.17.29-1.13.06-1.98-.19-2.26-.67-10.41-3.1-10.18-6.24.06-.77.62-1.56,1.33-1.89,1.69-.78,4.4,1.78,9.84,6.91.38.36,1.16,1.11.99,1.41Z"/>
          <path class="cls-5" d="M28.02,61.46c-.28.11-.82-.58-1.27-1.21-1.2-1.71-5.54-7.85-3.65-9.91.46-.51,1.28-.75,1.96-.59,1.6.38,2.08,3.65,3.05,10.18.07.46.2,1.4-.09,1.52Z"/>
          <path class="cls-5" d="M28.48,61.5c0,.3-.84.55-1.6.73-2.03.49-9.34,2.25-10.55-.26-.3-.62-.22-1.47.18-2.03.95-1.34,4.16-.59,10.59.92.45.11,1.38.33,1.38.64Z"/>
          <path class="cls-5" d="M34.69,68.1c-.3.03-.63-.78-.89-1.52-.69-1.97-3.15-9.07-.78-10.53.58-.36,1.44-.36,2.04-.02,1.43.81.99,4.08.13,10.63-.06.46-.19,1.41-.5,1.44Z"/>
          <path class="cls-5" d="M35.46,68.47c0,.3-.86.52-1.62.68-2.04.42-9.4,1.95-10.54-.6-.28-.63-.17-1.48.24-2.03.99-1.31,4.18-.45,10.55,1.26.45.12,1.37.37,1.36.69Z"/>
          <path class="cls-5" d="M40.11,75.76c-.3,0-.56-.83-.75-1.59-.51-2.02-2.36-9.31.14-10.56.61-.31,1.47-.24,2.04.15,1.35.93.64,4.15-.8,10.6-.1.45-.31,1.38-.63,1.39Z"/>
          <path class="cls-5" d="M40.27,75.11c0,.3-.85.53-1.62.69-2.04.43-9.4,1.98-10.54-.56-.28-.62-.18-1.48.23-2.03.98-1.31,4.17-.47,10.56,1.22.45.12,1.37.37,1.37.68Z"/>
        </g>
        <g>
          <path class="cls-5" d="M59.92,77.34c.04.07.1.13.17.17.2.1.45.02.55-.18,1.15-2.23,2.45-4.4,3.86-6.45,5.35-7.74,12.53-14.09,21.33-18.86.2-.11.27-.36.16-.56-.11-.2-.36-.27-.55-.16-8.92,4.84-16.19,11.27-21.61,19.12-1.44,2.08-2.75,4.28-3.92,6.54-.06.13-.06.27,0,.38Z"/>
          <path class="cls-5" d="M83.9,52.57c.15.3,1.13.13,1.98-.06,2.3-.53,10.58-2.45,10.54-5.6,0-.77-.52-1.6-1.21-1.97-1.63-.88-4.5,1.51-10.24,6.29-.4.33-1.23,1.03-1.07,1.35Z"/>
          <path class="cls-5" d="M77.22,57.27c.27.13.86-.52,1.34-1.13,1.31-1.63,6.01-7.49,4.26-9.66-.43-.53-1.24-.83-1.92-.71-1.62.28-2.3,3.51-3.68,9.97-.1.45-.29,1.39,0,1.53Z"/>
          <path class="cls-5" d="M76.76,57.28c-.02.3.8.6,1.55.83,2,.61,9.18,2.82,10.55.39.34-.6.31-1.45-.05-2.04-.86-1.4-4.12-.84-10.63.26-.45.08-1.4.24-1.42.56Z"/>
          <path class="cls-5" d="M70.15,63.48c.29.05.68-.74.98-1.46.81-1.93,3.71-8.86,1.43-10.46-.56-.39-1.42-.45-2.04-.15-1.47.72-1.24,4.01-.78,10.6.03.46.11,1.41.41,1.47Z"/>
          <path class="cls-5" d="M69.36,63.81c-.01.3.82.58,1.57.78,2.01.55,9.27,2.52,10.56.05.32-.61.26-1.46-.12-2.04-.9-1.37-4.14-.71-10.61.6-.45.09-1.39.29-1.4.6Z"/>
          <path class="cls-5" d="M64.26,70.79c.3.03.61-.8.85-1.54.64-1.99,2.93-9.15.51-10.55-.59-.34-1.45-.33-2.04.03-1.41.84-.89,4.11.14,10.63.07.46.23,1.4.54,1.43Z"/>
          <path class="cls-5" d="M64.15,70.13c-.01.3.82.58,1.57.79,2.01.56,9.26,2.56,10.56.09.32-.61.27-1.46-.11-2.04-.9-1.37-4.14-.73-10.61.56-.45.09-1.39.28-1.4.6Z"/>
        </g>
        <path class="cls-4" d="M42.97,57.83c.45.71,3.25,5.32,2.06,10.83-.76-.18-5.65-1.46-8.86-6.56-.45-.71-3.25-5.32-2.06-10.83.76.18,5.65,1.46,8.86,6.56Z"/>
        <path class="cls-4" d="M62.03,86.7c.3.63,2.15,4.7.63,9.13-.61-.23-4.51-1.76-6.65-6.28-.3-.63-2.15-4.71-.63-9.13.61.23,4.51,1.76,6.65,6.28Z"/>
        <path class="cls-4" d="M75.31,69.11c-.49.5-3.65,3.66-8.33,3.79,0-.65.06-4.84,3.55-8.43.49-.5,3.65-3.66,8.33-3.79,0,.65-.06,4.84-3.55,8.43Z"/>
        <path class="cls-5" d="M93.9,89.58c-.6-.36-4.41-2.7-5.63-7.21.63-.15,4.72-1.07,9.03,1.49.6.36,4.41,2.7,5.63,7.21-.63.15-4.72,1.07-9.03-1.49Z"/>
        <path class="cls-5" d="M54.4,89.58c-.31.63-2.32,4.62-6.72,6.21-.21-.62-1.46-4.62.73-9.12.31-.63,2.32-4.62,6.72-6.21.21.62,1.46,4.62-.73,9.12Z"/>
        <path class="cls-5" d="M8.96,82.29c-.65-.26-4.78-1.97-6.69-6.24.6-.25,4.5-1.8,9.15.05.65.26,4.78,1.97,6.69,6.24-.6.25-4.5,1.8-9.15-.05Z"/>
        <g>
          <path class="cls-8" d="M37.6,78.43c-.92-.34-1.82-.63-2.64-.86,1.01-.44,2.15-1.02,3.34-1.72,3.45-2.01,5.94-4.17,5.56-4.82-.38-.65-3.48.46-6.93,2.47-1.16.68-2.21,1.37-3.08,2.02.47-.94.95-2.03,1.4-3.23,1.41-3.73,1.98-6.98,1.28-7.24-.7-.27-2.42,2.55-3.83,6.28-.49,1.3-.88,2.54-1.15,3.62-.38-1.1-.93-2.4-1.6-3.75-1.78-3.57-3.77-6.2-4.44-5.87-.67.33.22,3.5,2,7.08.64,1.29,1.31,2.45,1.93,3.4-.94-.45-2.05-.92-3.26-1.35-3.76-1.35-7.01-1.87-7.26-1.16-.25.71,2.59,2.37,6.35,3.72,1.23.44,2.4.79,3.44,1.04-1.09.5-2.37,1.2-3.71,2.05-3.37,2.14-5.78,4.39-5.38,5.02s3.46-.58,6.83-2.72c1.12-.71,2.13-1.43,2.97-2.1-.49,1.03-.99,2.29-1.44,3.68-1.25,3.79-1.68,7.06-.96,7.29.71.23,2.3-2.65,3.55-6.44.47-1.42.82-2.76,1.04-3.9.33.75.73,1.54,1.17,2.36,1.9,3.51,3.97,6.07,4.63,5.71.66-.36-.34-3.49-2.24-7.01-.42-.78-.85-1.5-1.26-2.16.83.39,1.76.78,2.76,1.14,3.75,1.37,7,1.92,7.26,1.21.26-.71-2.57-2.39-6.32-3.77Z"/>
          <path class="cls-12" d="M45.75,77.69c.05-.75-3.14-1.57-7.13-1.83-1.46-.09-2.82-.1-3.96-.03.93-.81,1.99-1.88,3.07-3.13,2.61-3.03,4.26-5.88,3.69-6.37-.57-.49-3.14,1.56-5.75,4.59-1.24,1.44-2.26,2.84-2.93,3.96.26-1.28.44-2.98.49-4.85.11-3.99-.4-7.24-1.16-7.26s-1.45,3.2-1.57,7.19c-.05,1.86.03,3.56.21,4.84-.99-.78-2.31-1.68-3.82-2.54-3.47-1.98-6.58-3.05-6.95-2.4-.37.65,2.14,2.79,5.6,4.77,1.16.66,2.29,1.22,3.28,1.65-1.01.08-2.15.22-3.35.43-3.93.69-7.01,1.85-6.88,2.59.13.74,3.42.78,7.36.09,1.06-.19,2.06-.41,2.95-.65-.83.82-1.75,1.87-2.68,3.06-2.45,3.15-3.96,6.08-3.37,6.54.59.46,3.06-1.72,5.51-4.87.85-1.1,1.59-2.16,2.16-3.11-.05.95-.07,2-.03,3.12.14,3.99.86,7.2,1.61,7.18s1.25-3.28,1.11-7.27c-.05-1.58-.2-3.03-.4-4.22.68.86,1.52,1.82,2.48,2.8,2.8,2.84,5.51,4.72,6.04,4.19.54-.53-1.3-3.26-4.11-6.1-.66-.67-1.31-1.28-1.94-1.83.95.15,2.01.27,3.14.34,3.98.26,7.25-.14,7.3-.89Z"/>
          <path class="cls-1" d="M32.92,76.75c.2.55-.09,1.16-.64,1.36s-1.16-.09-1.36-.64c-.2-.55.09-1.16.64-1.36.55-.2,1.16.09,1.36.64Z"/>
        </g>
        <g>
          <path class="cls-8" d="M81.34,78.11c-.92-.34-1.82-.63-2.64-.86,1.01-.44,2.15-1.02,3.34-1.72,3.45-2.01,5.94-4.17,5.56-4.82-.38-.65-3.48.46-6.93,2.47-1.16.68-2.21,1.37-3.08,2.02.47-.93.95-2.03,1.4-3.23,1.41-3.73,1.98-6.98,1.28-7.24s-2.42,2.55-3.83,6.28c-.49,1.3-.88,2.54-1.15,3.62-.38-1.1-.93-2.4-1.6-3.75-1.78-3.57-3.77-6.2-4.44-5.87-.67.33.22,3.5,2,7.08.64,1.29,1.31,2.45,1.93,3.4-.94-.46-2.05-.92-3.26-1.35-3.76-1.35-7.01-1.87-7.26-1.16s2.59,2.37,6.35,3.72c1.23.44,2.4.79,3.44,1.04-1.09.5-2.37,1.2-3.71,2.05-3.37,2.14-5.78,4.39-5.38,5.02.4.63,3.46-.58,6.83-2.72,1.12-.71,2.13-1.43,2.97-2.1-.49,1.03-.99,2.29-1.44,3.68-1.25,3.79-1.68,7.06-.96,7.29s2.3-2.65,3.55-6.44c.47-1.42.82-2.76,1.04-3.91.33.75.73,1.54,1.17,2.36,1.9,3.51,3.97,6.07,4.63,5.71.66-.36-.34-3.49-2.24-7.01-.42-.78-.85-1.5-1.26-2.16.83.39,1.76.78,2.76,1.14,3.75,1.38,7,1.92,7.26,1.21.26-.71-2.57-2.39-6.32-3.77Z"/>
          <path class="cls-12" d="M89.5,77.38c.05-.75-3.14-1.57-7.13-1.83-1.46-.09-2.82-.1-3.96-.03.93-.81,1.99-1.88,3.07-3.13,2.61-3.03,4.26-5.88,3.69-6.37-.57-.49-3.14,1.56-5.75,4.59-1.24,1.44-2.26,2.84-2.93,3.96.26-1.28.44-2.98.49-4.85.11-3.99-.4-7.24-1.16-7.26s-1.45,3.2-1.57,7.19c-.05,1.86.03,3.56.21,4.84-.99-.78-2.31-1.67-3.82-2.54-3.47-1.98-6.58-3.05-6.95-2.4-.37.65,2.14,2.79,5.6,4.77,1.16.66,2.29,1.22,3.28,1.65-1.01.08-2.15.22-3.35.43-3.93.69-7.01,1.85-6.88,2.59.13.74,3.42.78,7.36.09,1.06-.19,2.06-.41,2.95-.65-.83.82-1.75,1.87-2.68,3.06-2.45,3.15-3.96,6.08-3.37,6.54.59.46,3.06-1.72,5.51-4.87.85-1.1,1.59-2.16,2.16-3.11-.05.95-.07,2-.03,3.12.14,3.99.86,7.2,1.61,7.18.75-.03,1.25-3.28,1.11-7.27-.05-1.58-.2-3.03-.4-4.22.68.86,1.52,1.82,2.48,2.8,2.8,2.84,5.51,4.72,6.04,4.19.54-.53-1.3-3.26-4.11-6.1-.66-.67-1.31-1.28-1.94-1.83.95.15,2.01.27,3.14.34,3.98.26,7.25-.14,7.3-.89Z"/>
          <path class="cls-1" d="M76.66,76.43c.2.55-.09,1.16-.64,1.36-.55.2-1.16-.09-1.36-.64-.2-.55.09-1.16.64-1.36.55-.2,1.16.09,1.36.64Z"/>
        </g>
        <g>
          <path class="cls-11" d="M70.72,62.23c-1.49-4.18-6.09-6.35-10.26-4.86-1.2.43-2.24,1.12-3.07,1.99,0-.87-.15-1.75-.46-2.61-1.49-4.18-6.09-6.35-10.26-4.86-4.18,1.49-6.35,6.09-4.86,10.26.15.42.34.82.55,1.19-1.47-.35-3.05-.3-4.57.24-4.18,1.49-6.35,6.09-4.86,10.26,1.21,3.4,4.49,5.48,7.92,5.32-.81,1.82-.96,3.94-.24,5.97,1.49,4.18,6.09,6.35,10.26,4.86,2.9-1.04,4.84-3.57,5.25-6.43,2.12,1.95,5.23,2.69,8.13,1.65,4.18-1.49,6.35-6.09,4.86-10.26-.43-1.2-1.12-2.22-1.97-3.05,3.33-1.89,4.92-5.94,3.59-9.67Z"/>
          <path class="cls-10" d="M58.26,63.02c-1.68-1.37-4.15-1.12-5.52.56-.4.48-.65,1.04-.78,1.61-.22-.36-.51-.69-.85-.98-1.68-1.37-4.15-1.12-5.52.56-1.37,1.68-1.12,4.15.56,5.52.17.14.35.26.53.36-.7.22-1.35.64-1.85,1.26-1.37,1.68-1.12,4.15.56,5.52,1.37,1.12,3.26,1.16,4.66.23.12.97.59,1.89,1.41,2.56,1.68,1.37,4.15,1.12,5.52-.56.95-1.17,1.12-2.72.57-4.01,1.38.28,2.86-.2,3.82-1.36,1.37-1.68,1.12-4.15-.56-5.52-.48-.39-1.03-.65-1.6-.78.91-1.63.56-3.73-.94-4.95Z"/>
          <path class="cls-1" d="M54.68,71.04c.31.88-.14,1.85-1.02,2.16s-1.85-.14-2.16-1.02.14-1.85,1.02-2.16c.88-.31,1.85.14,2.16,1.02Z"/>
        </g>
        <g>
          <path class="cls-11" d="M27.69,81.04c-.52-.4-1.24-.62-2.67-.32-1.18.25-2.66.81-4.49,1.54,4.6-2.6,5.69-3.33,5.86-4.49.03-.19.12-.79-.23-1.28-.41-.59-1.21-.68-1.36-.7-1.64-.18-3.13,1.79-5.52,5.15,1.98-4.91,2.38-6.16,1.79-7.17-.1-.17-.4-.69-.97-.86-.69-.21-1.37.22-1.5.31-1.48.94-1.32,3.67-1.05,8.29,0-.02-.02-.06-.03-.1-1.62-5.74-2.06-7.07-3.2-7.53-.18-.07-.74-.3-1.3-.08-.67.26-.95,1.02-1,1.16-.59,1.64,1.19,3.7,4.21,7.16-4.93-3.15-6.14-3.85-7.29-3.44-.18.06-.75.27-1.02.8-.33.64-.03,1.39.03,1.53.62,1.55,3.11,1.94,7.29,2.47-5,1.05-6.23,1.42-6.74,2.46-.08.17-.35.72-.17,1.29.21.69.95,1.02,1.09,1.08,1.49.65,3.47-.72,6.68-3.14-3.6,4.48-4.4,5.6-4.12,6.77.04.19.19.77.68,1.1.6.4,1.38.18,1.53.14,1.65-.46,2.3-3.02,3.33-7.34.57,5.5.79,6.84,1.8,7.47.16.1.68.42,1.26.3.61-.12.99-.65,1.13-.89,0,0,.03-.04.05-.09.79-1.43-1.26-5.48-1.26-5.48-.22-.43-.53-1.02-.96-1.72.2.19,4.82,4.55,6.69,4.05.81-.22,1.1-.7,1.1-.7.39-.61.17-1.38.12-1.53-.46-1.58-2.85-2.22-6.88-3.14,5.29.32,6.61.3,7.38-.58.53-.6.51-1.19.51-1.19-.02-.71-.59-1.19-.77-1.33Z"/>
          <path class="cls-3" d="M19.63,83.44c0,.84-.68,1.52-1.52,1.52s-1.52-.68-1.52-1.52.68-1.52,1.52-1.52,1.52.68,1.52,1.52Z"/>
        </g>
        <g>
          <path class="cls-11" d="M99.08,79.68c-.52-.4-1.24-.62-2.67-.32-1.18.25-2.66.81-4.49,1.54,4.6-2.6,5.69-3.33,5.86-4.49.03-.19.12-.79-.23-1.28-.41-.59-1.21-.68-1.36-.7-1.64-.18-3.13,1.79-5.52,5.15,1.98-4.91,2.38-6.16,1.79-7.17-.1-.17-.4-.69-.97-.86-.69-.21-1.37.22-1.5.31-1.48.94-1.32,3.67-1.05,8.29,0-.02-.02-.06-.03-.1-1.62-5.74-2.06-7.07-3.2-7.53-.18-.07-.74-.3-1.3-.08-.67.26-.95,1.02-1,1.16-.59,1.64,1.19,3.7,4.21,7.16-4.93-3.15-6.14-3.85-7.29-3.44-.18.06-.75.27-1.02.8-.33.64-.03,1.39.03,1.53.62,1.55,3.11,1.94,7.29,2.47-5,1.05-6.23,1.42-6.74,2.46-.08.17-.35.72-.17,1.29.21.69.95,1.02,1.09,1.08,1.49.65,3.47-.72,6.68-3.14-3.6,4.48-4.4,5.6-4.12,6.77.04.19.19.77.68,1.1.6.4,1.38.18,1.53.14,1.65-.46,2.3-3.02,3.33-7.34.57,5.5.79,6.84,1.8,7.47.16.1.68.42,1.26.3.61-.12.99-.65,1.13-.89,0,0,.03-.04.05-.09.79-1.43-1.26-5.48-1.26-5.48-.22-.43-.53-1.02-.96-1.72.2.19,4.82,4.55,6.69,4.05.81-.22,1.1-.7,1.1-.7.39-.61.17-1.38.12-1.53-.46-1.58-2.85-2.22-6.88-3.14,5.29.32,6.61.3,7.38-.58.53-.6.51-1.19.51-1.19-.02-.71-.59-1.19-.77-1.33Z"/>
          <path class="cls-3" d="M91.02,82.08c0,.84-.68,1.52-1.52,1.52s-1.52-.68-1.52-1.52.68-1.52,1.52-1.52,1.52.68,1.52,1.52Z"/>
        </g>
      </g>
    </g>
  </g>
</svg>