<?xml version="1.0" encoding="UTF-8"?>
<svg id="Layer_2" xmlns="http://www.w3.org/2000/svg" viewBox="0 0 102.07 142.7">
  <defs>
    <style>
      .cls-1, .cls-2 {
        fill: #fff;
      }

      .cls-3 {
        fill: #fce170;
      }

      .cls-2 {
        stroke: #dbd6c6;
        stroke-miterlimit: 10;
        stroke-width: 2px;
      }

      .cls-4 {
        fill: #ffeea4;
      }

      .cls-5 {
        fill: #3a3735;
      }

      .cls-6 {
        fill: #998abc;
      }

      .cls-7 {
        fill: #f9c44e;
      }

      .cls-8 {
        fill: #ffd7d7;
      }

      .cls-9 {
        fill: #d2b0ff;
      }

      .cls-10 {
        fill: #f9bbbb;
      }

      .cls-11 {
        fill: #d0eae7;
      }

      .cls-12 {
        fill: #dbd6c6;
      }
    </style>
  </defs>
  <g id="_Ñëîé_1" data-name="Ñëîé_1">
    <g>
      <ellipse class="cls-2" cx="51.04" cy="99.28" rx="50.04" ry="42.43"/>
      <path class="cls-5" d="M42.04,102.64c-.41.01-.73.35-.72.76.05,1.69-.57,3.3-1.76,4.53-1.16,1.21-2.69,1.88-4.31,1.89-1.68,0-3.28-.7-4.44-1.92-1.21-1.27-1.83-2.93-1.73-4.67.02-.41-.29-.76-.7-.78-.42-.01-.71.26-.76.62-.48.34-1.53.94-2.94.85-1.22-.09-2.1-.67-2.52-1.01-.32-.26-.78-.21-1.04.11-.26.32-.21.78.11,1.04.55.45,1.72,1.22,3.35,1.34.14.01.28.01.41.01,1.11,0,2.03-.32,2.69-.65.09.59.26,1.17.48,1.72-.39.4-1.01.91-1.92,1.18-1.08.33-2.02.16-2.49.03-.4-.11-.81.12-.91.52-.11.39.12.8.52.91.42.12.96.22,1.6.22.52,0,1.1-.07,1.72-.26.97-.29,1.68-.79,2.2-1.25.25.39.54.75.86,1.09.18.19.36.36.55.53-.24.42-.62.91-1.19,1.32-.9.65-1.84.78-2.32.8-.41.02-.73.36-.71.77.02.4.35.71.74.71.82-.03,2.01-.25,3.16-1.08.72-.52,1.2-1.13,1.53-1.67,1.13.64,2.4,1,3.7,1h.06c2.03-.02,3.93-.85,5.37-2.35,1.46-1.52,2.23-3.51,2.17-5.6-.01-.41-.37-.7-.76-.72Z"/>
      <path class="cls-5" d="M81.81,105.46c.13,0,.27,0,.41-.01,1.63-.11,2.8-.89,3.35-1.34.32-.26.36-.73.1-1.04-.26-.32-.73-.36-1.04-.1-.42.34-1.29.92-2.52,1.01-1.4.09-2.46-.51-2.93-.85-.05-.37-.33-.63-.76-.62-.41.02-.72.37-.7.78.1,1.71-.53,3.42-1.73,4.67-1.16,1.22-2.76,1.92-4.39,1.92-1.67-.01-3.2-.69-4.36-1.89-1.18-1.23-1.81-2.84-1.76-4.53.01-.41-.31-.75-.72-.76-.42-.02-.75.31-.76.72-.06,2.09.71,4.08,2.17,5.6,1.44,1.5,3.35,2.33,5.37,2.35h.06c1.29,0,2.57-.35,3.69-.99.4.65.92,1.22,1.54,1.67,1.15.83,2.34,1.05,3.13,1.08.43,0,.76-.31.77-.71.02-.41-.3-.76-.71-.77-.48-.02-1.42-.15-2.32-.8-.57-.41-.94-.9-1.19-1.32.19-.17.38-.34.55-.53.32-.34.61-.71.86-1.09.52.46,1.23.95,2.2,1.25.61.19,1.2.26,1.72.26.63,0,1.18-.1,1.6-.22.39-.11.63-.52.52-.91-.11-.39-.51-.62-.91-.52-.57.16-1.46.28-2.48-.03-.91-.28-1.53-.78-1.92-1.18.22-.55.39-1.13.48-1.72.67.34,1.59.66,2.7.66Z"/>
      <g>
        <path class="cls-12" d="M34.59,73.38c-.11.09-7.65,4.22-9.36,5.15-.54.4-7.21-4.82-11.09-11.4-1.97-3.33-6.12-23.54-4.57-24.65.7-.49,24.86,9.02,25.02,30.9Z"/>
        <path class="cls-1" d="M34.51,73.43c-1.91,1.04-6.77,3.74-9.28,5.1-2.42-1.81-5.47-4.65-7.93-8.8-1.65-2.8-5.15-19.89-3.85-20.8.77-.54,20.02,7.65,21.06,24.5Z"/>
        <path class="cls-8" d="M32.35,74.62c-.19.09-4.82,2.66-4.99,2.76-.91.48-5.46-5.73-7.08-9.1-1.12-2.34-3.68-11.54-2.17-12.42,1.51-.91,9.85,5.54,14.25,18.76Z"/>
      </g>
      <g>
        <path class="cls-12" d="M69.34,74.03c.11.09,7.65,4.22,9.36,5.15.54.4,7.21-4.82,11.09-11.4,1.97-3.33,6.12-23.54,4.57-24.65-.7-.49-24.86,9.02-25.02,30.9Z"/>
        <path class="cls-1" d="M69.42,74.08c1.91,1.04,6.77,3.74,9.28,5.1,2.42-1.81,5.47-4.65,7.93-8.8,1.65-2.8,5.15-19.89,3.85-20.8-.77-.54-20.02,7.65-21.06,24.5Z"/>
        <path class="cls-8" d="M71.58,75.27c.19.09,4.82,2.66,4.99,2.76.91.48,5.46-5.73,7.08-9.1,1.12-2.34,3.68-11.54,2.17-12.42-1.51-.91-9.85,5.54-14.25,18.76Z"/>
      </g>
      <g>
        <path class="cls-10" d="M79.81,80.72c-.47,1.76-1.25,3.43-2.28,4.83-.12.19-.25.36-.38.53-1.8,2.23-4.25,3.71-6.86,4.65-.05.03-.11.05-.16.05-5.55,1.99-11.68,1.71-13.42,1.61-3.52-.17-6.54-.86-9.54-.73h-.17c-1.76.1-3.52.49-5.37,1.46-.6.32-1.78,1.18-4.14,2.93-1.69,1.23-2.98,2.23-4,3.03-3.18,2.49-3.71,3.19-5.5,4.27-1.43.87-6.75,4.05-13.08,3.21-.51-.08-1.01-.17-1.52-.28-.49-.11-4.12-1.05-7.27-3.97-.66-.62-1.27-1.32-1.84-2.1-.15-.17-.26-.34-.37-.51-.68-.99-1.22-2.1-1.61-3.13-.43-1.08-.68-2.1-.7-2.86-.03-.66.08-1.12.36-1.31,1.05-.69,3.47,3.25,6.8,2.93,2.74-.27,4.52-3.25,5.36-4.63,3.35-5.55,9.18-14.62,11.92-18.01,7.1-8.77,18.64-10.45,23.61-11.18,2.49-.38,6.55-.92,11.28-.34,2.66.34,5.5,1.03,8.41,2.32.34.15.67.3.99.45,2.77,1.35,6.41,3.13,8.45,6.86.13.22.25.47.36.71.07.15.15.3.2.45,1.15,2.77,1.2,5.9.47,8.77Z"/>
        <path class="cls-11" d="M69.34,63.48c-10.16.62-19.22-.21-29.12,4.91-9.33,4.83-14.93,12.48-20.4,21.1-2.85,4.52-7.12,9.46-13.08,8.79-1.76-.19-3.26-.79-4.44-1.71-.43-1.09-.68-2.1-.7-2.86-.04-.66.08-1.13.36-1.31,1.05-.69,3.47,3.24,6.8,2.93,2.74-.26,4.52-3.24,5.36-4.63,3.35-5.55,9.18-14.62,11.92-18.01,7.1-8.77,18.64-10.45,23.61-11.18,2.49-.37,6.56-.92,11.28-.34,2.66.34,5.51,1.03,8.41,2.32Z"/>
        <path class="cls-9" d="M78.78,70.79c-.32-.06-.65-.09-.97-.15-10.53-1.65-19.47-3.71-30.26.51-10.06,3.93-16.17,11.04-22.17,19.64-4.29,6.15-12.22,12.87-19.26,11.52-.66-.62-1.28-1.31-1.84-2.1-.15-.17-.26-.34-.37-.51-.67-.99-1.22-2.1-1.61-3.13-.43-1.09-.68-2.1-.7-2.86.37.06.73.22,1.05.49,10.83,8.81,18.85-9.86,24.53-16.26,4.46-5.04,10.08-9.2,16.17-12.07,5.08-2.4,11.28-4.16,17.58-4.7,2.66.34,5.51,1.03,8.41,2.32.34.15.67.3.99.45,2.77,1.35,6.41,3.13,8.45,6.86Z"/>
        <path class="cls-3" d="M79.81,80.72c-8.83-6.31-17.61-8.9-28.5-4.72-9.35,3.6-16.38,10.81-22.56,18.47-3.47,4.27-8.45,9.97-13.85,12.09-.51-.08-1.01-.17-1.52-.28-.49-.11-4.12-1.05-7.27-3.97-.66-.62-1.28-1.31-1.84-2.1.43-.06.86,0,1.31.19,11.47,5.02,19.92-12.44,26.34-18.74,4.98-4.87,10.76-9.18,17.24-11.84,8.94-3.69,20.33-4.18,28.63.82.45.24.9.54,1.33.86.07.15.15.3.2.45,1.14,2.77,1.2,5.9.47,8.77Z"/>
        <path class="cls-9" d="M77.53,85.56c-.11.19-.25.36-.38.53-1.8,2.23-4.26,3.71-6.86,4.65-.06.02-.11.03-.16.05-1.99-.98-4.8-2.04-8.2-2.38-2.05-.2-3.77-.09-4.69,0-3.82.39-7.08,1.57-10.06,3.26-.07.06-.17.09-.24.15,0-.06.03-.09.07-.15-1.76.09-3.52.49-5.37,1.46-.6.32-1.78,1.18-4.14,2.93-1.69,1.24-2.98,2.23-4,3.03.02-.17.06-.34.11-.52,6.24-15.74,30.07-22.69,43.92-13.01Z"/>
        <path class="cls-3" d="M70.29,90.73c-.05.03-.11.05-.16.05-5.55,1.99-11.68,1.71-13.42,1.61-3.52-.17-6.54-.86-9.54-.73-.07.06-.17.1-.24.15,0-.05.04-.09.07-.15.04-.07.1-.17.15-.24,4.03-5.15,16.31-4.59,23.14-.69Z"/>
      </g>
      <g>
        <path class="cls-4" d="M58.57,65.97c5.36.09,5.33-1.3,5.75-4.53.33-2.57-.1-5.26-1.48-7.66.84-2.87.42-5.88-1.43-8.34.76-3.7.12-7.26-1.73-10.3,1.97-5.46-1.6-7.87-1.2-9.49.37-1.54.24-3.1-.29-4.41-2.02-5.11.34-2.7-1.06-6.8-.66-2.02-1.33-1.69-1.06-2.92.75-2.76-.68-3.8-1.66-8.21-1-4.71-1.45-4.27-2.47.54-1.91,2.16-.93,4.63-.93,4.81-1.61,1.37-1.8,3.66-.96,5.09-2.6,3.59-.45,4.95-1.34,6.61-2.04,3.71-.09,5.75-1.17,7.1-1.49,1.83-1.88,4.51-.53,7.18-1.92,2.48-2.03,5.42-1,7.62-1.49,2.05-1.74,4.94-.93,7.12-1.32,2.23-1.81,5.11-1.08,8.07-2.93,9.95,3.12,8.51,14.55,8.51Z"/>
        <g>
          <path class="cls-7" d="M54.9,6.2c-1.23-.39-2.25-1.25-2.93-2.35.14,1.7,1.53,2.72,2.93,2.35Z"/>
          <path class="cls-7" d="M55.9,12.15c-2.1-.36-3.81-1.7-4.86-3.51,0,1.4,2.04,4.17,4.86,3.51Z"/>
          <path class="cls-7" d="M57.05,19.28c-2.88-1.11-5.24-3.08-6.97-5.54.98,3.49,3.77,5.59,6.97,5.54Z"/>
          <path class="cls-7" d="M58.23,26.47c-3.42-1.66-6.49-3.98-9.09-6.8,1.81,4.12,5.31,6.51,9.09,6.8Z"/>
          <path class="cls-7" d="M59.69,35.14c-4.1-2.18-8.01-4.93-11.58-8.27,2.26,4.51,6.53,7.57,11.58,8.27Z"/>
          <path class="cls-7" d="M47.03,34.65c3.31,5.93,8.55,9.68,14.38,10.8-5.2-2.88-10.02-6.51-14.38-10.8Z"/>
          <path class="cls-7" d="M62.85,53.78c-6.83-1.82-12.61-6-16.81-11.51,3.45,7.15,9.87,11.34,16.81,11.51Z"/>
          <path class="cls-7" d="M64.21,62.16c-7.05-3.02-13.49-7.36-19.1-12.77,4.51,7.44,11.54,11.93,19.1,12.77Z"/>
          <path class="cls-7" d="M57.91,65.96c-5.17-1.88-9.85-4.8-13.89-8.5,3.2,5.24,8.28,8.29,13.89,8.5Z"/>
        </g>
      </g>
      <path class="cls-8" d="M27.32,118.3c-.43-.93-1.74-2-3.08-1.72-1.03.22-1.87,1.2-2.16,2.48-.29-1.28-1.12-2.26-2.16-2.48-1.34-.28-2.66.79-3.08,1.72-.89,1.95,1.19,5.29,5.24,8.36,4.05-3.06,6.13-6.41,5.24-8.36Z"/>
      <path class="cls-8" d="M87.02,118.3c-.43-.93-1.74-2-3.08-1.72-1.03.22-1.87,1.2-2.16,2.48-.29-1.28-1.12-2.26-2.16-2.48-1.34-.28-2.66.79-3.08,1.72-.89,1.95,1.19,5.29,5.24,8.36,4.04-3.06,6.13-6.41,5.24-8.36Z"/>
      <g>
        <path class="cls-6" d="M52.2,58.62c1.59,0,2.87-1.29,2.87-2.87s-1.29-2.87-2.87-2.87-2.87,1.29-2.87,2.87,1.29,2.87,2.87,2.87Z"/>
        <path class="cls-6" d="M46.18,62.11c1.45,0,2.62-1.17,2.62-2.62s-1.17-2.62-2.62-2.62-2.62,1.17-2.62,2.62,1.17,2.62,2.62,2.62Z"/>
        <circle class="cls-6" cx="40.65" cy="61.71" r="2.62"/>
        <circle class="cls-6" cx="35.1" cy="63.6" r="2.36"/>
        <path class="cls-6" d="M30.85,67.85c1.05,0,1.89-.85,1.89-1.89s-.85-1.89-1.89-1.89-1.89.85-1.89,1.89.85,1.89,1.89,1.89Z"/>
        <path class="cls-6" d="M78.42,62.8c1.49-.91,2.4-1.9,2.2-2.54-.01-.04-.08-.23-.26-.32-.82-.42-2.65,1.8-2.78,1.96.02-.05.46-1.19-.03-1.6-.13-.11-.31-.15-.44-.14-.23.04-.71.36-.98,3.06-1.07-1.03-2.36-1.86-3.45-2.55-1.4-.89-2.65-1.48-3.86-1.97,1.09-.54,2.38-1.3,2.29-1.87-.03-.21-.18-.32-.18-.32-.45-.36-1.48.33-1.56.38,1.04-1.39,1.52-2.66,1.09-3.17-.03-.03-.16-.18-.37-.2-.92-.08-1.79,2.66-1.85,2.86,0-.06-.02-1.28-.62-1.48-.16-.05-.35-.03-.45.04-.2.12-.53.6.24,3.24-2.41-.87-4.84-1.58-8.24-3.58-.18-.11-.33-.2-.5-.31,1.12-.54,2.53-1.35,2.44-1.94-.03-.21-.18-.32-.18-.32-.45-.36-1.48.33-1.56.38,1.04-1.39,1.52-2.66,1.09-3.17-.03-.03-.16-.18-.37-.2-.92-.08-1.79,2.66-1.85,2.86,0-.06-.02-1.28-.62-1.48-.16-.05-.35-.03-.46.04-.19.11-.5.57.16,2.94-.55-.42-1.01-.84-1.46-1.35-1.14-1.29-2.03-2.94-3.12-4.95,3.48-3.6,3.36-4.59,3.15-4.9-.1-.16-.33-.32-.59-.36-.96-.14-1.81,1.51-1.85,1.59.05-.31.73-4.62-.58-5.13-.29-.11-.58,0-.63.03-.92.4-1.13,2.45-.66,5.04-.07-.12-1.01-1.76-1.86-1.57,0,0-.27.06-.45.32-.6.84,1.23,3.35,2.42,4.83-.03.05-.05.09-.08.14-1.09,2.01-1.98,3.67-3.13,4.96-.44.5-.91.93-1.46,1.35.66-2.37.35-2.83.16-2.94-.11-.06-.29-.09-.46-.04-.61.2-.62,1.42-.62,1.48-.06-.2-.93-2.94-1.85-2.86-.21.02-.34.17-.37.2-.43.51.05,1.78,1.09,3.17-.08-.05-1.11-.74-1.56-.38,0,0-.14.12-.18.32-.09.6,1.32,1.4,2.44,1.94-.17.1-.31.2-.5.31-3.4,2-5.83,2.7-8.24,3.58.77-2.63.44-3.12.24-3.23-.11-.06-.29-.09-.46-.04-.61.2-.62,1.42-.62,1.48-.06-.2-.93-2.94-1.85-2.86-.21.02-.34.17-.37.2-.43.51.05,1.78,1.09,3.17-.08-.05-1.11-.74-1.56-.38,0,0-.14.12-.18.32-.09.57,1.2,1.33,2.29,1.87-1.21.49-2.45,1.09-3.86,1.97-1.1.69-2.38,1.52-3.45,2.55-.27-2.7-.75-3.02-.98-3.06-.12-.02-.3.02-.44.14-.49.41-.05,1.55-.03,1.6-.13-.16-1.96-2.38-2.78-1.96-.18.09-.25.29-.26.32-.21.63.71,1.63,2.2,2.54-.09-.02-1.31-.27-1.59.23,0,0-.09.16-.04.36.14.59,1.73.81,2.97.89-.66.86-1.13,1.85-1.23,2.98-.1,1.12.17,2.08.46,2.77-.39.35-.55.91-.32,1.41.2.45.65.72,1.12.72.17,0,.34-.03.5-.11,7.41-3.34,15.61-5.16,23.72-5.26,8.55-.12,17.22,1.69,25.05,5.2.62.28,1.34,0,1.62-.62.22-.5.07-1.06-.32-1.4.27-.69.53-1.62.43-2.7-.11-1.14-.58-2.12-1.23-2.98,1.23-.09,2.83-.31,2.97-.89.05-.2-.04-.36-.04-.36-.28-.5-1.5-.25-1.59-.23ZM31.64,62.44c6.05-4.25,10.97-3.64,15.98-7.62,1.2-.95,2.96-2.61,4.57-5.4,1.61,2.79,3.37,4.45,4.57,5.4,5.01,3.98,9.93,3.37,15.98,7.62,1.28.89,3.08,2.34,3.54,4.62.17.84.12,1.59.02,2.16-5.66-2.38-11.7-3.93-17.82-4.55-.99-.59-2.1-1.34-3.23-2.31-.83-.71-1.56-1.46-1.72-1.63-.55-.57-1.01-1.1-1.36-1.52-.76.96-1.76,2.06-3.04,3.15-1.15.99-2.27,1.75-3.28,2.34-6.09.65-12.12,2.2-17.75,4.59-.11-.58-.17-1.35,0-2.22.46-2.29,2.26-3.73,3.54-4.62ZM51.51,64.35c-.81.01-1.62.05-2.43.09.33-.22.66-.45,1.01-.71.82-.62,1.52-1.24,2.11-1.82.59.58,1.28,1.2,2.11,1.82.34.25.67.48.99.7-1.26-.06-2.52-.1-3.78-.08Z"/>
        <path class="cls-6" d="M58.2,62.11c1.45,0,2.62-1.17,2.62-2.62s-1.17-2.62-2.62-2.62-2.62,1.17-2.62,2.62,1.17,2.62,2.62,2.62Z"/>
        <path class="cls-6" d="M63.74,64.33c1.45,0,2.62-1.17,2.62-2.62s-1.17-2.62-2.62-2.62-2.62,1.17-2.62,2.62,1.17,2.62,2.62,2.62Z"/>
        <circle class="cls-6" cx="69.29" cy="63.6" r="2.36"/>
        <path class="cls-6" d="M73.54,67.85c1.05,0,1.89-.85,1.89-1.89s-.85-1.89-1.89-1.89-1.89.85-1.89,1.89.85,1.89,1.89,1.89Z"/>
      </g>
    </g>
  </g>
</svg>