<?xml version="1.0" encoding="UTF-8"?>
<svg id="Layer_2" xmlns="http://www.w3.org/2000/svg" viewBox="0 0 107.1 149.65">
  <defs>
    <style>
      .cls-1 {
        fill: #f7faf5;
      }

      .cls-2, .cls-3 {
        fill: #fff;
      }

      .cls-4 {
        fill: #729dc4;
      }

      .cls-5 {
        fill: #fce170;
      }

      .cls-6 {
        fill: #ef9c9c;
      }

      .cls-3 {
        stroke: #dbd6c6;
        stroke-miterlimit: 10;
        stroke-width: 2px;
      }

      .cls-7 {
        fill: #c97d7d;
      }

      .cls-8 {
        fill: #9fccad;
      }

      .cls-9 {
        fill: #75a081;
      }

      .cls-10 {
        fill: #ffeea4;
      }

      .cls-11 {
        fill: #3a3735;
      }

      .cls-12 {
        fill: #bfddd7;
      }

      .cls-13 {
        fill: #f9c44e;
      }

      .cls-14 {
        fill: #ffd7d7;
      }

      .cls-15 {
        fill: #f9bbbb;
      }

      .cls-16 {
        fill: #dbd6c6;
      }

      .cls-17 {
        fill: #a6a3d1;
      }
    </style>
  </defs>
  <g id="_Ñëîé_1" data-name="Ñëîé_1">
    <g>
      <ellipse class="cls-3" cx="55.86" cy="106.22" rx="50.04" ry="42.43"/>
      <g>
        <path class="cls-16" d="M29.67,72.89c-.11.09-7.65,4.22-9.36,5.15-.54.4-7.21-4.82-11.09-11.4-1.97-3.33-6.12-23.54-4.57-24.65.7-.49,24.86,9.02,25.02,30.9Z"/>
        <path class="cls-2" d="M29.58,72.94c-1.91,1.04-6.77,3.74-9.28,5.1-2.42-1.81-5.47-4.65-7.93-8.8-1.65-2.8-5.15-19.89-3.85-20.8.77-.54,20.02,7.65,21.06,24.5Z"/>
        <path class="cls-14" d="M27.42,74.13c-.19.09-4.82,2.66-4.99,2.76-.91.48-5.46-5.73-7.08-9.1-1.12-2.34-3.68-11.54-2.17-12.42,1.51-.91,9.85,5.54,14.25,18.76Z"/>
      </g>
      <g>
        <path class="cls-16" d="M80.41,72.54c.11.09,7.65,4.22,9.36,5.15.54.4,7.21-4.82,11.09-11.4,1.97-3.33,6.12-23.54,4.57-24.65-.7-.49-24.86,9.02-25.02,30.9Z"/>
        <path class="cls-2" d="M80.5,72.59c1.91,1.04,6.77,3.74,9.28,5.1,2.42-1.81,5.47-4.65,7.93-8.8,1.65-2.8,5.15-19.89,3.85-20.8-.77-.54-20.02,7.65-21.06,24.5Z"/>
        <path class="cls-14" d="M82.66,73.78c.19.09,4.82,2.66,4.99,2.76.91.48,5.46-5.73,7.08-9.1,1.12-2.34,3.68-11.54,2.17-12.42-1.51-.91-9.85,5.54-14.25,18.76Z"/>
      </g>
      <g>
        <path class="cls-10" d="M60.79,65.97c5.36.09,5.33-1.3,5.75-4.53.33-2.57-.1-5.26-1.48-7.66.84-2.87.42-5.88-1.43-8.34.76-3.7.12-7.26-1.73-10.3,1.97-5.46-1.6-7.87-1.2-9.49.37-1.54.24-3.1-.29-4.41-2.02-5.11.34-2.7-1.06-6.8-.66-2.02-1.33-1.69-1.06-2.92.75-2.76-.68-3.8-1.66-8.21-1-4.71-1.45-4.27-2.47.54-1.91,2.16-.93,4.63-.93,4.81-1.61,1.37-1.8,3.66-.96,5.09-2.6,3.59-.45,4.95-1.34,6.61-2.04,3.71-.09,5.75-1.17,7.1-1.49,1.83-1.88,4.51-.53,7.18-1.92,2.48-2.03,5.42-1,7.62-1.49,2.05-1.74,4.94-.93,7.12-1.32,2.23-1.81,5.11-1.08,8.07-2.93,9.95,3.12,8.51,14.55,8.51Z"/>
        <g>
          <path class="cls-13" d="M57.12,6.2c-1.23-.39-2.25-1.25-2.93-2.35.14,1.7,1.53,2.72,2.93,2.35Z"/>
          <path class="cls-13" d="M58.11,12.15c-2.1-.36-3.81-1.7-4.86-3.51,0,1.4,2.04,4.17,4.86,3.51Z"/>
          <path class="cls-13" d="M59.27,19.28c-2.88-1.11-5.24-3.08-6.97-5.54.98,3.49,3.77,5.59,6.97,5.54Z"/>
          <path class="cls-13" d="M60.45,26.47c-3.42-1.66-6.49-3.98-9.09-6.8,1.81,4.12,5.31,6.51,9.09,6.8Z"/>
          <path class="cls-13" d="M61.91,35.14c-4.1-2.18-8.01-4.93-11.58-8.27,2.26,4.51,6.53,7.57,11.58,8.27Z"/>
          <path class="cls-13" d="M49.25,34.65c3.31,5.93,8.55,9.68,14.38,10.8-5.2-2.88-10.02-6.51-14.38-10.8Z"/>
          <path class="cls-13" d="M65.06,53.78c-6.83-1.82-12.61-6-16.81-11.51,3.45,7.15,9.87,11.34,16.81,11.51Z"/>
          <path class="cls-13" d="M66.43,62.16c-7.05-3.02-13.49-7.36-19.1-12.77,4.51,7.44,11.54,11.93,19.1,12.77Z"/>
          <path class="cls-13" d="M60.13,65.96c-5.17-1.88-9.85-4.8-13.89-8.5,3.2,5.24,8.28,8.29,13.89,8.5Z"/>
        </g>
      </g>
      <path class="cls-14" d="M30.02,128.44c0,2.77-2.24,5.01-5.01,5.01s-5.01-2.24-5.01-5.01,2.24-5.01,5.01-5.01,5.01,2.24,5.01,5.01Z"/>
      <path class="cls-14" d="M92.11,128.44c0,2.77-2.24,5.01-5.01,5.01s-5.01-2.24-5.01-5.01,2.24-5.01,5.01-5.01,5.01,2.24,5.01,5.01Z"/>
      <g>
        <path class="cls-9" d="M15.35,69.37c.43.64,3.11,4.78,2.18,9.84-.7-.15-5.21-1.17-8.28-5.75-.43-.64-3.11-4.78-2.18-9.84.7.15,5.21,1.17,8.28,5.75Z"/>
        <path class="cls-9" d="M45.14,85.15c-.46.62-3.43,4.55-8.51,5.4-.1-.71-.66-5.3,2.6-9.74.46-.62,3.43-4.55,8.52-5.4.1.71.66,5.3-2.6,9.74Z"/>
        <path class="cls-9" d="M95.86,85.12c.5.58,3.68,4.36,3.37,9.5-.72-.06-5.31-.53-8.92-4.69-.5-.58-3.68-4.36-3.37-9.5.72.06,5.31.53,8.92,4.69Z"/>
        <path class="cls-8" d="M98.37,82.83c-.76.12-5.65.79-9.84-2.21.43-.57,3.28-4.21,8.73-5.04.76-.12,5.65-.79,9.84,2.21-.43.57-3.28,4.21-8.73,5.04Z"/>
        <path class="cls-8" d="M65.25,81.49c.43.64,3.11,4.78,2.18,9.84-.7-.15-5.21-1.17-8.28-5.75-.43-.64-3.11-4.78-2.18-9.84.7.15,5.21,1.17,8.28,5.75Z"/>
        <path class="cls-8" d="M9.84,83.39c-.76.12-5.65.79-9.84-2.21.43-.57,3.28-4.21,8.73-5.04.76-.12,5.65-.79,9.84,2.21-.43.57-3.28,4.21-8.73,5.04Z"/>
        <g>
          <path class="cls-9" d="M15.24,45.3c-.26-.1-.39-.4-.29-.67.1-.26.4-.39.67-.29,3.15,1.26,6.92,3.07,10.86,5.62-.47-.87-.92-1.75-1.33-2.65-.57-1.25-1.1-2.54-1.55-3.84-.09-.27.05-.56.31-.65.27-.12.56.04.66.31.45,1.27.96,2.53,1.52,3.75.68,1.49,1.46,2.96,2.3,4.37,2.5,1.75,5.04,3.81,7.51,6.23-.57-1.39-.98-2.83-1.19-4.33-.27-1.87-.24-3.76.07-5.64.05-.28.31-.47.59-.42.28.05.47.31.42.59-.3,1.77-.32,3.56-.07,5.32.34,2.42,1.18,4.71,2.49,6.8.03.04.04.09.05.13.92,1.01,1.82,2.06,2.7,3.18.98,1.24,1.9,2.53,2.77,3.85-.16-.97-.26-1.94-.29-2.92-.09-2.28.15-4.56.71-6.78.07-.28.35-.44.62-.37.28.07.44.35.37.62-.54,2.13-.76,4.31-.68,6.49.07,1.86.37,3.71.89,5.5,0,.03,0,.05,0,.08,1.58,2.68,2.96,5.49,4.11,8.42.1.26-.03.56-.29.67-.29.09-.57-.04-.67-.29-1.1-2.81-2.42-5.51-3.92-8.09-.04-.01-.09-.02-.13-.05-1.32-.87-2.75-1.49-4.26-1.85-2.9-.69-5.45-.28-7.13.23-.06.02-.14.03-.19.06-.27.08-.55-.07-.64-.34-.09-.27.07-.56.34-.64,1.81-.58,4.63-1.08,7.86-.3,1.07.26,2.1.65,3.08,1.14-1.04-1.65-2.16-3.25-3.37-4.78-.91-1.16-1.85-2.26-2.81-3.3-.05,0-.1.01-.15,0-1.94-.73-3.96-1.18-6.03-1.34-2.06-.16-4.14-.02-6.16.4-.28.06-.55-.12-.61-.4-.06-.28.12-.55.4-.61,2.12-.45,4.29-.59,6.45-.42,1.58.12,3.14.41,4.65.85-2.34-2.37-4.75-4.42-7.15-6.17-1.56-.34-3.16-.55-4.75-.62-1.94-.1-3.9,0-5.83.3-.28.04-.54-.15-.58-.43-.04-.28.15-.54.43-.58,2-.3,4.03-.41,6.04-.31.91.05,1.81.14,2.71.27-4.17-2.8-8.2-4.76-11.53-6.08Z"/>
          <path class="cls-9" d="M13.88,45.29c.26.86,1.16,1.35,2.02,1.09.86-.26,1.35-1.16,1.09-2.02s-1.16-1.35-2.02-1.09c-.86.26-1.35,1.16-1.09,2.02Z"/>
          <path class="cls-9" d="M16.54,52.4c.26.86,1.16,1.35,2.02,1.09.86-.26,1.35-1.16,1.09-2.02-.26-.86-1.16-1.35-2.02-1.09-.86.26-1.35,1.16-1.09,2.02Z"/>
          <path class="cls-9" d="M23.34,59.47c.26.86,1.16,1.35,2.02,1.09.86-.26,1.35-1.16,1.09-2.02-.26-.86-1.16-1.35-2.02-1.09-.86.26-1.35,1.16-1.09,2.02Z"/>
          <path class="cls-9" d="M31.18,68.65c.26.86,1.16,1.35,2.02,1.09.86-.26,1.35-1.16,1.09-2.02-.26-.86-1.16-1.35-2.02-1.09-.86.26-1.35,1.16-1.09,2.02Z"/>
          <path class="cls-9" d="M43.09,57.85c.26.86,1.16,1.35,2.02,1.09.86-.26,1.35-1.16,1.09-2.02-.26-.86-1.16-1.35-2.02-1.09-.86.26-1.35,1.16-1.09,2.02Z"/>
          <path class="cls-9" d="M33.73,48.06c.26.86,1.16,1.35,2.02,1.09.86-.26,1.35-1.16,1.09-2.02-.26-.86-1.16-1.35-2.02-1.09-.86.26-1.35,1.16-1.09,2.02Z"/>
          <path class="cls-9" d="M22.53,43.77c.26.86,1.16,1.35,2.02,1.09.86-.26,1.35-1.16,1.09-2.02s-1.16-1.35-2.02-1.09c-.86.26-1.35,1.16-1.09,2.02Z"/>
        </g>
        <g>
          <path class="cls-9" d="M91.72,46.63c.25-.09.38-.37.3-.62-.09-.25-.37-.39-.62-.3-3.03,1.07-6.66,2.65-10.47,4.91.48-.81.93-1.63,1.35-2.46.59-1.16,1.13-2.36,1.61-3.57.1-.25-.02-.53-.27-.63-.25-.13-.53.02-.63.27-.47,1.18-1,2.35-1.57,3.49-.7,1.38-1.49,2.74-2.34,4.04-2.43,1.57-4.91,3.42-7.32,5.61.59-1.29,1.03-2.64,1.29-4.05.32-1.76.37-3.55.14-5.33-.03-.27-.28-.45-.54-.42-.27.03-.45.28-.42.54.21,1.68.17,3.38-.13,5.03-.41,2.27-1.29,4.41-2.6,6.34-.03.04-.04.08-.05.12-.9.92-1.8,1.88-2.67,2.9-.97,1.14-1.89,2.32-2.76,3.54.18-.91.31-1.83.39-2.75.17-2.15.03-4.32-.42-6.44-.06-.26-.31-.43-.58-.38-.26.06-.43.31-.38.58.43,2.03.56,4.1.4,6.16-.14,1.75-.49,3.49-1.04,5.17,0,.02,0,.05,0,.07-1.59,2.48-3,5.09-4.19,7.81-.11.25,0,.53.25.64.27.1.54-.02.64-.25,1.15-2.61,2.49-5.12,4.01-7.5.04-.01.08-.02.12-.04,1.28-.77,2.66-1.31,4.1-1.6,2.76-.55,5.16-.06,6.73.48.06.02.13.04.17.06.25.09.52-.05.61-.3.09-.25-.04-.53-.29-.62-1.69-.62-4.33-1.19-7.42-.57-1.02.2-2.01.53-2.96.96,1.05-1.52,2.16-2.99,3.36-4.4.91-1.07,1.84-2.07,2.78-3.02.05,0,.09.02.14,0,1.86-.62,3.79-.97,5.75-1.04,1.96-.07,3.91.13,5.81.61.26.07.52-.09.59-.35.07-.26-.09-.52-.35-.59-1.99-.5-4.04-.71-6.08-.64-1.5.06-2.98.27-4.43.64,2.3-2.16,4.65-4,6.98-5.57,1.49-.26,3-.4,4.51-.42,1.84-.02,3.69.15,5.51.49.26.05.52-.12.57-.39.05-.26-.13-.52-.38-.57-1.88-.36-3.8-.53-5.7-.51-.86,0-1.72.07-2.57.15,4.05-2.49,7.93-4.19,11.12-5.33Z"/>
          <path class="cls-9" d="M93.01,46.67c-.27.8-1.15,1.23-1.95.96-.8-.27-1.23-1.15-.96-1.95.27-.8,1.15-1.23,1.95-.96.8.27,1.23,1.15.96,1.95Z"/>
          <path class="cls-9" d="M90.24,53.29c-.27.8-1.15,1.23-1.95.96-.8-.27-1.23-1.15-.96-1.95.27-.8,1.15-1.23,1.95-.96.8.27,1.23,1.15.96,1.95Z"/>
          <path class="cls-9" d="M83.54,59.73c-.27.8-1.15,1.23-1.95.96-.8-.27-1.23-1.15-.96-1.95.27-.8,1.15-1.23,1.95-.96.8.27,1.23,1.15.96,1.95Z"/>
          <path class="cls-9" d="M75.8,68.11c-.27.8-1.15,1.23-1.95.96-.8-.27-1.23-1.15-.96-1.95.27-.8,1.15-1.23,1.95-.96.8.27,1.23,1.15.96,1.95Z"/>
          <path class="cls-9" d="M64.94,57.47c-.27.8-1.15,1.23-1.95.96s-1.23-1.15-.96-1.95c.27-.8,1.15-1.23,1.95-.96.8.27,1.23,1.15.96,1.95Z"/>
          <path class="cls-9" d="M74.14,48.55c-.27.8-1.15,1.23-1.95.96-.8-.27-1.23-1.15-.96-1.95s1.15-1.23,1.95-.96c.8.27,1.23,1.15.96,1.95Z"/>
          <path class="cls-9" d="M84.89,44.91c-.27.8-1.15,1.23-1.95.96-.8-.27-1.23-1.15-.96-1.95.27-.8,1.15-1.23,1.95-.96.8.27,1.23,1.15.96,1.95Z"/>
        </g>
        <g>
          <path class="cls-12" d="M33.06,82.67c-.46-2.47-5.19-3.75-8.55-4.36,3.29-.9,7.85-2.58,8.1-5.06.02-.19.11-1.39-.64-2.08-.85-.78-2.5-.67-4.19.27.64-1.82.48-3.47-.43-4.17-.81-.63-1.97-.34-2.16-.29-2.54.69-3.4,5.94-3.7,9.34-.81-3.28-2.56-8.72-5.27-9-.19-.02-1.39-.11-2.08.64-.78.85-.68,2.5.26,4.19-1.82-.65-3.46-.48-4.17.42-.63.81-.35,1.97-.3,2.16.68,2.53,5.92,3.41,9.32,3.71-3.33.76-8.06,2.26-8.41,4.77-.03.19-.16,1.38.56,2.1.82.81,2.47.77,4.19-.1-.71,1.8-.61,3.44.27,4.19.78.66,1.96.42,2.14.37,2.31-.53,3.4-4.84,3.91-8.16.66,3.29,1.95,7.53,4.28,7.95.19.03,1.37.22,2.12-.47.84-.78.87-2.44.07-4.19,1.76.79,3.41.76,4.19-.09.69-.75.5-1.94.46-2.13Z"/>
          <path class="cls-4" d="M23.17,78.38c0,.76-.62,1.38-1.38,1.38s-1.38-.62-1.38-1.38.62-1.38,1.38-1.38,1.38.62,1.38,1.38Z"/>
        </g>
        <g>
          <path class="cls-17" d="M42.04,69.14c.33-.65.52-1.39.52-2.18,0-2.66-2.16-4.82-4.82-4.82-1.67,0-3.15.85-4.01,2.15-.83-.66-1.87-1.06-3.02-1.06-2.66,0-4.82,2.16-4.82,4.82,0,1.2.44,2.3,1.17,3.15-1.33.86-2.21,2.35-2.21,4.05,0,2.66,2.16,4.82,4.82,4.82.48,0,.93-.07,1.37-.2.7,1.79,2.44,3.06,4.48,3.06,2.5,0,4.56-1.91,4.8-4.35.12,0,.23.02.35.02,2.66,0,4.82-2.16,4.82-4.82,0-2.19-1.46-4.04-3.46-4.62ZM34.17,73.47c-.2-.51-.48-.98-.84-1.39.55-.36,1.03-.82,1.4-1.37.49.39,1.05.69,1.66.87-.27.52-.44,1.1-.5,1.71-.12,0-.23-.02-.35-.02-.48,0-.93.07-1.37.2Z"/>
          <path class="cls-1" d="M39.32,73.3c.38-.04.67-.51.34-.82-.39-.36-1.01-.57-1.65-.65.45,0,.89,0,1.33-.07.47-.07.36-.72,0-.85-.7-.25-1.43-.21-2.13-.04.15-.07.29-.14.45-.21.51-.24,1-.43,1.33-.91.14-.2-.05-.47-.27-.47-.55,0-.97.27-1.43.54-.19.11-.37.23-.56.34-.03-.04-.06-.08-.1-.11.15-.17.31-.35.46-.52.34-.4.77-.78.79-1.33,0-.17-.17-.29-.32-.25-.53.14-.81.66-1.11,1.08-.03.04-.06.08-.08.12.1-.24.19-.48.29-.71.26-.59.56-1.18.59-1.83.01-.25-.34-.4-.51-.21-.43.49-.62,1.11-.85,1.71-.14.37-.31.75-.45,1.13.02-.34.01-.69.02-1.03,0-.64.03-1.26-.25-1.84-.14-.3-.66-.31-.81,0-.13.28-.19.57-.22.86-.08-.35-.19-.67-.37-.93-.21-.31-.61-.22-.74.1-.23.55-.16,1.12-.1,1.7.03.32.07.63.11.95-.08-.11-.16-.22-.23-.33-.31-.48-.61-1.03-1.08-1.37-.26-.19-.62.07-.62.35,0,.61.36,1.22.71,1.7.15.21.31.47.49.7-.18-.12-.36-.24-.52-.38-.35-.31-.7-.66-1.1-.9-.26-.16-.51.1-.47.36.08.52.39.95.8,1.29-.46-.08-.93-.12-1.39-.06-.32.04-.49.45-.17.64.52.32,1.12.49,1.72.61-.21,0-.42,0-.63-.01-.57,0-1.13-.03-1.63.28-.27.16-.27.55,0,.71.5.31,1.06.28,1.63.28.32,0,.65,0,.98-.03,0,.03.02.07.03.1-.22.06-.45.15-.66.22-.5.17-1.05.31-1.42.71-.3.33-.06.76.34.82.31.04.62-.03.91-.14-.33.22-.64.49-.81.83-.15.3.03.71.4.69.61-.03,1.14-.39,1.62-.74.02-.01.04-.03.06-.04-.35.45-.75.91-.84,1.45-.06.35.26.63.59.46.48-.25.8-.77,1.09-1.21.21-.32.43-.64.63-.97.03.01.06.02.09.03-.1.34-.2.68-.29,1.03-.15.58-.41,1.18-.23,1.77.09.29.5.44.72.19.41-.47.43-1.08.53-1.68.07-.38.12-.77.17-1.15.12,0,.22-.02.32-.03.05.34.09.69.14,1.03.09.6.06,1.25.71,1.47.13.04.27,0,.36-.1.36-.33.28-.76.16-1.18.08.17.15.34.24.5.17.3.61.16.63-.17,0-.19,0-.38-.03-.56.15.24.35.42.68.45.13.01.26-.08.33-.19.32-.53-.14-1.09-.41-1.55-.2-.34-.41-.66-.64-.98,0-.01.02-.03.03-.04.54.47,1.12.93,1.77,1.14.35.11.72-.33.5-.65-.44-.62-1.12-1.04-1.78-1.44.09.02.18.04.28.07.49.12,1.01.36,1.52.3Z"/>
          <path class="cls-7" d="M36.13,72.2c0,.89-.72,1.62-1.62,1.62s-1.62-.72-1.62-1.62.72-1.62,1.62-1.62,1.62.72,1.62,1.62Z"/>
          <path class="cls-7" d="M33.43,73.75c0,.19-.16.35-.35.35s-.35-.16-.35-.35.16-.35.35-.35.35.16.35.35Z"/>
          <path class="cls-7" d="M32.8,72.44c0,.19-.16.35-.35.35s-.35-.16-.35-.35.16-.35.35-.35.35.16.35.35Z"/>
          <path class="cls-7" d="M33.08,71.06c0,.19-.16.35-.35.35s-.35-.16-.35-.35.16-.35.35-.35.35.16.35.35Z"/>
          <path class="cls-7" d="M34.74,74.29c0,.19-.16.35-.35.35s-.35-.16-.35-.35.16-.35.35-.35.35.16.35.35Z"/>
          <path class="cls-7" d="M36.13,73.93c0,.19-.16.35-.35.35s-.35-.16-.35-.35.16-.35.35-.35.35.16.35.35Z"/>
          <path class="cls-7" d="M36.91,72.63c0,.19-.16.35-.35.35s-.35-.16-.35-.35.16-.35.35-.35.35.16.35.35Z"/>
          <path class="cls-7" d="M34.28,70.23c0,.19-.16.35-.35.35s-.35-.16-.35-.35.16-.35.35-.35.35.16.35.35Z"/>
          <path class="cls-7" d="M35.71,70.23c0,.19-.16.35-.35.35s-.35-.16-.35-.35.16-.35.35-.35.35.16.35.35Z"/>
          <path class="cls-7" d="M36.72,71.24c0,.19-.16.35-.35.35s-.35-.16-.35-.35.16-.35.35-.35.35.16.35.35Z"/>
        </g>
        <g>
          <path class="cls-12" d="M75.89,84.87c.46-2.47,5.19-3.75,8.55-4.36-3.29-.9-7.85-2.58-8.1-5.06-.02-.19-.11-1.39.64-2.08.85-.78,2.5-.67,4.19.27-.64-1.82-.48-3.47.43-4.17.81-.63,1.97-.34,2.16-.29,2.54.69,3.4,5.94,3.7,9.34.81-3.28,2.56-8.72,5.27-9,.19-.02,1.39-.11,2.08.64.78.85.68,2.5-.26,4.19,1.82-.65,3.46-.48,4.17.42.63.81.35,1.97.3,2.16-.68,2.53-5.92,3.41-9.32,3.71,3.33.76,8.06,2.26,8.41,4.77.03.19.16,1.38-.56,2.1-.82.81-2.47.77-4.19-.1.71,1.79.61,3.44-.27,4.19-.78.66-1.96.42-2.14.37-2.31-.53-3.4-4.84-3.91-8.16-.66,3.29-1.95,7.53-4.28,7.95-.19.03-1.37.22-2.12-.47-.84-.78-.87-2.44-.07-4.19-1.76.79-3.41.76-4.19-.09-.69-.75-.5-1.94-.46-2.13Z"/>
          <path class="cls-4" d="M85.77,80.59c0,.76.62,1.38,1.38,1.38s1.38-.62,1.38-1.38-.62-1.38-1.38-1.38-1.38.62-1.38,1.38Z"/>
        </g>
        <g>
          <path class="cls-17" d="M63.44,75.96c0,2.66,2.16,4.82,4.82,4.82.12,0,.23,0,.35-.02.24,2.44,2.29,4.35,4.8,4.35,2.04,0,3.78-1.27,4.48-3.06.43.13.89.2,1.37.2,2.66,0,4.82-2.16,4.82-4.82,0-1.7-.88-3.19-2.21-4.05.73-.84,1.17-1.94,1.17-3.15,0-2.66-2.16-4.82-4.82-4.82-1.14,0-2.19.4-3.02,1.06-.86-1.29-2.34-2.15-4.01-2.15-2.66,0-4.82,2.16-4.82,4.82,0,.78.19,1.52.52,2.18-2,.59-3.46,2.43-3.46,4.62ZM73.4,75.48c-.12,0-.23,0-.35.02-.06-.61-.23-1.19-.5-1.71.61-.18,1.18-.48,1.66-.87.37.55.84,1.01,1.4,1.37-.35.41-.64.88-.84,1.39-.43-.13-.89-.2-1.37-.2Z"/>
          <path class="cls-1" d="M69.63,75.51c-.38-.04-.67-.51-.34-.82.39-.36,1.01-.57,1.65-.65-.45,0-.89,0-1.33-.07-.47-.07-.36-.72,0-.85.7-.25,1.43-.21,2.13-.04-.15-.07-.29-.14-.45-.21-.51-.24-1-.43-1.33-.91-.14-.2.05-.47.27-.47.55,0,.97.27,1.43.54.19.11.37.23.56.34.03-.04.06-.08.1-.11-.15-.17-.31-.35-.46-.52-.34-.4-.77-.78-.79-1.33,0-.17.17-.29.32-.25.53.14.81.66,1.11,1.08.03.04.06.08.08.12-.1-.24-.19-.48-.29-.71-.26-.59-.56-1.18-.59-1.83-.01-.25.34-.4.51-.21.43.49.62,1.11.85,1.71.14.37.31.75.45,1.13-.02-.34-.01-.69-.02-1.03,0-.64-.03-1.26.25-1.84.14-.3.66-.31.81,0,.13.28.19.57.22.86.08-.35.19-.67.37-.93.21-.31.61-.22.74.1.23.55.16,1.12.1,1.7-.03.32-.07.63-.11.95.08-.11.16-.22.23-.33.31-.48.61-1.03,1.08-1.37.26-.19.62.07.62.35,0,.61-.36,1.22-.71,1.7-.15.21-.31.47-.49.7.18-.12.36-.24.52-.38.35-.31.7-.66,1.1-.9.26-.16.51.1.47.36-.08.52-.39.95-.8,1.29.46-.08.93-.12,1.39-.06.32.04.49.45.17.64-.52.32-1.12.49-1.72.61.21,0,.42,0,.63-.01.57,0,1.13-.03,1.63.28.27.16.27.55,0,.71-.5.31-1.06.28-1.63.28-.32,0-.65,0-.98-.03,0,.03-.02.07-.03.1.22.06.45.15.66.22.51.17,1.05.31,1.42.71.3.33.06.76-.34.82-.31.04-.62-.03-.91-.14.33.22.64.49.81.83.15.29-.03.71-.4.69-.61-.03-1.14-.39-1.62-.74-.02-.01-.04-.03-.06-.04.35.45.75.91.84,1.45.06.35-.26.63-.59.46-.48-.25-.8-.77-1.09-1.21-.21-.32-.43-.64-.63-.97-.03.01-.06.02-.09.03.1.34.2.68.29,1.03.15.58.41,1.18.23,1.77-.09.29-.5.44-.72.19-.41-.47-.43-1.08-.53-1.68-.07-.38-.12-.77-.17-1.15-.12,0-.22-.02-.32-.03-.05.34-.09.69-.14,1.03-.09.6-.06,1.25-.71,1.47-.13.04-.27,0-.36-.1-.36-.33-.28-.76-.16-1.18-.08.17-.15.34-.24.5-.17.3-.61.16-.63-.17,0-.19,0-.38.03-.56-.15.24-.35.42-.68.45-.13.01-.26-.08-.33-.19-.32-.53.14-1.09.41-1.55.2-.34.41-.66.64-.98,0-.01-.02-.03-.03-.04-.54.47-1.12.93-1.77,1.14-.35.11-.72-.33-.5-.65.44-.62,1.12-1.04,1.78-1.44-.09.02-.18.04-.28.07-.49.12-1.01.36-1.52.3Z"/>
          <path class="cls-7" d="M72.82,74.41c0,.89.72,1.62,1.62,1.62s1.62-.72,1.62-1.62-.72-1.62-1.62-1.62-1.62.72-1.62,1.62Z"/>
          <path class="cls-7" d="M75.52,75.96c0,.19.16.35.35.35s.35-.16.35-.35-.16-.35-.35-.35-.35.16-.35.35Z"/>
          <path class="cls-7" d="M76.15,74.65c0,.19.16.35.35.35s.35-.16.35-.35-.16-.35-.35-.35-.35.16-.35.35Z"/>
          <path class="cls-7" d="M75.87,73.27c0,.19.16.35.35.35s.35-.16.35-.35-.16-.35-.35-.35-.35.16-.35.35Z"/>
          <path class="cls-7" d="M74.2,76.49c0,.19.16.35.35.35s.35-.16.35-.35-.16-.35-.35-.35-.35.16-.35.35Z"/>
          <path class="cls-7" d="M72.82,76.14c0,.19.16.35.35.35s.35-.16.35-.35-.16-.35-.35-.35-.35.16-.35.35Z"/>
          <path class="cls-7" d="M72.03,74.83c0,.19.16.35.35.35s.35-.16.35-.35-.16-.35-.35-.35-.35.16-.35.35Z"/>
          <path class="cls-7" d="M74.67,72.44c0,.19.16.35.35.35s.35-.16.35-.35-.16-.35-.35-.35-.35.16-.35.35Z"/>
          <path class="cls-7" d="M73.24,72.44c0,.19.16.35.35.35s.35-.16.35-.35-.16-.35-.35-.35-.35.16-.35.35Z"/>
          <path class="cls-7" d="M72.22,73.45c0,.19.16.35.35.35s.35-.16.35-.35-.16-.35-.35-.35-.35.16-.35.35Z"/>
        </g>
        <g>
          <path class="cls-6" d="M62.55,71.05c-1.24-.8-2.45-1.52-3.59-2.13,1.62-.32,3.49-.79,5.46-1.41,5.72-1.81,10.07-4.15,9.73-5.22-.34-1.08-5.25-.48-10.97,1.33-1.93.61-3.69,1.28-5.19,1.94,1-1.21,2.07-2.66,3.12-4.26,3.3-5,5.21-9.57,4.27-10.19-.94-.62-4.38,2.93-7.68,7.94-1.15,1.75-2.13,3.44-2.88,4.93-.2-1.74-.57-3.82-1.11-6.02-1.42-5.82-3.47-10.33-4.56-10.06-1.1.27-.83,5.21.59,11.03.51,2.1,1.11,4.02,1.71,5.62-1.23-.98-2.7-2.02-4.32-3.05-5.06-3.22-9.65-5.05-10.26-4.1-.61.95,3.01,4.33,8.07,7.55,1.66,1.05,3.26,1.95,4.69,2.66-1.76.37-3.87.97-6.11,1.77-5.65,2.02-9.91,4.52-9.53,5.58.38,1.06,5.26.29,10.91-1.73,1.87-.67,3.59-1.39,5.04-2.1-1.05,1.35-2.2,3.03-3.33,4.91-3.08,5.14-4.79,9.78-3.82,10.36.97.58,4.25-3.12,7.33-8.26,1.15-1.93,2.11-3.78,2.81-5.38.24,1.2.55,2.5.93,3.84,1.62,5.77,3.81,10.21,4.9,9.9s.65-5.23-.96-11c-.36-1.27-.74-2.48-1.14-3.58,1.09.84,2.32,1.72,3.67,2.59,5.04,3.25,9.62,5.12,10.23,4.17s-2.97-4.35-8.01-7.61Z"/>
          <path class="cls-15" d="M74.74,72.67c.32-1.08-4.08-3.33-9.84-5.03-2.1-.62-4.09-1.08-5.79-1.36,1.62-.88,3.54-2.1,5.53-3.58,4.82-3.57,8.18-7.2,7.5-8.11-.67-.91-5.12,1.25-9.94,4.82-2.29,1.7-4.25,3.41-5.6,4.84.8-1.79,1.63-4.21,2.33-6.94,1.48-5.81,1.8-10.74.71-11.02s-3.18,4.2-4.67,10.01c-.69,2.71-1.13,5.22-1.29,7.17-1.19-1.48-2.84-3.22-4.76-4.98-4.43-4.05-8.63-6.65-9.39-5.82-.76.83,2.21,4.79,6.63,8.83,1.49,1.36,2.94,2.55,4.26,3.51-1.5-.22-3.22-.39-5.04-.48-5.99-.29-10.89.4-10.94,1.52s4.76,2.27,10.75,2.56c1.62.08,3.15.08,4.53.03-1.48.93-3.19,2.16-4.94,3.6-4.63,3.8-7.81,7.6-7.09,8.47s5.05-1.5,9.69-5.31c1.61-1.32,3.04-2.64,4.2-3.84-.39,1.37-.76,2.91-1.07,4.56-1.12,5.89-1.12,10.84-.02,11.05,1.11.21,2.91-4.39,4.03-10.28.44-2.33.71-4.51.8-6.31.71,1.49,1.62,3.17,2.71,4.92,3.17,5.09,6.51,8.73,7.47,8.14.96-.6-.83-5.21-4-10.3-.75-1.2-1.5-2.32-2.23-3.32,1.34.53,2.86,1.06,4.49,1.54,5.75,1.69,10.67,2.19,10.99,1.11Z"/>
          <path class="cls-2" d="M56.25,67.04c.11.87-.52,1.67-1.39,1.77-.87.11-1.67-.52-1.77-1.39-.11-.87.52-1.67,1.39-1.77s1.67.52,1.77,1.39Z"/>
        </g>
      </g>
      <path class="cls-11" d="M37.6,111.12c-1.44-1.5-3.35-2.33-5.37-2.35h-.06c-1.4,0-2.77.42-3.97,1.16-.49-.18-1.7-.72-2.43-2.05-.6-1.08-.58-2.13-.52-2.66.05-.41-.25-.77-.65-.82-.4-.05-.78.24-.82.65-.08.71-.1,2.11.7,3.55.68,1.24,1.67,1.96,2.42,2.36-.06.06-.13.12-.19.18-.32.34-.61.71-.87,1.1-.53-.06-1.48-.27-2.36-1.02-.81-.69-1.2-1.51-1.38-2.07-.12-.39-.54-.6-.93-.49-.39.12-.61.54-.49.93.24.75.74,1.84,1.83,2.76.91.77,1.87,1.11,2.59,1.27-.25.62-.41,1.26-.5,1.92-.52.08-1.32.1-2.2-.24-1.04-.4-1.66-1.12-1.93-1.51-.24-.34-.7-.41-1.03-.18-.33.24-.41.7-.18,1.03.37.53,1.21,1.49,2.61,2.04.76.29,1.48.39,2.08.39.23,0,.44-.02.63-.04.08.33.36.57.71.57.45-.02.76-.37.74-.78-.1-1.74.52-3.4,1.73-4.67,1.17-1.23,2.76-1.94,4.44-1.92,1.62.01,3.15.69,4.31,1.89,1.18,1.23,1.81,2.84,1.76,4.53-.01.41.31.75.72.76.39,0,.75-.31.76-.72.06-2.09-.71-4.08-2.17-5.6Z"/>
      <path class="cls-11" d="M90.07,113.71c-.33-.24-.8-.16-1.03.18-.28.39-.9,1.11-1.94,1.51-.88.34-1.68.32-2.2.24-.08-.66-.25-1.31-.5-1.93.95-.21,1.86-.63,2.59-1.26,1.09-.92,1.6-2.01,1.83-2.76.12-.39-.09-.81-.49-.93-.39-.12-.81.09-.93.49-.18.57-.56,1.38-1.38,2.07-.87.74-1.82.95-2.35,1.02-.26-.39-.54-.76-.87-1.1-.06-.06-.13-.12-.19-.18.76-.41,1.74-1.13,2.42-2.36.59-1.06.83-2.32.7-3.54-.04-.41-.42-.7-.82-.66-.41.04-.7.41-.66.82.06.53.07,1.59-.52,2.66-.73,1.32-1.94,1.87-2.43,2.05-1.22-.77-2.63-1.19-4.03-1.17-2.03.02-3.93.85-5.37,2.35-1.46,1.52-2.23,3.51-2.17,5.6.01.41.37.73.76.72.41-.01.73-.35.72-.76-.05-1.69.57-3.3,1.76-4.53,1.16-1.21,2.69-1.88,4.31-1.89,1.68,0,3.28.7,4.44,1.92,1.2,1.25,1.83,2.96,1.73,4.67-.02.41.29.76.7.78.39,0,.67-.24.75-.57.19.02.4.04.64.04.6,0,1.32-.09,2.07-.39,1.33-.51,2.15-1.39,2.61-2.04.24-.33.16-.8-.17-1.03Z"/>
      <path class="cls-5" d="M97.73,103.76c-1.2-3.49-5.59-8.36-11.19-7.72-3.02.35-5.76,2.29-7.57,5.21-1.81-2.92-4.55-4.86-7.57-5.21-5.6-.63-9.98,4.23-11.19,7.72-.27.79-.43,1.61-.48,2.45-1.13-.42-2.49-.76-4.03-.82-2.25-.09-4.16.42-5.59,1-.04-.91-.2-1.79-.49-2.64-1.2-3.49-5.6-8.36-11.19-7.72-3.02.35-5.76,2.29-7.57,5.21-1.81-2.92-4.55-4.86-7.57-5.21-5.6-.63-9.98,4.23-11.19,7.72-2.55,7.4,4.67,17.61,17.97,25.39.24.14.52.21.79.21s.55-.07.79-.21c9.79-5.73,16.28-12.76,18.01-19.03.06-.03.12-.04.17-.08.99-.61,3.05-1.64,5.73-1.51,1.93.08,3.48.71,4.52,1.3,1.61,6.34,8.15,13.51,18.09,19.32.24.14.52.21.79.21s.55-.07.79-.21c13.3-7.78,20.52-17.98,17.97-25.38ZM30.87,125.97c-12.55-7.58-17.46-16.34-15.79-21.18.88-2.57,4.2-6.04,7.86-5.63,2.82.32,5.34,2.81,6.43,6.33.2.66.81,1.11,1.5,1.11s1.3-.45,1.5-1.11c1.09-3.52,3.61-6.01,6.43-6.33.21-.02.41-.04.61-.04,3.42,0,6.41,3.24,7.25,5.66,1.67,4.84-3.24,13.6-15.79,21.18ZM78.98,125.97c-12.55-7.58-17.46-16.34-15.79-21.18.88-2.57,4.19-6.04,7.86-5.63,2.82.32,5.34,2.81,6.43,6.33.2.66.81,1.11,1.5,1.11s1.3-.45,1.5-1.11c1.09-3.52,3.61-6.01,6.43-6.33.21-.02.41-.04.61-.04,3.42,0,6.41,3.24,7.25,5.66,1.67,4.84-3.24,13.6-15.79,21.18Z"/>
    </g>
  </g>
</svg>