<?xml version="1.0" encoding="UTF-8"?>
<svg id="Layer_2" xmlns="http://www.w3.org/2000/svg" viewBox="0 0 104.29 157.48">
  <defs>
    <style>
      .cls-1 {
        fill: #f7faf5;
      }

      .cls-2, .cls-3 {
        fill: #fff;
      }

      .cls-4 {
        fill: #729dc4;
      }

      .cls-5 {
        fill: #c0dddb;
      }

      .cls-6 {
        fill: #fce170;
      }

      .cls-7 {
        fill: #ef9c9c;
      }

      .cls-3 {
        stroke: #dbd6c6;
        stroke-miterlimit: 10;
        stroke-width: 2px;
      }

      .cls-8 {
        fill: #f97d7d;
      }

      .cls-9 {
        fill: #9fccad;
      }

      .cls-10 {
        fill: #75a081;
      }

      .cls-11 {
        fill: #ffeea4;
      }

      .cls-12 {
        fill: #3a3735;
      }

      .cls-13 {
        fill: #998abc;
      }

      .cls-14 {
        fill: #f9c44e;
      }

      .cls-15 {
        fill: #ffd7d7;
      }

      .cls-16 {
        fill: #f9bbbb;
      }

      .cls-17 {
        fill: #d0eae7;
      }

      .cls-18 {
        fill: #dbd6c6;
      }
    </style>
  </defs>
  <g id="_Ñëîé_1" data-name="Ñëîé_1">
    <g>
      <ellipse class="cls-3" cx="51.52" cy="114.05" rx="50.04" ry="42.43"/>
      <g>
        <path class="cls-18" d="M28.62,74.73c-.11.09-7.65,4.23-9.36,5.15-.54.4-7.21-4.82-11.09-11.4-1.97-3.33-6.12-23.54-4.57-24.65.7-.49,24.86,9.02,25.02,30.9Z"/>
        <path class="cls-2" d="M28.54,74.78c-1.91,1.04-6.77,3.74-9.28,5.1-2.42-1.81-5.47-4.65-7.93-8.8-1.65-2.8-5.15-19.89-3.85-20.8.77-.54,20.02,7.65,21.06,24.5Z"/>
        <path class="cls-15" d="M26.38,75.97c-.19.09-4.82,2.66-4.99,2.76-.9.48-5.46-5.73-7.08-9.1-1.12-2.34-3.68-11.54-2.17-12.42,1.51-.91,9.85,5.54,14.25,18.76Z"/>
      </g>
      <g>
        <path class="cls-18" d="M77.37,74.38c.11.09,7.65,4.22,9.36,5.15.54.4,7.21-4.82,11.09-11.4,1.97-3.33,6.12-23.54,4.57-24.65-.7-.49-24.86,9.02-25.02,30.9Z"/>
        <path class="cls-2" d="M77.45,74.44c1.91,1.04,6.77,3.74,9.28,5.1,2.42-1.81,5.47-4.65,7.93-8.8,1.65-2.8,5.15-19.89,3.85-20.8-.77-.54-20.02,7.65-21.06,24.5Z"/>
        <path class="cls-15" d="M79.61,75.62c.19.09,4.82,2.66,4.99,2.76.9.48,5.46-5.73,7.08-9.1,1.12-2.34,3.68-11.54,2.17-12.42-1.51-.91-9.85,5.54-14.25,18.76Z"/>
      </g>
      <g>
        <path class="cls-11" d="M61.64,64.12c-1.44,1.8-4.24,1.87-9.8,1.94-6.57.08-9.85.12-11.36-1.84-.6-.79-1.08-2.02.97-10.97.81-3.54,1.51-6.02,2.1-7.79.04-.12.08-.24.12-.36.13-.39.27-.73.39-1.05.04-.11.08-.21.12-.31-.01-.03-.04-.04-.05-.07-.17-.2-.32-.43-.45-.67-.55-1.07-.15-2.86.68-6.41.71-3,1.24-5.22,1.91-6.85.2-.51.41-.96.65-1.36.04-.07.08-.12.12-.19-.05-.04-.11-.09-.15-.15-.12-.12-.24-.24-.35-.39-.07-.09-.13-.2-.17-.31-.69-1.44.11-4.26,1.63-9.49.37-1.25.67-2.2.97-2.92.08-.17.15-.33.23-.48.15-.29.29-.53.45-.75-.11-.07-.21-.13-.32-.23-.05-.03-.11-.08-.16-.13-.05-.04-.11-.09-.15-.15-.63-.75-.83-1.91.2-5.63C50.38,3.38,51.32-.05,52.53,0c1.03.04,1.59,2.58,2.72,7.66.72,3.22.68,4.39.08,5.23-.03.04-.05.07-.08.11-.11.13-.23.24-.36.35.17.19.31.37.43.57.13.21.25.45.35.71.28.67.48,1.47.69,2.35,1.45,6.29,1.84,8.69,1.82,9.74-.01.56-.13.75-.27.93-.12.17-.27.32-.43.45-.07.07-.15.12-.23.19.01.03.03.05.04.08.21.47.44,1.04.65,1.72.2.59.39,1.25.59,2.03,1.52,6.01,2.27,9.02.68,11.25-.09.13-.2.24-.31.36.04.07.05.12.08.17.16.37.32.79.47,1.23.11.32.21.65.32,1.01.64,2.26,1.17,5.21,1.87,9.04,1.23,6.74.67,8.09,0,8.93Z"/>
        <path class="cls-14" d="M49.66,13.71c.43.21,1.37.6,2.6.53,1.31-.07,2.24-.6,2.64-.87-.49,1.04-1.51,1.72-2.64,1.74-1.65.04-2.56-1.34-2.6-1.41Z"/>
        <path class="cls-14" d="M52.14,30.9c-3.19-.02-4.95-2.48-5.1-2.71,1.1.43,2.9.97,5.17.98,2.19.01,3.94-.48,5.03-.88-.16.23-1.95,2.62-5.11,2.6Z"/>
        <path class="cls-14" d="M51.51,47.15c-4.36-.03-6.95-2.99-7.32-3.43-.01-.03-.04-.04-.05-.07,1.62.59,4.15,1.29,7.29,1.32,3.24.04,5.84-.64,7.5-1.22-.36.43-3.01,3.41-7.41,3.39Z"/>
      </g>
      <path class="cls-12" d="M35.19,112.82c-1.43-1.5-3.41-2.37-5.42-2.38-.87,0-1.7.15-2.48.43l-2.2-3.2c-.23-.34-.69-.42-1.03-.19-.34.23-.42.69-.19,1.03l2.06,3c-.62.37-1.2.82-1.7,1.36-.14.15-.27.31-.4.48l-3.16-2.01c-.34-.22-.8-.12-1.02.23-.22.35-.12.8.23,1.02l3.15,2c-.36.68-.61,1.4-.75,2.15l-3.64-1.09c-.39-.12-.8.11-.92.5-.12.39.11.81.5.92l3.93,1.17c0,.16,0,.31,0,.47.03.39.35.69.74.69.02,0,.04,0,.05,0,.41-.03.72-.38.69-.79-.12-1.73.5-3.45,1.69-4.73,1.17-1.25,2.78-1.96,4.42-1.96,1.65,0,3.24.71,4.39,1.92,1.19,1.25,1.81,2.89,1.73,4.61-.02.41.3.76.71.77.39,0,.75-.3.77-.71.09-2.12-.67-4.14-2.14-5.69Z"/>
      <path class="cls-12" d="M86.29,116.11c-.12-.39-.53-.62-.92-.5l-3.64,1.09c-.14-.75-.4-1.47-.75-2.15l3.15-2c.34-.22.45-.68.23-1.02-.22-.35-.68-.45-1.02-.23l-3.16,2.01c-.13-.16-.26-.32-.4-.48-.51-.54-1.08-.99-1.7-1.36l2.06-3c.23-.34.15-.8-.19-1.03-.34-.23-.8-.15-1.03.19l-2.2,3.2c-.78-.28-1.61-.43-2.44-.43-2.06.01-4.03.88-5.46,2.38-1.47,1.55-2.24,3.57-2.14,5.69.02.41.35.72.77.71.41-.02.73-.36.71-.77-.08-1.71.54-3.35,1.73-4.61,1.15-1.21,2.74-1.91,4.36-1.92,1.68,0,3.29.71,4.46,1.96,1.2,1.28,1.82,3,1.69,4.73-.03.41.28.76.69.79.02,0,.03,0,.05,0,.39,0,.71-.3.74-.69.01-.16,0-.31,0-.47l3.93-1.17c.39-.12.62-.53.5-.92Z"/>
      <path class="cls-15" d="M25.33,135.88c0,1.56-2.81,2.83-6.27,2.83s-6.27-1.27-6.27-2.83,2.81-2.83,6.27-2.83,6.27,1.27,6.27,2.83Z"/>
      <path class="cls-15" d="M90.82,135.88c0,1.56-2.81,2.83-6.27,2.83s-6.27-1.27-6.27-2.83,2.81-2.83,6.27-2.83,6.27,1.27,6.27,2.83Z"/>
      <path class="cls-10" d="M19.63,70.48c.28.76,1.99,5.68-.24,10.65-.68-.33-5.05-2.51-7.05-7.99-.28-.76-1.99-5.68.24-10.65.68.33,5.05,2.51,7.05,7.99Z"/>
      <g>
        <path class="cls-10" d="M33.74,73.32c-.8-.89-5.81-6.64-5.49-14.6,1.11.07,8.23.67,13.93,7.01.8.89,5.81,6.64,5.49,14.6-1.11-.07-8.23-.67-13.93-7.01Z"/>
        <path class="cls-10" d="M59.34,83.67c.37.72,2.7,5.38,1.12,10.59-.72-.24-5.32-1.85-8-7.03-.37-.72-2.7-5.38-1.12-10.59.72.24,5.33,1.85,8,7.03Z"/>
        <path class="cls-9" d="M39.41,83.45c.49-.65,3.72-4.73,9.11-5.52.09.75.59,5.61-2.95,10.23-.49.65-3.72,4.73-9.11,5.52-.09-.75-.59-5.61,2.95-10.23Z"/>
        <path class="cls-9" d="M68.04,72.36c-.88.8-6.61,5.84-14.58,5.54.07-1.11.63-8.23,6.96-13.96.88-.8,6.61-5.84,14.58-5.54-.07,1.11-.63,8.23-6.96,13.96Z"/>
        <path class="cls-9" d="M93.86,76.98c-.72.56-5.39,4.09-11.47,3.41.12-.85.95-6.27,6.12-10.29.72-.56,5.39-4.09,11.47-3.41-.12.85-.95,6.27-6.12,10.29Z"/>
        <path class="cls-10" d="M93.72,86.9c-.79-.2-5.82-1.57-8.65-6.21.66-.38,4.93-2.74,10.57-1.3.79.2,5.82,1.57,8.65,6.21-.66.38-4.93,2.74-10.57,1.3Z"/>
        <path class="cls-9" d="M9.53,83.96c-.81-.07-5.99-.61-9.53-4.74.59-.48,4.42-3.5,10.22-2.98.81.07,5.99.61,9.53,4.74-.59.48-4.42,3.5-10.22,2.98Z"/>
        <g>
          <path class="cls-8" d="M22.18,77.01c-1.06-.88-3.07-.11-6.47,1.19-.34.13-.66.26-.91.38.16-.19.33-.42.52-.67,2.82-3.75,3.44-4.66,3.19-5.59-.04-.15-.17-.6-.57-.85-.49-.3-1.09-.11-1.2-.07-1.32.42-1.75,2.53-2.48,6.09-.07.34-.13.65-.16.92-.09-.19-.19-.39-.29-.61-2.07-4.21-2.6-5.18-3.54-5.37-.15-.03-.61-.13-1.01.12-.49.3-.59.92-.61,1.04-.23,1.36,1.46,2.7,4.31,4.97.07.06.15.12.22.17-.13,0-.26,0-.4,0-4.69.02-5.79.07-6.38.84-.09.12-.38.5-.33.96.06.57.57.93.67,1,1.13.8,3.07-.13,6.35-1.7.19-.09.36-.18.53-.26-.09.14-.19.28-.29.44-2.59,3.91-3.16,4.86-2.85,5.77.05.14.2.59.62.81.5.27,1.09.04,1.21,0,1.29-.49,1.6-2.62,2.11-6.22.02-.11.03-.21.04-.31.04.07.07.14.11.22,2.12,4.19,2.66,5.15,3.61,5.33.15.03.62.12,1.01-.13.48-.3.58-.93.59-1.05.21-1.36-1.49-2.68-4.37-4.91-.12-.09-.24-.18-.35-.27.25.03.56.06.88.08,4.68.36,5.78.39,6.43-.33.1-.11.42-.47.41-.93-.01-.57-.5-.98-.59-1.05Z"/>
          <circle class="cls-15" cx="14.41" cy="79.01" r="1.3"/>
        </g>
        <g>
          <path class="cls-6" d="M84.16,75.17c.41-.8.64-1.71.64-2.67,0-3.26-2.64-5.9-5.9-5.9-2.05,0-3.85,1.04-4.91,2.63-1.01-.81-2.29-1.3-3.69-1.3-3.26,0-5.9,2.64-5.9,5.9,0,1.47.54,2.82,1.44,3.85-1.62,1.05-2.7,2.88-2.7,4.95,0,3.26,2.64,5.9,5.9,5.9.58,0,1.14-.09,1.68-.25.86,2.19,2.99,3.75,5.49,3.75,3.07,0,5.58-2.34,5.87-5.33.14.01.28.02.43.02,3.26,0,5.9-2.64,5.9-5.9,0-2.68-1.79-4.94-4.24-5.66ZM74.52,80.48c-.25-.62-.59-1.2-1.03-1.7.68-.44,1.26-1.01,1.71-1.68.59.48,1.28.84,2.03,1.06-.33.64-.54,1.34-.61,2.09-.14-.01-.28-.02-.43-.02-.58,0-1.14.09-1.68.25Z"/>
          <path class="cls-1" d="M80.82,80.27c.47-.05.82-.63.41-1-.48-.44-1.23-.69-2.02-.8.55,0,1.09,0,1.63-.09.58-.08.44-.89,0-1.04-.86-.3-1.75-.26-2.6-.05.18-.09.36-.17.55-.26.62-.3,1.22-.53,1.63-1.11.17-.24-.06-.57-.33-.57-.67,0-1.18.33-1.75.66-.24.13-.46.28-.69.42-.04-.04-.08-.09-.12-.14.19-.21.38-.42.56-.64.42-.49.95-.95.96-1.63,0-.21-.2-.35-.4-.3-.65.17-.99.81-1.36,1.32-.03.05-.07.1-.1.15.12-.29.24-.59.36-.87.31-.72.68-1.44.72-2.24.02-.31-.42-.49-.62-.26-.52.6-.76,1.36-1.05,2.1-.17.45-.38.91-.55,1.38.02-.42.02-.85.02-1.26.01-.78.03-1.54-.31-2.26-.18-.37-.81-.38-.99,0-.16.34-.23.7-.27,1.05-.1-.42-.24-.82-.45-1.14-.26-.38-.74-.27-.91.12-.28.67-.2,1.37-.12,2.08.04.39.08.77.13,1.16-.1-.14-.2-.27-.28-.4-.38-.59-.75-1.26-1.32-1.68-.32-.23-.76.08-.76.43,0,.75.45,1.49.86,2.08.18.26.39.57.61.85-.22-.15-.45-.29-.65-.46-.43-.37-.86-.8-1.34-1.1-.32-.2-.62.13-.57.44.1.64.48,1.17.98,1.58-.57-.1-1.14-.14-1.7-.07-.39.05-.6.55-.21.78.64.39,1.37.6,2.11.74-.26,0-.51-.01-.77-.01-.7,0-1.38-.04-2,.34-.33.2-.33.67,0,.87.62.38,1.3.34,2,.34.4,0,.8,0,1.2-.03,0,.04.03.08.04.12-.28.08-.55.18-.81.27-.62.21-1.28.38-1.74.87-.37.41-.08.94.42,1,.38.05.75-.04,1.12-.17-.4.28-.78.59-.99,1.01-.18.36.03.87.49.85.75-.04,1.39-.48,1.99-.91.02-.02.05-.04.08-.05-.43.55-.92,1.11-1.03,1.77-.07.42.32.77.73.56.58-.31.98-.94,1.34-1.48.26-.39.52-.79.77-1.19.04.01.07.02.11.03-.12.42-.25.83-.36,1.26-.18.71-.5,1.45-.28,2.17.11.36.61.54.88.23.5-.58.53-1.32.65-2.06.08-.47.15-.94.21-1.41.14,0,.27-.02.39-.04.06.42.11.84.18,1.26.11.73.08,1.53.87,1.81.16.05.33-.01.44-.12.44-.41.34-.93.19-1.45.1.21.19.42.3.61.21.36.75.19.77-.21,0-.23,0-.46-.04-.69.18.29.43.52.83.55.16.01.32-.1.4-.23.39-.65-.17-1.33-.5-1.89-.24-.42-.51-.81-.78-1.2.01-.02.03-.03.04-.05.66.57,1.37,1.14,2.17,1.39.43.13.89-.4.61-.8-.53-.76-1.37-1.27-2.18-1.77.11.03.23.05.34.08.6.15,1.24.44,1.86.37Z"/>
          <g>
            <path class="cls-4" d="M76.91,78.93c0,1.09-.89,1.98-1.98,1.98s-1.98-.89-1.98-1.98.89-1.98,1.98-1.98,1.98.89,1.98,1.98Z"/>
            <path class="cls-4" d="M73.61,80.82c0,.24-.19.43-.43.43s-.43-.19-.43-.43.19-.43.43-.43.43.19.43.43Z"/>
            <path class="cls-4" d="M72.84,79.22c0,.24-.19.43-.43.43s-.43-.19-.43-.43.19-.43.43-.43.43.19.43.43Z"/>
            <path class="cls-4" d="M73.18,77.53c0,.24-.19.43-.43.43s-.43-.19-.43-.43.19-.43.43-.43.43.19.43.43Z"/>
            <path class="cls-4" d="M75.22,81.48c0,.24-.19.43-.43.43s-.43-.19-.43-.43.19-.43.43-.43.43.19.43.43Z"/>
            <path class="cls-4" d="M76.91,81.05c0,.24-.19.43-.43.43s-.43-.19-.43-.43.19-.43.43-.43.43.19.43.43Z"/>
            <path class="cls-4" d="M77.88,79.45c0,.24-.19.43-.43.43s-.43-.19-.43-.43.19-.43.43-.43.43.19.43.43Z"/>
            <path class="cls-4" d="M74.65,76.52c0,.24-.19.43-.43.43s-.43-.19-.43-.43.19-.43.43-.43.43.19.43.43Z"/>
            <path class="cls-4" d="M76.4,76.52c0,.24-.19.43-.43.43s-.43-.19-.43-.43.19-.43.43-.43.43.19.43.43Z"/>
            <path class="cls-4" d="M77.64,77.75c0,.24-.19.43-.43.43s-.43-.19-.43-.43.19-.43.43-.43.43.19.43.43Z"/>
          </g>
        </g>
        <g>
          <path class="cls-8" d="M98.52,83.19c-1-.84-2.9-.11-6.11,1.13-.32.12-.62.25-.86.36.15-.18.32-.4.49-.63,2.66-3.54,3.25-4.4,3.01-5.28-.04-.14-.16-.57-.53-.8-.46-.28-1.03-.1-1.14-.07-1.24.39-1.65,2.39-2.34,5.75-.06.32-.12.62-.15.87-.08-.18-.18-.37-.28-.58-1.95-3.98-2.45-4.89-3.35-5.08-.14-.03-.58-.12-.96.11-.46.28-.56.87-.57.98-.21,1.29,1.38,2.55,4.07,4.69.07.06.14.11.21.16-.12,0-.25,0-.38,0-4.43.02-5.47.07-6.03.79-.09.11-.36.47-.32.91.05.54.54.88.63.95,1.06.75,2.9-.12,6-1.61.18-.08.34-.17.5-.25-.09.13-.18.27-.28.41-2.45,3.7-2.99,4.59-2.69,5.45.05.14.19.56.58.77.47.25,1.03.04,1.14,0,1.22-.47,1.51-2.48,2-5.88.01-.1.03-.2.04-.29.03.07.07.14.1.21,2,3.95,2.52,4.86,3.41,5.03.14.03.58.11.96-.13.45-.29.54-.88.56-.99.2-1.29-1.41-2.53-4.13-4.64-.11-.09-.22-.17-.33-.25.24.03.53.05.83.08,4.42.34,5.46.37,6.07-.31.1-.11.4-.44.39-.88-.01-.54-.47-.92-.56-.99Z"/>
          <path class="cls-15" d="M92.41,85.08c0,.68-.55,1.23-1.23,1.23s-1.23-.55-1.23-1.23.55-1.23,1.23-1.23,1.23.55,1.23,1.23Z"/>
        </g>
        <g>
          <path class="cls-16" d="M69.16,76.43c-1.38-3.53-8.77-4.09-13.93-4.04,4.63-2.27,10.92-6.06,10.58-9.81-.03-.29-.23-2.09-1.55-2.9-1.48-.91-3.9-.28-6.14,1.59.44-2.89-.28-5.28-1.83-6.07-1.38-.7-3.02.05-3.28.18-3.57,1.74-3.35,9.79-2.83,14.92-2.14-4.64-6.27-12.22-10.38-11.85-.29.03-2.09.23-2.9,1.54-.92,1.48-.29,3.9,1.57,6.14-2.88-.44-5.28.27-6.07,1.81-.71,1.38.05,3.02.17,3.28,1.73,3.57,9.75,3.37,14.88,2.86-4.72,2.07-11.32,5.65-11.12,9.46.02.29.15,2.1,1.43,2.96,1.44.97,3.88.44,6.19-1.35-.55,2.87.07,5.28,1.59,6.14,1.35.76,3.02.06,3.29-.05,3.28-1.45,3.68-8.15,3.48-13.23,1.92,4.7,5.04,10.61,8.61,10.58.29,0,2.1-.06,3.02-1.31,1.03-1.4.6-3.86-1.08-6.25,2.84.67,5.28.15,6.2-1.33.81-1.32.19-3.02.08-3.29Z"/>
          <path class="cls-1" d="M60.8,76.21c-.95-1.06-3.24-2.82-5.63-3.3-1.18-.23-2.19-.26-2.9-.23,1.53-2.35,3.12-3.78,4.28-4.64,1.38-1.03,2.33-2.13,2.93-2.97.3-.41-.19-.89-.61-.8-1.45.32-2.72,1.3-3.85,2.23-.09.08-.18.16-.28.24.37-1.59.73-3.18.94-4.81.1-.76-1-.91-1.34-.36-.39.63-.88,1.07-1.15,1.91-.92,2.85-.31.06-1.22,3.39-.39,1.41-.84,3.2-1.31,5.3-.48-.54-1.21-1.35-2.12-2.34-3.15-3.42-4.05-4.11-4.86-3.9-.44.12-1.12.55-.91.91.99,1.73,2.42,3.14,3.97,4.37-1.43-.24-2.81-.65-4.23-1.01-.34-.09-.76.68-.67,1.15.15.82,1.85.93,5.75,2.09.7.21,1.27.39,1.62.5-.71.93-1.38,1.6-1.84,2.01-1.43,1.31-2.73,2.77-4.25,3.98-.46.37.12,1,.59.77,1.82-.91,3.55-1.98,5.08-3.33.35-.31.73-.64,1.1-.99-.12.36-.23.71-.38,1.05-.8,1.86-1.9,3.59-2.63,5.47-.23.6.6.96,1.01.59,1.08-.97,3-2.92,3.67-5.46.34-1.3.41-2.4.43-3.1.44.56,1.04,1.32,1.76,2.22,2.95,3.65,3.95,3.67,4.57,4.2.52.45,1.27-.21,1.02-.8-.78-1.84-2.02-3.41-3.43-4.81,1.39.41,2.72.98,4.08,1.5.61.24,1.28-.53.8-1.06Z"/>
          <path class="cls-7" d="M53.27,72.89c.22,1.13-.53,2.23-1.66,2.45-1.13.22-2.23-.53-2.45-1.66-.22-1.13.53-2.23,1.66-2.45,1.13-.22,2.23.53,2.45,1.66Z"/>
        </g>
        <g>
          <path class="cls-6" d="M36.81,76.01c.37-.73.59-1.56.59-2.44,0-2.98-2.42-5.4-5.4-5.4-1.87,0-3.52.95-4.49,2.4-.93-.74-2.1-1.19-3.38-1.19-2.98,0-5.4,2.42-5.4,5.4,0,1.35.5,2.58,1.31,3.52-1.49.96-2.47,2.63-2.47,4.53,0,2.98,2.42,5.4,5.4,5.4.53,0,1.05-.08,1.53-.22.79,2,2.74,3.43,5.02,3.43,2.8,0,5.11-2.14,5.37-4.87.13,0,.26.02.39.02,2.98,0,5.4-2.42,5.4-5.4,0-2.45-1.64-4.52-3.88-5.18ZM27.99,80.87c-.22-.57-.54-1.09-.94-1.55.62-.4,1.15-.92,1.56-1.54.54.44,1.17.77,1.86.97-.3.59-.49,1.23-.56,1.91-.13,0-.26-.02-.39-.02-.53,0-1.05.08-1.53.22Z"/>
          <path class="cls-1" d="M33.76,80.68c.43-.05.75-.57.38-.92-.44-.4-1.13-.63-1.85-.73.5,0,1,0,1.49-.08.53-.08.41-.81,0-.95-.79-.28-1.6-.24-2.38-.05.17-.07.33-.16.5-.24.57-.27,1.11-.49,1.49-1.02.16-.22-.05-.52-.3-.52-.61,0-1.08.31-1.6.6-.22.12-.42.26-.63.38-.04-.04-.07-.09-.11-.12.17-.19.35-.39.52-.58.38-.45.87-.87.88-1.49,0-.19-.19-.32-.36-.28-.59.16-.9.74-1.24,1.21-.03.04-.06.09-.09.13.11-.27.22-.54.33-.79.29-.66.62-1.32.66-2.05.02-.28-.38-.45-.57-.24-.48.55-.7,1.25-.96,1.92-.16.41-.34.83-.51,1.26.02-.38.02-.77.02-1.15.01-.72.03-1.41-.28-2.07-.16-.34-.74-.34-.9,0-.15.32-.21.64-.25.96-.09-.39-.22-.75-.41-1.04-.23-.35-.68-.25-.83.11-.26.61-.18,1.26-.11,1.91.04.35.08.71.12,1.06-.09-.12-.18-.25-.26-.37-.34-.54-.68-1.15-1.21-1.53-.29-.21-.69.07-.69.4,0,.68.41,1.36.79,1.91.17.24.35.52.56.78-.2-.13-.41-.27-.59-.42-.39-.34-.79-.74-1.23-1.01-.29-.18-.57.12-.52.4.09.59.44,1.07.9,1.45-.52-.09-1.04-.13-1.56-.06-.36.05-.55.5-.19.71.59.36,1.25.55,1.93.68-.24,0-.47-.01-.7-.01-.64,0-1.26-.04-1.83.31-.3.18-.3.61,0,.79.56.35,1.18.31,1.83.31.36,0,.73,0,1.09-.03,0,.04.02.08.04.11-.25.07-.5.16-.74.25-.57.19-1.17.34-1.59.8-.34.37-.07.86.38.92.35.05.69-.04,1.02-.15-.37.25-.72.54-.91.93-.16.33.03.8.45.78.69-.03,1.27-.44,1.82-.83.02-.02.05-.03.07-.05-.39.5-.84,1.02-.94,1.62-.07.39.3.71.67.51.53-.28.9-.86,1.23-1.35.24-.36.48-.72.7-1.09.03.01.07.02.1.03-.11.38-.23.76-.33,1.15-.17.65-.46,1.32-.26,1.99.1.33.56.5.8.21.46-.53.48-1.21.6-1.88.07-.43.14-.86.2-1.29.13,0,.24-.02.36-.03.05.38.1.77.16,1.15.1.67.07,1.4.8,1.65.14.05.3-.01.41-.11.4-.37.31-.85.18-1.33.09.19.17.38.27.56.19.33.69.18.7-.19,0-.21,0-.42-.04-.63.17.27.39.47.76.5.15.01.29-.09.37-.21.36-.59-.16-1.22-.46-1.73-.22-.38-.46-.74-.71-1.1.01-.02.02-.03.03-.05.61.52,1.25,1.05,1.99,1.27.39.12.81-.37.56-.73-.49-.69-1.25-1.17-1.99-1.62.1.02.21.05.31.07.55.14,1.13.4,1.7.34Z"/>
          <g>
            <path class="cls-4" d="M30.18,79.44c0,1-.81,1.81-1.81,1.81s-1.81-.81-1.81-1.81.81-1.81,1.81-1.81,1.81.81,1.81,1.81Z"/>
            <path class="cls-4" d="M27.16,81.18c0,.22-.18.39-.39.39s-.39-.18-.39-.39.18-.39.39-.39.39.18.39.39Z"/>
            <path class="cls-4" d="M26.45,79.71c0,.22-.18.39-.39.39s-.39-.18-.39-.39.18-.39.39-.39.39.18.39.39Z"/>
            <path class="cls-4" d="M26.77,78.17c0,.22-.18.39-.39.39s-.39-.18-.39-.39.18-.39.39-.39.39.18.39.39Z"/>
            <path class="cls-4" d="M28.63,81.78c0,.22-.18.39-.39.39s-.39-.18-.39-.39.18-.39.39-.39.39.18.39.39Z"/>
            <path class="cls-4" d="M30.18,81.38c0,.22-.18.39-.39.39s-.39-.18-.39-.39.18-.39.39-.39.39.18.39.39Z"/>
            <path class="cls-4" d="M31.06,79.92c0,.22-.18.39-.39.39s-.39-.18-.39-.39.18-.39.39-.39.39.18.39.39Z"/>
            <path class="cls-4" d="M28.11,77.24c0,.22-.18.39-.39.39s-.39-.18-.39-.39.18-.39.39-.39.39.18.39.39Z"/>
            <path class="cls-4" d="M29.72,77.24c0,.22-.18.39-.39.39s-.39-.18-.39-.39.18-.39.39-.39.39.18.39.39Z"/>
            <path class="cls-4" d="M30.85,78.37c0,.22-.18.39-.39.39s-.39-.18-.39-.39.18-.39.39-.39.39.18.39.39Z"/>
          </g>
        </g>
        <g>
          <path class="cls-4" d="M24.67,84.32c-.97-.81-2.8-.1-5.9,1.09-.31.12-.6.24-.83.35.14-.17.31-.39.47-.61,2.58-3.43,3.14-4.26,2.91-5.11-.04-.13-.15-.55-.52-.78-.44-.27-.99-.1-1.1-.06-1.2.38-1.6,2.31-2.26,5.56-.06.31-.12.6-.14.84-.08-.17-.17-.36-.27-.56-1.89-3.85-2.37-4.73-3.24-4.91-.14-.03-.56-.11-.93.11-.44.27-.54.84-.56.95-.21,1.24,1.33,2.47,3.93,4.54.07.05.14.11.2.16-.12,0-.24,0-.37,0-4.29.02-5.29.07-5.83.77-.08.11-.35.45-.31.88.05.52.52.85.61.92,1.03.73,2.8-.12,5.8-1.55.17-.08.33-.16.48-.24-.09.13-.18.26-.27.4-2.37,3.57-2.89,4.44-2.6,5.27.04.13.18.54.56.74.46.25,1,.04,1.1,0,1.18-.45,1.46-2.4,1.93-5.68.01-.1.03-.19.04-.28.03.07.07.13.1.2,1.94,3.82,2.43,4.7,3.3,4.87.14.03.56.11.92-.12.44-.28.53-.85.54-.96.19-1.25-1.36-2.45-3.99-4.49-.11-.09-.22-.17-.32-.24.23.03.51.05.81.08,4.27.32,5.28.36,5.87-.3.09-.1.38-.42.38-.85,0-.52-.45-.89-.54-.96Z"/>
          <circle class="cls-17" cx="17.57" cy="86.15" r="1.19"/>
        </g>
        <path class="cls-13" d="M70.31,69.06c-.26-.08-.52.03-.66.24l-4.24-1.28,3.88-.44c.09.19.28.31.5.29.27-.03.46-.27.43-.54-.03-.27-.27-.46-.54-.43-.22.02-.38.19-.42.39l-3.81.43,3.88-2.1c.18.18.46.23.7.1.29-.16.4-.53.24-.82-.16-.29-.53-.4-.82-.24-.24.13-.34.39-.3.64l-3.9,2.11,2.55-3.01c.19.08.42.04.56-.13.18-.21.15-.52-.06-.69-.21-.18-.52-.15-.69.06-.14.17-.15.4-.04.57l-2.56,3.03,1.31-4.29c.26,0,.49-.16.57-.42.1-.32-.08-.66-.4-.75s-.66.08-.75.4c-.08.26.03.52.24.67l-1.33,4.35-.31-4.01c.19-.08.32-.27.31-.49-.02-.27-.26-.47-.53-.45-.27.02-.47.26-.45.53.02.22.18.39.38.43l.31,3.93-1.91-4.08c.19-.17.26-.45.14-.69-.14-.3-.5-.43-.8-.29-.3.14-.43.5-.29.8.11.24.37.37.62.33l1.86,3.99-2.92-2.48c.08-.19.04-.42-.13-.56-.21-.18-.52-.15-.69.06s-.15.52.06.69c.17.14.4.15.57.04l3.1,2.62-4.46-1.36c0-.26-.16-.49-.42-.57-.32-.1-.66.08-.75.4-.1.32.08.66.4.75.26.08.52-.03.67-.24l4.36,1.33-3.91.3c-.08-.19-.27-.32-.49-.31-.27.02-.47.26-.45.53.02.27.26.47.53.45.22-.02.39-.18.43-.38l3.96-.31-4,2.19c-.19-.18-.46-.23-.7-.1-.29.16-.4.53-.24.82.16.29.53.4.82.24.24-.13.34-.39.29-.64l3.74-2.05-2.3,2.92c-.19-.07-.42-.02-.56.15-.17.21-.13.52.08.69.21.17.52.13.69-.08.14-.17.13-.4.02-.58l2.57-3.27-1.36,4.52c-.26,0-.49.16-.57.42-.1.32.08.66.4.75.32.1.66-.08.75-.4.08-.26-.03-.52-.24-.66l1.27-4.2.43,3.81c-.19.09-.31.28-.29.5.03.27.27.46.54.43.27-.03.46-.27.43-.54-.02-.22-.19-.38-.39-.42l-.42-3.64,1.76,3.81c-.19.17-.26.45-.14.69.14.3.5.43.8.29.3-.14.43-.5.29-.8-.11-.24-.37-.37-.62-.34l-1.89-4.07,3.13,2.46c-.07.19-.02.42.15.56.21.17.52.13.69-.08.17-.21.13-.52-.08-.69-.17-.14-.4-.13-.58-.02l-3.21-2.52,4.41,1.33c0,.26.16.49.42.57.32.1.66-.08.75-.4s-.08-.66-.4-.75Z"/>
        <path class="cls-13" d="M46.41,86.33c-.25-.08-.51.03-.65.24l-4.15-1.25,3.8-.43c.08.19.27.31.49.28.26-.03.45-.27.42-.53s-.27-.45-.53-.42c-.21.02-.37.19-.41.39l-3.73.43,3.79-2.06c.18.17.45.22.68.1.29-.16.39-.51.24-.8-.16-.29-.51-.39-.8-.24-.23.13-.34.38-.29.63l-3.81,2.07,2.5-2.95c.19.08.41.04.55-.13.17-.2.15-.51-.06-.68-.2-.17-.51-.15-.68.06-.14.16-.14.39-.04.56l-2.51,2.96,1.28-4.19c.25,0,.48-.16.56-.41.1-.31-.08-.64-.39-.74-.31-.1-.64.08-.74.39-.08.25.03.51.23.65l-1.3,4.26-.3-3.92c.19-.08.32-.26.3-.48-.02-.26-.25-.46-.52-.44-.26.02-.46.25-.44.52.02.21.17.38.37.42l.3,3.85-1.86-3.99c.18-.17.25-.44.14-.68-.14-.3-.49-.42-.78-.28-.3.14-.42.49-.28.78.11.24.36.36.61.33l1.82,3.9-2.86-2.42c.08-.19.04-.41-.13-.55-.2-.17-.51-.15-.68.06-.17.2-.15.51.06.68.16.14.39.14.56.04l3.03,2.57-4.37-1.33c0-.25-.16-.48-.41-.56-.31-.1-.64.08-.74.39s.08.64.39.74c.25.08.51-.03.65-.23l4.26,1.3-3.82.3c-.08-.19-.26-.32-.48-.3-.26.02-.46.25-.44.52s.25.46.52.44c.21-.02.38-.17.42-.37l3.88-.3-3.91,2.14c-.18-.17-.45-.22-.68-.1-.29.16-.39.52-.23.8.16.29.52.39.8.23.23-.13.34-.38.29-.63l3.66-2.01-2.25,2.86c-.19-.07-.41-.02-.54.15-.16.21-.13.51.08.68.21.16.51.13.68-.08.13-.17.13-.39.01-.56l2.52-3.2-1.33,4.42c-.25,0-.48.16-.56.41-.09.31.08.64.4.74.31.09.64-.08.74-.4.08-.25-.03-.51-.24-.65l1.24-4.11.42,3.72c-.19.08-.31.27-.28.49.03.26.27.45.53.42s.45-.27.42-.53c-.02-.21-.19-.37-.39-.41l-.41-3.56,1.73,3.73c-.18.17-.25.44-.14.68.14.3.49.42.78.29.3-.14.42-.49.29-.78-.11-.24-.36-.36-.61-.33l-1.84-3.99,3.06,2.41c-.07.19-.02.41.15.54.21.16.51.13.68-.08.16-.21.13-.51-.08-.68-.17-.13-.39-.13-.56-.01l-3.14-2.47,4.32,1.3c0,.25.16.48.41.56.31.09.64-.08.74-.4.09-.31-.08-.64-.4-.74Z"/>
        <g>
          <path class="cls-4" d="M96.29,77.15c-.87-.72-2.51-.09-5.28.97-.28.11-.54.21-.74.31.13-.16.27-.35.42-.55,2.3-3.07,2.81-3.81,2.6-4.57-.03-.12-.14-.49-.46-.69-.4-.24-.89-.09-.98-.06-1.08.34-1.43,2.06-2.02,4.98-.06.27-.1.53-.13.75-.07-.15-.15-.32-.24-.5-1.69-3.44-2.12-4.23-2.9-4.39-.12-.02-.5-.1-.83.1-.4.24-.48.75-.5.85-.18,1.11,1.19,2.21,3.52,4.06.06.05.12.1.18.14-.11,0-.22,0-.33,0-3.84.02-4.74.06-5.22.69-.08.1-.31.41-.27.79.05.46.47.76.55.82.92.65,2.51-.11,5.19-1.39.15-.07.3-.14.43-.21-.08.11-.16.23-.24.36-2.12,3.2-2.58,3.97-2.33,4.72.04.12.16.48.5.67.41.22.89.03.99,0,1.05-.4,1.3-2.14,1.73-5.09.01-.09.02-.17.03-.25.03.06.06.12.09.18,1.73,3.42,2.18,4.21,2.95,4.35.12.02.5.1.83-.11.39-.25.47-.76.49-.86.17-1.11-1.22-2.19-3.57-4.01-.1-.08-.19-.15-.29-.22.21.03.46.05.72.07,3.82.29,4.72.32,5.25-.27.08-.09.34-.38.34-.76,0-.47-.41-.8-.48-.86Z"/>
          <path class="cls-17" d="M91.01,78.79c0,.59-.48,1.06-1.06,1.06s-1.06-.48-1.06-1.06.48-1.06,1.06-1.06,1.06.48,1.06,1.06Z"/>
        </g>
      </g>
      <path class="cls-5" d="M75.32,98.69c-8.47,0-15.49,6.22-16.79,14.32-1.63-.78-3.78-1.49-6.38-1.6-2.69-.11-4.99.48-6.74,1.17-1.48-7.89-8.41-13.89-16.72-13.89-9.39,0-17.03,7.64-17.03,17.03s7.64,17.02,17.03,17.02,16.45-7.1,16.97-16.02c1.38-.73,3.59-1.57,6.33-1.44,2.68.11,4.76,1.08,6.04,1.86.11.07.23.13.35.17.81,8.64,8.1,15.42,16.94,15.42,9.39,0,17.03-7.64,17.03-17.02s-7.64-17.03-17.03-17.03ZM28.69,128.87c-7.25,0-13.15-5.9-13.15-13.15s5.9-13.15,13.15-13.15,13.15,5.9,13.15,13.15-5.9,13.15-13.15,13.15ZM75.32,128.87c-7.25,0-13.15-5.9-13.15-13.15s5.9-13.15,13.15-13.15,13.15,5.9,13.15,13.15-5.9,13.15-13.15,13.15Z"/>
    </g>
  </g>
</svg>